<svg id="Calque_4" data-name="Calque 4" xmlns="http://www.w3.org/2000/svg" viewBox="0 0 294.89362 294.89362">
  <title>social_btn_linkedin</title>
  <g>
    <circle cx="147.44681" cy="147.44681" r="147.44681" style="fill: #007ab5"/>
    <path d="M86.99046,119.59353h29.92642v96.13363H86.99046Zm14.968-47.77039a17.32562,17.32562,0,1,1-17.34774,17.312,17.32516,17.32516,0,0,1,17.34774-17.312" transform="translate(-2.59574 -3)" style="fill: #fff"/>
    <path d="M135.66742,119.59353h28.66319V132.7436h.39126c3.99726-7.5663,13.74291-15.52982,28.29578-15.52982,30.25447,0,35.83346,19.89687,35.83346,45.78786v52.72552H198.9903V168.98979c0-11.158-.2183-25.49377-15.531-25.49377-15.55487,0-17.92627,12.1433-17.92627,24.67905v47.55209H135.66742Z" transform="translate(-2.59574 -3)" style="fill: #fff"/>
  </g>
</svg>
