<svg id="Calque_3" data-name="Calque 3" xmlns="http://www.w3.org/2000/svg" viewBox="0 0 292.842 292.84199">
  <title>social_btn_youtube</title>
  <g>
    <circle cx="146.421" cy="146.421" r="146.421" style="fill: #fd3832"/>
    <path d="M88.4285,200.38746A17.91579,17.91579,0,0,1,76.603,188.90684c-5.11729-14.0773-6.63116-72.95345,3.22082-84.55384a19.09684,19.09684,0,0,1,12.86905-6.83609c26.55308-2.85716,108.62882-2.44967,118.08871.95831a18.50558,18.50558,0,0,1,11.61224,11.16921c5.59941,14.54875,5.79368,67.48434-.74154,81.50123a17.97671,17.97671,0,0,1-8.32626,8.40681C203.42551,204.748,101.45983,204.684,88.4285,200.38746Zm42.18334-27.59418c15.96667-8.28362,31.79594-16.49143,47.82658-24.8023-16.05433-8.37365-31.87886-16.6324-47.82658-24.95524Z" transform="translate(-3.158 -3.15611)" style="fill: #fff;fill-rule: evenodd"/>
  </g>
</svg>
