<svg id="Calque_1" data-name="Calque 1" xmlns="http://www.w3.org/2000/svg" viewBox="0 0 292.34043 292.34042">
  <title>social_btn_facebook</title>
  <g>
    <circle cx="146.17021" cy="146.17021" r="146.17021" style="fill: #1e4fad"/>
    <path d="M168.62965,95.53155c5.31548-.17738,10.62859-.039,15.95825-.04967h2.1936V67.8296c-2.84162-.28512-5.81332-.69651-8.785-.83842-5.45147-.24242-10.91239-.5144-16.37213-.38787-8.33448.175-16.21959,2.20542-23.109,7.14248-7.89931,5.68443-12.238,13.66178-13.88764,23.08773a80.72094,80.72094,0,0,0-.9614,11.86787c-.15373,6.2071-.03311,12.41066-.02128,18.62249v2.32367H97.18v30.89006h26.30893v77.6473h32.15064V160.66177H181.8598c1.34572-10.26922,2.65715-20.44122,4.036-31.03445-2.10727,0-4.00168-.00578-5.89491,0-7.45586.02969-24.57417,0-24.57417,0s.07332-15.31127.25661-21.95473C155.9411,98.57184,161.33936,95.79513,168.62965,95.53155Z" transform="translate(-3.65957 -3.6383)" style="fill: #fff;fill-rule: evenodd"/>
  </g>
</svg>
