<svg id="Calque_2" data-name="Calque 2" xmlns="http://www.w3.org/2000/svg" viewBox="0 0 292.08511 292.0851">
  <title>social_btn_twitter</title>
  <g>
    <circle cx="146.04255" cy="146.04255" r="146.04255" style="fill: #1ba5d4"/>
    <path d="M123.4116,193.70734c-17.84534-.62619-28.99632-13.4289-31.95006-23.8308a34.14984,34.14984,0,0,0,14.7191-.44307,3.47629,3.47629,0,0,0,.49386-.22684,34.28694,34.28694,0,0,1-22.30195-15.75422,33.36059,33.36059,0,0,1-5.03081-18.2611,33.83843,33.83843,0,0,0,15.28031,4.16242,34.50169,34.50169,0,0,1-14.1319-20.82862A34.00331,34.00331,0,0,1,84.17406,93.6534c18.59205,21.89788,42.12512,33.90544,70.82133,35.88208-.202-1.35872-.41234-2.55558-.55176-3.75952a34.27451,34.27451,0,0,1,28.30514-37.97215c11.54678-1.89512,21.62849,1.39876,30.06084,9.57013a1.73693,1.73693,0,0,0,1.8266.54585,69.193,69.193,0,0,0,19.97558-7.67855,4.24858,4.24858,0,0,1,.45369-.2363c.03072-.02481.08625-.01772.22921-.01772A35.139,35.139,0,0,1,220.591,108.6726a65.86514,65.86514,0,0,0,19.12017-5.14542c.05317.05553.0957.11224.13942.156-1.315,1.72144-2.58394,3.476-3.945,5.14778a67.22685,67.22685,0,0,1-12.48607,11.86224,1.16321,1.16321,0,0,0-.56476,1.0787,94.50508,94.50508,0,0,1-.64155,15.24959,100.99836,100.99836,0,0,1-8.84823,30.57243A98.82758,98.82758,0,0,1,194.80359,194.662a91.77149,91.77149,0,0,1-47.18665,26.29659,102.75935,102.75935,0,0,1-19.12845,2.27308A96.96613,96.96613,0,0,1,73.5394,208.48433c-.21385-.12406-.4277-.27883-.80578-.5234a69.42212,69.42212,0,0,0,34.34968-4.73544A68.068,68.068,0,0,0,123.4116,193.70734Z" transform="translate(-4 -4.40426)" style="fill: #fff;fill-rule: evenodd"/>
  </g>
</svg>
