<?xml version="1.0" encoding="iso-8859-1"?>
<!-- Generator: Adobe Illustrator 19.0.0, SVG Export Plug-In . SVG Version: 6.00 Build 0)  -->
<svg version="1.1" id="Layer_1" xmlns="http://www.w3.org/2000/svg" xmlns:xlink="http://www.w3.org/1999/xlink" x="0px" y="0px"
	 viewBox="0 0 512 512" style="enable-background:new 0 0 512 512;" xml:space="preserve">
<path style="fill:#8D6E63;" d="M382.455,55.594C347.853,19.745,302.944,0,256,0C157.617,0,77.576,80.041,77.576,178.424
	c0,12.853,10.42,23.273,23.273,23.273v263.758c-12.853,0-23.273,10.42-23.273,23.273S87.996,512,100.848,512h124.12
	c0.002,0,0.002,0,0.003,0c13.011,0,26.731-7.412,61.902-46.491c17.703-19.672,33.195-39.007,33.845-39.818
	c0.067-0.085,0.132-0.166,0.197-0.251c4.634-5.958,113.509-147.088,113.509-247.015C434.424,134.585,415.482,89.816,382.455,55.594z
	"/>
<g>
	<path style="fill:#6D4C41;" d="M256,0C157.617,0,77.576,80.041,77.576,178.424c0,12.853,10.42,23.273,23.273,23.273
		s23.273-10.42,23.273-23.273c0-72.718,59.161-131.879,131.879-131.879c75.48,0,131.879,69.626,131.879,131.879
		c0,69.615-74.704,181.079-103.61,218.321c-22.454,28.051-52.08,60.869-63.471,68.709H100.848c-12.853,0-23.273,10.42-23.273,23.273
		S87.996,512,100.848,512h124.12c0.002,0,0.002,0,0.003,0c13.011,0,26.731-7.412,61.902-46.491
		c17.703-19.672,33.195-39.007,33.843-39.818c0.067-0.085,0.132-0.166,0.197-0.251c4.636-5.958,113.51-147.088,113.51-247.015
		c0-43.84-18.942-88.609-51.97-122.83C347.853,19.745,302.944,0,256,0z"/>
	<path style="fill:#6D4C41;" d="M263.758,318.061c0-30.34-19.458-56.207-46.545-65.815v-73.821c0-21.388,17.4-38.788,38.788-38.788
		s38.788,17.4,38.788,38.788c0,12.853,10.42,23.273,23.273,23.273c12.853,0,23.273-10.42,23.273-23.273
		c0-47.053-38.281-85.333-85.333-85.333s-85.333,38.281-85.333,85.333v93.091c0,12.853,10.42,23.273,23.273,23.273
		c12.833,0,23.273,10.44,23.273,23.273c0,12.833-10.44,23.273-23.273,23.273c-12.853,0-23.273,10.42-23.273,23.273
		s10.42,23.273,23.273,23.273C232.437,387.879,263.758,356.558,263.758,318.061z"/>
</g>
<g>
</g>
<g>
</g>
<g>
</g>
<g>
</g>
<g>
</g>
<g>
</g>
<g>
</g>
<g>
</g>
<g>
</g>
<g>
</g>
<g>
</g>
<g>
</g>
<g>
</g>
<g>
</g>
<g>
</g>
</svg>
