<?xml version="1.0" encoding="utf-8"?>
<!-- Generator: Adobe Illustrator 24.0.0, SVG Export Plug-In . SVG Version: 6.00 Build 0)  -->
<svg version="1.1" id="Calque_1" xmlns="http://www.w3.org/2000/svg" xmlns:xlink="http://www.w3.org/1999/xlink" x="0px" y="0px"
	 viewBox="0 0 128 128" style="enable-background:new 0 0 128 128;" xml:space="preserve">
<style type="text/css">
	.st0{opacity:0.21;fill:#202045;}
	.st1{fill:url(#SVGID_1_);}
	.st2{fill:#1C5F2B;}
	.st3{fill:url(#SVGID_2_);}
	.st4{opacity:0.5;fill:#202045;}
	.st5{fill:#DD821F;}
	.st6{fill:#FFD85B;}
	.st7{fill:#F9BF32;}
	.st8{fill:#F1B42A;}
	.st9{fill:url(#SVGID_3_);}
	.st10{fill:url(#SVGID_4_);}
	.st11{opacity:0.6;fill:#2C2661;}
	.st12{fill:#2C2661;}
	.st13{fill:#464193;}
	.st14{opacity:0.96;fill:url(#SVGID_5_);}
	.st15{opacity:0.8;fill:#464193;}
	.st16{opacity:0.32;}
	.st17{opacity:0.3;fill:#202045;}
	.st18{fill:#F39208;}
	.st19{fill:#008E39;}
	.st20{fill:#202020;}
</style>
<path class="st0" d="M103.4,81.2c-1,12.2-21.4,20.6-45.7,18.6c-24.3-1.9-43.2-13.4-42.2-25.6c1-12.2,21.4-20.6,45.7-18.6
	C85.4,57.5,104.4,69,103.4,81.2z"/>
<radialGradient id="SVGID_1_" cx="95.3247" cy="99.796" r="73.6369" gradientTransform="matrix(0.9733 -3.550000e-02 3.570000e-02 0.9782 6.1334 16.0263)" gradientUnits="userSpaceOnUse">
	<stop  offset="0" style="stop-color:#679F37"/>
	<stop  offset="1" style="stop-color:#1C5F2B"/>
</radialGradient>
<path class="st1" d="M6.6,60c0.7-9.7,9.8-14.3,14.3-16.4c10.9-5.1,32.9-7.9,66.5,6.2C111.9,60,118,73.6,118.6,83.8
	c0.4,8,0,16.7-12.3,24.8c-11.2,7.4-32.5,8.8-48.1-9.6C38.3,75.5,5.1,80.6,6.6,60z"/>
<path class="st2" d="M12.1,55.2c0.6-4.1,5.4-7.8,9.8-9.6c10.6-4.5,36.3-11.9,67.9,2.6c23.1,10.6,28.5,23.9,28.6,33.6
	c0.1,7.6-4.2,14.7-11.1,18c-11.5,5.6-34.6,12.5-48.8-5.5C40.2,71.2,8.9,77.7,12.1,55.2z"/>
<linearGradient id="SVGID_2_" gradientUnits="userSpaceOnUse" x1="17.7938" y1="72.6972" x2="113.8206" y2="72.6972">
	<stop  offset="0" style="stop-color:#D84416"/>
	<stop  offset="0.1055" style="stop-color:#D94B1E"/>
	<stop  offset="0.2874" style="stop-color:#DF6031"/>
	<stop  offset="0.5236" style="stop-color:#E78056"/>
	<stop  offset="0.802" style="stop-color:#F2AA8F"/>
	<stop  offset="1" style="stop-color:#FACBBD"/>
</linearGradient>
<path class="st3" d="M82.8,102.7c-7.6,0-15.4-2.6-21.7-10.6C53.7,82.6,43,78,34.5,74.3C24.2,69.9,16.1,66.4,18.1,57
	c0.7-3.5,5.5-7.3,9.6-9.1c10.6-4.5,32.5-10.1,60.3,2.7c21,9.7,25.7,21.8,25.8,30.3c0.1,6.9-3.8,13.3-10,16.3
	C98.5,99.8,90.8,102.7,82.8,102.7z M18.3,57l0.2,0c-1.9,9.2,6.1,12.6,16.2,17c8.6,3.7,19.3,8.3,26.8,17.9c12.7,16.1,31.9,10,42.2,5
	c6.1-3,10-9.3,9.8-16c-0.2-8.4-4.7-20.4-25.6-30c-27.6-12.7-49.4-7.1-60-2.7c-4.1,1.7-8.7,5.5-9.4,8.8L18.3,57z"/>
<g>
	<polygon class="st4" points="66.7,87.9 20.2,58.7 39.1,46.8 68.6,67.4 82,84 	"/>
	<g>
		<ellipse transform="matrix(0.9439 -0.3303 0.3303 0.9439 -10.6074 19.2657)" class="st4" cx="51.4" cy="40.8" rx="9.1" ry="2.8"/>
		<g>
			<g>
				<g>
					<polygon class="st5" points="48,32.5 48,31 48.4,30.2 48.6,30.9 					"/>
				</g>
				<g>
					<path class="st6" d="M63.7,32.8l0.1-1.5c0,0-1.2,1.2-1.2,1.3C62.5,32.6,63.7,32.8,63.7,32.8z"/>
				</g>
				<g>
					<g>
						<path class="st6" d="M55.7,37.2c-4.3-0.1-7.8-2.3-7.7-6.2c0.1-3.8,3.7-6.9,8-6.8c4.3,0.1,7.8,3.3,7.7,7.1
							C63.7,35.2,60.1,37.3,55.7,37.2z"/>
					</g>
					<g>
						
							<ellipse transform="matrix(2.393431e-02 -0.9997 0.9997 2.393431e-02 21.7819 87.7427)" class="st6" cx="55.8" cy="32.7" rx="6.9" ry="7.9"/>
					</g>
					<g>
						<path class="st5" d="M50.3,27.7c-1.4,1.2-2.3,2.9-2.4,4.8c-0.1,3.8,3.4,7,7.7,7.1c2.1,0.1,4.1-0.7,5.6-1.9L50.3,27.7z"/>
					</g>
					<g>
						
							<ellipse transform="matrix(2.393598e-02 -0.9997 0.9997 2.393598e-02 21.7819 87.7426)" class="st7" cx="55.8" cy="32.7" rx="6.6" ry="7.5"/>
					</g>
					<g>
						
							<ellipse transform="matrix(2.395488e-02 -0.9997 0.9997 2.395488e-02 21.7808 87.742)" class="st8" cx="55.8" cy="32.7" rx="5.3" ry="6"/>
					</g>
					<g>
						<path class="st6" d="M61.9,32.9c0-0.1,0-0.2,0-0.4c-0.3,2.8-2.9,4.9-6.1,4.8c-3.2-0.1-5.8-2.3-5.9-5.1c0,0.1,0,0.2,0,0.4
							c-0.1,2.9,2.6,5.4,5.9,5.5C59,38.1,61.8,35.8,61.9,32.9z"/>
					</g>
					<g>
						<g>
							<path class="st6" d="M57,33.2L55.7,32c-1.2,0.3-3.4,0.8-5.2,1.2c0.4,1.3,1.5,2.4,2.9,3L57,33.2z"/>
						</g>
						<g>
							<path class="st6" d="M55,36.6c0.2,0,0.4,0,0.6,0c1.5,0,2.8-0.4,3.8-1.2l-2-1.9L55,36.6z"/>
						</g>
						<g>
							<path class="st6" d="M54.4,30.8l-2.3-2.2c-0.8,0.7-1.5,1.4-1.7,2.4L54.4,30.8z"/>
						</g>
					</g>
					<g>
						<path class="st5" d="M55.6,28c3.3,0.1,6,2.5,5.9,5.5c0,0.6-0.1,1.2-0.4,1.7c0.4-0.7,0.7-1.5,0.7-2.3c0.1-2.9-2.6-5.4-5.9-5.5
							c-2.7-0.1-4.9,1.4-5.8,3.5C51.2,29.1,53.3,28,55.6,28z"/>
					</g>
				</g>
				<g>
					<path class="st5" d="M48,31c0,0.6-0.1,1,0.1,1.5c0.2-0.6,0.5-2.2,0.5-2.2l0.6-1.3l0.5-0.4l0.8-0.6l0.1-1.9
						C49.1,27.2,48.1,29,48,31z"/>
				</g>
			</g>
			<g>
				<g>
					<path class="st5" d="M63.2,30.8l0-0.4c0-0.1,0-0.1,0.1-0.1l0,0c0.1,0,0.1,0,0.1,0.1l0,0.4c0,0.1,0,0.1-0.1,0.1l0,0
						C63.3,30.9,63.2,30.9,63.2,30.8z"/>
				</g>
				<g>
					<path class="st5" d="M62.6,29.3l0-0.7c0-0.1,0.1-0.1,0.1-0.1l0.1,0c0.1,0,0.1,0.1,0.1,0.1l0,0.7c0,0.1-0.1,0.1-0.1,0.1l-0.1,0
						C62.6,29.4,62.6,29.4,62.6,29.3z"/>
				</g>
				<g>
					<path class="st5" d="M61.6,28l0-0.7c0-0.1,0.1-0.1,0.1-0.1l0.1,0c0.1,0,0.1,0.1,0.1,0.1l0,0.7c0,0.1-0.1,0.1-0.1,0.1l-0.1,0
						C61.6,28.1,61.6,28.1,61.6,28z"/>
				</g>
				<g>
					<path class="st5" d="M60.2,26.9l0-0.8c0-0.1,0.1-0.1,0.1-0.1l0.1,0c0.1,0,0.1,0.1,0.1,0.1l0,0.8c0,0.1-0.1,0.1-0.1,0.1l-0.1,0
						C60.2,27.1,60.2,27,60.2,26.9z"/>
				</g>
				<g>
					<path class="st5" d="M58.7,26.2l0-1c0-0.1,0.1-0.1,0.1-0.1l0.1,0c0.1,0,0.1,0.1,0.1,0.1l0,1c0,0.1-0.1,0.1-0.1,0.1l-0.1,0
						C58.8,26.4,58.7,26.3,58.7,26.2z"/>
				</g>
				<g>
					<path class="st5" d="M57.3,25.8l0-0.9c0-0.1,0.1-0.1,0.1-0.1l0.1,0c0.1,0,0.1,0.1,0.1,0.1l0,0.9c0,0.1-0.1,0.1-0.1,0.1l-0.1,0
						C57.3,25.9,57.3,25.9,57.3,25.8z"/>
				</g>
				<g>
					<path class="st5" d="M55.8,25.7l0-0.9c0-0.1,0.1-0.1,0.1-0.1l0.1,0c0.1,0,0.1,0.1,0.1,0.1l0,0.9c0,0.1-0.1,0.1-0.1,0.1l-0.1,0
						C55.9,25.8,55.8,25.7,55.8,25.7z"/>
				</g>
				<g>
					<path class="st5" d="M54.3,25.7l0-0.9c0-0.1,0.1-0.1,0.1-0.1l0.1,0c0.1,0,0.1,0.1,0.1,0.1l0,0.9c0,0.1-0.1,0.1-0.1,0.1l-0.1,0
						C54.4,25.8,54.3,25.8,54.3,25.7z"/>
				</g>
				<g>
					<path class="st5" d="M52.9,26l0-0.9c0-0.1,0.1-0.1,0.1-0.1l0.1,0c0.1,0,0.1,0.1,0.1,0.1l0,0.9c0,0.1-0.1,0.1-0.1,0.1l-0.1,0
						C52.9,26.1,52.9,26.1,52.9,26z"/>
				</g>
				<g>
					<path class="st5" d="M51.4,26.7l0-0.9c0-0.1,0.1-0.1,0.1-0.1l0.1,0c0.1,0,0.1,0.1,0.1,0.1l0,0.9c0,0.1-0.1,0.1-0.1,0.1l-0.1,0
						C51.5,26.9,51.4,26.8,51.4,26.7z"/>
				</g>
			</g>
		</g>
	</g>
	<g>
		<g>
			<g>
				
					<linearGradient id="SVGID_3_" gradientUnits="userSpaceOnUse" x1="629.5984" y1="863.6248" x2="647.4663" y2="831.4511" gradientTransform="matrix(0.5023 -0.8647 -0.8647 -0.5023 495.0162 1058.8811)">
					<stop  offset="0" style="stop-color:#515DA7"/>
					<stop  offset="3.580305e-02" style="stop-color:#5561A9"/>
					<stop  offset="7.801844e-02" style="stop-color:#626BB0"/>
					<stop  offset="0.1235" style="stop-color:#777CBB"/>
					<stop  offset="0.1712" style="stop-color:#9496CA"/>
					<stop  offset="0.2203" style="stop-color:#B9B9DE"/>
					<stop  offset="0.2237" style="stop-color:#BCBCDF"/>
				</linearGradient>
				<path class="st9" d="M105.9,69.9l0,3.1l0,0c0,0,0,0.1-0.1,0.1L72,92.5c-0.1,0.1-0.3,0.1-0.4,0L66,89.3c-0.1,0-0.1-0.1-0.1-0.1
					l0,0v0c0,0,0,0,0,0l0-3.1l2.7,1.5l31.2-17.9c0.1-0.1,0.3-0.1,0.4,0l1.9,1.1L105.9,69.9z"/>
				
					<linearGradient id="SVGID_4_" gradientUnits="userSpaceOnUse" x1="651.5494" y1="863.7399" x2="639.6559" y2="840.4894" gradientTransform="matrix(0.5023 -0.8647 -0.8647 -0.5023 495.0162 1058.8811)">
					<stop  offset="0" style="stop-color:#C1BEE0"/>
					<stop  offset="0.276" style="stop-color:#C5C2E3"/>
					<stop  offset="0.6014" style="stop-color:#D1CFE9"/>
					<stop  offset="0.9504" style="stop-color:#E6E5F4"/>
					<stop  offset="1" style="stop-color:#E9E8F5"/>
				</linearGradient>
				<path class="st10" d="M99.8,66.5L66,85.9c-0.1,0.1-0.1,0.2,0,0.2l5.5,3.2c0.1,0.1,0.3,0.1,0.4,0L105.8,70c0.1-0.1,0.1-0.2,0-0.2
					l-5.5-3.2C100.1,66.5,100,66.5,99.8,66.5z"/>
				<path class="st11" d="M98.6,71.2L72,86.2c-0.2-1.1-0.5-2.1-0.9-3.2l26.5-15.2C98.1,68.9,98.4,70.1,98.6,71.2z"/>
				<path class="st12" d="M101,68.3L69.1,86.6c-0.1,0-0.1,0.1,0,0.2l1.4,0.8c0.1,0.1,0.2,0.1,0.3,0l31.9-18.3c0.1,0,0.1-0.1,0-0.2
					l-1.4-0.8C101.2,68.3,101.1,68.3,101,68.3z"/>
				<path class="st13" d="M102.7,69.3l-0.6,0.4l-0.7-0.4c-0.1-0.1-0.2-0.1-0.3,0L69.8,87.2l-0.6-0.4c-0.1-0.1-0.1-0.1,0-0.2
					L101,68.3c0.1,0,0.2,0,0.3,0l1.4,0.8C102.8,69.2,102.8,69.3,102.7,69.3z"/>
			</g>
			
				<linearGradient id="SVGID_5_" gradientUnits="userSpaceOnUse" x1="668.8656" y1="912.7292" x2="631.5978" y2="846.694" gradientTransform="matrix(0.5023 -0.8647 -0.8647 -0.5023 495.0162 1058.8811)">
				<stop  offset="0" style="stop-color:#C1BEE0"/>
				<stop  offset="0.107" style="stop-color:#CECDE8"/>
				<stop  offset="0.2627" style="stop-color:#E9E8F5"/>
				<stop  offset="0.5143" style="stop-color:#C1BEE0"/>
				<stop  offset="0.6123" style="stop-color:#CECDE8"/>
				<stop  offset="0.755" style="stop-color:#E9E8F5"/>
				<stop  offset="1" style="stop-color:#C1BEE0"/>
			</linearGradient>
			<path class="st14" d="M20.6,36.8l26.5-15.2v0c0,4.8,3.3,10.5,7.4,12.9l36.6,21.2c4.8,2.8,8.7,9.6,8.7,15.2l0,0L73.3,86.2l0,0
				c0-5.6-3.9-12.4-8.7-15.2L28,49.7C23.9,47.3,20.6,41.5,20.6,36.8L20.6,36.8z"/>
			<path class="st15" d="M99.9,70.9L73.3,86.2c0-0.2,0-0.5,0-0.7l0,0l26.5-15.2C99.8,70.4,99.9,70.7,99.9,70.9z"/>
		</g>
		<g class="st16">
			<polygon class="st13" points="61.4,59.5 55.4,63 56,63.3 62,59.9 			"/>
			<polygon class="st13" points="64.5,57.8 62.4,59 62.9,59.3 65.1,58.1 			"/>
			<polygon class="st13" points="66.9,56.4 65.4,57.2 66,57.6 67.5,56.7 			"/>
			<polygon class="st13" points="57.4,60.3 54.1,62.2 54.7,62.5 58,60.7 			"/>
			<polygon class="st13" points="62.3,57.5 58.3,59.8 58.9,60.1 62.9,57.8 			"/>
			<polygon class="st13" points="64.7,56.1 63.2,57 63.8,57.3 65.3,56.5 			"/>
			<polygon class="st13" points="67,54.8 65.5,55.7 66.1,56 67.5,55.2 			"/>
			<polygon class="st13" points="55.2,60.1 52.8,61.4 53.4,61.8 55.7,60.4 			"/>
			<polygon class="st13" points="56.9,59.1 56.1,59.6 56.6,59.9 57.5,59.4 			"/>
			<polygon class="st13" points="59.3,57.7 57.8,58.6 58.4,58.9 59.8,58.1 			"/>
			<polygon class="st13" points="60.2,55.7 51.5,60.7 52,61 60.8,56 			"/>
			<polygon class="st13" points="63.3,53.9 61.1,55.1 61.7,55.5 63.9,54.2 			"/>
			<polygon class="st13" points="52.5,58.5 50.1,59.9 50.7,60.2 53.1,58.9 			"/>
			<polygon class="st13" points="58.1,55.4 53.4,58 54,58.4 58.6,55.7 			"/>
			<polygon class="st13" points="60.5,54 59,54.8 59.6,55.2 61,54.3 			"/>
			<polygon class="st13" points="53.7,56.4 48.8,59.1 49.4,59.5 54.2,56.7 			"/>
			<polygon class="st13" points="58.1,53.8 54.6,55.8 55.2,56.2 58.7,54.2 			"/>
			<polygon class="st13" points="61.4,51.9 59,53.3 59.6,53.6 62,52.3 			"/>
			<polygon class="st13" points="49.1,57.4 47.5,58.4 48.1,58.7 49.7,57.8 			"/>
			<polygon class="st13" points="52.2,55.7 50.1,56.9 50.6,57.2 52.8,56 			"/>
			<polygon class="st13" points="56.6,53.1 53.1,55.1 53.7,55.5 57.2,53.5 			"/>
			<polygon class="st13" points="51.2,54.7 46.2,57.6 46.8,57.9 51.8,55.1 			"/>
			<polygon class="st13" points="56.8,51.5 52.1,54.2 52.7,54.5 57.4,51.8 			"/>
			<polygon class="st13" points="59.2,50.1 57.7,51 58.3,51.3 59.8,50.5 			"/>
			<polygon class="st13" points="61.5,48.8 60,49.7 60.6,50 62.1,49.1 			"/>
			<polygon class="st13" points="47.9,55.1 44.9,56.8 45.4,57.2 48.4,55.4 			"/>
			<polygon class="st13" points="73.6,52.5 77.8,50.1 78.4,50.5 74.2,52.9 			"/>
			<polygon class="st13" points="73.2,51.2 76.5,49.4 77,49.7 73.8,51.6 			"/>
			<polygon class="st13" points="72.8,50 75.1,48.6 75.7,48.9 73.4,50.3 			"/>
			<polygon class="st13" points="70.4,49.8 73.8,47.8 74.4,48.2 71,50.1 			"/>
			<polygon class="st13" points="70.1,48.4 72.5,47.1 73.1,47.4 70.7,48.8 			"/>
			<polygon class="st13" points="68.2,48 71.2,46.3 71.8,46.6 68.8,48.4 			"/>
			<polygon class="st13" points="68.2,46.5 69.9,45.5 70.4,45.9 68.8,46.8 			"/>
			<polygon class="st13" points="65.4,46.6 68.5,44.8 69.1,45.1 66,46.9 			"/>
			<polygon class="st13" points="64.2,45.7 67.2,44 67.8,44.3 64.8,46.1 			"/>
			<polygon class="st13" points="50.1,53.8 48.8,54.6 49.4,54.9 50.6,54.2 			"/>
			<polygon class="st13" points="53.9,51.7 51,53.3 51.6,53.7 54.4,52 			"/>
			<polygon class="st13" points="50.3,45.8 45.4,48.6 46,48.9 50.8,46.1 			"/>
			<polygon class="st13" points="53.6,43.9 51.7,45 52.3,45.3 54.2,44.2 			"/>
		</g>
	</g>
	<g>
		
			<ellipse transform="matrix(0.9439 -0.3303 0.3303 0.9439 -15.4127 25.4705)" class="st17" cx="67.2" cy="58.1" rx="11.7" ry="3.6"/>
		<g>
			<g>
				<g>
					<polygon class="st5" points="62.8,47.4 62.9,45.4 63.4,44.3 63.6,45.3 					"/>
				</g>
				<g>
					<path class="st6" d="M83.1,47.7l0.1-1.9c0,0-1.6,1.6-1.6,1.6C81.6,47.5,83.1,47.7,83.1,47.7z"/>
				</g>
				<g>
					<g>
						<path class="st6" d="M72.8,53.4c-5.6-0.1-10-3-9.9-7.9c0.1-4.9,4.7-8.8,10.3-8.7c5.6,0.1,10,4.2,9.9,9.2
							C83,50.9,78.4,53.5,72.8,53.4z"/>
					</g>
					<g>
						
							<ellipse transform="matrix(2.394189e-02 -0.9997 0.9997 2.394189e-02 23.6012 119.4169)" class="st6" cx="73" cy="47.6" rx="8.9" ry="10.1"/>
					</g>
					<g>
						<path class="st5" d="M65.9,41.2c-1.8,1.6-3,3.8-3.1,6.2c-0.1,4.9,4.3,9.1,9.9,9.2c2.8,0.1,5.3-0.9,7.2-2.4L65.9,41.2z"/>
					</g>
					<g>
						
							<ellipse transform="matrix(2.393340e-02 -0.9997 0.9997 2.393340e-02 23.6019 119.4174)" class="st7" cx="73" cy="47.6" rx="8.5" ry="9.7"/>
					</g>
					<g>
						
							<ellipse transform="matrix(2.394100e-02 -0.9997 0.9997 2.394100e-02 23.6013 119.417)" class="st8" cx="73" cy="47.6" rx="6.9" ry="7.8"/>
					</g>
					<g>
						<path class="st6" d="M80.7,47.8c0-0.2,0-0.3,0-0.5c-0.4,3.6-3.8,6.3-7.9,6.2c-4.1-0.1-7.4-3-7.6-6.6c0,0.2,0,0.3,0,0.5
							c-0.1,3.8,3.3,6.9,7.6,7C77.1,54.6,80.6,51.6,80.7,47.8z"/>
					</g>
					<g>
						<g>
							<path class="st6" d="M74.4,48.2l-1.6-1.5c-1.5,0.3-4.4,1-6.7,1.5c0.6,1.7,2,3.1,3.8,3.9L74.4,48.2z"/>
						</g>
						<g>
							<path class="st6" d="M71.9,52.7c0.3,0,0.5,0.1,0.8,0.1c1.9,0,3.6-0.6,4.9-1.6L75,48.7L71.9,52.7z"/>
						</g>
						<g>
							<path class="st6" d="M71.1,45.1l-3-2.8c-1,0.9-1.9,1.9-2.2,3.2L71.1,45.1z"/>
						</g>
					</g>
					<g>
						<path class="st5" d="M72.7,41.6c4.3,0.1,7.7,3.3,7.6,7c0,0.8-0.2,1.5-0.5,2.2c0.5-0.9,0.8-1.9,0.9-3c0.1-3.8-3.3-6.9-7.6-7
							c-3.4-0.1-6.4,1.8-7.5,4.5C67,43,69.7,41.5,72.7,41.6z"/>
					</g>
				</g>
				<g>
					<path class="st5" d="M62.9,45.4c0,0.7-0.1,1.3,0.1,2c0.2-0.7,0.7-2.9,0.7-2.9l0.8-1.7l0.6-0.5l1.1-0.8l0.1-2.5
						C64.3,40.6,63,42.9,62.9,45.4z"/>
				</g>
			</g>
			<g>
				<g>
					<path class="st5" d="M82.5,45.2l0-0.5c0-0.1,0.1-0.1,0.1-0.1l0,0c0.1,0,0.1,0.1,0.1,0.1l0,0.5c0,0.1-0.1,0.1-0.1,0.1l0,0
						C82.6,45.3,82.5,45.3,82.5,45.2z"/>
				</g>
				<g>
					<path class="st5" d="M81.6,43.2l0.1-0.9c0-0.1,0.1-0.1,0.1-0.1l0.1,0c0.1,0,0.1,0.1,0.1,0.2L82,43.3c0,0.1-0.1,0.1-0.1,0.1
						l-0.1,0C81.7,43.4,81.6,43.3,81.6,43.2z"/>
				</g>
				<g>
					<path class="st5" d="M80.4,41.5l0.1-0.9c0-0.1,0.1-0.2,0.2-0.2l0.2,0c0.1,0,0.2,0.1,0.2,0.2l-0.1,0.9c0,0.1-0.1,0.2-0.2,0.2
						l-0.2,0C80.5,41.7,80.4,41.6,80.4,41.5z"/>
				</g>
				<g>
					<path class="st5" d="M78.5,40.2l0.1-1.1c0-0.1,0.1-0.2,0.2-0.2l0.2,0c0.1,0,0.2,0.1,0.2,0.2L79,40.2c0,0.1-0.1,0.2-0.2,0.2
						l-0.2,0C78.6,40.3,78.5,40.3,78.5,40.2z"/>
				</g>
				<g>
					<path class="st5" d="M76.7,39.3l0.1-1.2c0-0.1,0.1-0.2,0.2-0.2l0.2,0c0.1,0,0.2,0.1,0.2,0.2l-0.1,1.2c0,0.1-0.1,0.2-0.2,0.2
						l-0.2,0C76.7,39.4,76.7,39.4,76.7,39.3z"/>
				</g>
				<g>
					<path class="st5" d="M74.8,38.7l0.1-1.2c0-0.1,0.1-0.2,0.2-0.2l0.2,0c0.1,0,0.2,0.1,0.2,0.2l-0.1,1.2c0,0.1-0.1,0.2-0.2,0.2
						l-0.2,0C74.9,38.9,74.8,38.8,74.8,38.7z"/>
				</g>
				<g>
					<path class="st5" d="M72.9,38.5l0.1-1.2c0-0.1,0.1-0.2,0.2-0.2l0.2,0c0.1,0,0.2,0.1,0.2,0.2l-0.1,1.2c0,0.1-0.1,0.2-0.2,0.2
						l-0.2,0C73,38.7,72.9,38.6,72.9,38.5z"/>
				</g>
				<g>
					<path class="st5" d="M71.1,38.6l0.1-1.1c0-0.1,0.1-0.2,0.2-0.2l0.2,0c0.1,0,0.2,0.1,0.2,0.2l-0.1,1.1c0,0.1-0.1,0.2-0.2,0.2
						l-0.2,0C71.1,38.7,71.1,38.7,71.1,38.6z"/>
				</g>
				<g>
					<path class="st5" d="M69.2,39l0.1-1.1c0-0.1,0.1-0.2,0.2-0.2l0.2,0c0.1,0,0.2,0.1,0.2,0.2L69.6,39c0,0.1-0.1,0.2-0.2,0.2
						l-0.2,0C69.2,39.2,69.2,39.1,69.2,39z"/>
				</g>
				<g>
					<path class="st5" d="M67.3,39.9l0.1-1.2c0-0.1,0.1-0.2,0.2-0.2l0.2,0c0.1,0,0.2,0.1,0.2,0.2l-0.1,1.2c0,0.1-0.1,0.2-0.2,0.2
						l-0.2,0C67.3,40.1,67.3,40,67.3,39.9z"/>
				</g>
			</g>
		</g>
	</g>
	<g>
		<path class="st4" d="M42.1,79.1c0.6,1.6-3.3,4.5-8.7,6.4c-5.4,1.9-10.2,2.1-10.8,0.4c-0.6-1.6,3.3-4.5,8.7-6.4
			C36.7,77.6,41.5,77.5,42.1,79.1z"/>
		<g>
			<g>
				<g>
					<polygon class="st5" points="28.5,73.1 28.5,71.4 28.9,70.4 29.2,71.2 					"/>
				</g>
				<g>
					<path class="st6" d="M46.3,73.4l0.1-1.7c0,0-1.4,1.4-1.4,1.4C44.9,73.2,46.3,73.4,46.3,73.4z"/>
				</g>
				<g>
					<g>
						<path class="st6" d="M37.3,78.4c-4.9-0.1-8.8-2.6-8.7-7c0.1-4.3,4.2-7.8,9.1-7.6c4.9,0.1,8.8,3.7,8.7,8.1
							C46.2,76.2,42.2,78.5,37.3,78.4z"/>
					</g>
					<g>
						
							<ellipse transform="matrix(2.393582e-02 -0.9997 0.9997 2.393582e-02 -36.827 108.9306)" class="st6" cx="37.4" cy="73.3" rx="7.9" ry="8.9"/>
					</g>
					<g>
						<path class="st5" d="M31.2,67.7c-1.6,1.4-2.6,3.3-2.7,5.4c-0.1,4.3,3.8,7.9,8.7,8.1c2.4,0.1,4.7-0.8,6.3-2.1L31.2,67.7z"/>
					</g>
					<g>
						
							<ellipse transform="matrix(2.394388e-02 -0.9997 0.9997 2.394388e-02 -36.8273 108.93)" class="st7" cx="37.4" cy="73.3" rx="7.5" ry="8.5"/>
					</g>
					<g>
						
							<ellipse transform="matrix(2.393244e-02 -0.9997 0.9997 2.393244e-02 -36.8269 108.9308)" class="st8" cx="37.4" cy="73.3" rx="6" ry="6.8"/>
					</g>
					<g>
						<path class="st6" d="M44.2,73.5c0-0.1,0-0.3,0-0.4c-0.3,3.1-3.3,5.5-6.9,5.4c-3.6-0.1-6.5-2.6-6.7-5.8c0,0.1,0,0.3,0,0.4
							c-0.1,3.3,2.9,6.1,6.7,6.2C41,79.4,44.1,76.8,44.2,73.5z"/>
					</g>
					<g>
						<g>
							<path class="st6" d="M38.7,73.8l-1.4-1.3c-1.3,0.3-3.9,0.9-5.9,1.3c0.5,1.5,1.7,2.7,3.3,3.4L38.7,73.8z"/>
						</g>
						<g>
							<path class="st6" d="M36.5,77.7c0.2,0,0.4,0,0.7,0.1c1.6,0,3.2-0.5,4.3-1.4l-2.3-2.1L36.5,77.7z"/>
						</g>
						<g>
							<path class="st6" d="M35.8,71.1l-2.6-2.4c-0.9,0.8-1.7,1.6-1.9,2.8L35.8,71.1z"/>
						</g>
					</g>
					<g>
						<path class="st5" d="M37.2,68c3.8,0.1,6.8,2.9,6.7,6.2c0,0.7-0.2,1.3-0.4,1.9c0.5-0.8,0.7-1.7,0.8-2.6
							c0.1-3.3-2.9-6.1-6.7-6.2c-3-0.1-5.6,1.6-6.6,3.9C32.1,69.3,34.5,68,37.2,68z"/>
					</g>
				</g>
				<g>
					<path class="st5" d="M28.5,71.4c0,0.6-0.1,1.1,0.1,1.7c0.2-0.6,0.6-2.5,0.6-2.5l0.7-1.5l0.6-0.5l1-0.7l0.1-2.2
						C29.7,67.1,28.6,69.1,28.5,71.4z"/>
				</g>
			</g>
			<g>
				<g>
					<path class="st5" d="M45.8,71.2l0-0.4c0-0.1,0.1-0.1,0.1-0.1l0,0c0.1,0,0.1,0.1,0.1,0.1l0,0.4c0,0.1-0.1,0.1-0.1,0.1l0,0
						C45.8,71.3,45.8,71.3,45.8,71.2z"/>
				</g>
				<g>
					<path class="st5" d="M45,69.5l0-0.8c0-0.1,0.1-0.1,0.1-0.1l0.1,0c0.1,0,0.1,0.1,0.1,0.1l0,0.8c0,0.1-0.1,0.1-0.1,0.1l-0.1,0
						C45,69.6,45,69.6,45,69.5z"/>
				</g>
				<g>
					<path class="st5" d="M43.9,68l0-0.8c0-0.1,0.1-0.1,0.1-0.1l0.1,0c0.1,0,0.1,0.1,0.1,0.2l0,0.8c0,0.1-0.1,0.1-0.1,0.1l-0.1,0
						C44,68.1,43.9,68.1,43.9,68z"/>
				</g>
				<g>
					<path class="st5" d="M42.3,66.8l0-0.9c0-0.1,0.1-0.1,0.1-0.1l0.1,0c0.1,0,0.1,0.1,0.1,0.2l0,0.9c0,0.1-0.1,0.1-0.1,0.1l-0.1,0
						C42.3,66.9,42.3,66.9,42.3,66.8z"/>
				</g>
				<g>
					<path class="st5" d="M40.6,66l0.1-1.1c0-0.1,0.1-0.1,0.1-0.1l0.1,0c0.1,0,0.1,0.1,0.1,0.2L41.1,66c0,0.1-0.1,0.1-0.1,0.1
						l-0.1,0C40.7,66.1,40.6,66.1,40.6,66z"/>
				</g>
				<g>
					<path class="st5" d="M39,65.5l0.1-1c0-0.1,0.1-0.1,0.1-0.1l0.1,0c0.1,0,0.1,0.1,0.1,0.2l-0.1,1c0,0.1-0.1,0.1-0.1,0.1l-0.1,0
						C39.1,65.7,39,65.6,39,65.5z"/>
				</g>
				<g>
					<path class="st5" d="M37.4,65.3l0.1-1.1c0-0.1,0.1-0.1,0.1-0.1l0.1,0c0.1,0,0.1,0.1,0.1,0.2l-0.1,1.1c0,0.1-0.1,0.1-0.1,0.1
						l-0.1,0C37.4,65.5,37.4,65.4,37.4,65.3z"/>
				</g>
				<g>
					<path class="st5" d="M35.7,65.4l0.1-1c0-0.1,0.1-0.1,0.1-0.1l0.1,0c0.1,0,0.1,0.1,0.1,0.2l-0.1,1c0,0.1-0.1,0.1-0.1,0.1l-0.1,0
						C35.8,65.5,35.7,65.5,35.7,65.4z"/>
				</g>
				<g>
					<path class="st5" d="M34,65.7l0-1c0-0.1,0.1-0.1,0.1-0.1l0.1,0c0.1,0,0.1,0.1,0.1,0.2l0,1c0,0.1-0.1,0.1-0.1,0.1l-0.1,0
						C34.1,65.9,34,65.8,34,65.7z"/>
				</g>
				<g>
					<path class="st5" d="M32.4,66.6l0.1-1c0-0.1,0.1-0.1,0.1-0.1l0.1,0c0.1,0,0.1,0.1,0.1,0.2l-0.1,1c0,0.1-0.1,0.1-0.1,0.1l-0.1,0
						C32.4,66.7,32.4,66.6,32.4,66.6z"/>
				</g>
			</g>
		</g>
	</g>
</g>
<g>
	<g>
		<path class="st18" d="M44.3,35C44.3,35,44.3,35,44.3,35c-0.1,0-0.1,0-0.2,0c-0.1,0.1-0.2,0.1-0.3,0.2c0,0-0.1,0.1-0.1,0.1
			c-0.1,0.1-0.1,0.2-0.1,0.4c0,0,0,0,0,0c0.5,0.7,0.9,1.4,1.4,2.1c0,0,0,0.1,0.1,0.1c0.1,0.1,0,0.3-0.1,0.4c-0.1,0-0.1,0.1-0.2,0.1
			c-0.1,0.1-0.3,0-0.4-0.1c0,0,0-0.1-0.1-0.1c-1.1-1.8-2.3-3.6-3.4-5.4c-0.1-0.2-0.2-0.3-0.3-0.5c-0.1-0.1-0.1-0.3,0.1-0.4
			c0,0,0,0,0.1-0.1c0.1,0,0.1-0.1,0.2-0.1c0.1,0,0.3,0,0.3,0.2c0.5,0.7,0.9,1.5,1.4,2.2c0,0,0,0,0,0.1c0,0.1,0.1,0.1,0.2,0.1
			c0.1,0,0.1,0,0.2-0.1c0.1-0.1,0.2-0.1,0.3-0.2c0,0,0,0,0,0c0,0,0-0.1,0-0.1c0,0,0,0,0-0.1c-0.5-0.8-1-1.6-1.5-2.4
			c-0.1-0.1-0.1-0.2-0.2-0.3c-0.1-0.1-0.2-0.1-0.3-0.2c-0.3-0.1-0.6,0-0.9,0.1c0,0-0.1,0-0.1,0.1l-0.1,0.1c0,0-0.1,0.1-0.1,0.1
			c-0.2,0.1-0.3,0.3-0.4,0.6c-0.1,0.2-0.1,0.4,0,0.6c0,0.1,0.1,0.2,0.1,0.3c1.3,2,2.5,3.9,3.8,5.9c0,0,0,0,0,0.1
			c0.1,0.2,0.4,0.4,0.6,0.4c0.2,0,0.4,0,0.6,0c0.2-0.1,0.4-0.2,0.5-0.3c0.1-0.1,0.3-0.2,0.3-0.4c0.1-0.1,0.2-0.3,0.2-0.5
			c0-0.2,0-0.5-0.2-0.7C45.4,36.7,44.9,35.9,44.3,35C44.3,35.1,44.3,35.1,44.3,35z"/>
		<path class="st18" d="M37.1,33.5c-0.1,0.1-0.3,0.2-0.4,0.2c-0.1,0.1-0.2,0.3-0.1,0.4c0,0,0,0,0,0c0.1,0.1,0.1,0.2,0.2,0.3
			c0.1,0.1,0.2,0.3,0.3,0.4l0.3,0.4l0.3,0.4l0.3,0.4c0.1,0.1,0.2,0.3,0.3,0.4c0.1,0.1,0.2,0.3,0.3,0.4c0.1,0.1,0.2,0.3,0.3,0.4
			c0.1,0.1,0.2,0.3,0.3,0.4c0.1,0.1,0.2,0.3,0.3,0.4c0.1,0.1,0.1,0.2,0.2,0.3c0,0,0,0,0,0c0,0,0,0-0.1,0c-0.2-0.2-0.4-0.4-0.6-0.7
			c-0.1-0.2-0.3-0.3-0.4-0.5c-0.1-0.2-0.3-0.3-0.4-0.5c-0.1-0.1-0.2-0.2-0.3-0.4c-0.1-0.2-0.3-0.3-0.4-0.5c-0.1-0.2-0.3-0.3-0.4-0.4
			c-0.1-0.1-0.2-0.2-0.3-0.3c-0.2-0.2-0.4-0.4-0.5-0.6c-0.1-0.1-0.3-0.2-0.4-0.1c-0.1,0.1-0.2,0.1-0.3,0.2c0,0,0,0-0.1,0
			c0,0,0,0.1,0,0.1c0,0,0,0.1,0.1,0.1c1.5,2.4,3.1,4.8,4.6,7.2c0,0,0,0,0,0.1c0,0.1,0.1,0.1,0.1,0c0.1,0,0.1-0.1,0.2-0.1
			c0.1-0.1,0.2-0.1,0.3-0.2c0.1-0.1,0.1-0.2,0.1-0.3c0,0,0-0.1,0-0.1c-0.1-0.1-0.2-0.3-0.3-0.4c-0.1-0.1-0.2-0.2-0.3-0.4
			c-0.1-0.1-0.2-0.3-0.3-0.4c-0.1-0.1-0.2-0.2-0.2-0.4c-0.1-0.2-0.3-0.4-0.4-0.6c-0.1-0.1-0.2-0.3-0.3-0.4l-0.3-0.4
			c-0.1-0.1-0.2-0.3-0.3-0.4c-0.1-0.2-0.2-0.4-0.4-0.5c-0.1-0.1-0.1-0.2-0.2-0.3c0,0,0,0,0-0.1l0,0c0,0,0,0,0,0
			c0.1,0.1,0.2,0.2,0.3,0.3c0.1,0.1,0.1,0.1,0.2,0.2c0.1,0.1,0.3,0.3,0.4,0.4c0.1,0.2,0.3,0.3,0.4,0.5c0.1,0.1,0.2,0.2,0.3,0.4
			c0.1,0.2,0.3,0.3,0.4,0.5c0.1,0.1,0.3,0.3,0.4,0.4c0.1,0.2,0.3,0.3,0.4,0.5c0.2,0.2,0.3,0.4,0.5,0.6c0.1,0.1,0.1,0.2,0.2,0.2
			c0.1,0.1,0.2,0.1,0.3,0.1c0,0,0.1,0,0.1-0.1c0.1-0.1,0.2-0.1,0.2-0.2c0,0,0.1,0,0.1-0.1c0,0,0-0.1,0-0.1c0,0,0-0.1,0-0.1
			c-1.5-2.4-3.1-4.9-4.6-7.3c0,0,0,0,0,0C37.2,33.5,37.1,33.5,37.1,33.5z"/>
		<path class="st18" d="M36.2,37.1C36.1,37.1,36,37,36,36.9c-0.2-0.2-0.4-0.4-0.7-0.6c-0.1-0.1-0.3-0.2-0.4-0.2
			c-0.2-0.1-0.5-0.1-0.7-0.2c-0.2,0-0.4,0-0.6,0c-0.3,0.1-0.7,0.2-1,0.3c-0.2,0.1-0.3,0.2-0.5,0.4c-0.6,0.5-0.9,1.3-0.9,2
			c0,0.2,0,0.4,0.1,0.6c0.1,0.2,0.2,0.5,0.3,0.7c0.7,1.1,1.4,2.2,2.1,3.3c0,0.1,0.1,0.1,0.2,0.2c0.1,0.1,0.3,0.3,0.4,0.4
			c0.2,0.1,0.3,0.2,0.5,0.3c0.2,0.1,0.5,0.2,0.8,0.2c0.3,0,0.6,0,0.9,0c0.3-0.1,0.5-0.1,0.7-0.3c0.1-0.1,0.2-0.1,0.3-0.2
			c0.2-0.1,0.3-0.3,0.5-0.5c0.2-0.2,0.3-0.5,0.4-0.8c0.1-0.2,0.1-0.5,0.1-0.8c0-0.3,0-0.6-0.1-0.8c-0.1-0.2-0.2-0.5-0.3-0.7
			c-0.3-0.5-0.7-1.1-1-1.6C36.9,38.2,36.5,37.7,36.2,37.1z M37.9,41.3c0,0.2,0.1,0.4,0.1,0.6c0,0.6-0.3,1.1-0.7,1.5
			c-0.3,0.2-0.6,0.4-0.9,0.5c-0.2,0-0.3,0-0.5,0c-0.3,0-0.6-0.1-0.8-0.2c-0.2-0.1-0.4-0.3-0.6-0.4c-0.1-0.1-0.2-0.2-0.3-0.4
			c-0.7-1-1.3-2.1-2-3.1c-0.2-0.3-0.3-0.6-0.3-1c0-0.4,0.1-0.7,0.2-1c0.1-0.3,0.3-0.5,0.5-0.7c0.3-0.2,0.6-0.4,1-0.5
			c0.5-0.1,1.1,0.1,1.5,0.4c0.2,0.1,0.4,0.3,0.5,0.5c0.3,0.5,0.7,1.1,1,1.6c0.3,0.5,0.7,1.1,1,1.6C37.8,40.9,37.9,41.1,37.9,41.3z"
			/>
		<path class="st18" d="M38.6,33.4C38.6,33.4,38.6,33.4,38.6,33.4c0.1-0.1,0.2-0.2,0.3-0.3c0.1-0.1,0.2-0.2,0.4-0.2
			c0.1-0.1,0.2-0.3,0.1-0.4c0-0.1-0.1-0.2-0.2-0.3c0,0-0.1-0.1-0.1,0c0,0,0,0-0.1,0c-0.5,0.3-0.9,0.6-1.4,0.9c0,0-0.1,0-0.1,0.1
			c0,0-0.1,0.1,0,0.1c0,0,0,0.1,0,0.1c0.8,1.2,1.5,2.4,2.3,3.6c0.8,1.2,1.5,2.4,2.3,3.6c0,0,0,0.1,0,0.1c0,0,0.1,0.1,0.1,0
			c0,0,0.1,0,0.1-0.1c0.5-0.3,0.9-0.6,1.4-0.9c0,0,0,0,0.1,0c0.1,0,0.1-0.1,0-0.2c0,0,0,0,0,0c0-0.1-0.1-0.1-0.1-0.2
			c0,0-0.1-0.1-0.1-0.1c-0.1-0.1-0.2-0.1-0.2-0.1c-0.1,0-0.1,0-0.2,0.1c-0.2,0.1-0.4,0.2-0.6,0.4c-0.1,0.1-0.1,0.1-0.1,0
			c-0.6-0.9-1.1-1.8-1.7-2.7c-0.1-0.1-0.1-0.1,0-0.1c0.2-0.1,0.3-0.2,0.5-0.3c0.1-0.1,0.2-0.3,0.1-0.4c0-0.1-0.1-0.1-0.1-0.2
			c-0.1-0.1-0.1-0.1-0.2-0.1c-0.2,0.1-0.4,0.3-0.6,0.4c-0.1,0.1-0.1,0.1-0.1,0C39.8,35.3,39.2,34.4,38.6,33.4
			C38.7,33.5,38.7,33.5,38.6,33.4z"/>
		<path class="st18" d="M42.8,30.2C42.7,30.1,42.7,30.1,42.8,30.2C42.7,30,42.6,30,42.6,30c-0.1,0.1-0.3,0.2-0.4,0.3
			c-0.1,0.1-0.1,0.2-0.1,0.3c0,0,0,0.1,0.1,0.1c1.5,2.4,3,4.7,4.5,7.1c0,0,0,0,0,0.1c0,0.1,0.1,0.1,0.2,0c0,0,0.1,0,0.1,0
			c0.1-0.1,0.2-0.1,0.3-0.2c0,0,0.1,0,0.1-0.1c0.1,0,0.1-0.1,0-0.2c0,0,0-0.1-0.1-0.1c-0.8-1.2-1.5-2.4-2.3-3.6
			C44.3,32.5,43.5,31.4,42.8,30.2z"/>
	</g>
	<g>
		<path class="st19" d="M36.2,39.3c0.2,0.3,0.3,0.5,0.5,0.8c0.1,0.1,0.2,0.3,0.3,0.4c0.1,0.1,0.2,0.3,0.2,0.5c0.1,0.3,0,0.5-0.1,0.8
			c-0.2,0.3-0.5,0.6-0.9,0.6c-0.2,0-0.5,0-0.7-0.1c-0.2-0.1-0.4-0.2-0.5-0.4c-0.5-0.8-1-1.6-1.6-2.5c0,0-0.1-0.1-0.1-0.1
			c-0.1-0.3,0.1-0.5,0.3-0.6c0.2-0.1,0.4,0,0.5,0.2c0.1,0.1,0.2,0.2,0.2,0.4c0.4,0.7,0.8,1.3,1.2,2c0,0.1,0.1,0.1,0.2,0.2
			c0.1,0.1,0.2,0.1,0.3,0c0,0,0,0,0,0c0.1-0.1,0.1-0.1,0.1-0.2c0,0,0-0.1,0-0.1c-0.1-0.2-0.2-0.3-0.3-0.5c-0.3-0.5-0.6-1-1-1.5
			c-0.1-0.2-0.2-0.4-0.3-0.5c-0.1-0.2-0.3-0.3-0.5-0.4c-0.2-0.1-0.5,0-0.7,0.1c-0.4,0.2-0.6,0.5-0.6,0.9c0,0.2,0,0.3,0.1,0.5
			c0.4,0.7,0.9,1.3,1.3,2c0.1,0.2,0.2,0.4,0.4,0.5c0.1,0.1,0.2,0.3,0.3,0.4c0.2,0.2,0.5,0.3,0.8,0.3c0.2,0,0.4,0,0.7-0.1
			c0,0,0.1,0,0.1,0c0.1,0,0.1,0,0.1,0.1c0,0,0,0.1,0,0.1c0,0,0,0,0,0c0,0-0.1,0-0.1,0c-0.3,0.1-0.6,0.1-0.8,0
			c-0.1,0-0.2-0.1-0.4-0.1c-0.2-0.1-0.4-0.2-0.6-0.3c-0.1-0.1-0.2-0.2-0.3-0.3c-0.1-0.2-0.2-0.3-0.3-0.5c-0.3-0.5-0.6-1-0.9-1.5
			c-0.1-0.2-0.3-0.4-0.4-0.6c-0.1-0.1-0.1-0.2-0.1-0.3c-0.1-0.3-0.1-0.5,0.1-0.8c0.3-0.6,0.9-0.9,1.5-0.7c0.3,0.1,0.5,0.2,0.6,0.5
			c0.5,0.8,1,1.6,1.6,2.5c0,0,0.1,0.1,0.1,0.2c0,0.1,0,0.3,0,0.4c0,0.1-0.1,0.2-0.2,0.2c-0.2,0.1-0.4,0-0.5-0.1
			c0-0.1-0.1-0.1-0.1-0.2c0,0-0.1-0.1-0.1-0.1c-0.5-0.7-0.9-1.5-1.4-2.2c0,0,0-0.1-0.1-0.1c-0.1-0.1-0.3-0.1-0.4,0
			c0,0-0.1,0.1-0.1,0.1c0,0.1,0,0.2,0,0.2c0.1,0.1,0.2,0.2,0.2,0.4c0.4,0.6,0.7,1.1,1.1,1.7c0.1,0.2,0.2,0.3,0.3,0.5
			c0.1,0.1,0.1,0.2,0.2,0.3c0.2,0.1,0.3,0.2,0.5,0.2c0.1,0,0.3,0,0.4-0.1c0.5-0.2,0.7-0.7,0.5-1.2c0-0.1-0.1-0.2-0.1-0.2
			c-0.4-0.7-0.9-1.4-1.3-2.1c-0.1-0.2-0.2-0.3-0.3-0.4c-0.1-0.2-0.3-0.4-0.6-0.5c-0.1-0.1-0.2-0.1-0.4-0.1c-0.2-0.1-0.5-0.1-0.7,0
			c-0.1,0-0.2,0-0.3,0.1c-0.1,0-0.1,0-0.1-0.1c0,0,0,0,0,0c0,0,0-0.1,0-0.1c0,0,0.1,0,0.1,0c0.2-0.1,0.4-0.1,0.6-0.1
			c0.2,0,0.4,0,0.5,0.1c0.2,0,0.3,0.1,0.4,0.2c0.2,0.1,0.3,0.2,0.5,0.4c0.1,0.1,0.1,0.2,0.2,0.3c0.1,0.2,0.3,0.4,0.4,0.6
			C36,38.9,36.1,39.1,36.2,39.3L36.2,39.3z"/>
		<path class="st19" d="M35.9,39.5c0.2,0.3,0.4,0.7,0.6,1c0.1,0.1,0.1,0.2,0.2,0.3c0.1,0.1,0.1,0.2,0.1,0.3c0.1,0.3,0,0.5-0.2,0.7
			c-0.2,0.2-0.5,0.3-0.8,0.3c-0.1,0-0.3-0.1-0.4-0.2c-0.1-0.1-0.2-0.2-0.2-0.3c-0.2-0.4-0.4-0.7-0.7-1.1c-0.3-0.4-0.6-0.9-0.8-1.3
			c0,0,0,0,0-0.1c0,0,0-0.1,0-0.1c0,0,0.1,0,0.1,0c0,0,0.1,0,0.1,0.1c0,0.1,0.1,0.1,0.1,0.2c0.5,0.7,0.9,1.5,1.4,2.2
			c0,0.1,0.1,0.1,0.1,0.1c0.2,0.2,0.6,0.2,0.9,0c0,0,0,0,0,0c0.2-0.2,0.2-0.5,0-0.7c-0.5-0.8-1-1.5-1.5-2.3
			c-0.1-0.1-0.1-0.2-0.2-0.3c-0.1-0.1-0.2-0.2-0.3-0.3c-0.1-0.1-0.3-0.1-0.4-0.2c-0.3-0.1-0.6,0-0.9,0.1c-0.2,0.1-0.3,0.2-0.4,0.3
			c-0.1,0.1-0.2,0.2-0.2,0.3c0,0,0,0,0,0.1c0,0-0.1,0-0.1,0c0,0,0-0.1,0-0.1c0,0,0,0,0-0.1c0.1-0.3,0.4-0.5,0.6-0.6
			c0.2-0.1,0.5-0.2,0.8-0.2c0.3,0,0.6,0.1,0.9,0.3c0.2,0.1,0.3,0.3,0.4,0.5c0.1,0.2,0.2,0.3,0.3,0.5C35.6,39.1,35.8,39.3,35.9,39.5
			L35.9,39.5z"/>
		<path class="st19" d="M33.9,40.9c-0.1-0.2-0.3-0.5-0.4-0.7c-0.1-0.2-0.3-0.4-0.4-0.6C33,39.4,33,39.3,33,39.1
			c0.1-0.5,0.5-0.8,1-0.7c0.1,0,0.1,0,0.2,0.1c0.2,0.1,0.3,0.2,0.4,0.3c0.2,0.3,0.3,0.5,0.5,0.8c0.2,0.4,0.5,0.8,0.7,1.1
			c0.1,0.2,0.2,0.4,0.4,0.6c0,0,0,0,0,0c0,0,0,0.1,0,0.1c0,0-0.1,0-0.1,0c0,0,0,0,0,0c0,0,0,0,0-0.1c-0.4-0.7-0.9-1.3-1.3-2
			c-0.1-0.1-0.2-0.3-0.3-0.4c-0.1-0.1-0.2-0.2-0.3-0.2c-0.2-0.1-0.4,0-0.6,0.1c-0.1,0.1-0.2,0.3-0.2,0.4c0,0.1,0,0.3,0.1,0.4
			c0,0.1,0.1,0.1,0.1,0.2c0.1,0.2,0.3,0.5,0.4,0.7c0.2,0.4,0.5,0.8,0.7,1.2c0.1,0.2,0.2,0.3,0.3,0.5c0.1,0.2,0.4,0.4,0.6,0.5
			c0.4,0.1,0.7,0.1,1.1,0c0.3-0.1,0.5-0.3,0.6-0.6c0,0,0,0,0,0c0-0.1,0.1-0.1,0.1,0c0,0,0,0,0,0c0.1,0,0.1,0.1,0,0.1c0,0,0,0,0,0
			c0,0.1-0.1,0.2-0.2,0.3c-0.2,0.3-0.6,0.5-0.9,0.6c-0.2,0-0.3,0-0.5,0c-0.2,0-0.4-0.1-0.6-0.2c-0.2-0.1-0.4-0.3-0.5-0.5
			C34.5,41.7,34.2,41.3,33.9,40.9L33.9,40.9z"/>
	</g>
	<g>
		<path class="st20" d="M46.6,41.5L46.6,41.5c-0.1,0-0.2,0-0.3-0.1c-0.1-0.1-0.2-0.2-0.2-0.4c0,0,0-0.1,0-0.1c0-0.1,0.1-0.2,0.3-0.2
			c0,0,0.1,0,0.1,0c0.1,0,0.1,0.1,0.2,0.1c0.1,0.1,0.1,0.2,0.2,0.3c0,0.1,0,0.2,0,0.2C46.7,41.4,46.6,41.4,46.6,41.5L46.6,41.5z
			 M46.3,41.2c0,0,0.1,0.1,0.1,0.1c0,0,0.1,0.1,0.1,0.1c0,0,0.1,0,0.1,0c0,0,0,0,0,0c0,0,0,0,0-0.1c0-0.1-0.1-0.1-0.1-0.2
			c0-0.1-0.1-0.1-0.1-0.1c0,0-0.1,0-0.1,0c0,0,0,0.1,0,0.1C46.2,41,46.2,41.1,46.3,41.2z"/>
		<path class="st20" d="M45,42.5C45,42.5,45,42.5,45,42.5c-0.1,0.1-0.2,0.1-0.3,0c-0.2-0.1-0.3-0.3-0.3-0.5c0-0.2,0.1-0.3,0.2-0.3
			c0,0,0,0,0,0c0,0,0,0,0,0c0,0,0,0.1,0,0.1c0,0-0.1,0-0.1,0c-0.1,0-0.1,0.1-0.1,0.2c0,0.1,0.1,0.2,0.2,0.3c0.1,0.1,0.1,0.1,0.2,0
			c0,0,0,0,0,0l0.1,0.1L45,42.5L45,42.5z"/>
		<path class="st20" d="M48.4,38.8L48,39l-0.5-0.7l0.1-0.1l0.4,0.6l0.2-0.1L48.4,38.8z"/>
		<path class="st20" d="M46.5,40.5l0.1-0.1l0.5,0.3l0,0l-0.3-0.5l0.1-0.1c0,0,0.4,0.7,0.5,0.7l-0.1,0.1c-0.1-0.1-0.2-0.1-0.2-0.2
			c-0.1-0.1-0.2-0.1-0.2-0.2l0.3,0.4l-0.1,0.1L46.5,40.5z"/>
		<path class="st20" d="M42.9,43.4c-0.1-0.2-0.2-0.3-0.3-0.5l0.1-0.1l0.5,0.7l-0.1,0.1l-0.5-0.3l0.3,0.5l-0.1,0.1
			c0,0-0.4-0.7-0.5-0.7c0,0,0,0,0,0c0,0,0.1,0,0.1-0.1L42.9,43.4z"/>
		<path class="st20" d="M41.3,42.9L41,42.4l0.1-0.1l0.5,0.7l-0.1,0.1L41,42.8l0.3,0.5l-0.1,0.1c0,0-0.4-0.7-0.5-0.7
			c0,0,0.1,0,0.1-0.1c0,0,0,0,0.1,0C41,42.7,41.1,42.8,41.3,42.9C41.3,42.9,41.3,42.9,41.3,42.9L41.3,42.9z"/>
		<path class="st20" d="M39.3,44.5l-0.1,0.1l-0.5-0.3l0.3,0.5l-0.1,0.1c0,0-0.4-0.7-0.5-0.7c0,0,0,0,0.1,0c0,0,0,0,0.1,0l0.5,0.4
			c-0.1-0.2-0.2-0.3-0.3-0.5l0.1-0.1L39.3,44.5z"/>
		<path class="st20" d="M42.9,42.3l-0.5-0.7c0.1-0.1,0.2-0.1,0.3-0.2c0.1,0,0.2,0,0.2,0.1c0.1,0.1,0.2,0.2,0.2,0.3c0,0,0,0.1,0,0.1
			c0,0.1,0,0.2-0.1,0.2C43,42.2,42.9,42.2,42.9,42.3z M42.6,41.6l0.3,0.5c0,0,0.1,0,0.1-0.1c0,0,0-0.1,0-0.1c0-0.1-0.1-0.2-0.2-0.3
			c0,0,0,0,0,0C42.7,41.5,42.7,41.5,42.6,41.6z"/>
		<path class="st20" d="M41.3,43.8c0.1-0.1,0.2-0.1,0.3-0.2c0.1,0,0.1,0,0.2,0c0,0,0.1,0.1,0.1,0.1c0.1,0.1,0.1,0.2,0.2,0.3
			c0.1,0.1,0,0.3-0.1,0.4c-0.1,0-0.1,0.1-0.2,0.1L41.3,43.8z M41.8,44.3c0.1,0,0.1-0.1,0.1-0.1c0-0.1,0-0.1,0-0.2
			c0-0.1-0.1-0.1-0.1-0.2c0,0-0.1-0.1-0.1-0.1c0,0-0.1,0-0.1,0L41.8,44.3z"/>
		<path class="st20" d="M39.3,45.1c0.1-0.1,0.1-0.1,0.2-0.2c0.1,0,0.2,0,0.3,0c0.1,0.1,0.1,0.1,0.2,0.2c0,0,0,0.1,0.1,0.1
			c0,0.1,0,0.2-0.1,0.3c-0.1,0.1-0.1,0.1-0.2,0.1L39.3,45.1z M39.5,45.1c0.1,0.2,0.2,0.3,0.3,0.5c0,0,0.1-0.1,0.1-0.1
			c0,0,0-0.1,0-0.1c0-0.1-0.1-0.2-0.1-0.2c0,0-0.1-0.1-0.1-0.1C39.6,45.1,39.5,45.1,39.5,45.1z"/>
		<path class="st20" d="M36.4,45.9c0,0,0.1,0.1,0.1,0.2c0,0,0,0.1,0,0.1c0,0.1-0.1,0.2-0.2,0.3c0,0-0.1,0-0.1,0
			c-0.1,0-0.1-0.1-0.2-0.1c-0.1-0.1-0.1-0.2-0.2-0.3c0-0.1,0-0.1,0-0.2c0-0.1,0.2-0.2,0.3-0.1c0,0,0,0,0,0
			C36.2,45.7,36.3,45.8,36.4,45.9z M36,46.1c0,0.1,0.1,0.1,0.1,0.1c0,0,0,0,0.1,0.1c0,0,0.1,0,0.1,0c0,0,0-0.1,0-0.1c0,0,0,0,0-0.1
			c0-0.1-0.1-0.2-0.2-0.3c0,0,0,0-0.1-0.1c0,0-0.1,0-0.1,0c0,0,0,0,0,0c0,0,0,0.1,0,0.1C36,46,36,46.1,36,46.1z"/>
		<path class="st20" d="M40.9,43.1c0,0,0.1,0.1,0.1,0.2c0,0,0,0.1,0,0.1c0,0.1-0.1,0.3-0.2,0.3c0,0-0.1,0-0.1,0c0,0-0.1,0-0.1-0.1
			c-0.1-0.1-0.2-0.2-0.2-0.4c0-0.1,0-0.1,0-0.2c0-0.1,0.1-0.2,0.3-0.2c0,0,0.1,0,0.1,0C40.7,42.9,40.8,43,40.9,43.1z M40.5,43.2
			c0,0.1,0.1,0.1,0.1,0.1c0,0,0.1,0.1,0.1,0.1c0,0,0.1,0,0.1,0c0,0,0,0,0,0c0,0,0-0.1,0-0.1c0,0,0-0.1,0-0.1c0-0.1-0.1-0.2-0.2-0.2
			c0,0,0,0-0.1,0c0,0-0.1,0-0.1,0c0,0,0,0,0,0c0,0,0,0.1,0,0.1C40.5,43.1,40.5,43.2,40.5,43.2z"/>
		<path class="st20" d="M39.9,44.2l-0.1,0.1c0,0,0,0-0.1-0.1c0,0,0,0-0.1-0.1l-0.1,0.1l0.1,0.2l-0.1,0.1l-0.3-0.8l0.2-0.1
			C39.5,43.7,39.7,44,39.9,44.2z M39.5,44l-0.2-0.3l0,0l0.1,0.3L39.5,44z"/>
		<path class="st20" d="M42,42.8l-0.1-0.1l-0.1,0.1l0.1,0.2L41.7,43l-0.3-0.8l0.2-0.1l0.6,0.6L42,42.8z M41.8,42.6l-0.2-0.3l0,0
			l0.1,0.3L41.8,42.6z"/>
		<path class="st20" d="M45.9,40.4l-0.1,0.1l-0.1-0.1l-0.1,0.1l0.1,0.2l-0.1,0.1l-0.3-0.8l0.2-0.1L45.9,40.4z M45.4,40.3l0.1-0.1
			l-0.2-0.3l0,0L45.4,40.3z"/>
		<path class="st20" d="M47.1,38.6l0.2-0.1l0.3,0.8l-0.2,0.1l-0.6-0.6c0.1,0,0.1-0.1,0.2-0.1l0.4,0.5c0-0.1-0.1-0.1-0.1-0.2
			c0-0.1-0.1-0.1-0.1-0.2C47.1,38.7,47.1,38.7,47.1,38.6z"/>
		<path class="st20" d="M44.9,41.5l0.2-0.1l0.6,0.6c0,0-0.1,0.1-0.1,0.1L45.4,42l-0.1,0.1l0.1,0.2l-0.1,0.1l0,0l0,0c0,0,0,0,0-0.1
			C45,42,44.9,41.8,44.9,41.5z M45.3,41.9L45,41.6c0,0.1,0.1,0.2,0.1,0.3L45.3,41.9z"/>
		<path class="st20" d="M44.6,41.2l-0.5-0.7l0.3-0.2l0.1,0.1l-0.2,0.1l0.1,0.2c0.1,0,0.1-0.1,0.2-0.1l0.1,0.1l-0.2,0.1l0.1,0.2
			l0.2-0.1L45,41L44.6,41.2z"/>
		<path class="st20" d="M38.2,45.8l0.3-0.2l0.1,0.1l-0.2,0.1c0,0.1,0.1,0.1,0.1,0.2l0.2-0.1l0.1,0.1l-0.2,0.1l0.1,0.2l0.2-0.1
			l0.1,0.1l-0.3,0.2L38.2,45.8z"/>
		<path class="st20" d="M38,44.5l0.1,0.2l0.2-0.1c0,0,0.1,0.1,0.1,0.1l-0.2,0.1l0.1,0.2l0.2-0.1l0.1,0.1l-0.3,0.2l-0.5-0.7l0.3-0.2
			l0.1,0.1L38,44.5z"/>
		<path class="st20" d="M43.4,41.5l0.1,0.2l0.2-0.1l0.1,0.1c-0.1,0.1-0.2,0.1-0.3,0.2l-0.5-0.7l0.3-0.2l0.1,0.1l-0.2,0.1
			c0,0.1,0.1,0.1,0.1,0.2l0.2-0.1l0.1,0.1L43.4,41.5z"/>
		<path class="st20" d="M42.2,43.4l-0.2,0.1l0.1,0.2l0.2-0.1l0.1,0.1l-0.2,0.1l0.1,0.2l0.2-0.1l0.1,0.1c-0.1,0.1-0.2,0.2-0.3,0.2
			c0,0-0.4-0.6-0.5-0.7c0.1-0.1,0.2-0.1,0.3-0.2C42.2,43.3,42.2,43.3,42.2,43.4z"/>
		<path class="st20" d="M40,44.8l0.1,0.2l0.2-0.1l0.1,0.1l-0.2,0.1l0.1,0.2l0.2-0.1l0.1,0.1l-0.3,0.2c0,0-0.4-0.7-0.5-0.7l0.3-0.2
			c0,0,0.1,0.1,0.1,0.1L40,44.8z"/>
		<path class="st20" d="M36.2,45.5l0.3-0.2l0.1,0.1l-0.2,0.1l0.1,0.2l0.2-0.1l0.1,0.1l-0.2,0.1l0.2,0.3c0,0-0.1,0.1-0.1,0.1
			C36.7,46.2,36.2,45.5,36.2,45.5z"/>
		<path class="st20" d="M37.2,45.3l0.1,0.1l-0.2,0.1l0.2,0.3c0,0-0.1,0.1-0.1,0.1l-0.5-0.7L37,45l0.1,0.1c-0.1,0-0.1,0.1-0.2,0.1
			l0.1,0.2L37.2,45.3z"/>
		<path class="st20" d="M44.2,43L44,43.1c0,0-0.4-0.7-0.5-0.7l0.3-0.2l0.1,0.1l-0.2,0.1c0,0.1,0.1,0.1,0.1,0.2l0.2-0.1l0.1,0.1
			L44,42.7L44.2,43z"/>
		<path class="st20" d="M44.7,40.2l-0.1,0.1l-0.1-0.1c0.1-0.1,0.3-0.2,0.4-0.3l0.1,0.1l-0.1,0.1l0.4,0.6c0,0-0.1,0.1-0.1,0.1
			C45,40.6,44.9,40.4,44.7,40.2z"/>
		<path class="st20" d="M45.8,39.6l0.4,0.6c0,0-0.1,0.1-0.1,0.1l-0.4-0.6l-0.1,0.1l-0.1-0.1l0.4-0.3c0,0,0.1,0.1,0.1,0.1L45.8,39.6z
			"/>
		<path class="st20" d="M40.1,44L40,44.1c0-0.1-0.1-0.1-0.1-0.2c0-0.1-0.1-0.1-0.1-0.2l-0.1-0.2l-0.1,0.1l-0.1-0.1l0.4-0.3l0.1,0.1
			l-0.1,0.1c0,0.1,0.1,0.1,0.1,0.2c0,0,0.1,0.1,0.1,0.1L40.1,44L40.1,44z"/>
		<path class="st20" d="M37.7,44.5l0,0.1c0,0,0,0,0,0c-0.1,0-0.1,0.1-0.1,0.2c0,0,0,0,0,0c0,0.1,0.1,0.2,0.2,0.3
			c0.1,0.1,0.2,0.1,0.2,0c0,0,0,0,0,0l0.1,0.1c-0.1,0.1-0.2,0.2-0.4,0.1c-0.1,0-0.1-0.1-0.2-0.1c-0.1-0.1-0.1-0.2-0.2-0.3
			c0-0.1,0-0.1,0-0.2C37.5,44.7,37.6,44.6,37.7,44.5z"/>
		<path class="st20" d="M46.4,39l0.1,0.1c0,0,0,0,0,0c-0.1,0-0.1,0.1-0.1,0.2c0,0,0,0.1,0,0.1c0,0.1,0.1,0.1,0.1,0.2
			c0.1,0.1,0.2,0.1,0.2,0c0,0,0,0,0,0c0,0,0,0,0,0c0,0,0,0.1,0.1,0.1c0,0,0,0-0.1,0.1c-0.1,0.1-0.3,0.1-0.4,0
			c-0.1-0.1-0.2-0.2-0.2-0.4C46.1,39.3,46.2,39.1,46.4,39C46.4,39,46.4,39,46.4,39z"/>
		<path class="st20" d="M45.9,41.9L45.7,42l-0.4-0.6l-0.1,0.1l-0.1-0.1c0.1-0.1,0.3-0.2,0.4-0.3c0,0,0.1,0.1,0.1,0.1l-0.1,0.1
			L45.9,41.9z"/>
		<path class="st20" d="M38.8,45.6l-0.1,0.1l-0.1-0.1l0.4-0.3c0,0,0.1,0.1,0.1,0.1L39,45.5l0.4,0.6l-0.1,0.1c0,0,0,0,0-0.1
			C39.1,45.9,39,45.8,38.8,45.6C38.8,45.6,38.8,45.6,38.8,45.6z"/>
		<path class="st20" d="M43.3,42.7l-0.1,0.1l0.4,0.6l-0.1,0.1c0,0-0.1-0.1-0.1-0.1c0,0-0.1-0.1-0.1-0.1L43,42.9L42.9,43
			c0,0-0.1-0.1-0.1-0.1l0.4-0.3L43.3,42.7z"/>
		<path class="st20" d="M41,44.9l0.2-0.1l0.1,0.1l-0.3,0.2c0,0-0.4-0.7-0.5-0.7l0.1-0.1c0,0,0.1,0.1,0.1,0.1c0,0.1,0.1,0.1,0.1,0.2
			C40.8,44.6,41,44.9,41,44.9z"/>
		<path class="st20" d="M43.7,40.7l0.4,0.6l0.2-0.1l0.1,0.1c-0.1,0.1-0.2,0.1-0.3,0.2l-0.5-0.7L43.7,40.7z"/>
		<path class="st20" d="M41.8,41.9l0.1-0.1l0.4,0.6l0.2-0.1l0.1,0.1l-0.3,0.2C42.2,42.6,41.8,42,41.8,41.9z"/>
		<path class="st20" d="M41,44c0,0,0.1,0,0.1-0.1c0,0,0,0,0,0l0.5,0.7l-0.1,0.1L41,44z"/>
		<path class="st20" d="M43.9,43.2l-0.1,0.1c0,0-0.4-0.7-0.5-0.7c0,0,0.1,0,0.1-0.1c0,0,0,0,0.1,0L43.9,43.2z"/>
		<path class="st20" d="M44,42.1c0,0,0.1,0,0.1-0.1c0,0,0,0,0,0l0.5,0.7l-0.1,0.1C44.4,42.7,44,42.1,44,42.1z"/>
		<path class="st20" d="M47.9,39.1l-0.1,0.1l-0.5-0.7l0.1-0.1L47.9,39.1z"/>
		<path class="st20" d="M46.6,38.9l0.5,0.7L47,39.7l-0.5-0.7L46.6,38.9z"/>
		<path class="st20" d="M37.7,45.6l-0.1,0.1c0,0-0.4-0.7-0.5-0.7l0.1-0.1C37.3,44.9,37.6,45.5,37.7,45.6z"/>
		<path class="st20" d="M40.5,43.8l-0.1,0.1l-0.5-0.7c0,0,0,0,0,0c0,0,0.1,0,0.1-0.1C40.1,43.1,40.5,43.7,40.5,43.8z"/>
		<path class="st20" d="M45.8,40.9l0.5,0.7l-0.1,0.1L45.6,41L45.8,40.9z"/>
		<path class="st20" d="M44.1,40.9L44,40.6l0.1-0.1c0,0.1,0,0.1,0,0.2c0,0,0,0.1,0,0.1C44.1,40.8,44.1,40.8,44.1,40.9z"/>
		<path class="st20" d="M40.8,44.1l0.1-0.1c0,0,0,0.1,0,0.1c0,0.1,0,0.1,0,0.2c0,0.1,0,0.1-0.1,0.1L40.8,44.1z"/>
	</g>
</g>
<g>
	<rect x="76.1" y="63.4" transform="matrix(0.8238 -0.5668 0.5668 0.8238 -22.593 54.481)" class="st20" width="0.5" height="0.4"/>
	
		<rect x="76.9" y="62.9" transform="matrix(0.8238 -0.5668 0.5668 0.8238 -22.1725 54.812)" class="st20" width="0.5" height="0.4"/>
	<rect x="77.6" y="62.3" transform="matrix(0.8238 -0.5668 0.5668 0.8238 -21.752 55.143)" class="st20" width="0.5" height="0.4"/>
	<rect x="78" y="62.1" transform="matrix(0.8238 -0.5668 0.5668 0.8238 -21.5417 55.3085)" class="st20" width="0.5" height="0.4"/>
	
		<rect x="78.4" y="61.8" transform="matrix(0.8238 -0.5668 0.5668 0.8238 -21.3315 55.474)" class="st20" width="0.5" height="0.4"/>
	
		<rect x="78.7" y="61.6" transform="matrix(0.8238 -0.5668 0.5668 0.8238 -21.1212 55.6395)" class="st20" width="0.5" height="0.4"/>
	
		<rect x="79.5" y="61.1" transform="matrix(0.8238 -0.5668 0.5668 0.8238 -20.7007 55.9705)" class="st20" width="0.5" height="0.4"/>
	
		<rect x="79.8" y="60.8" transform="matrix(0.8238 -0.5668 0.5668 0.8238 -20.4904 56.136)" class="st20" width="0.5" height="0.4"/>
	<rect x="76" y="64" transform="matrix(0.8238 -0.5668 0.5668 0.8238 -22.9669 54.5233)" class="st20" width="0.5" height="0.4"/>
	
		<rect x="76.4" y="63.7" transform="matrix(0.8238 -0.5668 0.5668 0.8238 -22.7566 54.6888)" class="st20" width="0.5" height="0.4"/>
	
		<rect x="76.8" y="63.5" transform="matrix(0.8238 -0.5668 0.5668 0.8238 -22.5463 54.8543)" class="st20" width="0.5" height="0.4"/>
	
		<rect x="77.1" y="63.2" transform="matrix(0.8238 -0.5668 0.5668 0.8238 -22.3361 55.0198)" class="st20" width="0.5" height="0.4"/>
	
		<rect x="77.9" y="62.7" transform="matrix(0.8238 -0.5668 0.5668 0.8238 -21.9156 55.3508)" class="st20" width="0.5" height="0.4"/>
	
		<rect x="78.2" y="62.5" transform="matrix(0.8238 -0.5668 0.5668 0.8238 -21.7053 55.5163)" class="st20" width="0.5" height="0.4"/>
	<rect x="79" y="61.9" transform="matrix(0.8238 -0.5668 0.5668 0.8238 -21.2848 55.8473)" class="st20" width="0.5" height="0.4"/>
	
		<rect x="79.4" y="61.7" transform="matrix(0.8238 -0.5668 0.5668 0.8238 -21.0745 56.0128)" class="st20" width="0.5" height="0.4"/>
	
		<rect x="80.5" y="60.9" transform="matrix(0.8238 -0.5668 0.5668 0.8238 -20.4437 56.5093)" class="st20" width="0.5" height="0.4"/>
	
		<rect x="76.6" y="64.1" transform="matrix(0.8238 -0.5668 0.5668 0.8238 -22.9202 54.8965)" class="st20" width="0.5" height="0.4"/>
	<rect x="77" y="63.8" transform="matrix(0.8238 -0.5668 0.5668 0.8238 -22.7099 55.062)" class="st20" width="0.5" height="0.4"/>
	
		<rect x="77.4" y="63.6" transform="matrix(0.8238 -0.5668 0.5668 0.8238 -22.4996 55.2276)" class="st20" width="0.5" height="0.4"/>
	
		<rect x="78.1" y="63.1" transform="matrix(0.8238 -0.5668 0.5668 0.8238 -22.0791 55.5586)" class="st20" width="0.5" height="0.4"/>
	
		<rect x="78.9" y="62.6" transform="matrix(0.8238 -0.5668 0.5668 0.8238 -21.6586 55.8896)" class="st20" width="0.5" height="0.4"/>
	
		<rect x="79.2" y="62.3" transform="matrix(0.8238 -0.5668 0.5668 0.8238 -21.4483 56.0551)" class="st20" width="0.5" height="0.4"/>
	
		<rect x="79.6" y="62.1" transform="matrix(0.8238 -0.5668 0.5668 0.8238 -21.2381 56.2206)" class="st20" width="0.5" height="0.4"/>
	<rect x="80" y="61.8" transform="matrix(0.8238 -0.5668 0.5668 0.8238 -21.0278 56.3861)" class="st20" width="0.5" height="0.4"/>
	
		<rect x="80.3" y="61.5" transform="matrix(0.8238 -0.5668 0.5668 0.8238 -20.8175 56.5516)" class="st20" width="0.5" height="0.4"/>
	
		<rect x="80.7" y="61.3" transform="matrix(0.8238 -0.5668 0.5668 0.8238 -20.6073 56.7171)" class="st20" width="0.5" height="0.4"/>
	
		<rect x="76.9" y="64.5" transform="matrix(0.8238 -0.5668 0.5668 0.8238 -23.0837 55.1043)" class="st20" width="0.5" height="0.4"/>
	
		<rect x="77.3" y="64.2" transform="matrix(0.8238 -0.5668 0.5668 0.8238 -22.8734 55.2698)" class="st20" width="0.5" height="0.4"/>
	
		<rect x="78.4" y="63.4" transform="matrix(0.8238 -0.5668 0.5668 0.8238 -22.2427 55.7663)" class="st20" width="0.5" height="0.4"/>
	
		<rect x="78.7" y="63.2" transform="matrix(0.8238 -0.5668 0.5668 0.8238 -22.0324 55.9318)" class="st20" width="0.5" height="0.4"/>
	
		<rect x="79.5" y="62.7" transform="matrix(0.8238 -0.5668 0.5668 0.8238 -21.6119 56.2628)" class="st20" width="0.5" height="0.4"/>
	
		<rect x="80.6" y="61.9" transform="matrix(0.8238 -0.5668 0.5668 0.8238 -20.9811 56.7593)" class="st20" width="0.5" height="0.4"/>
	<rect x="81" y="61.7" transform="matrix(0.8238 -0.5668 0.5668 0.8238 -20.7708 56.9249)" class="st20" width="0.5" height="0.4"/>
	
		<rect x="77.1" y="64.8" transform="matrix(0.8238 -0.5668 0.5668 0.8238 -23.2473 55.3121)" class="st20" width="0.5" height="0.4"/>
	
		<rect x="77.9" y="64.3" transform="matrix(0.8238 -0.5668 0.5668 0.8238 -22.8267 55.6431)" class="st20" width="0.5" height="0.4"/>
	
		<rect x="78.6" y="63.8" transform="matrix(0.8238 -0.5668 0.5668 0.8238 -22.4062 55.9741)" class="st20" width="0.5" height="0.4"/>
	
		<rect x="79.4" y="63.3" transform="matrix(0.8238 -0.5668 0.5668 0.8238 -21.9857 56.3051)" class="st20" width="0.5" height="0.4"/>
	<rect x="79.7" y="63" transform="matrix(0.8238 -0.5668 0.5668 0.8238 -21.7754 56.4706)" class="st20" width="0.5" height="0.4"/>
	
		<rect x="80.5" y="62.5" transform="matrix(0.8238 -0.5668 0.5668 0.8238 -21.3549 56.8016)" class="st20" width="0.5" height="0.4"/>
	<rect x="77" y="65.5" transform="matrix(0.8238 -0.5668 0.5668 0.8238 -23.6211 55.3544)" class="st20" width="0.5" height="0.4"/>
	
		<rect x="77.4" y="65.2" transform="matrix(0.8238 -0.5668 0.5668 0.8238 -23.4108 55.5199)" class="st20" width="0.5" height="0.4"/>
	<rect x="78.5" y="64.4" transform="matrix(0.8238 -0.5668 0.5668 0.8238 -22.78 56.0164)" class="st20" width="0.5" height="0.4"/>
	
		<rect x="79.2" y="63.9" transform="matrix(0.8238 -0.5668 0.5668 0.8238 -22.3595 56.3474)" class="st20" width="0.5" height="0.4"/>
	<rect x="80" y="63.4" transform="matrix(0.8238 -0.5668 0.5668 0.8238 -21.939 56.6784)" class="st20" width="0.5" height="0.4"/>
	
		<rect x="80.7" y="62.9" transform="matrix(0.8238 -0.5668 0.5668 0.8238 -21.5185 57.0094)" class="st20" width="0.5" height="0.4"/>
	
		<rect x="81.1" y="62.6" transform="matrix(0.8238 -0.5668 0.5668 0.8238 -21.3082 57.1749)" class="st20" width="0.5" height="0.4"/>
	
		<rect x="77.3" y="65.8" transform="matrix(0.8238 -0.5668 0.5668 0.8238 -23.7846 55.5622)" class="st20" width="0.5" height="0.4"/>
	<rect x="78" y="65.3" transform="matrix(0.8238 -0.5668 0.5668 0.8238 -23.3641 55.8932)" class="st20" width="0.5" height="0.4"/>
	
		<rect x="78.8" y="64.8" transform="matrix(0.8238 -0.5668 0.5668 0.8238 -22.9436 56.2242)" class="st20" width="0.5" height="0.4"/>
	
		<rect x="79.5" y="64.3" transform="matrix(0.8238 -0.5668 0.5668 0.8238 -22.5231 56.5552)" class="st20" width="0.5" height="0.4"/>
	
		<rect x="80.2" y="63.8" transform="matrix(0.8238 -0.5668 0.5668 0.8238 -22.1025 56.8862)" class="st20" width="0.5" height="0.4"/>
	<rect x="81" y="63.3" transform="matrix(0.8238 -0.5668 0.5668 0.8238 -21.682 57.2172)" class="st20" width="0.5" height="0.4"/>
	
		<rect x="81.7" y="62.8" transform="matrix(0.8238 -0.5668 0.5668 0.8238 -21.2615 57.5482)" class="st20" width="0.5" height="0.4"/>
	<rect x="77.5" y="66.2" transform="matrix(0.8238 -0.5668 0.5668 0.8238 -23.9482 55.77)" class="st20" width="0.5" height="0.4"/>
	
		<rect x="78.3" y="65.7" transform="matrix(0.8238 -0.5668 0.5668 0.8238 -23.5277 56.101)" class="st20" width="0.5" height="0.4"/>
	
		<rect x="78.6" y="65.4" transform="matrix(0.8238 -0.5668 0.5668 0.8238 -23.3174 56.2665)" class="st20" width="0.5" height="0.4"/>
	
		<rect x="80.1" y="64.4" transform="matrix(0.8238 -0.5668 0.5668 0.8238 -22.4764 56.9285)" class="st20" width="0.5" height="0.4"/>
	
		<rect x="80.9" y="63.9" transform="matrix(0.8238 -0.5668 0.5668 0.8238 -22.0558 57.2595)" class="st20" width="0.5" height="0.4"/>
	
		<rect x="81.2" y="63.6" transform="matrix(0.8238 -0.5668 0.5668 0.8238 -21.8456 57.425)" class="st20" width="0.5" height="0.4"/>
	
		<rect x="81.6" y="63.4" transform="matrix(0.8238 -0.5668 0.5668 0.8238 -21.6353 57.5905)" class="st20" width="0.5" height="0.4"/>
	<rect x="82" y="63.1" transform="matrix(0.8238 -0.5668 0.5668 0.8238 -21.425 57.756)" class="st20" width="0.5" height="0.4"/>
	
		<rect x="76.3" y="67.6" transform="matrix(0.8238 -0.5668 0.5668 0.8238 -24.9528 55.3158)" class="st20" width="0.5" height="0.4"/>
	
		<rect x="76.7" y="67.3" transform="matrix(0.8238 -0.5668 0.5668 0.8238 -24.7425 55.4813)" class="st20" width="0.5" height="0.4"/>
	<rect x="77" y="67.1" transform="matrix(0.8238 -0.5668 0.5668 0.8238 -24.5323 55.6468)" class="st20" width="0.5" height="0.4"/>
	
		<rect x="77.4" y="66.8" transform="matrix(0.8238 -0.5668 0.5668 0.8238 -24.322 55.8123)" class="st20" width="0.5" height="0.4"/>
	
		<rect x="78.9" y="65.8" transform="matrix(0.8238 -0.5668 0.5668 0.8238 -23.481 56.4743)" class="st20" width="0.5" height="0.4"/>
	<rect x="80" y="65" transform="matrix(0.8238 -0.5668 0.5668 0.8238 -22.8502 56.9708)" class="st20" width="0.5" height="0.4"/>
	<rect x="81.5" y="64" transform="matrix(0.8238 -0.5668 0.5668 0.8238 -22.0091 57.6328)" class="st20" width="0.5" height="0.4"/>
	
		<rect x="81.9" y="63.7" transform="matrix(0.8238 -0.5668 0.5668 0.8238 -21.7989 57.7983)" class="st20" width="0.5" height="0.4"/>
	<rect x="83" y="63" transform="matrix(0.8238 -0.5668 0.5668 0.8238 -21.1681 58.2948)" class="st20" width="0.5" height="0.4"/>
	
		<rect x="83.3" y="62.7" transform="matrix(0.8238 -0.5668 0.5668 0.8238 -20.9578 58.4603)" class="st20" width="0.5" height="0.4"/>
	
		<rect x="84.8" y="61.7" transform="matrix(0.8238 -0.5668 0.5668 0.8238 -20.1168 59.1223)" class="st20" width="0.5" height="0.4"/>
	<rect x="75.1" y="69" transform="matrix(0.8238 -0.5668 0.5668 0.8238 -25.9574 54.8615)" class="st20" width="0.5" height="0.4"/>
	
		<rect x="75.8" y="68.5" transform="matrix(0.8238 -0.5668 0.5668 0.8238 -25.5369 55.1925)" class="st20" width="0.5" height="0.4"/>
	
		<rect x="76.5" y="67.9" transform="matrix(0.8238 -0.5668 0.5668 0.8238 -25.1163 55.5236)" class="st20" width="0.5" height="0.4"/>
	<rect x="78" y="66.9" transform="matrix(0.8238 -0.5668 0.5668 0.8238 -24.2753 56.1856)" class="st20" width="0.5" height="0.4"/>
	
		<rect x="78.4" y="66.7" transform="matrix(0.8238 -0.5668 0.5668 0.8238 -24.065 56.3511)" class="st20" width="0.5" height="0.4"/>
	
		<rect x="78.8" y="66.4" transform="matrix(0.8238 -0.5668 0.5668 0.8238 -23.8548 56.5166)" class="st20" width="0.5" height="0.4"/>
	
		<rect x="79.5" y="65.9" transform="matrix(0.8238 -0.5668 0.5668 0.8238 -23.4342 56.8476)" class="st20" width="0.5" height="0.4"/>
	
		<rect x="79.9" y="65.6" transform="matrix(0.8238 -0.5668 0.5668 0.8238 -23.224 57.0131)" class="st20" width="0.5" height="0.4"/>
	
		<rect x="80.6" y="65.1" transform="matrix(0.8238 -0.5668 0.5668 0.8238 -22.8035 57.3441)" class="st20" width="0.5" height="0.4"/>
	
		<rect x="82.1" y="64.1" transform="matrix(0.8238 -0.5668 0.5668 0.8238 -21.9624 58.0061)" class="st20" width="0.5" height="0.4"/>
	
		<rect x="82.5" y="63.9" transform="matrix(0.8238 -0.5668 0.5668 0.8238 -21.7522 58.1716)" class="st20" width="0.5" height="0.4"/>
	
		<rect x="83.2" y="63.3" transform="matrix(0.8238 -0.5668 0.5668 0.8238 -21.3316 58.5026)" class="st20" width="0.5" height="0.4"/>
	
		<rect x="83.6" y="63.1" transform="matrix(0.8238 -0.5668 0.5668 0.8238 -21.1214 58.6681)" class="st20" width="0.5" height="0.4"/>
	<rect x="84" y="62.8" transform="matrix(0.8238 -0.5668 0.5668 0.8238 -20.9111 58.8336)" class="st20" width="0.5" height="0.4"/>
	
		<rect x="85.1" y="62.1" transform="matrix(0.8238 -0.5668 0.5668 0.8238 -20.2803 59.3301)" class="st20" width="0.5" height="0.4"/>
	
		<rect x="85.5" y="61.8" transform="matrix(0.8238 -0.5668 0.5668 0.8238 -20.0701 59.4956)" class="st20" width="0.5" height="0.4"/>
	
		<rect x="75.3" y="69.3" transform="matrix(0.8238 -0.5668 0.5668 0.8238 -26.1209 55.0693)" class="st20" width="0.5" height="0.4"/>
	
		<rect x="76.8" y="68.3" transform="matrix(0.8238 -0.5668 0.5668 0.8238 -25.2799 55.7313)" class="st20" width="0.5" height="0.4"/>
	
		<rect x="77.5" y="67.8" transform="matrix(0.8238 -0.5668 0.5668 0.8238 -24.8594 56.0623)" class="st20" width="0.5" height="0.4"/>
	<rect x="78.7" y="67" transform="matrix(0.8238 -0.5668 0.5668 0.8238 -24.2286 56.5588)" class="st20" width="0.5" height="0.4"/>
	<rect x="79" y="66.8" transform="matrix(0.8238 -0.5668 0.5668 0.8238 -24.0183 56.7243)" class="st20" width="0.5" height="0.4"/>
	
		<rect x="79.8" y="66.3" transform="matrix(0.8238 -0.5668 0.5668 0.8238 -23.5978 57.0553)" class="st20" width="0.5" height="0.4"/>
	
		<rect x="80.5" y="65.8" transform="matrix(0.8238 -0.5668 0.5668 0.8238 -23.1773 57.3864)" class="st20" width="0.5" height="0.4"/>
	
		<rect x="80.9" y="65.5" transform="matrix(0.8238 -0.5668 0.5668 0.8238 -22.967 57.5519)" class="st20" width="0.5" height="0.4"/>
	<rect x="81.6" y="65" transform="matrix(0.8238 -0.5668 0.5668 0.8238 -22.5465 57.8829)" class="st20" width="0.5" height="0.4"/>
	<rect x="82" y="64.7" transform="matrix(0.8238 -0.5668 0.5668 0.8238 -22.3362 58.0484)" class="st20" width="0.5" height="0.4"/>
	
		<rect x="82.7" y="64.2" transform="matrix(0.8238 -0.5668 0.5668 0.8238 -21.9157 58.3794)" class="st20" width="0.5" height="0.4"/>
	<rect x="83.1" y="64" transform="matrix(0.8238 -0.5668 0.5668 0.8238 -21.7055 58.5449)" class="st20" width="0.5" height="0.4"/>
	
		<rect x="83.9" y="63.5" transform="matrix(0.8238 -0.5668 0.5668 0.8238 -21.2849 58.8759)" class="st20" width="0.5" height="0.4"/>
	
		<rect x="84.2" y="63.2" transform="matrix(0.8238 -0.5668 0.5668 0.8238 -21.0747 59.0414)" class="st20" width="0.5" height="0.4"/>
	<rect x="85" y="62.7" transform="matrix(0.8238 -0.5668 0.5668 0.8238 -20.6541 59.3724)" class="st20" width="0.5" height="0.4"/>
	
		<rect x="85.7" y="62.2" transform="matrix(0.8238 -0.5668 0.5668 0.8238 -20.2336 59.7034)" class="st20" width="0.5" height="0.4"/>
	
		<rect x="75.6" y="69.7" transform="matrix(0.8238 -0.5668 0.5668 0.8238 -26.2845 55.2771)" class="st20" width="0.5" height="0.4"/>
	
		<rect x="78.9" y="67.4" transform="matrix(0.8238 -0.5668 0.5668 0.8238 -24.3921 56.7666)" class="st20" width="0.5" height="0.4"/>
	
		<rect x="79.3" y="67.1" transform="matrix(0.8238 -0.5668 0.5668 0.8238 -24.1819 56.9321)" class="st20" width="0.5" height="0.4"/>
	
		<rect x="79.7" y="66.9" transform="matrix(0.8238 -0.5668 0.5668 0.8238 -23.9716 57.0976)" class="st20" width="0.5" height="0.4"/>
	
		<rect x="80.4" y="66.4" transform="matrix(0.8238 -0.5668 0.5668 0.8238 -23.5511 57.4286)" class="st20" width="0.5" height="0.4"/>
	
		<rect x="80.8" y="66.1" transform="matrix(0.8238 -0.5668 0.5668 0.8238 -23.3408 57.5941)" class="st20" width="0.5" height="0.4"/>
	<rect x="81.9" y="65.4" transform="matrix(0.8238 -0.5668 0.5668 0.8238 -22.71 58.0906)" class="st20" width="0.5" height="0.4"/>
	
		<rect x="82.2" y="65.1" transform="matrix(0.8238 -0.5668 0.5668 0.8238 -22.4998 58.2561)" class="st20" width="0.5" height="0.4"/>
	
		<rect x="83.4" y="64.3" transform="matrix(0.8238 -0.5668 0.5668 0.8238 -21.869 58.7526)" class="st20" width="0.5" height="0.4"/>
	
		<rect x="84.5" y="63.6" transform="matrix(0.8238 -0.5668 0.5668 0.8238 -21.2382 59.2492)" class="st20" width="0.5" height="0.4"/>
	
		<rect x="84.8" y="63.3" transform="matrix(0.8238 -0.5668 0.5668 0.8238 -21.028 59.4147)" class="st20" width="0.5" height="0.4"/>
	
		<rect x="85.6" y="62.8" transform="matrix(0.8238 -0.5668 0.5668 0.8238 -20.6074 59.7457)" class="st20" width="0.5" height="0.4"/>
	<rect x="86" y="62.5" transform="matrix(0.8238 -0.5668 0.5668 0.8238 -20.3972 59.9112)" class="st20" width="0.5" height="0.4"/>
	
		<rect x="75.8" y="70.1" transform="matrix(0.8238 -0.5668 0.5668 0.8238 -26.448 55.4849)" class="st20" width="0.5" height="0.4"/>
	<rect x="77.3" y="69" transform="matrix(0.8238 -0.5668 0.5668 0.8238 -25.607 56.1469)" class="st20" width="0.5" height="0.4"/>
	<rect x="78" y="68.5" transform="matrix(0.8238 -0.5668 0.5668 0.8238 -25.1865 56.4779)" class="st20" width="0.5" height="0.4"/>
	
		<rect x="79.2" y="67.8" transform="matrix(0.8238 -0.5668 0.5668 0.8238 -24.5557 56.9744)" class="st20" width="0.5" height="0.4"/>
	
		<rect x="79.5" y="67.5" transform="matrix(0.8238 -0.5668 0.5668 0.8238 -24.3454 57.1399)" class="st20" width="0.5" height="0.4"/>
	
		<rect x="80.6" y="66.7" transform="matrix(0.8238 -0.5668 0.5668 0.8238 -23.7146 57.6364)" class="st20" width="0.5" height="0.4"/>
	
		<rect x="82.9" y="65.2" transform="matrix(0.8238 -0.5668 0.5668 0.8238 -22.4531 58.6294)" class="st20" width="0.5" height="0.4"/>
	
		<rect x="84.4" y="64.2" transform="matrix(0.8238 -0.5668 0.5668 0.8238 -21.612 59.2914)" class="st20" width="0.5" height="0.4"/>
	
		<rect x="85.1" y="63.7" transform="matrix(0.8238 -0.5668 0.5668 0.8238 -21.1915 59.6224)" class="st20" width="0.5" height="0.4"/>
	
		<rect x="86.2" y="62.9" transform="matrix(0.8238 -0.5668 0.5668 0.8238 -20.5607 60.1189)" class="st20" width="0.5" height="0.4"/>
	
		<rect x="76.8" y="69.9" transform="matrix(0.8238 -0.5668 0.5668 0.8238 -26.1911 56.0237)" class="st20" width="0.5" height="0.4"/>
	
		<rect x="77.6" y="69.4" transform="matrix(0.8238 -0.5668 0.5668 0.8238 -25.7705 56.3547)" class="st20" width="0.5" height="0.4"/>
	
		<rect x="77.9" y="69.2" transform="matrix(0.8238 -0.5668 0.5668 0.8238 -25.5603 56.5202)" class="st20" width="0.5" height="0.4"/>
	
		<rect x="78.7" y="68.6" transform="matrix(0.8238 -0.5668 0.5668 0.8238 -25.1398 56.8512)" class="st20" width="0.5" height="0.4"/>
	<rect x="79" y="68.4" transform="matrix(0.8238 -0.5668 0.5668 0.8238 -24.9295 57.0167)" class="st20" width="0.5" height="0.4"/>
	
		<rect x="79.4" y="68.1" transform="matrix(0.8238 -0.5668 0.5668 0.8238 -24.7192 57.1822)" class="st20" width="0.5" height="0.4"/>
	
		<rect x="79.8" y="67.9" transform="matrix(0.8238 -0.5668 0.5668 0.8238 -24.509 57.3477)" class="st20" width="0.5" height="0.4"/>
	
		<rect x="81.3" y="66.9" transform="matrix(0.8238 -0.5668 0.5668 0.8238 -23.6679 58.0097)" class="st20" width="0.5" height="0.4"/>
	
		<rect x="84.2" y="64.8" transform="matrix(0.8238 -0.5668 0.5668 0.8238 -21.9859 59.3337)" class="st20" width="0.5" height="0.4"/>
	<rect x="85" y="64.3" transform="matrix(0.8238 -0.5668 0.5668 0.8238 -21.5653 59.6647)" class="st20" width="0.5" height="0.4"/>
	
		<rect x="85.7" y="63.8" transform="matrix(0.8238 -0.5668 0.5668 0.8238 -21.1448 59.9957)" class="st20" width="0.5" height="0.4"/>
	
		<rect x="86.5" y="63.3" transform="matrix(0.8238 -0.5668 0.5668 0.8238 -20.7243 60.3267)" class="st20" width="0.5" height="0.4"/>
	
		<rect x="76.7" y="70.5" transform="matrix(0.8238 -0.5668 0.5668 0.8238 -26.5649 56.066)" class="st20" width="0.5" height="0.4"/>
	
		<rect x="77.1" y="70.3" transform="matrix(0.8238 -0.5668 0.5668 0.8238 -26.3546 56.2315)" class="st20" width="0.5" height="0.4"/>
	
		<rect x="77.8" y="69.8" transform="matrix(0.8238 -0.5668 0.5668 0.8238 -25.9341 56.5625)" class="st20" width="0.5" height="0.4"/>
	
		<rect x="78.6" y="69.3" transform="matrix(0.8238 -0.5668 0.5668 0.8238 -25.5136 56.8935)" class="st20" width="0.5" height="0.4"/>
	<rect x="79.7" y="68.5" transform="matrix(0.8238 -0.5668 0.5668 0.8238 -24.8828 57.39)" class="st20" width="0.5" height="0.4"/>
	<rect x="80.4" y="68" transform="matrix(0.8238 -0.5668 0.5668 0.8238 -24.4623 57.721)" class="st20" width="0.5" height="0.4"/>
	
		<rect x="80.8" y="67.7" transform="matrix(0.8238 -0.5668 0.5668 0.8238 -24.252 57.8865)" class="st20" width="0.5" height="0.4"/>
	<rect x="81.9" y="67" transform="matrix(0.8238 -0.5668 0.5668 0.8238 -23.6212 58.383)" class="st20" width="0.5" height="0.4"/>
	<rect x="83" y="66.2" transform="matrix(0.8238 -0.5668 0.5668 0.8238 -22.9904 58.8795)" class="st20" width="0.5" height="0.4"/>
	
		<rect x="83.8" y="65.7" transform="matrix(0.8238 -0.5668 0.5668 0.8238 -22.5699 59.2105)" class="st20" width="0.5" height="0.4"/>
	
		<rect x="84.1" y="65.4" transform="matrix(0.8238 -0.5668 0.5668 0.8238 -22.3597 59.376)" class="st20" width="0.5" height="0.4"/>
	
		<rect x="84.5" y="65.2" transform="matrix(0.8238 -0.5668 0.5668 0.8238 -22.1494 59.5415)" class="st20" width="0.5" height="0.4"/>
	
		<rect x="85.2" y="64.7" transform="matrix(0.8238 -0.5668 0.5668 0.8238 -21.7289 59.8725)" class="st20" width="0.5" height="0.4"/>
	
		<rect x="86.7" y="63.6" transform="matrix(0.8238 -0.5668 0.5668 0.8238 -20.8878 60.5345)" class="st20" width="0.5" height="0.4"/>
	
		<rect x="78.4" y="69.9" transform="matrix(0.8238 -0.5668 0.5668 0.8238 -25.8874 56.9358)" class="st20" width="0.5" height="0.4"/>
	
		<rect x="79.5" y="69.1" transform="matrix(0.8238 -0.5668 0.5668 0.8238 -25.2566 57.4323)" class="st20" width="0.5" height="0.4"/>
	
		<rect x="79.9" y="68.9" transform="matrix(0.8238 -0.5668 0.5668 0.8238 -25.0464 57.5978)" class="st20" width="0.5" height="0.4"/>
	
		<rect x="81.8" y="67.6" transform="matrix(0.8238 -0.5668 0.5668 0.8238 -23.995 58.4253)" class="st20" width="0.5" height="0.4"/>
	
		<rect x="82.1" y="67.3" transform="matrix(0.8238 -0.5668 0.5668 0.8238 -23.7848 58.5908)" class="st20" width="0.5" height="0.4"/>
	
		<rect x="82.9" y="66.8" transform="matrix(0.8238 -0.5668 0.5668 0.8238 -23.3643 58.9218)" class="st20" width="0.5" height="0.4"/>
	
		<rect x="83.6" y="66.3" transform="matrix(0.8238 -0.5668 0.5668 0.8238 -22.9437 59.2528)" class="st20" width="0.5" height="0.4"/>
	<rect x="84" y="66.1" transform="matrix(0.8238 -0.5668 0.5668 0.8238 -22.7335 59.4183)" class="st20" width="0.5" height="0.4"/>
	
		<rect x="85.1" y="65.3" transform="matrix(0.8238 -0.5668 0.5668 0.8238 -22.1027 59.9148)" class="st20" width="0.5" height="0.4"/>
	
		<rect x="85.9" y="64.8" transform="matrix(0.8238 -0.5668 0.5668 0.8238 -21.6822 60.2458)" class="st20" width="0.5" height="0.4"/>
	
		<rect x="77.2" y="71.3" transform="matrix(0.8238 -0.5668 0.5668 0.8238 -26.892 56.4816)" class="st20" width="0.5" height="0.4"/>
	<rect x="77.6" y="71" transform="matrix(0.8238 -0.5668 0.5668 0.8238 -26.6817 56.6471)" class="st20" width="0.5" height="0.4"/>
	
		<rect x="77.9" y="70.8" transform="matrix(0.8238 -0.5668 0.5668 0.8238 -26.4715 56.8126)" class="st20" width="0.5" height="0.4"/>
	
		<rect x="78.3" y="70.5" transform="matrix(0.8238 -0.5668 0.5668 0.8238 -26.2612 56.9781)" class="st20" width="0.5" height="0.4"/>
	
		<rect x="78.7" y="70.3" transform="matrix(0.8238 -0.5668 0.5668 0.8238 -26.051 57.1436)" class="st20" width="0.5" height="0.4"/>
	<rect x="79.1" y="70" transform="matrix(0.8238 -0.5668 0.5668 0.8238 -25.8407 57.3091)" class="st20" width="0.5" height="0.4"/>
	<rect x="80.5" y="69" transform="matrix(0.8238 -0.5668 0.5668 0.8238 -24.9996 57.9711)" class="st20" width="0.5" height="0.4"/>
	
		<rect x="80.9" y="68.7" transform="matrix(0.8238 -0.5668 0.5668 0.8238 -24.7894 58.1366)" class="st20" width="0.5" height="0.4"/>
	
		<rect x="81.7" y="68.2" transform="matrix(0.8238 -0.5668 0.5668 0.8238 -24.3689 58.4676)" class="st20" width="0.5" height="0.4"/>
	<rect x="82" y="68" transform="matrix(0.8238 -0.5668 0.5668 0.8238 -24.1586 58.6331)" class="st20" width="0.5" height="0.4"/>
	
		<rect x="83.9" y="66.7" transform="matrix(0.8238 -0.5668 0.5668 0.8238 -23.1073 59.4606)" class="st20" width="0.5" height="0.4"/>
	
		<rect x="84.3" y="66.4" transform="matrix(0.8238 -0.5668 0.5668 0.8238 -22.897 59.6261)" class="st20" width="0.5" height="0.4"/>
	
		<rect x="84.6" y="66.2" transform="matrix(0.8238 -0.5668 0.5668 0.8238 -22.6868 59.7916)" class="st20" width="0.5" height="0.4"/>
	
		<rect x="86.9" y="64.6" transform="matrix(0.8238 -0.5668 0.5668 0.8238 -21.4252 60.7846)" class="st20" width="0.5" height="0.4"/>
	
		<rect x="87.2" y="64.4" transform="matrix(0.8238 -0.5668 0.5668 0.8238 -21.2149 60.9501)" class="st20" width="0.5" height="0.4"/>
	
		<rect x="77.1" y="71.9" transform="matrix(0.8238 -0.5668 0.5668 0.8238 -27.2658 56.5238)" class="st20" width="0.5" height="0.4"/>
	
		<rect x="77.5" y="71.7" transform="matrix(0.8238 -0.5668 0.5668 0.8238 -27.0555 56.6893)" class="st20" width="0.5" height="0.4"/>
	
		<rect x="78.6" y="70.9" transform="matrix(0.8238 -0.5668 0.5668 0.8238 -26.4248 57.1858)" class="st20" width="0.5" height="0.4"/>
	
		<rect x="80.1" y="69.9" transform="matrix(0.8238 -0.5668 0.5668 0.8238 -25.5837 57.8479)" class="st20" width="0.5" height="0.4"/>
	
		<rect x="80.8" y="69.4" transform="matrix(0.8238 -0.5668 0.5668 0.8238 -25.1632 58.1789)" class="st20" width="0.5" height="0.4"/>
	
		<rect x="81.2" y="69.1" transform="matrix(0.8238 -0.5668 0.5668 0.8238 -24.9529 58.3444)" class="st20" width="0.5" height="0.4"/>
	
		<rect x="81.5" y="68.8" transform="matrix(0.8238 -0.5668 0.5668 0.8238 -24.7427 58.5099)" class="st20" width="0.5" height="0.4"/>
	<rect x="83" y="67.8" transform="matrix(0.8238 -0.5668 0.5668 0.8238 -23.9016 59.1719)" class="st20" width="0.5" height="0.4"/>
	
		<rect x="84.1" y="67.1" transform="matrix(0.8238 -0.5668 0.5668 0.8238 -23.2709 59.6684)" class="st20" width="0.5" height="0.4"/>
	
		<rect x="85.3" y="66.3" transform="matrix(0.8238 -0.5668 0.5668 0.8238 -22.6401 60.1649)" class="st20" width="0.5" height="0.4"/>
	<rect x="86" y="65.8" transform="matrix(0.8238 -0.5668 0.5668 0.8238 -22.2195 60.4959)" class="st20" width="0.5" height="0.4"/>
	
		<rect x="86.7" y="65.3" transform="matrix(0.8238 -0.5668 0.5668 0.8238 -21.799 60.8269)" class="st20" width="0.5" height="0.4"/>
	
		<rect x="87.5" y="64.8" transform="matrix(0.8238 -0.5668 0.5668 0.8238 -21.3785 61.1579)" class="st20" width="0.5" height="0.4"/>
	
		<rect x="78.4" y="71.5" transform="matrix(0.8238 -0.5668 0.5668 0.8238 -26.7986 57.2281)" class="st20" width="0.5" height="0.4"/>
	<rect x="79.2" y="71" transform="matrix(0.8238 -0.5668 0.5668 0.8238 -26.3781 57.5591)" class="st20" width="0.5" height="0.4"/>
	
		<rect x="79.6" y="70.7" transform="matrix(0.8238 -0.5668 0.5668 0.8238 -26.1678 57.7246)" class="st20" width="0.5" height="0.4"/>
	
		<rect x="79.9" y="70.5" transform="matrix(0.8238 -0.5668 0.5668 0.8238 -25.9575 57.8901)" class="st20" width="0.5" height="0.4"/>
	
		<rect x="80.3" y="70.2" transform="matrix(0.8238 -0.5668 0.5668 0.8238 -25.7473 58.0556)" class="st20" width="0.5" height="0.4"/>
	<rect x="80.7" y="70" transform="matrix(0.8238 -0.5668 0.5668 0.8238 -25.537 58.2211)" class="st20" width="0.5" height="0.4"/>
	<rect x="81" y="69.7" transform="matrix(0.8238 -0.5668 0.5668 0.8238 -25.3268 58.3866)" class="st20" width="0.5" height="0.4"/>
	
		<rect x="81.8" y="69.2" transform="matrix(0.8238 -0.5668 0.5668 0.8238 -24.9062 58.7176)" class="st20" width="0.5" height="0.4"/>
	
		<rect x="82.5" y="68.7" transform="matrix(0.8238 -0.5668 0.5668 0.8238 -24.4857 59.0486)" class="st20" width="0.5" height="0.4"/>
	
		<rect x="83.3" y="68.2" transform="matrix(0.8238 -0.5668 0.5668 0.8238 -24.0652 59.3797)" class="st20" width="0.5" height="0.4"/>
	
		<rect x="83.6" y="67.9" transform="matrix(0.8238 -0.5668 0.5668 0.8238 -23.8549 59.5452)" class="st20" width="0.5" height="0.4"/>
	<rect x="84" y="67.7" transform="matrix(0.8238 -0.5668 0.5668 0.8238 -23.6447 59.7107)" class="st20" width="0.5" height="0.4"/>
	
		<rect x="84.4" y="67.4" transform="matrix(0.8238 -0.5668 0.5668 0.8238 -23.4344 59.8762)" class="st20" width="0.5" height="0.4"/>
	
		<rect x="86.6" y="65.9" transform="matrix(0.8238 -0.5668 0.5668 0.8238 -22.1728 60.8692)" class="st20" width="0.5" height="0.4"/>
	
		<rect x="87.7" y="65.1" transform="matrix(0.8238 -0.5668 0.5668 0.8238 -21.5421 61.3657)" class="st20" width="0.5" height="0.4"/>
	
		<rect x="78.3" y="72.1" transform="matrix(0.8238 -0.5668 0.5668 0.8238 -27.1724 57.2704)" class="st20" width="0.5" height="0.4"/>
	
		<rect x="78.7" y="71.9" transform="matrix(0.8238 -0.5668 0.5668 0.8238 -26.9621 57.4359)" class="st20" width="0.5" height="0.4"/>
	
		<rect x="79.1" y="71.6" transform="matrix(0.8238 -0.5668 0.5668 0.8238 -26.7519 57.6014)" class="st20" width="0.5" height="0.4"/>
	
		<rect x="79.4" y="71.4" transform="matrix(0.8238 -0.5668 0.5668 0.8238 -26.5416 57.7669)" class="st20" width="0.5" height="0.4"/>
	
		<rect x="80.9" y="70.3" transform="matrix(0.8238 -0.5668 0.5668 0.8238 -25.7006 58.4289)" class="st20" width="0.5" height="0.4"/>
	
		<rect x="81.3" y="70.1" transform="matrix(0.8238 -0.5668 0.5668 0.8238 -25.4903 58.5944)" class="st20" width="0.5" height="0.4"/>
	
		<rect x="84.6" y="67.8" transform="matrix(0.8238 -0.5668 0.5668 0.8238 -23.598 60.0839)" class="st20" width="0.5" height="0.4"/>
	<rect x="85" y="67.5" transform="matrix(0.8238 -0.5668 0.5668 0.8238 -23.3877 60.2494)" class="st20" width="0.5" height="0.4"/>
	
		<rect x="86.1" y="66.8" transform="matrix(0.8238 -0.5668 0.5668 0.8238 -22.7569 60.7459)" class="st20" width="0.5" height="0.4"/>
	
		<rect x="86.5" y="66.5" transform="matrix(0.8238 -0.5668 0.5668 0.8238 -22.5467 60.9114)" class="st20" width="0.5" height="0.4"/>
	
		<rect x="86.9" y="66.3" transform="matrix(0.8238 -0.5668 0.5668 0.8238 -22.3364 61.077)" class="st20" width="0.5" height="0.4"/>
	
		<rect x="87.6" y="65.7" transform="matrix(0.8238 -0.5668 0.5668 0.8238 -21.9159 61.408)" class="st20" width="0.5" height="0.4"/>
	<rect x="88" y="65.5" transform="matrix(0.8238 -0.5668 0.5668 0.8238 -21.7056 61.5735)" class="st20" width="0.5" height="0.4"/>
	<rect x="77.8" y="73" transform="matrix(0.8238 -0.5668 0.5668 0.8238 -27.7565 57.1472)" class="st20" width="0.5" height="0.4"/>
	
		<rect x="78.2" y="72.8" transform="matrix(0.8238 -0.5668 0.5668 0.8238 -27.5462 57.3127)" class="st20" width="0.5" height="0.4"/>
	<rect x="79.3" y="72" transform="matrix(0.8238 -0.5668 0.5668 0.8238 -26.9154 57.8092)" class="st20" width="0.5" height="0.4"/>
	
		<rect x="80.1" y="71.5" transform="matrix(0.8238 -0.5668 0.5668 0.8238 -26.4949 58.1402)" class="st20" width="0.5" height="0.4"/>
	<rect x="80.8" y="71" transform="matrix(0.8238 -0.5668 0.5668 0.8238 -26.0744 58.4712)" class="st20" width="0.5" height="0.4"/>
	
		<rect x="81.2" y="70.7" transform="matrix(0.8238 -0.5668 0.5668 0.8238 -25.8641 58.6367)" class="st20" width="0.5" height="0.4"/>
	
		<rect x="81.6" y="70.5" transform="matrix(0.8238 -0.5668 0.5668 0.8238 -25.6539 58.8022)" class="st20" width="0.5" height="0.4"/>
	
		<rect x="81.9" y="70.2" transform="matrix(0.8238 -0.5668 0.5668 0.8238 -25.4436 58.9677)" class="st20" width="0.5" height="0.4"/>
	
		<rect x="82.3" y="69.9" transform="matrix(0.8238 -0.5668 0.5668 0.8238 -25.2333 59.1332)" class="st20" width="0.5" height="0.4"/>
	
		<rect x="82.7" y="69.7" transform="matrix(0.8238 -0.5668 0.5668 0.8238 -25.0231 59.2987)" class="st20" width="0.5" height="0.4"/>
	<rect x="83" y="69.4" transform="matrix(0.8238 -0.5668 0.5668 0.8238 -24.8128 59.4642)" class="st20" width="0.5" height="0.4"/>
	
		<rect x="85.3" y="67.9" transform="matrix(0.8238 -0.5668 0.5668 0.8238 -23.5513 60.4572)" class="st20" width="0.5" height="0.4"/>
	
		<rect x="85.6" y="67.6" transform="matrix(0.8238 -0.5668 0.5668 0.8238 -23.341 60.6227)" class="st20" width="0.5" height="0.4"/>
	<rect x="86" y="67.4" transform="matrix(0.8238 -0.5668 0.5668 0.8238 -23.1307 60.7882)" class="st20" width="0.5" height="0.4"/>
	
		<rect x="86.4" y="67.1" transform="matrix(0.8238 -0.5668 0.5668 0.8238 -22.9205 60.9537)" class="st20" width="0.5" height="0.4"/>
	
		<rect x="86.8" y="66.9" transform="matrix(0.8238 -0.5668 0.5668 0.8238 -22.7102 61.1192)" class="st20" width="0.5" height="0.4"/>
	
		<rect x="87.1" y="66.6" transform="matrix(0.8238 -0.5668 0.5668 0.8238 -22.4999 61.2847)" class="st20" width="0.5" height="0.4"/>
	
		<rect x="87.9" y="66.1" transform="matrix(0.8238 -0.5668 0.5668 0.8238 -22.0794 61.6157)" class="st20" width="0.5" height="0.4"/>
	
		<rect x="81.1" y="71.3" transform="matrix(0.8238 -0.5668 0.5668 0.8238 -26.2379 58.679)" class="st20" width="0.5" height="0.4"/>
	
		<rect x="81.4" y="71.1" transform="matrix(0.8238 -0.5668 0.5668 0.8238 -26.0277 58.8445)" class="st20" width="0.5" height="0.4"/>
	
		<rect x="82.2" y="70.6" transform="matrix(0.8238 -0.5668 0.5668 0.8238 -25.6072 59.1755)" class="st20" width="0.5" height="0.4"/>
	
		<rect x="83.3" y="69.8" transform="matrix(0.8238 -0.5668 0.5668 0.8238 -24.9764 59.672)" class="st20" width="0.5" height="0.4"/>
	
		<rect x="84.8" y="68.8" transform="matrix(0.8238 -0.5668 0.5668 0.8238 -24.1353 60.334)" class="st20" width="0.5" height="0.4"/>
	
		<rect x="85.5" y="68.3" transform="matrix(0.8238 -0.5668 0.5668 0.8238 -23.7148 60.665)" class="st20" width="0.5" height="0.4"/>
	<rect x="87" y="67.2" transform="matrix(0.8238 -0.5668 0.5668 0.8238 -22.8738 61.327)" class="st20" width="0.5" height="0.4"/>
	
		<rect x="87.7" y="66.7" transform="matrix(0.8238 -0.5668 0.5668 0.8238 -22.4532 61.658)" class="st20" width="0.5" height="0.4"/>
	
		<rect x="88.5" y="66.2" transform="matrix(0.8238 -0.5668 0.5668 0.8238 -22.0327 61.989)" class="st20" width="0.5" height="0.4"/>
	
		<rect x="81.3" y="71.7" transform="matrix(0.8238 -0.5668 0.5668 0.8238 -26.4015 58.8868)" class="st20" width="0.5" height="0.4"/>
	
		<rect x="81.7" y="71.4" transform="matrix(0.8238 -0.5668 0.5668 0.8238 -26.1912 59.0523)" class="st20" width="0.5" height="0.4"/>
	
		<rect x="82.4" y="70.9" transform="matrix(0.8238 -0.5668 0.5668 0.8238 -25.7707 59.3833)" class="st20" width="0.5" height="0.4"/>
	
		<rect x="83.5" y="70.2" transform="matrix(0.8238 -0.5668 0.5668 0.8238 -25.1399 59.8798)" class="st20" width="0.5" height="0.4"/>
	
		<rect x="83.9" y="69.9" transform="matrix(0.8238 -0.5668 0.5668 0.8238 -24.9297 60.0453)" class="st20" width="0.5" height="0.4"/>
	
		<rect x="84.3" y="69.7" transform="matrix(0.8238 -0.5668 0.5668 0.8238 -24.7194 60.2108)" class="st20" width="0.5" height="0.4"/>
	
		<rect x="84.7" y="69.4" transform="matrix(0.8238 -0.5668 0.5668 0.8238 -24.5091 60.3763)" class="st20" width="0.5" height="0.4"/>
	<rect x="85" y="69.1" transform="matrix(0.8238 -0.5668 0.5668 0.8238 -24.2989 60.5418)" class="st20" width="0.5" height="0.4"/>
	
		<rect x="85.4" y="68.9" transform="matrix(0.8238 -0.5668 0.5668 0.8238 -24.0886 60.7073)" class="st20" width="0.5" height="0.4"/>
	
		<rect x="85.8" y="68.6" transform="matrix(0.8238 -0.5668 0.5668 0.8238 -23.8784 60.8728)" class="st20" width="0.5" height="0.4"/>
	
		<rect x="86.5" y="68.1" transform="matrix(0.8238 -0.5668 0.5668 0.8238 -23.4578 61.2038)" class="st20" width="0.5" height="0.4"/>
	
		<rect x="87.3" y="67.6" transform="matrix(0.8238 -0.5668 0.5668 0.8238 -23.0373 61.5348)" class="st20" width="0.5" height="0.4"/>
	
		<rect x="88.7" y="66.6" transform="matrix(0.8238 -0.5668 0.5668 0.8238 -22.1963 62.1968)" class="st20" width="0.5" height="0.4"/>
	
		<rect x="81.6" y="72.1" transform="matrix(0.8238 -0.5668 0.5668 0.8238 -26.565 59.0946)" class="st20" width="0.5" height="0.4"/>
	<rect x="83.1" y="71" transform="matrix(0.8238 -0.5668 0.5668 0.8238 -25.724 59.7566)" class="st20" width="0.5" height="0.4"/>
	
		<rect x="85.7" y="69.3" transform="matrix(0.8238 -0.5668 0.5668 0.8238 -24.2522 60.9151)" class="st20" width="0.5" height="0.4"/>
	<rect x="86" y="69" transform="matrix(0.8238 -0.5668 0.5668 0.8238 -24.0419 61.0806)" class="st20" width="0.5" height="0.4"/>
	<rect x="87.5" y="68" transform="matrix(0.8238 -0.5668 0.5668 0.8238 -23.2009 61.7426)" class="st20" width="0.5" height="0.4"/>
	
		<rect x="87.9" y="67.7" transform="matrix(0.8238 -0.5668 0.5668 0.8238 -22.9906 61.9081)" class="st20" width="0.5" height="0.4"/>
	
		<rect x="88.6" y="67.2" transform="matrix(0.8238 -0.5668 0.5668 0.8238 -22.5701 62.2391)" class="st20" width="0.5" height="0.4"/>
	
		<rect x="81.8" y="72.4" transform="matrix(0.8238 -0.5668 0.5668 0.8238 -26.7286 59.3024)" class="st20" width="0.5" height="0.4"/>
	
		<rect x="83.3" y="71.4" transform="matrix(0.8238 -0.5668 0.5668 0.8238 -25.8876 59.9644)" class="st20" width="0.5" height="0.4"/>
	
		<rect x="83.7" y="71.2" transform="matrix(0.8238 -0.5668 0.5668 0.8238 -25.6773 60.1299)" class="st20" width="0.5" height="0.4"/>
	<rect x="84" y="70.9" transform="matrix(0.8238 -0.5668 0.5668 0.8238 -25.467 60.2954)" class="st20" width="0.5" height="0.4"/>
	
		<rect x="84.8" y="70.4" transform="matrix(0.8238 -0.5668 0.5668 0.8238 -25.0465 60.6264)" class="st20" width="0.5" height="0.4"/>
	
		<rect x="85.5" y="69.9" transform="matrix(0.8238 -0.5668 0.5668 0.8238 -24.626 60.9574)" class="st20" width="0.5" height="0.4"/>
	
		<rect x="85.9" y="69.6" transform="matrix(0.8238 -0.5668 0.5668 0.8238 -24.4157 61.1229)" class="st20" width="0.5" height="0.4"/>
	
		<rect x="86.3" y="69.4" transform="matrix(0.8238 -0.5668 0.5668 0.8238 -24.2055 61.2884)" class="st20" width="0.5" height="0.4"/>
	
		<rect x="86.6" y="69.1" transform="matrix(0.8238 -0.5668 0.5668 0.8238 -23.9952 61.4539)" class="st20" width="0.5" height="0.4"/>
	<rect x="87" y="68.9" transform="matrix(0.8238 -0.5668 0.5668 0.8238 -23.7849 61.6194)" class="st20" width="0.5" height="0.4"/>
	
		<rect x="87.4" y="68.6" transform="matrix(0.8238 -0.5668 0.5668 0.8238 -23.5747 61.7849)" class="st20" width="0.5" height="0.4"/>
	
		<rect x="87.8" y="68.3" transform="matrix(0.8238 -0.5668 0.5668 0.8238 -23.3644 61.9504)" class="st20" width="0.5" height="0.4"/>
	
		<rect x="88.9" y="67.6" transform="matrix(0.8238 -0.5668 0.5668 0.8238 -22.7336 62.4469)" class="st20" width="0.5" height="0.4"/>
	
		<rect x="89.2" y="67.3" transform="matrix(0.8238 -0.5668 0.5668 0.8238 -22.5234 62.6124)" class="st20" width="0.5" height="0.4"/>
	<rect x="83.2" y="72" transform="matrix(0.8238 -0.5668 0.5668 0.8238 -26.2614 60.0067)" class="st20" width="0.5" height="0.4"/>
	
		<rect x="84.3" y="71.3" transform="matrix(0.8238 -0.5668 0.5668 0.8238 -25.6306 60.5032)" class="st20" width="0.5" height="0.4"/>
	<rect x="84.7" y="71" transform="matrix(0.8238 -0.5668 0.5668 0.8238 -25.4203 60.6687)" class="st20" width="0.5" height="0.4"/>
	
		<rect x="85.4" y="70.5" transform="matrix(0.8238 -0.5668 0.5668 0.8238 -24.9998 60.9997)" class="st20" width="0.5" height="0.4"/>
	<rect x="87.6" y="69" transform="matrix(0.8238 -0.5668 0.5668 0.8238 -23.7382 61.9927)" class="st20" width="0.5" height="0.4"/>
	
		<rect x="88.4" y="68.5" transform="matrix(0.8238 -0.5668 0.5668 0.8238 -23.3177 62.3237)" class="st20" width="0.5" height="0.4"/>
	
		<rect x="88.8" y="68.2" transform="matrix(0.8238 -0.5668 0.5668 0.8238 -23.1075 62.4892)" class="st20" width="0.5" height="0.4"/>
	
		<rect x="89.1" y="67.9" transform="matrix(0.8238 -0.5668 0.5668 0.8238 -22.8972 62.6547)" class="st20" width="0.5" height="0.4"/>
	
		<rect x="82.7" y="72.9" transform="matrix(0.8238 -0.5668 0.5668 0.8238 -26.8454 59.8834)" class="st20" width="0.5" height="0.4"/>
	
		<rect x="83.8" y="72.1" transform="matrix(0.8238 -0.5668 0.5668 0.8238 -26.2147 60.3799)" class="st20" width="0.5" height="0.4"/>
	
		<rect x="84.6" y="71.6" transform="matrix(0.8238 -0.5668 0.5668 0.8238 -25.7941 60.7109)" class="st20" width="0.5" height="0.4"/>
	
		<rect x="84.9" y="71.4" transform="matrix(0.8238 -0.5668 0.5668 0.8238 -25.5839 60.8764)" class="st20" width="0.5" height="0.4"/>
	<rect x="86" y="70.6" transform="matrix(0.8238 -0.5668 0.5668 0.8238 -24.9531 61.3729)" class="st20" width="0.5" height="0.4"/>
	
		<rect x="86.4" y="70.4" transform="matrix(0.8238 -0.5668 0.5668 0.8238 -24.7428 61.5385)" class="st20" width="0.5" height="0.4"/>
	
		<rect x="86.8" y="70.1" transform="matrix(0.8238 -0.5668 0.5668 0.8238 -24.5326 61.704)" class="st20" width="0.5" height="0.4"/>
	
		<rect x="87.2" y="69.8" transform="matrix(0.8238 -0.5668 0.5668 0.8238 -24.3223 61.8695)" class="st20" width="0.5" height="0.4"/>
	
		<rect x="88.6" y="68.8" transform="matrix(0.8238 -0.5668 0.5668 0.8238 -23.4813 62.5315)" class="st20" width="0.5" height="0.4"/>
	<rect x="89" y="68.6" transform="matrix(0.8238 -0.5668 0.5668 0.8238 -23.271 62.697)" class="st20" width="0.5" height="0.4"/>
	
		<rect x="89.4" y="68.3" transform="matrix(0.8238 -0.5668 0.5668 0.8238 -23.0607 62.8625)" class="st20" width="0.5" height="0.4"/>
	
		<rect x="89.8" y="68.1" transform="matrix(0.8238 -0.5668 0.5668 0.8238 -22.8505 63.028)" class="st20" width="0.5" height="0.4"/>
	
		<rect x="82.9" y="73.3" transform="matrix(0.8238 -0.5668 0.5668 0.8238 -27.009 60.0912)" class="st20" width="0.5" height="0.4"/>
	<rect x="83.3" y="73" transform="matrix(0.8238 -0.5668 0.5668 0.8238 -26.7987 60.2567)" class="st20" width="0.5" height="0.4"/>
	
		<rect x="84.4" y="72.3" transform="matrix(0.8238 -0.5668 0.5668 0.8238 -26.168 60.7532)" class="st20" width="0.5" height="0.4"/>
	<rect x="84.8" y="72" transform="matrix(0.8238 -0.5668 0.5668 0.8238 -25.9577 60.9187)" class="st20" width="0.5" height="0.4"/>
	
		<rect x="85.2" y="71.7" transform="matrix(0.8238 -0.5668 0.5668 0.8238 -25.7474 61.0842)" class="st20" width="0.5" height="0.4"/>
	
		<rect x="87.4" y="70.2" transform="matrix(0.8238 -0.5668 0.5668 0.8238 -24.4859 62.0772)" class="st20" width="0.5" height="0.4"/>
	
		<rect x="88.1" y="69.7" transform="matrix(0.8238 -0.5668 0.5668 0.8238 -24.0653 62.4082)" class="st20" width="0.5" height="0.4"/>
	
		<rect x="88.9" y="69.2" transform="matrix(0.8238 -0.5668 0.5668 0.8238 -23.6448 62.7392)" class="st20" width="0.5" height="0.4"/>
	
		<rect x="89.6" y="68.7" transform="matrix(0.8238 -0.5668 0.5668 0.8238 -23.2243 63.0702)" class="st20" width="0.5" height="0.4"/>
	<rect x="90" y="68.4" transform="matrix(0.8238 -0.5668 0.5668 0.8238 -23.014 63.2358)" class="st20" width="0.5" height="0.4"/>
	
		<rect x="84.3" y="72.9" transform="matrix(0.8238 -0.5668 0.5668 0.8238 -26.5418 60.7955)" class="st20" width="0.5" height="0.4"/>
	
		<rect x="84.7" y="72.6" transform="matrix(0.8238 -0.5668 0.5668 0.8238 -26.3315 60.961)" class="st20" width="0.5" height="0.4"/>
	
		<rect x="86.5" y="71.3" transform="matrix(0.8238 -0.5668 0.5668 0.8238 -25.2802 61.7885)" class="st20" width="0.5" height="0.4"/>
	
		<rect x="86.9" y="71.1" transform="matrix(0.8238 -0.5668 0.5668 0.8238 -25.0699 61.954)" class="st20" width="0.5" height="0.4"/>
	
		<rect x="87.3" y="70.8" transform="matrix(0.8238 -0.5668 0.5668 0.8238 -24.8597 62.1195)" class="st20" width="0.5" height="0.4"/>
	
		<rect x="87.7" y="70.6" transform="matrix(0.8238 -0.5668 0.5668 0.8238 -24.6494 62.285)" class="st20" width="0.5" height="0.4"/>
	
		<rect x="88.8" y="69.8" transform="matrix(0.8238 -0.5668 0.5668 0.8238 -24.0186 62.7815)" class="st20" width="0.5" height="0.4"/>
	
		<rect x="89.1" y="69.6" transform="matrix(0.8238 -0.5668 0.5668 0.8238 -23.8084 62.947)" class="st20" width="0.5" height="0.4"/>
	<rect x="89.9" y="69" transform="matrix(0.8238 -0.5668 0.5668 0.8238 -23.3879 63.278)" class="st20" width="0.5" height="0.4"/>
	<path class="st20" d="M74.9,64.3l-2.2,1.5l1.8,2.6l2.6-1.8L75.3,64L74.9,64.3z M76.4,66.5l-1.8,1.3L73.4,66l1.8-1.3L76.4,66.5z
		 M76.4,66.5"/>
	<path class="st20" d="M83.1,58.7l-2.2,1.5l1.8,2.6l2.6-1.8l-1.8-2.6L83.1,58.7z M84.6,60.9l-1.8,1.3l-1.2-1.8l1.8-1.3L84.6,60.9z
		 M84.6,60.9"/>
	<path class="st20" d="M80.5,72.4l-2.2,1.5l1.8,2.6l2.6-1.8l-1.8-2.6L80.5,72.4z M82,74.6l-1.8,1.3L78.9,74l1.8-1.3L82,74.6z
		 M82,74.6"/>
	
		<rect x="74.2" y="65.6" transform="matrix(0.8238 -0.5668 0.5668 0.8238 -24.3453 54.1113)" class="st20" width="1.4" height="1.3"/>
	
		<rect x="82.4" y="59.9" transform="matrix(0.8238 -0.5668 0.5668 0.8238 -19.7195 57.7524)" class="st20" width="1.4" height="1.3"/>
	
		<rect x="79.8" y="73.6" transform="matrix(0.8238 -0.5668 0.5668 0.8238 -27.9435 58.6826)" class="st20" width="1.4" height="1.3"/>
</g>
</svg>
