<?xml version="1.0" encoding="utf-8"?>
<!-- Generator: Adobe Illustrator 24.0.0, SVG Export Plug-In . SVG Version: 6.00 Build 0)  -->
<svg version="1.1" xmlns="http://www.w3.org/2000/svg" xmlns:xlink="http://www.w3.org/1999/xlink" x="0px" y="0px"
	 viewBox="0 0 17 17" style="enable-background:new 0 0 17 17;" xml:space="preserve">
<style type="text/css">
	.st0{fill:#FFFFFF;}
</style>
<g id="Calque_1">
	<rect y="0" class="st0" width="17" height="17"/>
</g>
<g id="Calque_2">
	<g>
		<g>
			<path d="M11.9,6.2c0-0.1,0-0.3,0-0.4c0-0.4-0.1-0.7-0.3-1c-0.1-0.2-0.2-0.3-0.3-0.5c-0.2-0.3-0.4-0.5-0.7-0.7
				c-0.2-0.2-0.4-0.3-0.7-0.4C9.5,3,9.1,2.9,8.6,2.9c-0.3,0-0.5,0-0.8,0.1C6.9,3.1,6.1,3.7,5.6,4.5C5.5,4.7,5.4,4.9,5.3,5.2
				C5.2,5.5,5.1,5.8,5.1,6.1c0,1.6,0,3.3,0,4.9c0,0.1,0,0.2,0,0.3c0,0.2,0.1,0.5,0.2,0.7c0.1,0.2,0.2,0.5,0.3,0.7
				c0.2,0.3,0.4,0.5,0.7,0.7c0.3,0.3,0.6,0.4,1,0.6c0.3,0.1,0.6,0.2,0.9,0.2c0.2,0,0.3,0,0.5,0c0.3,0,0.6-0.1,0.8-0.2
				c0.4-0.1,0.7-0.3,1-0.5c0.3-0.2,0.5-0.4,0.7-0.7c0.2-0.3,0.4-0.6,0.5-0.9c0.1-0.3,0.1-0.6,0.1-0.9c0-0.8,0-1.6,0-2.4
				C11.9,7.8,11.9,7,11.9,6.2z M11,11.8c-0.1,0.2-0.2,0.5-0.3,0.7c-0.4,0.6-1.1,1-1.8,1.1c-0.4,0.1-0.9,0-1.3-0.1
				c-0.2-0.1-0.4-0.2-0.5-0.3c-0.3-0.2-0.6-0.5-0.8-0.8C6.1,12,6,11.7,6,11.4c0-0.2,0-0.4,0-0.6c0-1.6,0-3.1,0-4.7
				c0-0.4,0.1-0.8,0.3-1.2C6.5,4.6,6.8,4.2,7.2,4c0.3-0.2,0.7-0.3,1-0.4c0.5-0.1,0.9,0,1.4,0.2c0.6,0.3,1.1,0.8,1.4,1.4
				c0.1,0.3,0.2,0.6,0.2,0.9c0,0.8,0,1.6,0,2.4c0,0.8,0,1.6,0,2.4C11.1,11.3,11.1,11.5,11,11.8z"/>
		</g>
		<g>
			<path d="M10.5,8.5c0,0.4,0,0.8,0,1.2c0,0.2,0,0.4,0,0.7c0,0.2,0,0.4-0.1,0.6c-0.1,0.3-0.4,0.6-0.7,0.7C9.3,12,8.8,12,8.4,11.8
				c-0.3-0.1-0.5-0.3-0.7-0.6c-0.1-0.2-0.2-0.5-0.2-0.8c0-1.2,0-2.5,0-3.7c0-0.1,0-0.1,0-0.2C7.6,6.2,7.9,6,8.2,6.1
				c0.3,0.1,0.4,0.3,0.4,0.6c0,0.2,0,0.4,0,0.5c0,1,0,2,0,2.9c0,0.1,0,0.2,0,0.3c0,0.2,0.2,0.3,0.3,0.3c0,0,0,0,0,0
				c0.1,0,0.2-0.1,0.2-0.2c0,0,0-0.1,0-0.1c0-0.2,0-0.5,0-0.7c0-0.8,0-1.5,0-2.3c0-0.3,0-0.5,0-0.8c0-0.3-0.1-0.6-0.3-0.8
				C8.8,5.7,8.5,5.5,8.2,5.5C7.7,5.4,7.2,5.7,7,6.1C6.9,6.3,6.8,6.5,6.8,6.7c0,1,0,2,0,3c0,0.3,0,0.5,0,0.8c0,0.2,0,0.4,0.1,0.6
				c0.1,0.4,0.4,0.7,0.7,0.9c0.2,0.2,0.5,0.3,0.7,0.4c0,0,0.1,0,0.1,0c0.1,0,0.1,0.1,0.1,0.1c0,0.1-0.1,0.1-0.1,0.1c0,0,0,0,0,0
				c-0.1,0-0.1,0-0.2,0c-0.3-0.1-0.7-0.3-0.9-0.5C7.2,12.1,7.1,12,7,11.9c-0.2-0.2-0.3-0.5-0.4-0.7c-0.1-0.2-0.1-0.4-0.1-0.5
				c0-0.2,0-0.5,0-0.7c0-0.7,0-1.5,0-2.2c0-0.3,0-0.6,0-1c0-0.2,0-0.3,0.1-0.4C6.7,6,6.9,5.7,7.2,5.5C7.9,5,8.8,5.2,9.3,5.8
				C9.5,6,9.6,6.4,9.6,6.7c0,1.2,0,2.4,0,3.7c0,0.1,0,0.1,0,0.2c0,0.2-0.1,0.3-0.3,0.4C9.2,11,9,11,8.9,11c-0.3,0-0.5-0.2-0.5-0.5
				c0-0.1,0-0.2,0-0.3c0-0.1,0-0.1,0-0.2c0-1.1,0-2.2,0-3.2c0,0,0-0.1,0-0.1c0-0.2-0.2-0.3-0.4-0.3c-0.1,0-0.1,0-0.1,0.1
				C7.8,6.5,7.7,6.6,7.7,6.7c0,0.2,0,0.4,0,0.5c0,0.9,0,1.7,0,2.6c0,0.2,0,0.5,0,0.7c0,0.1,0,0.3,0.1,0.4c0.1,0.2,0.3,0.4,0.5,0.5
				c0.2,0.1,0.3,0.2,0.5,0.2c0.6,0.1,1.2-0.3,1.4-0.9c0-0.1,0-0.2,0-0.3c0-1.1,0-2.1,0-3.2c0-0.2,0-0.4,0-0.7c0-0.3-0.1-0.6-0.3-0.9
				C9.9,5.5,9.8,5.4,9.7,5.3C9.5,5.1,9.2,4.9,8.9,4.8c-0.1,0-0.2-0.1-0.3-0.1c-0.1,0-0.1-0.1-0.1-0.2c0,0,0,0,0,0
				c0-0.1,0.1-0.1,0.1-0.1c0,0,0.1,0,0.1,0C9,4.5,9.2,4.6,9.4,4.7C9.6,4.8,9.8,5,9.9,5.1c0.1,0.2,0.2,0.3,0.3,0.5
				c0.1,0.2,0.2,0.5,0.2,0.7c0,0.1,0,0.3,0,0.4c0,0.3,0,0.6,0,0.9C10.5,7.9,10.5,8.2,10.5,8.5L10.5,8.5z"/>
			<path d="M10.1,8.5c0,0.5,0,1,0,1.5c0,0.1,0,0.3,0,0.4c0,0.1,0,0.2-0.1,0.4c-0.1,0.3-0.4,0.5-0.7,0.6c-0.4,0.1-0.7,0-1-0.2
				C8.1,11.1,8,10.9,8,10.8c-0.1-0.1-0.1-0.3-0.1-0.4c0-0.5,0-1.1,0-1.6c0-0.7,0-1.3,0-2c0,0,0-0.1,0-0.1c0-0.1,0.1-0.1,0.1-0.1
				c0,0,0.1,0,0.1,0c0,0,0,0.1,0,0.1c0,0.1,0,0.2,0,0.3c0,1.1,0,2.2,0,3.3c0,0.1,0,0.2,0,0.2c0.1,0.4,0.5,0.7,0.9,0.6c0,0,0,0,0.1,0
				c0.3-0.1,0.6-0.4,0.6-0.8c0-1.1,0-2.3,0-3.4c0-0.2,0-0.3,0-0.5c0-0.2-0.1-0.3-0.1-0.5C9.6,5.9,9.5,5.7,9.3,5.6
				C9.1,5.3,8.7,5.1,8.4,5c-0.2,0-0.5,0-0.7,0c-0.2,0-0.3,0.1-0.5,0.2c0,0,0,0-0.1,0C7.1,5.3,7,5.3,7,5.2c0,0,0-0.1,0-0.1
				c0,0,0,0,0.1,0c0.3-0.2,0.7-0.3,1.1-0.2c0.4,0,0.7,0.1,1,0.3C9.5,5.3,9.8,5.6,9.9,6c0.1,0.3,0.2,0.5,0.1,0.8c0,0.2,0,0.5,0,0.7
				C10.1,7.8,10.1,8.2,10.1,8.5L10.1,8.5z"/>
			<path d="M7,8.6c0-0.3,0-0.7,0-1C7,7.3,7,7,7,6.7c0-0.2,0.1-0.5,0.2-0.6c0.4-0.5,1.1-0.5,1.5-0.1C8.8,6,8.9,6,8.9,6.1
				c0.1,0.2,0.2,0.4,0.2,0.6c0,0.4,0,0.8,0,1.1c0,0.6,0,1.1,0,1.7c0,0.3,0,0.6,0,0.9c0,0,0,0,0,0.1c0,0.1-0.1,0.1-0.1,0.1
				c-0.1,0-0.1,0-0.1-0.1c0,0,0,0,0,0c0,0,0-0.1,0-0.1c0-1,0-2,0-3c0-0.2,0-0.4,0-0.6c0-0.2-0.1-0.3-0.2-0.5C8.5,6,8.3,5.9,8,5.9
				C7.8,6,7.6,6.1,7.4,6.3C7.3,6.4,7.3,6.5,7.3,6.7c0,0.1,0,0.2,0,0.3c0,0.4,0,0.7,0,1.1c0,0.6,0,1.2,0,1.7c0,0.2,0,0.5,0,0.7
				c0,0.3,0.1,0.6,0.3,0.9c0.3,0.4,0.7,0.6,1.2,0.7c0.4,0,0.7,0,1.1-0.2c0,0,0,0,0.1,0c0.1,0,0.1,0,0.2,0c0,0,0,0,0,0
				c0,0.1,0,0.1,0,0.2c0,0,0,0,0,0c-0.1,0.1-0.3,0.1-0.4,0.2c-0.4,0.1-0.9,0.1-1.3,0c-0.2-0.1-0.4-0.2-0.6-0.3
				c-0.2-0.2-0.4-0.3-0.5-0.6C7.1,11.1,7,10.8,7,10.5C7,9.9,7,9.2,7,8.6L7,8.6z"/>
		</g>
	</g>
</g>
</svg>
