<?xml version="1.0" encoding="utf-8"?>
<!-- Generator: Adobe Illustrator 24.0.0, SVG Export Plug-In . SVG Version: 6.00 Build 0)  -->
<svg version="1.1" id="Calque_1" xmlns="http://www.w3.org/2000/svg" xmlns:xlink="http://www.w3.org/1999/xlink" x="0px" y="0px"
	 viewBox="0 0 11 17" style="enable-background:new 0 0 11 17;" xml:space="preserve">
<style type="text/css">
	.st0{fill:#FAFAFA;}
</style>
<path class="st0" d="M10.2,8.8c0,1.1,0,2.2,0,3.3c0,0.4-0.1,0.9-0.2,1.3c-0.1,0.5-0.4,0.9-0.6,1.3c-0.3,0.4-0.6,0.7-0.9,1
	c-0.4,0.3-0.9,0.6-1.4,0.7c-0.4,0.1-0.8,0.2-1.1,0.2c-0.2,0-0.5,0-0.7,0c-0.4,0-0.9-0.1-1.3-0.3c-0.5-0.2-1-0.5-1.4-0.8
	c-0.3-0.3-0.7-0.6-0.9-1c-0.2-0.3-0.4-0.6-0.5-1c-0.1-0.3-0.2-0.6-0.2-1c0-0.2,0-0.3,0-0.5c0-2.3,0-4.5,0-6.8C1,5,1,4.6,1.2,4.2
	c0.1-0.3,0.3-0.7,0.4-1C2.3,2.1,3.4,1.3,4.7,1C5,1,5.4,0.9,5.8,1c0.6,0,1.2,0.2,1.7,0.4c0.3,0.1,0.6,0.3,0.9,0.5
	c0.4,0.3,0.7,0.6,0.9,0.9C9.5,3,9.6,3.3,9.8,3.5c0.2,0.4,0.4,0.9,0.4,1.4c0,0.2,0,0.4,0,0.6C10.2,6.6,10.2,7.7,10.2,8.8z M9.1,8.8
	c0-1.1,0-2.2,0-3.3C9.1,5,9,4.6,8.9,4.3C8.3,2.8,6.8,1.9,5.2,2.1c-0.5,0.1-1,0.2-1.4,0.5c-0.5,0.3-1,0.7-1.3,1.3
	C2.2,4.3,2,4.9,2.1,5.5c0,2.1,0,4.2,0,6.4c0,0.3,0,0.5,0.1,0.8c0.1,0.4,0.2,0.8,0.4,1.2c0.3,0.4,0.6,0.8,1,1.1
	c0.2,0.2,0.5,0.3,0.7,0.4c0.6,0.2,1.2,0.3,1.8,0.2c1-0.1,1.9-0.7,2.4-1.5c0.2-0.3,0.3-0.6,0.5-0.9c0.1-0.3,0.2-0.7,0.2-1
	C9.1,11,9.1,9.9,9.1,8.8z"/>
<path class="st0" d="M8.3,8.6c0,0.6,0,1.1,0,1.7c0,0.3,0,0.6,0,0.9c0,0.3-0.1,0.6-0.2,0.9c-0.2,0.4-0.5,0.8-0.9,1
	c-0.6,0.3-1.3,0.4-1.9,0.1C5,13,4.6,12.7,4.4,12.3c-0.2-0.3-0.3-0.7-0.3-1c0-1.7,0-3.4,0-5c0-0.1,0-0.2,0-0.3c0.1-0.4,0.6-0.7,1-0.6
	c0.4,0.1,0.6,0.4,0.6,0.8c0,0.2,0,0.5,0,0.7c0,1.3,0,2.7,0,4c0,0.2,0,0.3,0,0.5c0,0.2,0.2,0.4,0.4,0.3c0,0,0,0,0.1,0
	c0.1,0,0.3-0.1,0.3-0.3c0,0,0-0.1,0-0.1c0-0.3,0-0.7,0-1c0-1,0-2.1,0-3.1c0-0.4,0-0.7,0-1.1c0-0.4-0.2-0.8-0.4-1
	C6,4.8,5.6,4.6,5.2,4.6C4.5,4.5,3.8,4.8,3.5,5.4C3.3,5.6,3.2,5.9,3.2,6.2c0,1.4,0,2.8,0,4.1c0,0.4,0,0.7,0,1.1c0,0.3,0,0.6,0.1,0.9
	c0.2,0.5,0.5,0.9,0.9,1.3c0.3,0.2,0.6,0.4,1,0.5c0.1,0,0.1,0,0.2,0.1c0.1,0,0.1,0.1,0.1,0.2c0,0.1-0.1,0.1-0.2,0.1l0,0
	c-0.1,0-0.1,0-0.2,0c-0.5-0.1-0.9-0.4-1.3-0.7c-0.2-0.1-0.3-0.3-0.4-0.5c-0.2-0.3-0.4-0.6-0.5-1c-0.1-0.2-0.1-0.5-0.1-0.7
	c0-0.3,0-0.6,0-1c0-1,0-2,0-3c0-0.4,0-0.9,0-1.3c0-0.2,0-0.4,0.1-0.6c0.1-0.4,0.4-0.8,0.8-1.1C4.7,3.9,5.9,4.1,6.6,5
	C6.9,5.3,7,5.8,7,6.2c0,1.7,0,3.3,0,5c0,0.1,0,0.2,0,0.3c0,0.2-0.2,0.4-0.4,0.5c-0.2,0.1-0.3,0.1-0.5,0.1c-0.3,0-0.6-0.3-0.7-0.7
	c0-0.1,0-0.3,0-0.4c0-0.1,0-0.2,0-0.3c0-1.5,0-3,0-4.4c0-0.1,0-0.1,0-0.2c0-0.2-0.3-0.4-0.5-0.4c-0.1,0-0.1,0-0.2,0.1
	C4.6,6,4.5,6.1,4.5,6.2c0,0.2,0,0.5,0,0.7c0,1.2,0,2.3,0,3.5c0,0.3,0,0.6,0,0.9c0,0.2,0,0.4,0.1,0.6c0.1,0.3,0.4,0.6,0.6,0.7
	C5.5,12.9,5.7,13,6,13c0.9,0.1,1.8-0.5,1.9-1.4c0-0.1,0-0.2,0-0.3c0-1.4,0-2.9,0-4.3c0-0.3,0-0.6,0-0.9c0-0.4-0.1-0.8-0.4-1.2
	C7.5,4.6,7.3,4.5,7.2,4.3C6.9,4,6.6,3.7,6.2,3.6C6,3.5,5.9,3.5,5.7,3.4c-0.1,0-0.2-0.1-0.1-0.2c0,0,0,0,0,0C5.6,3.1,5.7,3,5.7,3
	c0.1,0,0.1,0,0.1,0c0.3,0.1,0.6,0.2,0.9,0.4C7,3.6,7.3,3.8,7.5,4.1C7.7,4.3,7.8,4.5,8,4.7c0.2,0.3,0.3,0.6,0.3,1c0,0.2,0,0.4,0,0.5
	c0,0.4,0,0.8,0,1.2C8.3,7.9,8.3,8.3,8.3,8.6L8.3,8.6z"/>
<path class="st0" d="M7.7,8.7c0,0.7,0,1.4,0,2.1c0,0.2,0,0.4,0,0.6c0,0.2,0,0.3-0.1,0.5c-0.2,0.4-0.5,0.8-0.9,0.9
	c-0.5,0.2-1,0-1.4-0.3c-0.2-0.2-0.3-0.4-0.4-0.6c-0.1-0.2-0.1-0.4-0.1-0.6c0-0.7,0-1.4,0-2.2c0-0.9,0-1.8,0-2.7c0,0,0-0.1,0-0.1
	c0-0.1,0.1-0.2,0.2-0.2C5,6,5,6.1,5.1,6.1c0,0.1,0.1,0.1,0.1,0.2c0,0.1,0,0.3,0,0.4c0,1.5,0,3,0,4.5c0,0.1,0,0.2,0,0.3
	c0.1,0.6,0.7,1,1.3,0.8c0,0,0.1,0,0.1,0c0.4-0.1,0.8-0.6,0.8-1c0-1.6,0-3.1,0-4.7c0-0.2,0-0.4,0-0.6c0-0.2-0.1-0.5-0.2-0.7
	C7,5.1,6.9,4.9,6.7,4.7C6.3,4.3,5.9,4,5.4,4C5,3.9,4.7,3.9,4.4,4C4.2,4,4,4.1,3.8,4.2c0,0-0.1,0-0.1,0c-0.1,0-0.2,0-0.2-0.1
	c0-0.1,0-0.1,0.1-0.2c0,0,0.1,0,0.1-0.1c0.5-0.3,1-0.4,1.5-0.3c0.5,0,0.9,0.2,1.4,0.4c0.5,0.3,0.8,0.7,1,1.2C7.6,5.6,7.7,6,7.7,6.4
	c0,0.3,0,0.6,0,0.9C7.7,7.8,7.7,8.2,7.7,8.7L7.7,8.7z"/>
<path class="st0" d="M3.5,8.8V7.4c0-0.4,0-0.8,0-1.2c0-0.3,0.1-0.6,0.3-0.9c0.5-0.6,1.5-0.7,2.1-0.2C6,5.2,6.1,5.3,6.1,5.4
	c0.2,0.2,0.3,0.5,0.3,0.8c0,0.5,0,1,0,1.6c0,0.8,0,1.5,0,2.3c0,0.4,0,0.8,0,1.2c0,0,0,0.1,0,0.1c0,0.1-0.1,0.2-0.2,0.2
	c-0.1,0-0.2-0.1-0.2-0.1l0,0l0,0l0,0c0,0,0-0.1,0-0.1c0-1.4,0-2.7,0-4.1c0-0.3,0-0.6,0-0.9C6,6,6,5.8,5.8,5.6
	c-0.2-0.3-0.6-0.5-1-0.4c-0.3,0-0.6,0.2-0.8,0.4C4,5.8,3.9,6,3.9,6.2c0,0.1,0,0.3,0,0.4c0,0.5,0,1,0,1.4c0,0.8,0,1.6,0,2.4
	c0,0.3,0,0.7,0,1c0,0.4,0.2,0.9,0.4,1.2c0.4,0.5,1,0.9,1.6,0.9c0.5,0.1,1,0,1.4-0.3c0,0,0.1,0,0.1,0c0.1-0.1,0.2,0,0.2,0.1
	c0,0,0,0,0,0l0,0l0,0c0.1,0.1,0,0.2-0.1,0.2c0,0,0,0,0,0l0,0l0,0c-0.2,0.1-0.3,0.2-0.5,0.2c-0.6,0.2-1.3,0.2-1.8,0
	c-0.3-0.1-0.5-0.3-0.8-0.4c-0.3-0.2-0.5-0.5-0.7-0.8c-0.2-0.4-0.3-0.8-0.3-1.2C3.5,10.6,3.5,9.7,3.5,8.8L3.5,8.8z"/>
</svg>
