<?xml version="1.0" encoding="utf-8"?>
<!-- Generator: Adobe Illustrator 24.0.0, SVG Export Plug-In . SVG Version: 6.00 Build 0)  -->
<svg version="1.1" xmlns="http://www.w3.org/2000/svg" xmlns:xlink="http://www.w3.org/1999/xlink" x="0px" y="0px"
	 viewBox="0 0 11 17" style="enable-background:new 0 0 11 17;" xml:space="preserve">
<style type="text/css">
	.st0{display:none;}
	.st1{fill:#FAFAFA;}
</style>
<g id="Calque_1" class="st0">
</g>
<g id="Calque_2">
	<g>
		<g>
			<path class="st1" d="M10.1,5.3c0-0.2,0-0.4,0-0.6c-0.1-0.5-0.2-1-0.4-1.4C9.5,3.1,9.4,2.8,9.2,2.6C9,2.3,8.7,2,8.3,1.7
				C8,1.5,7.7,1.3,7.4,1.2C6.9,1,6.3,0.8,5.7,0.8c-0.4,0-0.7,0-1.1,0.1C3.3,1.1,2.2,1.9,1.5,3C1.4,3.3,1.2,3.6,1.1,4
				C1,4.4,0.9,4.8,0.9,5.2c0,2.2,0,4.5,0,6.7c0,0.2,0,0.3,0,0.5c0,0.3,0.1,0.6,0.2,1c0.1,0.3,0.3,0.7,0.5,1c0.2,0.4,0.6,0.7,0.9,1
				c0.4,0.3,0.9,0.6,1.4,0.8c0.4,0.2,0.8,0.2,1.3,0.3c0.2,0,0.5,0,0.7,0c0.4,0,0.8-0.1,1.1-0.2c0.5-0.2,0.9-0.4,1.3-0.7
				c0.3-0.3,0.7-0.6,0.9-1c0.3-0.4,0.5-0.8,0.6-1.3c0.1-0.4,0.2-0.8,0.2-1.3c0-1.1,0-2.2,0-3.3C10.1,7.5,10.1,6.4,10.1,5.3z
				 M8.9,12.9c-0.1,0.3-0.3,0.6-0.5,0.9C7.9,14.6,7,15.1,6,15.2c-0.6,0.1-1.2,0-1.7-0.2C4,15,3.8,14.8,3.5,14.7
				c-0.4-0.3-0.8-0.6-1-1.1c-0.2-0.4-0.4-0.8-0.4-1.2C2,12.2,2,11.9,2,11.6c0-2.1,0-4.2,0-6.3c0-0.6,0.1-1.2,0.4-1.7
				c0.3-0.5,0.7-1,1.2-1.3C4.1,2.1,4.6,2,5.1,1.9c0.6-0.1,1.3,0,1.9,0.3c0.8,0.4,1.5,1.1,1.8,1.9C9,4.5,9,4.9,9,5.3
				c0,1.1,0,2.2,0,3.3c0,1.1,0,2.2,0,3.3C9,12.2,9,12.6,8.9,12.9z"/>
		</g>
		<g>
			<path class="st1" d="M8.2,8.4c0,0.6,0,1.1,0,1.7c0,0.3,0,0.6,0,0.9c0,0.3-0.1,0.6-0.2,0.9c-0.2,0.4-0.5,0.8-0.9,1
				c-0.6,0.3-1.3,0.4-1.9,0.1c-0.4-0.2-0.7-0.5-0.9-0.8c-0.2-0.3-0.3-0.7-0.3-1c0-1.7,0-3.3,0-5c0-0.1,0-0.2,0-0.3
				c0.1-0.4,0.6-0.7,1-0.6C5.5,5.4,5.7,5.7,5.7,6c0,0.2,0,0.5,0,0.7c0,1.3,0,2.7,0,4c0,0.2,0,0.3,0,0.5c0,0.2,0.2,0.4,0.4,0.3
				c0,0,0,0,0.1,0c0.1,0,0.3-0.1,0.3-0.3c0,0,0-0.1,0-0.1c0-0.3,0-0.7,0-1c0-1,0-2.1,0-3.1c0-0.4,0-0.7,0-1.1c0-0.4-0.2-0.8-0.4-1
				c-0.3-0.3-0.6-0.5-1-0.5C4.4,4.3,3.8,4.6,3.4,5.2C3.3,5.4,3.2,5.7,3.2,6c0,1.4,0,2.7,0,4.1c0,0.4,0,0.7,0,1.1
				c0,0.3,0,0.6,0.1,0.8c0.2,0.5,0.5,0.9,0.9,1.3c0.3,0.2,0.6,0.4,1,0.5c0.1,0,0.1,0,0.2,0.1c0.1,0,0.1,0.1,0.1,0.2
				c0,0.1-0.1,0.1-0.2,0.1c0,0,0,0,0,0c-0.1,0-0.1,0-0.2,0c-0.5-0.1-0.9-0.4-1.3-0.7c-0.2-0.1-0.3-0.3-0.4-0.5
				c-0.2-0.3-0.4-0.6-0.5-1c-0.1-0.2-0.1-0.5-0.1-0.7c0-0.3,0-0.6,0-1c0-1,0-2,0-3c0-0.4,0-0.9,0-1.3c0-0.2,0-0.4,0.1-0.6
				C3,5,3.3,4.6,3.7,4.4c0.9-0.6,2.1-0.4,2.8,0.4C6.8,5.1,7,5.6,7,6c0,1.7,0,3.3,0,5c0,0.1,0,0.2,0,0.3c0,0.2-0.2,0.4-0.4,0.5
				c-0.2,0.1-0.3,0.1-0.5,0.1c-0.3,0-0.6-0.3-0.7-0.7c0-0.1,0-0.3,0-0.4c0-0.1,0-0.2,0-0.3c0-1.5,0-2.9,0-4.4c0-0.1,0-0.1,0-0.2
				c0-0.2-0.3-0.4-0.5-0.4c-0.1,0-0.1,0-0.2,0.1C4.5,5.8,4.5,5.9,4.5,6c0,0.2,0,0.5,0,0.7c0,1.2,0,2.3,0,3.5c0,0.3,0,0.6,0,0.9
				c0,0.2,0,0.4,0.1,0.6c0.1,0.3,0.4,0.6,0.6,0.7c0.2,0.1,0.5,0.2,0.7,0.3c0.8,0.1,1.6-0.4,1.9-1.2c0-0.2,0.1-0.3,0.1-0.5
				c0-1.4,0-2.9,0-4.3c0-0.3,0-0.6,0-0.9c0-0.4-0.1-0.8-0.4-1.2C7.4,4.5,7.3,4.3,7.1,4.1c-0.3-0.3-0.6-0.6-1-0.7
				C5.9,3.3,5.8,3.3,5.7,3.2C5.6,3.2,5.5,3.1,5.5,3c0,0,0,0,0,0c0-0.1,0.1-0.1,0.2-0.1c0.1,0,0.1,0,0.1,0C6.1,3,6.4,3.1,6.7,3.3
				C7,3.5,7.2,3.6,7.4,3.9c0.2,0.2,0.3,0.4,0.5,0.7c0.2,0.3,0.3,0.6,0.3,1c0,0.2,0,0.4,0,0.5c0,0.4,0,0.8,0,1.2
				C8.2,7.7,8.2,8.1,8.2,8.4L8.2,8.4z"/>
			<path class="st1" d="M7.6,8.5c0,0.7,0,1.4,0,2.1c0,0.2,0,0.4,0,0.6c0,0.2,0,0.3-0.1,0.5C7.4,12,7,12.3,6.6,12.5
				c-0.5,0.2-1,0-1.4-0.3C5,12,4.9,11.8,4.8,11.6c-0.1-0.2-0.1-0.4-0.1-0.6c0-0.7,0-1.4,0-2.1c0-0.9,0-1.8,0-2.7c0,0,0-0.1,0-0.1
				c0-0.1,0.1-0.2,0.2-0.2c0.1,0,0.1,0,0.1,0.1C5.1,6,5.1,6,5.1,6.1c0,0.1,0,0.3,0,0.4c0,1.5,0,3,0,4.5c0,0.1,0,0.2,0,0.3
				c0.1,0.6,0.7,1,1.3,0.8c0,0,0.1,0,0.1,0c0.4-0.1,0.8-0.6,0.7-1c0-1.6,0-3.1,0-4.7c0-0.2,0-0.4,0-0.6c0-0.2-0.1-0.5-0.2-0.7
				C6.9,4.9,6.8,4.7,6.6,4.5C6.3,4.1,5.8,3.9,5.3,3.8c-0.3,0-0.6,0-0.9,0C4.1,3.9,3.9,3.9,3.7,4.1c0,0-0.1,0-0.1,0
				c-0.1,0-0.2,0-0.2-0.1c0-0.1,0-0.1,0.1-0.2c0,0,0.1,0,0.1-0.1c0.5-0.3,1-0.4,1.5-0.3c0.5,0,0.9,0.2,1.3,0.4
				c0.5,0.3,0.8,0.7,1,1.2c0.1,0.3,0.2,0.7,0.2,1.1c0,0.3,0,0.6,0,0.9C7.6,7.6,7.6,8,7.6,8.5L7.6,8.5z"/>
			<path class="st1" d="M3.5,8.6c0-0.5,0-0.9,0-1.4c0-0.4,0-0.8,0-1.2c0-0.3,0.1-0.6,0.3-0.9C4.3,4.5,5.2,4.4,5.8,5
				C5.9,5,6,5.1,6.1,5.2C6.2,5.4,6.3,5.7,6.3,6c0,0.5,0,1,0,1.6c0,0.8,0,1.5,0,2.3c0,0.4,0,0.8,0,1.2c0,0,0,0.1,0,0.1
				c0,0.1-0.1,0.2-0.2,0.2c-0.1,0-0.2-0.1-0.2-0.1c0,0,0,0,0,0c0,0,0-0.1,0-0.1c0-1.4,0-2.7,0-4.1C6,6.6,6,6.3,6,6
				c0-0.2-0.1-0.4-0.2-0.6C5.5,5.1,5.2,5,4.8,5C4.5,5,4.2,5.2,4,5.4C3.9,5.6,3.8,5.8,3.8,6c0,0.1,0,0.3,0,0.4c0,0.5,0,1,0,1.4
				c0,0.8,0,1.6,0,2.4c0,0.3,0,0.7,0,1c0,0.4,0.2,0.9,0.4,1.2c0.4,0.5,1,0.9,1.6,0.9c0.5,0.1,1,0,1.4-0.3c0,0,0.1,0,0.1,0
				c0.1-0.1,0.2,0,0.2,0.1c0,0,0,0,0,0c0.1,0.1,0,0.2-0.1,0.2c0,0,0,0,0,0c-0.2,0.1-0.3,0.2-0.5,0.2c-0.6,0.2-1.2,0.2-1.8,0
				c-0.3-0.1-0.5-0.2-0.8-0.4c-0.3-0.2-0.5-0.5-0.7-0.8c-0.2-0.4-0.3-0.8-0.3-1.2C3.5,10.3,3.5,9.5,3.5,8.6L3.5,8.6z"/>
		</g>
	</g>
</g>
</svg>
