<?xml version="1.0" encoding="utf-8"?>
<!-- Generator: Adobe Illustrator 27.0.0, SVG Export Plug-In . SVG Version: 6.00 Build 0)  -->
<svg version="1.1" id="Calque_1" xmlns="http://www.w3.org/2000/svg" xmlns:xlink="http://www.w3.org/1999/xlink" x="0px" y="0px"
	 width="799.9px" height="799.9px" viewBox="0 0 799.9 799.9" style="enable-background:new 0 0 799.9 799.9;" xml:space="preserve"
	>
<style type="text/css">
	.st0{fill:#FF8F00;}
	.st1{fill:#607D8B;}
	.st2{fill:#6D4C41;}
	.st3{fill:#212121;}
	.st4{fill:#FAFAFA;}
	.st5{fill-rule:evenodd;clip-rule:evenodd;fill:#795548;}
	.st6{fill-rule:evenodd;clip-rule:evenodd;fill:#607D8B;}
	.st7{fill-rule:evenodd;clip-rule:evenodd;fill:#4C4F68;}
	.st8{fill-rule:evenodd;clip-rule:evenodd;fill:#FAFAFA;}
	.st9{clip-path:url(#SVGID_00000182517535826886764620000000481935258019612052_);}
	.st10{fill-rule:evenodd;clip-rule:evenodd;fill:#EEEFF6;}
	.st11{fill-rule:evenodd;clip-rule:evenodd;fill:#33691E;}
	.st12{fill-rule:evenodd;clip-rule:evenodd;fill:#455A64;}
	.st13{fill-rule:evenodd;clip-rule:evenodd;fill:#33691E;stroke:#5A5D7B;stroke-width:1.1349;stroke-miterlimit:22.9256;}
	.st14{fill:#CFD8DC;}
	.st15{fill:#EE8F0A;}
	.st16{fill:#018A38;}
	.st17{fill-rule:evenodd;clip-rule:evenodd;fill:#616161;}
</style>
<g id="Background">
</g>
<g id="Objects">
	<g>
		<g>
			<polygon class="st0" points="401.8,403.3 401.5,403.6 368.8,435.3 390.8,479.5 384.5,593.5 401.5,593.5 418.6,593.5 412.4,479.5 
				434.2,435.4 			"/>
			<path class="st1" d="M532.8,434.2c-16.2-10.1-30.6-17.9-43.8-24l-23.4,43.6l-57.4-55.4l0.8-0.5h-14.7l0.8,0.5l-57.7,55.4
				l-23.8-44.3l0,0c-13,6.2-27.3,14.2-43.5,24.7c-34.6,22.5-49,70.8-69.3,128l0.3,0.2c32.3,40,116.2,63.4,200.3,65.1
				c83.6,1.6,167.4-18.3,200.7-65.1l0,0C581.9,504.9,567.8,456.2,532.8,434.2z M418.6,593.5h-17h-17l6.2-113.9l-21.9-44.3l32.7-31.7
				l0.3-0.3l32.4,32.1l-21.9,44.2L418.6,593.5z"/>
		</g>
		<path class="st2" d="M511.4,221.6L511.4,221.6L511.4,221.6c-0.7-0.5-1.5-0.9-2.3-1.1c-6.2-1.4-13.9,9.2-17.1,23.6
			c-1.5,6.6-1.8,12.9-1,17.9c-1.8,5.2-4.7,6.3-6.5,2.3c-0.6-11.7-1.5-14.8,4.5-33.8c4.6-10.5,9.2-19.3,22.3-16.8h0.1
			c-1.7-48-38.3-111.1-112.2-112.7c-73.9,1.6-110.6,64.6-112.2,112.7h0.1c13-2.5,17.7,6.3,22.3,16.8c6,19,5.2,22.1,4.5,33.8
			c-1.8,4-4.7,2.9-6.5-2.3c0.7-5,0.5-11.3-1-17.9c-3.2-14.4-10.9-25-17.1-23.6c-0.8,0.2-1.5,0.5-2.2,1.1H287l0,0
			c-4.6,3.6-6.1,15-3.3,27.6c3.1,14.1,10.5,24.5,16.6,23.7c9.5,34.6,31,67,58.3,83.9v20.7l0,0l33.3,19.9h7.1h7.1l33.3-19.9l0,0
			v-20.7c27.4-16.9,48.9-49.3,58.3-83.9c6.1,0.8,13.5-9.6,16.6-23.7C517.5,236.6,516,225.2,511.4,221.6z"/>
		<path class="st3" d="M317.6,213.2l150.5-11.8l0,0c2-0.7,4.3,0.2,5.2,2.2l11,62.1c14.1,9.6,9.7-26.4,11.1-30.8
			c0.8-1.2,3.4-15.6,16.4-13l-0.4-8.3c-1.7-48-38.3-111.1-112.2-112.7c-73.9,1.6-110.6,64.6-112.2,112.7l0.1,7.8
			c3.2-2.3,11.2,1.5,15.9,11.9c0.6,1.9,2.8,48.9,11.6,30.2c0.1-0.3,0.2-0.6,0.2-0.9v-46.4C315.1,215,316.1,213.7,317.6,213.2z"/>
	</g>
	<polygon class="st4" points="286.5,563.6 294.9,557.6 301.8,561.4 290.9,571.8 	"/>
	<polygon class="st4" points="303.7,561.3 309.9,557.6 319,563.7 314.7,571.8 	"/>
	<g>
		<g>
			<path class="st5" d="M207.7,606.6c-14.3,4.4-19.8,21-18.9,35.5l34.9,26.3c7.7-1.9,15.8-6,23.2-12c18.1-14.8,18-38.2,12-44.5
				C252.7,605.5,229.8,599.8,207.7,606.6z"/>
			<path class="st5" d="M194.3,633.1L194.3,633.1c5.5,2.7,13.4,0.8,14.9-5.2l18.1-72.3c1.5-5.9,0.4-12.2-5.2-14.9l0,0
				c-5.5-2.7-12.2-0.3-14.9,5.2l-18.1,72.3C187.7,624.1,188.8,630.4,194.3,633.1z"/>
			<path class="st5" d="M276.2,538.8L276.2,538.8c-1.4-6-7.4-9.6-13.4-8.3l-47,9.3c-6,1.3-10.4,8.2-9,14.2l0,0
				c1.4,6,7.4,9.7,13.4,8.3l47.7-10.1C273.9,550.9,277.6,544.7,276.2,538.8z"/>
			<path class="st5" d="M330.8,569.9L330.8,569.9c2.7-5.5,0.4-12.4-5.2-14.9l-53.3-23.6c-5.6-2.5-12.2-0.3-14.9,5.2l0,0
				c-2.7,5.5-0.3,12.2,5.2,14.9l53.3,23.6C321.6,577.6,328.2,575.4,330.8,569.9z"/>
			<path class="st5" d="M244.3,549.9c-4,9.7-22.9,57.4,3.6,55.2c26.4-2.2-30,36.9-30,36.9l-19.3-39C198.6,603,207.1,554,244.3,549.9
				z"/>
			<polygon class="st5" points="197.6,604.6 238.5,643.7 222,667.1 176.8,633.1 			"/>
			<path class="st6" d="M168.3,634.5L226,678l-13.4,17.8l-57.7-43.5L168.3,634.5z"/>
			<path class="st5" d="M586.9,606.6c14.3,4.4,19.8,21,18.9,35.5l-34.9,26.3c-7.7-1.9-15.8-6-23.2-12c-18.1-14.8-18-38.2-12-44.5
				C541.9,605.5,564.7,599.8,586.9,606.6z"/>
			<path class="st5" d="M600.2,633.1L600.2,633.1c-5.5,2.7-13.4,0.8-14.9-5.2l-18.1-72.3c-1.5-5.9-0.4-12.2,5.2-14.9l0,0
				c5.5-2.7,12.2-0.3,14.9,5.2l18.1,72.3C606.9,624.1,605.7,630.4,600.2,633.1z"/>
			<path class="st5" d="M518.4,538.8L518.4,538.8c1.4-6,7.4-9.6,13.4-8.3L580,540c6,1.3,9.3,8,7.8,14l0,0c-1.4,6-7.4,9.7-13.4,8.3
				l-47.7-10.2C520.7,550.9,517,544.7,518.4,538.8z"/>
			<path class="st5" d="M463.7,569.9L463.7,569.9c-2.7-5.5-0.4-12.4,5.2-14.9l53.3-23.6c5.6-2.5,12.2-0.3,14.9,5.2l0,0
				c2.7,5.5,0.3,12.2-5.2,14.9l-53.3,23.6C473,577.6,466.4,575.4,463.7,569.9z"/>
			<path class="st5" d="M550.3,549.9c4,9.7,22.9,57.4-3.6,55.2c-26.4-2.2,30,36.9,30,36.9l19.3-39C595.9,603,587.4,554,550.3,549.9z
				"/>
			<polygon class="st5" points="596.9,604.6 556,643.7 572.5,667.1 617.8,633.1 			"/>
			<path class="st6" d="M626.2,634.5L568.5,678l13.4,17.8l57.7-43.5L626.2,634.5z"/>
		</g>
		<g>
			<rect x="283.9" y="464.3" class="st7" width="226.7" height="234.7"/>
			<g>
				<g>
					<rect id="SVGID_1_" x="283.9" y="464.3" class="st8" width="226.7" height="234.7"/>
				</g>
				<g>
					<g>
						<defs>
							<rect id="SVGID_00000009566569953301586790000014451157190039979672_" x="283.9" y="464.3" width="226.7" height="234.7"/>
						</defs>
						<clipPath id="SVGID_00000127729008386568944860000017544836826074717613_">
							<use xlink:href="#SVGID_00000009566569953301586790000014451157190039979672_"  style="overflow:visible;"/>
						</clipPath>
						<g style="clip-path:url(#SVGID_00000127729008386568944860000017544836826074717613_);">
							<rect x="82" y="68.6" class="st8" width="630.4" height="630.4"/>
						</g>
					</g>
				</g>
			</g>
			<path class="st10" d="M293.3,690h207.9V474.1H293.3V690z"/>
			<g>
				<path class="st11" d="M303.8,592.4h183.1v-12.6H303.8V592.4z"/>
				<g>
					<path class="st11" d="M303.8,613.8h183.1v-12.6H303.8V613.8z"/>
					<path class="st11" d="M303.8,635.3h118.3v-12.6H303.8V635.3z"/>
					<path class="st11" d="M303.8,656.7h118.3v-12.6H303.8V656.7z"/>
				</g>
			</g>
			<path class="st12" d="M303.8,561.2h57.7v-77h-57.7V561.2z"/>
			<rect x="303.8" y="484.2" class="st13" width="57.7" height="77"/>
			<g>
				<path class="st11" d="M374.4,496.8h112.5v-12.6H374.4V496.8z"/>
				<g>
					<path class="st11" d="M374.4,518.2h112.5v-12.6H374.4V518.2z"/>
					<path class="st11" d="M374.4,539.7h112.5v-12.6H374.4V539.7z"/>
					<path class="st11" d="M374.4,561.2h112.5v-12.6H374.4V561.2z"/>
				</g>
			</g>
		</g>
		<g>
			<path class="st11" d="M510.6,615.1l-30.7-23.7c-7.7-5.9-10.4-16.5-5-24.6l0,0c5.4-8.1,16.5-10.4,24.6-5l11.1,8.5V615.1z"/>
			<path class="st5" d="M553.5,624.6L553.5,624.6c-4,6-12.4,8-18.1,3.7L484,588.7c-5.7-4.4-7.6-12.1-3.7-18.1l0,0
				c4-6,12.1-7.6,18.1-3.7l51.4,39.6C555.5,610.8,557.5,618.6,553.5,624.6z"/>
			<path class="st11" d="M283.9,615.1l30.7-23.7c7.7-5.9,10.4-16.5,5-24.6l0,0c-5.4-8.1-16.5-10.4-24.6-5l-11.1,8.5V615.1z"/>
			<path class="st5" d="M241.1,624.6L241.1,624.6c4,6,12.4,8,18.1,3.7l51.4-39.6c5.7-4.4,7.6-12.1,3.7-18.1l0,0
				c-4-6-12.1-7.6-18.1-3.7l-51.4,39.6C239,610.8,237.1,618.6,241.1,624.6z"/>
		</g>
		<g>
			<g>
				<polygon class="st0" points="333.8,525.9 333.8,526 329.7,529.9 332.5,535.4 331.7,549.6 333.8,549.6 335.9,549.6 335.1,535.4 
					337.9,529.9 				"/>
				<path class="st14" d="M350.2,529.8c-2-1.3-3.8-2.2-5.5-3l-2.9,5.4l-7.1-6.9l0.1-0.1H333l0.1,0.1l-7.2,6.9l-3-5.5l0,0
					c-1.6,0.8-3.4,1.8-5.4,3.1c-4.3,2.8-6.1,8.8-8.6,15.9l0,0c4,5,14.5,7.9,25,8.1c10.4,0.2,20.9-2.3,25-8.1l0,0
					C356.3,538.6,354.5,532.5,350.2,529.8z M335.9,549.6h-2.1h-2.1l0.8-14.2l-2.7-5.5l4.1-4l0,0l4,4l-2.7,5.5L335.9,549.6z"/>
			</g>
			<path class="st2" d="M347.5,503.3L347.5,503.3L347.5,503.3c-0.1-0.1-0.2-0.1-0.3-0.1c-0.8-0.2-1.7,1.1-2.1,2.9
				c-0.2,0.8-0.2,1.6-0.1,2.2c-0.2,0.6-0.6,0.8-0.8,0.3c-0.1-1.5-0.2-1.8,0.6-4.2c0.6-1.3,1.2-2.4,2.8-2.1l0,0
				c-0.2-6-4.8-13.8-14-14c-9.2,0.2-13.8,8.1-14,14l0,0c1.6-0.3,2.2,0.8,2.8,2.1c0.7,2.4,0.6,2.8,0.6,4.2c-0.2,0.5-0.6,0.4-0.8-0.3
				c0.1-0.6,0.1-1.4-0.1-2.2c-0.4-1.8-1.4-3.1-2.1-2.9c-0.1,0-0.2,0.1-0.3,0.1l0,0l0,0c-0.6,0.5-0.8,1.9-0.4,3.4
				c0.4,1.8,1.3,3.1,2.1,3c1.2,4.3,3.9,8.3,7.3,10.5v2.6l4.4,2.6l0.9,0.1l0.9-0.1l3.8-2.6l0,0v-2.7c3.4-2.1,6.1-6.1,7.3-10.5
				c0.8,0.1,1.7-1.2,2.1-3C348.2,505.2,348.1,503.7,347.5,503.3z"/>
			<path class="st3" d="M323.3,502.2l18.8-1.5l0,0c0.3-0.1,0.5,0,0.6,0.3l1.4,7.7c1.8,1.2,1.2-3.3,1.4-3.8c0.1-0.1,0.4-1.9,2-1.6v-1
				c-0.2-6-4.8-13.8-14-14c-9.2,0.2-13.8,8.1-14,14v1c0.4-0.3,1.4,0.2,2,1.5c0.1,0.2,0.3,6.1,1.4,3.8v-0.1v-5.8
				C323,502.5,323.1,502.3,323.3,502.2z"/>
		</g>
		<g>
			<g>
				<path class="st15" d="M474.9,642.6c0-0.5,0-1.1-0.1-1.6c-0.2-1.4-0.6-2.8-1.2-4c-0.4-0.7-0.8-1.4-1.2-2c-0.8-1-1.6-1.9-2.6-2.6
					c-0.8-0.6-1.7-1.1-2.6-1.5c-1.6-0.7-3.2-1.1-4.9-1.1c-1,0-2,0-3,0.2c-3.7,0.7-6.9,2.9-8.8,6.1c-0.5,0.9-0.9,1.8-1.2,2.7
					c-0.4,1.1-0.6,2.3-0.6,3.5c0,6.4,0,12.8,0,19.1c0,0.4,0,0.9,0.1,1.3c0.1,0.9,0.3,1.8,0.6,2.7c0.3,1,0.8,1.9,1.4,2.7
					c0.7,1.1,1.6,2,2.6,2.8c1.2,1,2.5,1.7,4,2.3c1.2,0.4,2.4,0.7,3.7,0.8c0.7,0,1.4,0,2,0c1.1-0.1,2.2-0.3,3.2-0.7
					c1.4-0.5,2.7-1.2,3.8-2.1c1-0.8,1.9-1.7,2.6-2.7c0.8-1.1,1.4-2.3,1.8-3.7c0.3-1.2,0.5-2.4,0.5-3.6c0-3.1,0-6.3,0-9.4
					C474.9,648.8,474.9,645.7,474.9,642.6z M471.4,664.3c-0.3,0.9-0.7,1.8-1.3,2.6c-1.6,2.3-4.1,3.8-6.9,4.1c-1.7,0.2-3.4,0-5-0.5
					c-0.7-0.3-1.4-0.6-2.1-1.1c-1.2-0.8-2.2-1.8-2.9-3.1c-0.6-1-1.1-2.2-1.3-3.4c-0.1-0.7-0.2-1.5-0.2-2.3c0-6,0-12,0-18
					c0-1.7,0.4-3.3,1.2-4.7c0.8-1.5,2.1-2.7,3.6-3.6c1.2-0.7,2.6-1.2,4-1.4c1.8-0.2,3.7,0,5.4,0.8c2.4,1.1,4.3,3,5.2,5.5
					c0.4,1.1,0.6,2.2,0.6,3.3c0,3.1,0,6.3,0,9.4c0,3.2,0,6.3,0,9.5C471.8,662.4,471.7,663.4,471.4,664.3z"/>
			</g>
			<g>
				<path class="st16" d="M469.6,651.6c0,1.6,0,3.1,0,4.7c0,0.9,0,1.7,0,2.6c0,0.8-0.1,1.7-0.4,2.5c-0.5,1.2-1.4,2.3-2.6,2.9
					c-1.7,0.9-3.7,1-5.4,0.2c-1.1-0.5-2-1.3-2.7-2.4c-0.5-0.9-0.8-1.9-0.8-3c0-4.8,0-9.5,0-14.3c0-0.3,0-0.5,0.1-0.8
					c0.4-1.2,1.7-1.9,2.9-1.6c1,0.3,1.7,1.2,1.7,2.2c0,0.7,0,1.4,0,2.1c0,3.8,0,7.6,0,11.3c0,0.4,0,0.9,0.1,1.3
					c0.1,0.6,0.7,1.1,1.3,1c0.1,0,0.1,0,0.2,0c0.4-0.1,0.8-0.4,0.9-0.7c0.1-0.1,0.1-0.2,0.1-0.4c0-0.9,0-1.9,0-2.8c0-3,0-5.9,0-8.9
					c0-1,0-2-0.1-3c0-1.1-0.5-2.2-1.2-3c-0.8-0.8-1.8-1.3-3-1.5c-1.9-0.3-3.8,0.7-4.9,2.3c-0.4,0.7-0.7,1.5-0.7,2.3
					c0,3.9,0,7.8,0,11.7c0,1.1,0,2.1,0,3.2c0,0.8,0.1,1.6,0.4,2.4c0.5,1.4,1.4,2.7,2.6,3.6c0.8,0.7,1.8,1.2,2.8,1.5
					c0.2,0,0.3,0.1,0.5,0.2c0.2,0.1,0.4,0.3,0.3,0.6c0,0.2-0.2,0.4-0.5,0.4l0,0c-0.2,0-0.4-0.1-0.6-0.1c-1.3-0.4-2.5-1.1-3.6-2
					c-0.4-0.4-0.9-0.9-1.2-1.3c-0.6-0.8-1.1-1.8-1.4-2.8c-0.2-0.7-0.4-1.4-0.4-2.1c-0.1-0.9-0.1-1.8-0.1-2.7c0-2.9,0-5.7,0-8.6
					c0-1.2,0-2.5,0-3.7c0-0.6,0.1-1.2,0.2-1.7c0.4-1.3,1.2-2.4,2.3-3.1c2.6-1.7,6.1-1.2,8,1.2c0.8,1,1.3,2.2,1.3,3.5
					c0,4.7,0,9.5,0,14.2c0,0.3,0,0.6-0.1,0.8c-0.1,0.7-0.6,1.2-1.2,1.5c-0.4,0.2-0.9,0.3-1.4,0.3c-1-0.1-1.8-0.9-1.9-1.9
					c0-0.4-0.1-0.8-0.1-1.1c0-0.2,0-0.5,0-0.7c0-4.2,0-8.4,0-12.6c0-0.2,0-0.3,0-0.5c-0.1-0.7-0.8-1.2-1.5-1.1
					c-0.2,0-0.4,0.1-0.5,0.2c-0.3,0.2-0.5,0.6-0.5,0.9c0,0.7,0,1.4,0,2.1c0,3.3,0,6.6,0,9.9c0,0.9,0,1.8,0,2.6
					c0,0.6,0.1,1.1,0.4,1.7c0.4,0.9,1,1.6,1.8,2.1c0.6,0.4,1.3,0.7,2,0.8c2.4,0.3,4.7-1.2,5.4-3.5c0.1-0.4,0.2-0.9,0.2-1.3
					c0-4.1,0-8.2,0-12.3c0-0.9,0-1.7,0-2.6c0-1.2-0.4-2.4-1-3.4c-0.3-0.5-0.7-1.1-1.1-1.5c-0.8-0.9-1.8-1.6-2.9-2.1
					c-0.4-0.2-0.8-0.3-1.2-0.5c-0.3-0.1-0.5-0.3-0.4-0.6v-0.1c0.1-0.2,0.3-0.3,0.5-0.3c0.1,0,0.3,0.1,0.4,0.1
					c0.9,0.2,1.7,0.6,2.5,1.1c0.7,0.5,1.4,1,2,1.7c0.5,0.6,1,1.2,1.3,1.9c0.5,0.9,0.8,1.8,0.9,2.8c0.1,0.5,0.1,1,0.1,1.5
					c0,1.1,0,2.3,0,3.4C469.6,649.4,469.6,650.5,469.6,651.6L469.6,651.6z"/>
				<path class="st16" d="M467.8,651.7c0,2,0,3.9,0,5.9c0,0.5,0,1.1,0,1.6s-0.1,0.9-0.2,1.4c-0.4,1.2-1.4,2.1-2.7,2.5
					c-1.4,0.4-2.9,0.1-4-0.8c-0.5-0.5-0.9-1-1.1-1.7c-0.2-0.6-0.3-1.1-0.3-1.7c0-2,0-4.1,0-6.1c0-2.6,0-5.1,0-7.7c0-0.1,0-0.2,0-0.3
					c0-0.2,0.2-0.4,0.5-0.5c0.2,0,0.3,0,0.4,0.2s0.2,0.3,0.2,0.5c0,0.4,0,0.7,0,1.1c0,4.3,0,8.6,0,12.9c0,0.3,0,0.6,0.1,0.9
					c0.4,1.7,2,2.7,3.7,2.3c0.1,0,0.2,0,0.3-0.1c1.3-0.4,2.1-1.6,2.1-2.9c0-4.4,0-8.9,0-13.3c0-0.6,0-1.2-0.1-1.8
					c0-0.7-0.2-1.3-0.5-1.9c-0.3-0.7-0.7-1.3-1.2-1.8c-1-1.1-2.4-1.8-3.8-2c-0.9-0.1-1.8-0.1-2.7,0.1c-0.6,0.2-1.2,0.4-1.8,0.7
					c-0.1,0-0.2,0.1-0.3,0.1c-0.3,0.1-0.5-0.1-0.6-0.4c0-0.2,0-0.4,0.2-0.5c0.1-0.1,0.2-0.1,0.3-0.2c1.3-0.7,2.8-1.1,4.3-1
					c1.4,0.1,2.7,0.5,3.8,1.3c1.3,0.9,2.3,2.1,2.9,3.5c0.4,1,0.6,2.1,0.5,3.1c0,0.9,0,1.8,0,2.7
					C467.8,649.1,467.8,650.4,467.8,651.7L467.8,651.7z"/>
				<path class="st16" d="M455.9,652.2c0-1.3,0-2.7,0-4c0-1.2,0-2.3,0-3.5c0-0.9,0.3-1.8,0.9-2.5c1.5-1.8,4.1-2,5.9-0.5
					c0.3,0.2,0.5,0.5,0.7,0.7c0.5,0.6,0.7,1.4,0.8,2.2c0,1.5,0,3,0,4.4c0,2.2,0,4.4,0,6.6c0,1.1,0,2.3,0,3.4c0,0.1,0,0.2,0,0.3
					c0,0.3-0.3,0.4-0.5,0.4c-0.3,0-0.5-0.2-0.5-0.4l0,0c0-0.1,0-0.3,0-0.4c0-3.9,0-7.8,0-11.7c0-0.8,0-1.6,0-2.4
					c0-0.6-0.2-1.3-0.6-1.8c-0.6-0.9-1.7-1.3-2.7-1.2c-0.9,0-1.7,0.5-2.2,1.2c-0.4,0.5-0.6,1.1-0.6,1.7c0,0.4,0,0.7,0,1.1
					c0,1.4,0,2.7,0,4.1c0,2.3,0,4.5,0,6.8c0,0.9,0,1.9,0,2.8c0,1.3,0.5,2.5,1.2,3.5c1.1,1.5,2.7,2.4,4.6,2.7
					c1.4,0.2,2.8-0.1,4.1-0.7c0.1,0,0.2-0.1,0.2-0.1c0.2-0.1,0.5-0.1,0.7,0.2l0,0c0.1,0.2,0.1,0.5-0.2,0.7c0,0,0,0-0.1,0
					c-0.5,0.3-1,0.5-1.5,0.7c-1.7,0.5-3.5,0.5-5.2-0.1c-0.8-0.3-1.5-0.7-2.1-1.3c-0.7-0.6-1.4-1.4-1.9-2.2c-0.6-1-0.9-2.2-0.9-3.4
					C455.9,657,455.9,654.6,455.9,652.2L455.9,652.2z"/>
			</g>
		</g>
	</g>
	<g>
		<rect x="55.3" y="47.4" class="st17" width="63.9" height="17.9"/>
		<rect x="55.3" y="47.4" class="st17" width="17.9" height="63.9"/>
	</g>
	<g>
		<rect x="688.3" y="47.4" class="st17" width="63.9" height="17.9"/>
		<rect x="734.3" y="47.4" class="st17" width="17.9" height="63.9"/>
	</g>
	<g>
		<rect x="691.2" y="734.8" class="st17" width="63.9" height="17.9"/>
		<rect x="737.2" y="688.8" class="st17" width="17.9" height="63.9"/>
	</g>
	<g>
		<rect x="55.3" y="734.8" class="st17" width="63.9" height="17.9"/>
		<rect x="55.3" y="688.7" class="st17" width="17.9" height="63.9"/>
	</g>
</g>
</svg>
