<?xml version="1.0" encoding="utf-8"?>
<!-- Generator: Adobe Illustrator 27.0.0, SVG Export Plug-In . SVG Version: 6.00 Build 0)  -->
<svg version="1.1" id="Calque_1" xmlns="http://www.w3.org/2000/svg" xmlns:xlink="http://www.w3.org/1999/xlink" x="0px" y="0px"
	 width="799.9px" height="799.9px" viewBox="0 0 799.9 799.9" style="enable-background:new 0 0 799.9 799.9;" xml:space="preserve"
	>
<style type="text/css">
	.st0{fill:none;stroke:#FAFAFA;stroke-width:5;stroke-miterlimit:10;stroke-dasharray:11.8777,11.8777;}
	.st1{fill:none;stroke:#FAFAFA;stroke-width:5;stroke-miterlimit:10;}
	.st2{fill:none;stroke:#FAFAFA;stroke-width:5;stroke-miterlimit:10;stroke-dasharray:12.2584,12.2584;}
	.st3{fill:none;stroke:#FAFAFA;stroke-width:5;stroke-miterlimit:10;stroke-dasharray:11.6891,11.6891;}
	.st4{fill:#FAFAFA;}
</style>
<g id="Background">
</g>
<g>
	<path class="st0" d="M399.4,414.6L399.4,414.6c-67.2,0-121.7-54.5-121.7-121.7v-80.8c0-67.2,54.5-121.7,121.7-121.7h0
		c67.2,0,121.7,54.5,121.7,121.7v80.8C521.1,360.1,466.6,414.6,399.4,414.6z"/>
</g>
<g>
	<g>
		<polyline class="st1" points="584.3,694.9 584.3,700.9 578.3,700.9 		"/>
		<line class="st2" x1="566.1" y1="700.9" x2="229" y2="700.9"/>
		<polyline class="st1" points="222.9,700.9 216.9,700.9 216.9,694.9 		"/>
		<line class="st3" x1="216.9" y1="683.2" x2="216.9" y2="455.3"/>
		<polyline class="st1" points="216.9,449.5 216.9,443.5 222.9,443.5 		"/>
		<line class="st2" x1="235.1" y1="443.5" x2="572.2" y2="443.5"/>
		<polyline class="st1" points="578.3,443.5 584.3,443.5 584.3,449.5 		"/>
		<line class="st3" x1="584.3" y1="461.2" x2="584.3" y2="689.1"/>
	</g>
</g>
<g>
	<path class="st4" d="M369.9,554.1c0.6-0.1,1.4-0.2,2.2-0.2c1.5,0,2.6,0.3,3.3,1c0.7,0.7,1.1,1.6,1.1,2.9c0,1.3-0.4,2.4-1.2,3.1
		c-0.8,0.8-2,1.2-3.6,1.2c-0.7,0-1.4,0-1.9-0.1V554.1z M370.9,561.2c0.3,0,0.6,0.1,1.1,0.1c2.2,0,3.4-1.2,3.4-3.4
		c0-1.9-1.1-3.1-3.3-3.1c-0.5,0-0.9,0-1.2,0.1V561.2z"/>
	<path class="st4" d="M383.1,559.1c0,2.1-1.5,3.1-2.9,3.1c-1.6,0-2.8-1.2-2.8-3c0-1.9,1.3-3.1,2.9-3.1
		C382,556.1,383.1,557.3,383.1,559.1z M378.5,559.1c0,1.3,0.7,2.2,1.8,2.2c1,0,1.8-0.9,1.8-2.3c0-1-0.5-2.2-1.7-2.2
		C379.1,556.9,378.5,558,378.5,559.1z"/>
	<path class="st4" d="M388.6,561.8c-0.3,0.1-0.9,0.3-1.7,0.3c-1.8,0-2.9-1.2-2.9-3c0-1.8,1.2-3.1,3.1-3.1c0.6,0,1.2,0.2,1.5,0.3
		l-0.2,0.8c-0.3-0.1-0.6-0.3-1.2-0.3c-1.3,0-2.1,1-2.1,2.2c0,1.3,0.9,2.2,2,2.2c0.6,0,1-0.2,1.3-0.3L388.6,561.8z"/>
	<path class="st4" d="M394.7,560.5c0,0.6,0,1.1,0,1.6h-0.9l-0.1-0.9h0c-0.3,0.5-0.9,1.1-1.9,1.1c-0.9,0-2-0.5-2-2.5v-3.4h1.1v3.2
		c0,1.1,0.3,1.8,1.3,1.8c0.7,0,1.2-0.5,1.4-1c0.1-0.2,0.1-0.3,0.1-0.5v-3.6h1.1V560.5z"/>
	<path class="st4" d="M396.5,557.8c0-0.6,0-1.1,0-1.6h0.9l0,0.9h0c0.3-0.6,0.9-1.1,1.8-1.1c0.8,0,1.4,0.5,1.6,1.2h0
		c0.2-0.3,0.4-0.6,0.6-0.8c0.3-0.3,0.7-0.4,1.3-0.4c0.8,0,1.9,0.5,1.9,2.5v3.4h-1v-3.3c0-1.1-0.4-1.8-1.3-1.8c-0.6,0-1.1,0.4-1.2,1
		c0,0.1-0.1,0.3-0.1,0.5v3.6h-1v-3.5c0-0.9-0.4-1.6-1.2-1.6c-0.7,0-1.1,0.5-1.3,1.1c-0.1,0.2-0.1,0.3-0.1,0.5v3.5h-1V557.8z"/>
	<path class="st4" d="M407.1,559.3c0,1.4,0.9,2,2,2c0.8,0,1.2-0.1,1.6-0.3l0.2,0.8c-0.4,0.2-1,0.4-1.9,0.4c-1.8,0-2.9-1.2-2.9-2.9
		s1-3.1,2.7-3.1c1.9,0,2.4,1.7,2.4,2.7c0,0.2,0,0.4,0,0.5H407.1z M410.2,558.6c0-0.7-0.3-1.7-1.5-1.7c-1.1,0-1.5,1-1.6,1.7H410.2z"
		/>
	<path class="st4" d="M412.5,557.8c0-0.6,0-1.1,0-1.6h0.9l0.1,1h0c0.3-0.6,1-1.1,1.9-1.1c0.8,0,2.1,0.5,2.1,2.5v3.5h-1.1v-3.3
		c0-0.9-0.3-1.7-1.3-1.7c-0.7,0-1.2,0.5-1.4,1.1c0,0.1-0.1,0.3-0.1,0.5v3.5h-1.1V557.8z"/>
	<path class="st4" d="M420.4,554.6v1.7h1.5v0.8h-1.5v3.1c0,0.7,0.2,1.1,0.8,1.1c0.3,0,0.5,0,0.6-0.1l0,0.8c-0.2,0.1-0.5,0.1-0.9,0.1
		c-0.5,0-0.9-0.2-1.1-0.4c-0.3-0.3-0.4-0.8-0.4-1.5V557h-0.9v-0.8h0.9v-1.4L420.4,554.6z"/>
</g>
<g>
	<path class="st4" d="M382,261l-2.6-8.1h1.1l1.3,4c0.3,1.1,0.6,2.1,0.9,3h0c0.2-0.9,0.6-2,0.9-3l1.4-4h1.1l-2.9,8.1H382z"/>
	<path class="st4" d="M387.9,253.6c0,0.4-0.3,0.6-0.7,0.6c-0.4,0-0.6-0.3-0.6-0.6c0-0.4,0.3-0.7,0.7-0.7
		C387.6,252.9,387.9,253.2,387.9,253.6z M386.7,261v-5.8h1.1v5.8H386.7z"/>
	<path class="st4" d="M389.3,259.9c0.3,0.2,0.9,0.4,1.4,0.4c0.8,0,1.1-0.4,1.1-0.9c0-0.5-0.3-0.8-1.1-1.1c-1-0.4-1.5-0.9-1.5-1.6
		c0-0.9,0.8-1.7,2-1.7c0.6,0,1.1,0.2,1.4,0.4l-0.3,0.8c-0.2-0.1-0.6-0.3-1.2-0.3c-0.6,0-1,0.4-1,0.8c0,0.5,0.3,0.7,1.1,1
		c1,0.4,1.5,0.9,1.5,1.8c0,1-0.8,1.7-2.2,1.7c-0.6,0-1.2-0.2-1.6-0.4L389.3,259.9z"/>
	<path class="st4" d="M397.5,261l-0.1-0.7h0c-0.3,0.5-0.9,0.9-1.8,0.9c-1.2,0-1.8-0.8-1.8-1.7c0-1.4,1.2-2.2,3.5-2.2v-0.1
		c0-0.5-0.1-1.3-1.3-1.3c-0.5,0-1.1,0.2-1.5,0.4l-0.2-0.7c0.5-0.3,1.2-0.5,1.9-0.5c1.8,0,2.2,1.2,2.2,2.4v2.2c0,0.5,0,1,0.1,1.4
		H397.5z M397.3,258c-1.2,0-2.5,0.2-2.5,1.3c0,0.7,0.5,1,1,1c0.8,0,1.2-0.5,1.4-1c0-0.1,0.1-0.2,0.1-0.3V258z"/>
	<path class="st4" d="M405,255.2c0,0.4,0,0.9,0,1.6v3.4c0,1.3-0.3,2.1-0.8,2.7c-0.6,0.5-1.4,0.7-2.1,0.7c-0.7,0-1.5-0.2-1.9-0.5
		l0.3-0.8c0.4,0.2,1,0.5,1.7,0.5c1.1,0,1.9-0.6,1.9-2V260h0c-0.3,0.5-0.9,1-1.8,1c-1.4,0-2.5-1.2-2.5-2.8c0-2,1.3-3.1,2.6-3.1
		c1,0,1.6,0.5,1.8,1h0l0-0.9H405z M403.9,257.5c0-0.2,0-0.3-0.1-0.5c-0.2-0.6-0.7-1.1-1.5-1.1c-1,0-1.7,0.9-1.7,2.2
		c0,1.1,0.6,2.1,1.7,2.1c0.6,0,1.2-0.4,1.5-1.1c0.1-0.2,0.1-0.4,0.1-0.6V257.5z"/>
	<path class="st4" d="M407.3,258.3c0,1.4,0.9,2,2,2c0.8,0,1.2-0.1,1.6-0.3l0.2,0.8c-0.4,0.2-1,0.4-1.9,0.4c-1.8,0-2.9-1.2-2.9-2.9
		s1-3.1,2.7-3.1c1.9,0,2.4,1.7,2.4,2.7c0,0.2,0,0.4,0,0.5H407.3z M410.4,257.5c0-0.7-0.3-1.7-1.5-1.7c-1.1,0-1.5,1-1.6,1.7H410.4z"
		/>
</g>
</svg>
