<svg id="Calque_3" data-name="Calque 3" xmlns="http://www.w3.org/2000/svg" viewBox="0 0 25.42352 20.57762">
  <title>LOGOoneci</title>
  <g>
    <path d="M29.04486,13.95385a.11578.11578,0,0,0-.07583-.1137.70649.70649,0,0,0-.19518-.04405c-.19009-.0058-.38051-.0039-.57075-.00121a1.6869,1.6869,0,0,0-.24031.01909.44241.44241,0,0,0-.397.463q-.00006.04839,0,.09678,0,2.18728-.00076,4.37454a.84454.84454,0,0,1-.01874.211.52835.52835,0,0,1-.4392.445,1.69925,1.69925,0,0,1-.37483.01529.5845.5845,0,0,1-.54278-.4831.96327.96327,0,0,1-.00965-.18305q-.0006-5.4972-.00035-10.99442c0-.33873.00555-.67758-.0017-1.01617a.618.618,0,0,1,.48845-.60216,1.30324,1.30324,0,0,1,.16293-.01923.82.82,0,0,1,.41382.07667.56367.56367,0,0,1,.32649.52938q0,2.25986,0,4.51972c0,.03548-.00028.071.00066.10645a.36382.36382,0,0,0,.22022.33615.71552.71552,0,0,0,.32452.08326c.229-.00054.45794.00032.68692-.00027a.53087.53087,0,0,0,.09624-.00827.166.166,0,0,0,.14771-.16519c.00263-.03532.00172-.07093.00173-.10641q.00011-2.405.001-4.81006A1.6374,1.6374,0,0,0,28.95,6.09613a1.72526,1.72526,0,0,0-.32314-.55727A2.09476,2.09476,0,0,0,27.29206,4.868c-.09137-.01218-.182-.03-.27295-.04525h-.25158c-.08139.0144-.16229.033-.24424.04249a2.303,2.303,0,0,0-1.12628.42387,1.65721,1.65721,0,0,0-.63886.91742,2.07652,2.07652,0,0,0-.05678.55593q.00063,6.015.00039,12.03c0,.04838.00122.09677.00158.14516a1.65,1.65,0,0,0,.4801,1.1587,1.90453,1.90453,0,0,0,.90488.515,2.99,2.99,0,0,0,1.03449.08494,2.70648,2.70648,0,0,0,.83278-.19648,1.762,1.762,0,0,0,.69888-.50457,1.69337,1.69337,0,0,0,.39416-1.10551q-.00411-2.41472-.00121-4.82941Q29.04742,14.007,29.04486,13.95385Z" transform="translate(-6.02714 -4.82275)" style="fill: #f39200"/>
    <path d="M19.87974,5.08c-.26113-.00373-.52258-.00817-.78347.00056a.50708.50708,0,0,0-.50867.54118c.00258.19016.01018.38026.0148.5704q.01022.42068.01943.84136l.01941.84134.01939.84134.01916.83169q.00979.42552.01959.851.00949.411.019.822.01.43521.01985.87039.00936.40617.01891.81232.01062.46421.0209.92844.00738.33846.01326.67694a.15583.15583,0,0,1-.01438.046.35064.35064,0,0,1-.0458-.13044q-.131-.76621-.26083-1.53264-.094-.55715-.18566-1.1147c-.06213-.37479-.12273-.74985-.18608-1.12443-.04616-.27293-.09708-.545-.14338-.81794-.06356-.37459-.12363-.74978-.18729-1.12434-.05825-.34263-.1205-.68455-.17868-1.02718-.04258-.25082-.08054-.50241-.1221-.7534-.0752-.45418-.15358-.90785-.22664-1.36236a.567.567,0,0,0-.56584-.49263c-.219.00753-.43854.00116-.65783.00163a.82319.82319,0,0,0-.10618.00588.15163.15163,0,0,0-.14553.15239c-.00448.05779-.0038.11605-.0038.1741q-.00022,7.36482,0,14.72962c0,.04838-.00013.09683.00239.14512.00628.1202.05279.18.17177.19529a2.304,2.304,0,0,0,.31786.01433,4.42883,4.42883,0,0,0,.53053-.01968.5193.5193,0,0,0,.44-.35926.55385.55385,0,0,0,.01985-.19079c-.00427-.29984-.012-.59963-.01883-.89943q-.00882-.3868-.0183-.77361-.01036-.4497-.02024-.89941c-.00564-.24821-.01031-.49645-.01745-.74461-.0125-.43492-.02733-.86977-.0397-1.30469-.00788-.27718-.0131-.55443-.0195-.83166l-.0194-.84135q-.00969-.42067-.01933-.84136-.01236-.56581-.02414-1.13163c-.00388-.174-.0097-.348-.01361-.522-.001-.04312.00205-.08633.00324-.12949L17.06,11.0032a.081.081,0,0,1,.01437.02382c.041.22473.08215.44945.1216.67447.02392.13637.04511.27322.06745.40986q.08259.50526.16519,1.0105c.06155.37489.12252.74987.18567,1.12449.046.27292.09658.54507.14246.818.06245.37147.12132.74355.18367,1.115.05381.32054.11161.64042.16534.961.0612.36516.11966.73078.17964,1.09614.06885.41937.1369.83887.20761,1.25792.03052.18086.0597.36245.10229.54066a.54268.54268,0,0,0,.419.43451,1.04647,1.04647,0,0,0,.22044.02365c.16762.00335.33539.0026.503.00023a1.51742,1.51742,0,0,0,.18252-.01755.13619.13619,0,0,0,.12315-.10754.83518.83518,0,0,0,.02-.18108q.00131-7.41321.00077-14.8264c0-.03226.00087-.06458-.00078-.09676C20.05662,5.13066,20.013,5.08186,19.87974,5.08Z" transform="translate(-6.02714 -4.82275)" style="fill: #f39200"/>
    <path d="M15.2696,9.50069a4.44447,4.44447,0,0,0-.029-.55954,4.10232,4.10232,0,0,0-.429-1.41614,5.00728,5.00728,0,0,0-.43173-.69762,4.63707,4.63707,0,0,0-.9318-.92131,4.70659,4.70659,0,0,0-.90108-.52267,4.77775,4.77775,0,0,0-1.7321-.396,4.52277,4.52277,0,0,0-1.058.07885A4.62126,4.62126,0,0,0,6.65414,7.21453a4.54482,4.54482,0,0,0-.43278.96919,3.98592,3.98592,0,0,0-.194,1.24577q-.00046,3.37245.00089,6.74489a3.5,3.5,0,0,0,.02508.45337,4.103,4.103,0,0,0,.22706.95618,4.88,4.88,0,0,0,.47671.95813A4.68208,4.68208,0,0,0,7.658,19.54565a4.62849,4.62849,0,0,0,1.39494.79651,4.51316,4.51316,0,0,0,1.29172.26446,6.67031,6.67031,0,0,0,.71461-.012,4.18575,4.18575,0,0,0,1.14118-.23411,4.60579,4.60579,0,0,0,1.35234-.73648,4.41758,4.41758,0,0,0,.91014-.957,4.37023,4.37023,0,0,0,.62913-1.289,4.50013,4.50013,0,0,0,.17954-1.268q-.00336-1.65477-.00074-3.30955Q15.27085,11.15062,15.2696,9.50069ZM14.01616,17.1442a3.45878,3.45878,0,0,1-.45326.90491,3.53116,3.53116,0,0,1-2.42412,1.45782,3.63833,3.63833,0,0,1-1.74937-.19152,3.35284,3.35284,0,0,1-.72968-.37408,3.53157,3.53157,0,0,1-1.03766-1.07891,3.38346,3.38346,0,0,1-.44745-1.196,4.39349,4.39349,0,0,1-.05779-.79874c.002-2.11951-.00158-4.239.00285-6.3585a3.33236,3.33236,0,0,1,.43777-1.66483,3.44946,3.44946,0,0,1,1.254-1.27558,3.59044,3.59044,0,0,1,1.40768-.47832,3.52414,3.52414,0,0,1,1.8881.276A3.49425,3.49425,0,0,1,13.9529,8.29024,3.1989,3.1989,0,0,1,14.17734,9.469q.00141,1.66461.00032,3.32924,0,1.66949.0004,3.339A3.05277,3.05277,0,0,1,14.01616,17.1442Z" transform="translate(-6.02714 -4.82275)" style="fill: #f39200"/>
    <path d="M22.279,6.42216c.0032-.09548.01165-.10609.10635-.107.187-.0017.37406-.00012.56108-.00086.24826-.001.49688.0049.74469-.00644a.55782.55782,0,0,0,.551-.45637,1.89789,1.89789,0,0,0,.01954-.59688.18936.18936,0,0,0-.1878-.175c-.04167-.00363-.08375-.00359-.12564-.00359q-1.41239-.00028-2.82476,0c-.05155,0-.10329.00046-.15463.0046a.17353.17353,0,0,0-.17212.17381c-.00408.05133-.0023.10316-.0023.15477q-.00012,3.68208-.00008,7.36417,0,3.68693.00008,7.37385c0,.05161-.00172.10343.0022.15477a.17352.17352,0,0,0,.16221.17388,1.68534,1.68534,0,0,0,.21169.01759q1.39786.00172,2.79573.00035a.602.602,0,0,0,.115-.01011.19622.19622,0,0,0,.18467-.21062c.00555-.132.00628-.26459-.00058-.39642a.972.972,0,0,0-.04268-.23651.51025.51025,0,0,0-.29184-.32922.81726.81726,0,0,0-.339-.06328q-.56592.0012-1.13184,0c-.17668-.00029-.1816.01913-.18157-.17848q.00043-2.70954.00019-5.4191c0-.17563.00015-.17544.17439-.17582.33534-.00074.67069,0,1.006-.00311a.58262.58262,0,0,0,.57045-.49643,3.93119,3.93119,0,0,0,.02411-.43316c.01176-.21073-.05906-.30768-.303-.30468-.42881.00527-.85773.00174-1.2866.00131-.1889-.00019-.18539.01507-.18539-.18407q.00012-2.7773.00006-5.55458C22.27869,6.47377,22.27817,6.44794,22.279,6.42216Z" transform="translate(-6.02714 -4.82275)" style="fill: #f39200"/>
    <path d="M31.291,5.44461c0-.06127.00013-.1226-.00248-.1838-.005-.1175-.056-.17771-.17044-.17942-.27394-.0041-.548-.00306-.822.0001a.56518.56518,0,0,0-.47149.38862,1.13648,1.13648,0,0,0-.0164.21125q-.0011,7.21866-.0005,14.43732c0,.04511,0,.09047.00428.1353a.22861.22861,0,0,0,.19561.22072.89439.89439,0,0,0,.17246.01873c.23536.002.47076.00171.70614.00023a1.13182,1.13182,0,0,0,.1633-.01387.26286.26286,0,0,0,.2396-.2689c.00226-.05475.00194-.10964.00194-.16446q.00012-3.648.00006-7.29606Q31.291,9.0975,31.291,5.44461Z" transform="translate(-6.02714 -4.82275)" style="fill: #f39200"/>
  </g>
  <g>
    <path d="M13.38259,12.67051q0,.83226.00019,1.66452c.00036.30321.0056.60644.00322.90962a2.4101,2.4101,0,0,1-.15587.87105,1.9521,1.9521,0,0,1-.91532,1.01059,2.07166,2.07166,0,0,1-1.8983.07511,1.99544,1.99544,0,0,1-.93646-.83443,1.95428,1.95428,0,0,1-.28117-1.04867q.00361-2.5115.00232-5.023a1.16566,1.16566,0,0,1,.03007-.2677.81905.81905,0,0,1,1.60521.232c.00657.2418.00619.48381.00627.72574q.00067,1.99855.00159,3.99711a3.2302,3.2302,0,0,0,.032.45271.3986.3986,0,0,0,.50615.33062.48161.48161,0,0,0,.3283-.26317.31058.31058,0,0,0,.02622-.13089c.00549-.33217.01036-.66438.01121-.99659q.004-1.56782.00407-3.13564c-.00037-.358-.00008-.71661-.021-1.07371a1.56259,1.56259,0,0,0-.43013-1.04118A1.83856,1.83856,0,0,0,10.25,8.59275a1.736,1.736,0,0,0-1.71282.81952,1.56366,1.56366,0,0,0-.23305.80651q-.0048,2.06144.00131,4.12288c.00059.37414.00957.74827.01064,1.12241a2.34777,2.34777,0,0,0,.14854.85271A3.04508,3.04508,0,0,0,9.38,17.59065a2.76988,2.76988,0,0,0,1.00113.53052,1.17155,1.17155,0,0,1,.17321.05971.177.177,0,0,1,.11107.20346.1528.1528,0,0,1-.16434.1431.89977.89977,0,0,1-.21716-.041,3.48323,3.48323,0,0,1-1.261-.7138,3.9062,3.9062,0,0,1-.43033-.46962,3.0995,3.0995,0,0,1-.509-.97027,2.81893,2.81893,0,0,1-.13949-.73832c-.01871-.32169-.02461-.64443-.026-.96676Q7.9115,13.11307,7.913,11.59847c0-.43868.00572-.87735.00866-1.316a2.112,2.112,0,0,1,.08788-.61059A1.99472,1.99472,0,0,1,8.824,8.577a2.1288,2.1288,0,0,1,2.83625.41192,1.9315,1.9315,0,0,1,.445,1.2386q.00258,2.50177.00346,5.00354a1.42484,1.42484,0,0,1-.02328.29824.7234.7234,0,0,1-.41989.52235.80557.80557,0,0,1-.49511.092.78118.78118,0,0,1-.67391-.66257c-.01492-.13417-.01952-.26965-.02458-.40469-.00326-.08692.00212-.17414.00213-.26123q.00028-2.21631-.00036-4.43262c0-.061-.00654-.12211-.01126-.18307a.45357.45357,0,0,0-.71719-.28761.39613.39613,0,0,0-.16884.33164c-.00161.24837-.00522.49673-.00584.7451q-.00436,1.75164-.00667,3.50328c-.00008.30959.00757.61926.01691.92873a1.63224,1.63224,0,0,0,.12694.59236,1.56946,1.56946,0,0,0,.64089.72776,1.79069,1.79069,0,0,0,.709.26671,1.72513,1.72513,0,0,0,1.88692-1.22624,1.71437,1.71437,0,0,0,.06107-.46863q.0035-2.16306.00282-4.32611c-.00018-.30633-.00815-.61272-.01687-.919a2.47981,2.47981,0,0,0-.352-1.21285,3.654,3.654,0,0,0-.38947-.5401,2.63145,2.63145,0,0,0-1.03465-.72646c-.14406-.056-.2902-.10666-.43507-.16061a.18321.18321,0,0,1-.13142-.249.14524.14524,0,0,1,.16386-.10586.79112.79112,0,0,1,.14918.0372,3.645,3.645,0,0,1,.88467.382,3.3118,3.3118,0,0,1,.70049.58961,3.79233,3.79233,0,0,1,.47043.68288,2.58526,2.58526,0,0,1,.32407.98463,5.31648,5.31648,0,0,1,.02635.54079c.00534.4.006.8.00706,1.2.001.39356.00023.78713.00023,1.18069Z" transform="translate(-6.02714 -4.82275)" style="fill: #008d36"/>
    <path d="M12.74393,12.688q0,1.04049.0002,2.081c.00014.19355.00429.38711.00358.58065a1.28325,1.28325,0,0,1-.08349.48338,1.40392,1.40392,0,0,1-.94641.87111,1.45465,1.45465,0,0,1-1.40395-.299,1.39785,1.39785,0,0,1-.394-.58861A1.643,1.643,0,0,1,9.8227,15.21c.00261-.71946.00124-1.43894.00128-2.15841q.00009-1.35022.00014-2.70045a.74831.74831,0,0,1,.00347-.10621.21751.21751,0,0,1,.17409-.1716.13684.13684,0,0,1,.1426.06085.31344.31344,0,0,1,.05563.18192c-.00033.12582.00159.25164.0016.37746q.00021,2.26974.00127,4.53946a1.841,1.841,0,0,0,.02758.31724,1.08655,1.08655,0,0,0,1.38916.8,1.06868,1.06868,0,0,0,.75289-1.02515q.00323-2.34715.00192-4.69431c-.00013-.20621-.00587-.41283-.02007-.61849a1.89,1.89,0,0,0-.16544-.66291,2.15755,2.15755,0,0,0-.43215-.64873,2.48094,2.48094,0,0,0-1.341-.72054,2.34636,2.34636,0,0,0-.94049.0405,2.68664,2.68664,0,0,0-.62111.23719.42917.42917,0,0,1-.09784.04026A.17936.17936,0,0,1,8.6,7.98519.53019.53019,0,0,1,8.68866,7.927a2.60938,2.60938,0,0,1,1.50568-.33537,2.86929,2.86929,0,0,1,1.35334.446A2.718,2.718,0,0,1,12.5564,9.27981a2.61668,2.61668,0,0,1,.1906,1.10481c-.00488.31605.00085.63226.00113.9484q.00058.67749.0001,1.355Z" transform="translate(-6.02714 -4.82275)" style="fill: #008d36"/>
    <path d="M8.57042,12.86761q0-.70163,0-1.40324,0-.6144.00018-1.22879a1.31815,1.31815,0,0,1,.31107-.87478,1.48048,1.48048,0,0,1,2.32854.07731,1.29335,1.29335,0,0,1,.26489.76326c.0074.52248.00281,1.04512.00291,1.56769q.00021,1.15644.00016,2.31289c.00027.39676.00231.79351.00294,1.19027a.46083.46083,0,0,1-.0077.09623.18426.18426,0,0,1-.185.15305.16275.16275,0,0,1-.1776-.15409.743.743,0,0,1-.00925-.13455q-.00068-2.05647-.00045-4.11293,0-.43065-.00174-.86128a.991.991,0,0,0-.21108-.63016,1.045,1.045,0,0,0-.96559-.42023,1.0203,1.0203,0,0,0-.77241.42129,1.09829,1.09829,0,0,0-.21509.6109c-.00408.12891-.00335.258-.00344.387-.00035.48065.00038.96129-.00026,1.44194-.00107.79674-.00423,1.59347-.00374,2.39021.00021.33216-.00634.66522.015.99627a2.1549,2.1549,0,0,0,.42668,1.224,2.3812,2.3812,0,0,0,1.6066.94576,2.42129,2.42129,0,0,0,1.44161-.26424c.02867-.01472.05675-.03081.08622-.04372a.178.178,0,0,1,.25087.06774.1747.1747,0,0,1-.0774.25388,2.39737,2.39737,0,0,1-.5263.24089,2.92921,2.92921,0,0,1-1.84324-.03853,2.46421,2.46421,0,0,1-.75572-.44149,3.04641,3.04641,0,0,1-.65583-.769,2.26284,2.26284,0,0,1-.3215-1.1992q.00073-1.2822.00015-2.5644Z" transform="translate(-6.02714 -4.82275)" style="fill: #008d36"/>
  </g>
  <g>
    <path d="M26.34179,25.40037l-.007-.00646a.46407.46407,0,0,1-.36034-.37382,1.33965,1.33965,0,0,1-.00086-.76189.76337.76337,0,0,1,.10809-.22427.41944.41944,0,0,1,.72389.06285.96576.96576,0,0,1,.09129.35314,1.60782,1.60782,0,0,1-.03543.53727.49913.49913,0,0,1-.20305.328,1.60839,1.60839,0,0,1-.1811.08523Zm-.12046-.77426a2.46619,2.46619,0,0,0,.02459.25872.619.619,0,0,0,.07067.18778.10669.10669,0,0,0,.19834-.00274.28915.28915,0,0,0,.03963-.1077,3.54439,3.54439,0,0,0,.03233-.40279,1.56066,1.56066,0,0,0-.04326-.31409c-.01339-.06309-.04591-.1261-.12442-.12855-.07922-.00246-.10589.06176-.1322.12143A.98814.98814,0,0,0,26.22133,24.62611Z" transform="translate(-6.02714 -4.82275)"/>
    <path d="M23.14875,25.40037a.31412.31412,0,0,0-.05476-.01578.47456.47456,0,0,1-.40175-.29322,1.01647,1.01647,0,0,1,.01324-.9136.56248.56248,0,0,1,.63955-.30408.43861.43861,0,0,1,.07306.02664.49235.49235,0,0,1-.00454.06049c-.01205.05921-.02574.11809-.03842.17536a1.01351,1.01351,0,0,0-.15058-.0135.27051.27051,0,0,0-.25.1828.88191.88191,0,0,0-.00759.6333.27555.27555,0,0,0,.30286.18979c.0319-.002.06351-.00853.10822-.01479l.02994.24266-.18179.04393Z" transform="translate(-6.02714 -4.82275)"/>
    <path d="M31.45066,23.13548h-.681V21.63821h.29737v1.24562h.38361Z" transform="translate(-6.02714 -4.82275)"/>
    <path d="M27.08879,23.87838h.27435l.37857.93744.013-.00181-.021-.93432h.25039c.02094.06977.02389,1.39818.002,1.49495h-.25651c-.064-.15018-.13152-.30249-.19406-.45681-.06213-.1533-.1193-.30862-.18995-.46086v.9167h-.25677Z" transform="translate(-6.02714 -4.82275)"/>
    <path d="M19.2461,24.82982c-.013-.31675-.01294-.63135-.00681-.95159h.2594v1.50118h-.27382l-.38286-.94414v.93614H18.6063c-.0195-.07085-.02208-1.39866-.00153-1.49433.02408-.00141.0493-.00389.07455-.00417.05756-.00064.11513-.0002.17936-.0002Z" transform="translate(-6.02714 -4.82275)"/>
    <path d="M17.47124,22.58584l-.01969-.94815h.266v1.49373h-.27538l-.3831-.95147.01512.94918h-.24664c-.02167-.0692-.0246-1.39776-.00044-1.49746.06789,0,.1382.00151.2084-.00057.042-.00124.054.026.06639.05719q.16084.40377.32249.80722c.01255.03137.02569.06252.03856.09377Z" transform="translate(-6.02714 -4.82275)"/>
    <path d="M13.06276,23.133H12.791l-.37669-.9269v.92464h-.24164c-.01891-.06824-.02555-1.34639-.00652-1.49486.042-.00146.08588-.00356.12981-.00436.04149-.00076.083-.00017.13052-.00017l.39167.96707c-.0074-.31743-.02315-.63458-.01453-.95953h.25919Z" transform="translate(-6.02714 -4.82275)"/>
    <path d="M20.25059,23.12922v-1.473a1.05488,1.05488,0,0,1,.60931.02659.475.475,0,0,1,.2745.34186,1.30772,1.30772,0,0,1-.007.70647.74849.74849,0,0,1-.10187.2064.49237.49237,0,0,1-.343.19563A1.32977,1.32977,0,0,1,20.25059,23.12922Zm.30807-1.25475V22.8996c.09742.00683.14405-.00364.18624-.06253a.53954.53954,0,0,0,.09329-.17645,1.29017,1.29017,0,0,0,.00819-.555.37623.37623,0,0,0-.02181-.07381A.22526.22526,0,0,0,20.55866,21.87447Z" transform="translate(-6.02714 -4.82275)"/>
    <path d="M16.57735,23.8952a1.12337,1.12337,0,0,1,.60089.025.39.39,0,0,1,.22228.2051,1.095,1.095,0,0,1,.08381.26507,1.30466,1.30466,0,0,1-.02551.56537.5317.5317,0,0,1-.52055.42563c-.11777.00727-.23641.00029-.36092-.00024Zm.30446,1.24783a.18868.18868,0,0,0,.21759-.10594.93043.93043,0,0,0,.085-.263,1.26065,1.26065,0,0,0,.001-.32658.75967.75967,0,0,0-.08185-.24335.17352.17352,0,0,0-.22173-.08489Z" transform="translate(-6.02714 -4.82275)"/>
    <path d="M12.44789,23.89522a1.29884,1.29884,0,0,1,.48777-.00784.47682.47682,0,0,1,.3815.3427,1.1768,1.1768,0,0,1,.04914.477,1.5568,1.5568,0,0,1-.046.26544.51516.51516,0,0,1-.42629.39711,1.715,1.715,0,0,1-.44614.00629Zm.30638.22071a8.241,8.241,0,0,0,.00733,1.02914.18255.18255,0,0,0,.19574-.09128.59408.59408,0,0,0,.06892-.16824,1.2617,1.2617,0,0,0,.0147-.48.632.632,0,0,0-.06762-.19916A.178.178,0,0,0,12.75427,24.11593Z" transform="translate(-6.02714 -4.82275)"/>
    <path d="M7.46464,22.43993c-.0103.069-.02441.20026-.05137.32883a.60441.60441,0,0,1-.07806.18575.42717.42717,0,0,1-.72551-.0001.83545.83545,0,0,1-.1122-.34653,1.3741,1.3741,0,0,1,.04717-.63008.54549.54549,0,0,1,.18763-.27411.41277.41277,0,0,1,.62989.14724A1.2964,1.2964,0,0,1,7.46464,22.43993ZM6.788,22.36744c.01085.11446.01594.20439.02913.29311a.63078.63078,0,0,0,.044.14691.12634.12634,0,0,0,.1145.09027.12269.12269,0,0,0,.112-.092.60394.60394,0,0,0,.03466-.11A1.4319,1.4319,0,0,0,7.123,22.074a.484.484,0,0,0-.06011-.15051.0979.0979,0,0,0-.16953-.00481.29833.29833,0,0,0-.0575.12005C6.81408,22.155,6.80117,22.273,6.788,22.36744Z" transform="translate(-6.02714 -4.82275)"/>
    <path d="M16.62212,22.43484c-.012.07785-.02841.2086-.05405.3375a.63156.63156,0,0,1-.06354.16084.42413.42413,0,0,1-.68642.08445.62787.62787,0,0,1-.12142-.21642,1.41106,1.41106,0,0,1-.01055-.78127.67883.67883,0,0,1,.14179-.25976.41738.41738,0,0,1,.68832.08544A1.39057,1.39057,0,0,1,16.62212,22.43484Zm-.67869-.07352c.01016.11252.01213.20311.02834.29108a.58771.58771,0,0,0,.06691.18839.09892.09892,0,0,0,.17506.01265.31807.31807,0,0,0,.06233-.11692,1.23951,1.23951,0,0,0,.03246-.209,1.42928,1.42928,0,0,0-.03-.4882.35028.35028,0,0,0-.0739-.13135.09228.09228,0,0,0-.15023.0051.3162.3162,0,0,0-.06345.12728C15.96862,22.15325,15.95662,22.26817,15.94343,22.36132Z" transform="translate(-6.02714 -4.82275)"/>
    <path d="M14.20231,23.13148h-.29522c-.00991-.05413-.01955-.11014-.03054-.16589-.01106-.05612-.02346-.112-.03516-.16739h-.26026l-.07546.3333h-.28975l.32761-1.49325h.35492C14.01587,22.12813,14.10493,22.62713,14.20231,23.13148Zm-.3865-.57243-.09145-.59721-.014.00075-.09992.59646Z" transform="translate(-6.02714 -4.82275)"/>
    <path d="M18.57165,23.13219l-.07783-.33267h-.26289l-.07032.33261h-.29532l.33839-1.50078h.35912l.29214,1.50084Zm-.1041-.5731-.08847-.57313-.02081-.00027-.09636.5734Z" transform="translate(-6.02714 -4.82275)"/>
    <path d="M26.41012,23.13341h-.29671l-.06592-.334h-.27435l-.0687.332h-.283l.32294-1.49279h.36071Zm-.59563-.57789h.20489l-.08978-.588-.01563.00037Z" transform="translate(-6.02714 -4.82275)"/>
    <path d="M29.74627,21.63783h.33385l-.35562,1.49409h-.3386L29.053,21.63667a3.01843,3.01843,0,0,1,.3241-.00289L29.57,22.73766c.03577-.131.03762-.25.0587-.365.02263-.12345.03961-.24793.05932-.37192C29.7072,21.88034,29.72666,21.76,29.74627,21.63783Z" transform="translate(-6.02714 -4.82275)"/>
    <path d="M23.83007,23.87694h.35515l.29681,1.49222a1.51515,1.51515,0,0,1-.28756.0092l-.06717-.33927h-.27243l-.0721.33641h-.27306l-.00775-.00894-.00258-.0092c.00578-.03475.01044-.06978.01821-.10409C23.62129,24.79534,23.72543,24.33752,23.83007,23.87694Zm.27031.92093-.09209-.5965a2.95464,2.95464,0,0,0-.11761.5965Z" transform="translate(-6.02714 -4.82275)"/>
    <path d="M23.82221,23.12989V21.63745h.66143v.25205h-.35731v.33287c.10755.023.22055-.00283.33548.01584v.23863h-.33576v.40127h.38242v.25178Z" transform="translate(-6.02714 -4.82275)"/>
    <path d="M10.28859,23.8772H10.952v.24931h-.35665c-.01185.11658-.003.2241-.00616.34409h.34427v.24711h-.337v.40189h.37824v.25323h-.68614Z" transform="translate(-6.02714 -4.82275)"/>
    <path d="M11.19775,21.88833V22.229h.33569a1.19992,1.19992,0,0,1,.00819.24714H11.1982v.403h.38419v.25134h-.67755v-1.4929h.65192v.25067Z" transform="translate(-6.02714 -4.82275)"/>
    <path d="M21.666,22.475v.40446h.38737v.25379c-.22454.00813-.44788.00219-.67809.00377V21.63817h.65035v.24991h-.35832a3.14639,3.14639,0,0,0-.00277.34144H22.003V22.475Z" transform="translate(-6.02714 -4.82275)"/>
    <path d="M18.356,24.12927h-.3611V24.471h.33371v.24577H17.995v.40478h.3846v.24168a4.03366,4.03366,0,0,1-.67155.00843c-.01833-.069-.02552-1.31833-.00852-1.48272a3.49418,3.49418,0,0,1,.6474-.01051A.82459.82459,0,0,1,18.356,24.12927Z" transform="translate(-6.02714 -4.82275)"/>
    <path d="M13.86055,24.12462v.34732h.3405v.24319H13.8632v.40417h.37946v.25318h-.66144c-.02156-.06653-.02689-1.3802-.00478-1.49421h.6444a1.24,1.24,0,0,1,.00324.24635Z" transform="translate(-6.02714 -4.82275)"/>
    <path d="M7.66428,21.63819h.65306v.249h-.359v.38624h.33221v.24183H7.95481v.61036a1.53676,1.53676,0,0,1-.28342.01093C7.65026,23.06375,7.64442,21.76908,7.66428,21.63819Z" transform="translate(-6.02714 -4.82275)"/>
    <path d="M9.18457,22.27114v.246H8.84444v.6096a1.6244,1.6244,0,0,1-.29069.00936V21.63754h.653v.24585c-.11514.01787-.234-.00074-.35746.01157v.37618Z" transform="translate(-6.02714 -4.82275)"/>
    <path d="M21.52451,25.37392H21.2313c-.0217-.06369-.02864-1.36089-.00671-1.495h.6576V24.126H21.523c-.00593.12989-.00186.2505-.00276.38391h.3415v.24774h-.3372Z" transform="translate(-6.02714 -4.82275)"/>
    <path d="M24.87356,21.90356h-.25807v-.25492a5.57332,5.57332,0,0,1,.8323-.00737v.26509h-.26637v1.22485c-.10283.01081-.19763.00433-.30594.0052C24.87261,22.727,24.87585,22.32319,24.87356,21.90356Z" transform="translate(-6.02714 -4.82275)"/>
    <path d="M26.92489,21.90465v1.22874c-.10076.00648-.19548.00354-.30026.0021V21.91027h-.26049v-.27341h.83255a1.2544,1.2544,0,0,1-.00014.26779Z" transform="translate(-6.02714 -4.82275)"/>
    <path d="M14.72109,23.13374h-.29791c-.00411-.1362-.00152-.27019-.002-.404-.00046-.13529-.0001-.27058-.0001-.40587v-.41534h-.26272v-.27128h.8358v.2643h-.26953c-.00127.11228-.00285.21378-.00343.31529-.00057.09986-.00012.19972-.00012.29957v.61735Z" transform="translate(-6.02714 -4.82275)"/>
    <path d="M10.74663,21.66362l-.04621.22982a.23459.23459,0,0,1-.04223-.00032.2981.2981,0,0,0-.37708.2131.92453.92453,0,0,0-.00849.54338.29715.29715,0,0,0,.34856.23466c.0224-.002.04468-.00531.0797-.00955l.02959.23029a.55667.55667,0,0,1-.665-.168.73737.73737,0,0,1-.1214-.32273,1.25639,1.25639,0,0,1,.027-.53657.689.689,0,0,1,.14481-.27057A.568.568,0,0,1,10.74663,21.66362Z" transform="translate(-6.02714 -4.82275)"/>
    <path d="M28.46374,21.6533l-.04722.24425c-.02842-.00489-.04964-.00825-.07075-.01222a.28.28,0,0,0-.31992.15862,1.06884,1.06884,0,0,0-.06392.25027.8507.8507,0,0,0,.02542.35387.30019.30019,0,0,0,.34626.23676c.025-.00341.05022-.00522.07741-.008a.18169.18169,0,0,1,.01411.03793c.00761.06345.01381.12707.02166.20171a1.27033,1.27033,0,0,1-.13083.02871.52734.52734,0,0,1-.61988-.3837A1.14334,1.14334,0,0,1,27.7,22.03966a.57228.57228,0,0,1,.62985-.41423A1.24075,1.24075,0,0,1,28.46374,21.6533Z" transform="translate(-6.02714 -4.82275)"/>
    <path d="M25.00713,25.37371H24.6997V24.14617h-.2655v-.26842c.27359-.01178.54891-.00131.83483-.00569a1.65261,1.65261,0,0,1,.00011.27224h-.262Z" transform="translate(-6.02714 -4.82275)"/>
    <path d="M11.34878,24.14707H11.086v-.26894H11.915a1.132,1.132,0,0,1,.00591.2663h-.27068v1.22942h-.29c-.00211-.03562-.00613-.07249-.00618-.10936q-.00075-.50267-.0005-1.00533C11.35355,24.22469,11.35071,24.19022,11.34878,24.14707Z" transform="translate(-6.02714 -4.82275)"/>
    <path d="M20.49551,24.14584h-.26782V25.3726h-.29154c-.0062-.09913-.00211-.201-.00283-.30247-.00071-.09995-.00015-.19991-.00015-.29986v-.61988h-.26529a.92461.92461,0,0,1-.00617-.27139h.8338Z" transform="translate(-6.02714 -4.82275)"/>
    <path d="M15.11609,25.13081h.38568v.24168h-.67332c-.02111-.06337-.02723-1.36731-.0054-1.49377h.288c.01051.09909.00359.201.00476.30235.00122.10629.00027.21261.00027.31892v.63082Z" transform="translate(-6.02714 -4.82275)"/>
    <path d="M22.92116,21.63824v1.24681H23.31v.25162c-.2243.00067-.44734.00082-.67707-.00028V21.63824Z" transform="translate(-6.02714 -4.82275)"/>
    <path d="M19.03523,21.63657h.284v1.249h.38838v.245h-.6655C19.02354,23.06329,19.01669,21.79118,19.03523,21.63657Z" transform="translate(-6.02714 -4.82275)"/>
    <path d="M16.01594,23.87277c.08277,0,.15645-.00034.23013.00023.01873.00015.03743.00317.06188.00539v1.49405h-.292Z" transform="translate(-6.02714 -4.82275)"/>
    <path d="M20.953,25.37379h-.283c-.02191-.06422-.02789-1.37339-.00446-1.50109.06113,0,.12474-.00049.18833.00021.03135.00035.06267.00291.09909.00473Z" transform="translate(-6.02714 -4.82275)"/>
    <path d="M22.12474,23.8732c.07894,0,.1594-.00028.23985.0003a.27337.27337,0,0,1,.04142.00724v1.49285h-.28818C22.09549,25.25438,22.10113,23.943,22.12474,23.8732Z" transform="translate(-6.02714 -4.82275)"/>
    <path d="M30.49835,23.13226h-.28954V21.6368h.28954Z" transform="translate(-6.02714 -4.82275)"/>
    <path d="M28.90744,21.63822v1.49253h-.28586V21.63822Z" transform="translate(-6.02714 -4.82275)"/>
    <path d="M9.72692,23.13255h-.272c-.02187-.07362-.02454-1.40052-.00232-1.49615h.26473C9.73887,21.70645,9.74722,22.93706,9.72692,23.13255Z" transform="translate(-6.02714 -4.82275)"/>
    <path d="M15.44343,23.13154h-.28694V21.63877c.02712-.00282.04892-.0068.07077-.00706.07027-.00084.14056-.00031.20818-.00031C15.45569,21.70975,15.46145,22.99422,15.44343,23.13154Z" transform="translate(-6.02714 -4.82275)"/>
    <path d="M25.72187,23.87859v1.49347h-.282V23.87859Z" transform="translate(-6.02714 -4.82275)"/>
    <path d="M23.27594,22.18005l.14877-.54671.25875-.02c-.05144.12363-.09493.23283-.14248.34024-.02063.04661-.05026.08916-.07463.13419C23.41089,22.19026,23.40324,22.19427,23.27594,22.18005Z" transform="translate(-6.02714 -4.82275)"/>
    <path d="M15.61812,23.87429l.25174-.02159c-.02291.06621-.03739.12212-.06116.17375-.04691.10188-.09776.202-.14924.3017-.05277.10219-.06693.10791-.18986.0931Z" transform="translate(-6.02714 -4.82275)"/>
  </g>
</svg>
