<?xml version="1.0" encoding="utf-8"?>
<!-- Generator: Adobe Illustrator 27.0.0, SVG Export Plug-In . SVG Version: 6.00 Build 0)  -->
<svg version="1.1" id="Calque_3" xmlns="http://www.w3.org/2000/svg" xmlns:xlink="http://www.w3.org/1999/xlink" x="0px" y="0px"
	 viewBox="0 0 600 600" style="enable-background:new 0 0 600 600;" xml:space="preserve">
<style type="text/css">
	.st0{clip-path:url(#SVGID_00000008138577656104455110000003454170087103535283_);}
	.st1{opacity:0.49;fill:#FAFAFA;}
	.st2{fill:url(#SVGID_00000056411820071415806710000017439728859931233720_);}
	.st3{opacity:0.25;fill:#202020;}
	.st4{opacity:0.31;}
	.st5{fill:#E53935;}
	.st6{fill:#FAFAFA;}
	.st7{fill:#1B5E20;}
	.st8{fill:#1565C0;}
	.st9{fill:#B71C1C;}
	.st10{opacity:0.31;fill:#1565C0;}
	.st11{opacity:0.31;fill:#FAFAFA;}
</style>
<g>
	<defs>
		<path id="SVGID_1_" d="M526.2,600H73.8C33,600,0,566.9,0,526.1V73.8C0,33,33,0,73.8,0h452.4C567,0,600,33,600,73.8v452.4
			C600,566.9,567,600,526.2,600z"/>
	</defs>
	<clipPath id="SVGID_00000026142939529608527820000012432806435087378623_">
		<use xlink:href="#SVGID_1_"  style="overflow:visible;"/>
	</clipPath>
	<g style="clip-path:url(#SVGID_00000026142939529608527820000012432806435087378623_);">
		<path class="st1" d="M501.3,606H98.6C44.1,606,0,561.9,0,507.4V104.7C0,50.3,44.1,6.1,98.6,6.1h402.7c54.5,0,98.6,44.1,98.6,98.6
			v402.7C599.9,561.9,555.8,606,501.3,606z"/>
		
			<linearGradient id="SVGID_00000009558669693593535240000007435241569207495585_" gradientUnits="userSpaceOnUse" x1="77.3624" y1="31.9548" x2="575.5964" y2="631.8265">
			<stop  offset="0" style="stop-color:#EF6C00"/>
			<stop  offset="0.102" style="stop-color:#BC5908"/>
			<stop  offset="0.2771" style="stop-color:#693B15"/>
			<stop  offset="0.4011" style="stop-color:#34281D"/>
			<stop  offset="0.4615" style="stop-color:#202020"/>
			<stop  offset="0.5236" style="stop-color:#304025"/>
			<stop  offset="0.5936" style="stop-color:#3D5B28"/>
			<stop  offset="0.6698" style="stop-color:#48702B"/>
			<stop  offset="0.754" style="stop-color:#4F7F2D"/>
			<stop  offset="0.8525" style="stop-color:#54882F"/>
			<stop  offset="1" style="stop-color:#558B2F"/>
		</linearGradient>
		<rect style="fill:url(#SVGID_00000009558669693593535240000007435241569207495585_);" width="599.9" height="599.9"/>
		<path class="st3" d="M423.9,153.7l176.2,334.9c0,42.8-0.3,42.6-0.3,77c0,5.9,0.2,19.1,0.3,23.5l-0.3,10.9c0,0-87.7,1.1-133,1.1
			h-40.2c-59.2,0-112.4,0-147.8-1.2l-81.6-121.8c-14.5-19-22.1-60.7-21.6-84.6L180,193c0.7-34.5,18.2-66.5,46.9-85.7l14.3-9.6
			c27.6-18.5,62.3-23,93.7-12.1l21.3,7.4c11.1,3.9,21.5,9.6,30.8,16.8l6.4,5C406.5,125.3,416.9,138.6,423.9,153.7z"/>
		<g class="st4">
			<path class="st5" d="M25.6,577.3c-1.6,0-2.9-2.2-2.9-4.9V427.6c0-2.7,1.3-4.9,2.9-4.9c1.6,0,2.9,2.2,2.9,4.9v144.8
				C28.5,575.1,27.2,577.3,25.6,577.3z"/>
		</g>
		<g class="st4">
			<path class="st6" d="M39.3,577.3c-1.6,0-2.9-2.2-2.9-4.9V392.7c0-2.7,1.3-4.9,2.9-4.9c1.6,0,2.9,2.2,2.9,4.9v179.7
				C42.2,575.1,40.9,577.3,39.3,577.3z"/>
		</g>
		<g class="st4">
			<path class="st6" d="M53,577.3c-1.6,0-2.9-2.2-2.9-4.9V372.7c0-2.7,1.3-4.9,2.9-4.9c1.6,0,2.9,2.2,2.9,4.9v199.7
				C55.8,575.1,54.6,577.3,53,577.3z"/>
		</g>
		<g class="st4">
			<path class="st7" d="M66.7,577.3c-1.6,0-2.9-2.2-2.9-4.9v-210c0-2.7,1.3-4.9,2.9-4.9c1.6,0,2.9,2.2,2.9,4.9v210
				C69.5,575.1,68.2,577.3,66.7,577.3z"/>
		</g>
		<g class="st4">
			<path class="st7" d="M80.3,577.3c-1.6,0-2.9-2.2-2.9-4.9V356.9c0-2.7,1.3-4.9,2.9-4.9c1.6,0,2.9,2.2,2.9,4.9v215.5
				C83.2,575.1,81.9,577.3,80.3,577.3z"/>
		</g>
		<g class="st4">
			<path class="st7" d="M94,577.8c-1.6,0-2.9-2.2-2.9-4.9V356.9c0-2.7,1.3-4.9,2.9-4.9c1.6,0,2.9,2.2,2.9,4.9v215.9
				C96.9,575.6,95.6,577.8,94,577.8z"/>
		</g>
		<g class="st4">
			<path class="st6" d="M107.7,577.3c-1.6,0-2.9-2.2-2.9-4.9V360.6c0-2.7,1.3-4.9,2.9-4.9c1.6,0,2.9,2.2,2.9,4.9v211.7
				C110.5,575.1,109.3,577.3,107.7,577.3z"/>
		</g>
		<g class="st4">
			<path class="st8" d="M121.4,577.3c-1.6,0-2.9-2.2-2.9-4.9V372.7c0-2.7,1.3-4.9,2.9-4.9c1.6,0,2.9,2.2,2.9,4.9v199.7
				C124.2,575.1,122.9,577.3,121.4,577.3z"/>
		</g>
		<g class="st4">
			<path class="st6" d="M135,577.3c-1.6,0-2.9-2.2-2.9-4.9v-182c0-2.7,1.3-4.9,2.9-4.9s2.9,2.2,2.9,4.9v182
				C137.9,575.1,136.6,577.3,135,577.3z"/>
		</g>
		<g class="st4">
			<path class="st6" d="M148.7,577.3c-1.6,0-2.9-2.2-2.9-4.9V420.8c0-2.7,1.3-4.9,2.9-4.9c1.6,0,2.9,2.2,2.9,4.9v151.6
				C151.6,575.1,150.3,577.3,148.7,577.3z"/>
		</g>
		<g class="st4">
			<path class="st6" d="M162.4,577.3c-1.6,0-2.9-2.2-2.9-4.9V461.3c0-2.7,1.3-4.9,2.9-4.9s2.9,2.2,2.9,4.9v111.1
				C165.2,575.1,164,577.3,162.4,577.3z"/>
		</g>
		<g class="st4">
			<path class="st6" d="M176.1,577.3c-1.6,0-2.9-2.2-2.9-4.9V500c0-2.7,1.3-4.9,2.9-4.9c1.6,0,2.9,2.2,2.9,4.9v72.4
				C178.9,575.1,177.6,577.3,176.1,577.3z"/>
		</g>
		<g class="st4">
			<path class="st8" d="M189.7,577.3c-1.6,0-2.9-2.2-2.9-4.9v-47.8c0-2.7,1.3-4.9,2.9-4.9c1.6,0,2.9,2.2,2.9,4.9v47.8
				C192.6,575.1,191.3,577.3,189.7,577.3z"/>
		</g>
		<g class="st4">
			<path class="st6" d="M203.4,577.3c-1.6,0-2.9-2.2-2.9-4.9v-29.1c0-2.7,1.3-4.9,2.9-4.9s2.9,2.2,2.9,4.9v29.1
				C206.3,575.1,205,577.3,203.4,577.3z"/>
		</g>
		<g class="st4">
			<path class="st6" d="M217.1,577.3c-1.6,0-2.9-2.2-2.9-4.9v-20.9c0-2.7,1.3-4.9,2.9-4.9c1.6,0,2.9,2.2,2.9,4.9v20.9
				C219.9,575.1,218.7,577.3,217.1,577.3z"/>
		</g>
		<g class="st4">
			<path class="st9" d="M229.5,577.3c-1.6,0-2.9-2.2-2.9-4.9v-16.9c0-2.7,1.3-4.9,2.9-4.9c1.6,0,2.9,2.2,2.9,4.9v16.9
				C232.4,575.1,231.1,577.3,229.5,577.3z"/>
		</g>
		<g class="st4">
			<path class="st9" d="M243.2,577.3c-1.6,0-2.9-2.2-2.9-4.9v-13c0-2.7,1.3-4.9,2.9-4.9s2.9,2.2,2.9,4.9v13
				C246.1,575.1,244.8,577.3,243.2,577.3z"/>
		</g>
		<g class="st4">
			<path class="st9" d="M256.9,577.3c-1.6,0-2.9-2.2-2.9-4.9v-16.9c0-2.7,1.3-4.9,2.9-4.9c1.6,0,2.9,2.2,2.9,4.9v16.9
				C259.7,575.1,258.5,577.3,256.9,577.3z"/>
		</g>
		<g class="st4">
			<path class="st6" d="M271.8,577.3c-1.6,0-2.9-2.2-2.9-4.9v-26.1c0-2.7,1.3-4.9,2.9-4.9c1.6,0,2.9,2.2,2.9,4.9v26.1
				C274.6,575.1,273.4,577.3,271.8,577.3z"/>
		</g>
		<g class="st4">
			<path class="st6" d="M285.5,577.3c-1.6,0-2.9-2.2-2.9-4.9v-44.8c0-2.7,1.3-4.9,2.9-4.9c1.6,0,2.9,2.2,2.9,4.9v44.8
				C288.3,575.1,287,577.3,285.5,577.3z"/>
		</g>
		<g class="st4">
			<path class="st6" d="M299.1,577.3c-1.6,0-2.9-2.2-2.9-4.9v-75.8c0-2.7,1.3-4.9,2.9-4.9c1.6,0,2.9,2.2,2.9,4.9v75.8
				C302,575.1,300.7,577.3,299.1,577.3z"/>
		</g>
		<g class="st4">
			<path class="st6" d="M312.8,577.3c-1.6,0-2.9-2.2-2.9-4.9V458.5c0-2.7,1.3-4.9,2.9-4.9c1.6,0,2.9,2.2,2.9,4.9v113.9
				C315.7,575.1,314.4,577.3,312.8,577.3z"/>
		</g>
		<g class="st4">
			<path class="st6" d="M326.5,577.3c-1.6,0-2.9-2.2-2.9-4.9V399.6c0-2.7,1.3-4.9,2.9-4.9c1.6,0,2.9,2.2,2.9,4.9v172.8
				C329.3,575.1,328.1,577.3,326.5,577.3z"/>
		</g>
		<g class="st4">
			<path class="st6" d="M340.2,577.3c-1.6,0-2.9-2.2-2.9-4.9V331.2c0-2.7,1.3-4.9,2.9-4.9c1.6,0,2.9,2.2,2.9,4.9v241.2
				C343,575.1,341.7,577.3,340.2,577.3z"/>
		</g>
		<path class="st10" d="M353.8,275.1c1.6,0,2.9,2.2,2.9,4.9v292.3c0,2.7-1.3,4.9-2.9,4.9c-1.6,0-2.9-2.2-2.9-4.9V280.1
			C351,277.3,352.3,275.1,353.8,275.1"/>
		<path class="st10" d="M370.4,254.2v318.1c0,2.7-1.3,4.9-2.9,4.9c-1.6,0-2.9-2.2-2.9-4.9V254.2"/>
		<path class="st10" d="M384,249.2v323.2c0,2.7-1.3,4.9-2.9,4.9c-1.6,0-2.9-2.2-2.9-4.9V249.2"/>
		<path class="st11" d="M397.7,256.6v315.7c0,2.7-1.3,4.9-2.9,4.9c-1.6,0-2.9-2.2-2.9-4.9V256.6"/>
		<g class="st4">
			<path class="st6" d="M408.5,577.3c-1.6,0-2.9-2.2-2.9-4.9V291.7c0-2.7,1.3-4.9,2.9-4.9c1.6,0,2.9,2.2,2.9,4.9v280.7
				C411.4,575.1,410.1,577.3,408.5,577.3z"/>
		</g>
		<g class="st4">
			<path class="st6" d="M422.2,577.3c-1.6,0-2.9-2.2-2.9-4.9V367.1c0-2.7,1.3-4.9,2.9-4.9c1.6,0,2.9,2.2,2.9,4.9v205.3
				C425.1,575.1,423.8,577.3,422.2,577.3z"/>
		</g>
		<g class="st4">
			<path class="st6" d="M435.9,577.3c-1.6,0-2.9-2.2-2.9-4.9V463.8c0-2.7,1.3-4.9,2.9-4.9c1.6,0,2.9,2.2,2.9,4.9v108.6
				C438.7,575.1,437.5,577.3,435.9,577.3z"/>
		</g>
		<g class="st4">
			<path class="st6" d="M449.6,577.3c-1.6,0-2.9-2.2-2.9-4.9v-54.3c0-2.7,1.3-4.9,2.9-4.9c1.6,0,2.9,2.2,2.9,4.9v54.3
				C452.4,575.1,451.1,577.3,449.6,577.3z"/>
		</g>
		<g class="st4">
			<path class="st9" d="M463.2,577.3c-1.6,0-2.9-2.2-2.9-4.9v-29.1c0-2.7,1.3-4.9,2.9-4.9c1.6,0,2.9,2.2,2.9,4.9v29.1
				C466.1,575.1,464.8,577.3,463.2,577.3z"/>
		</g>
		<g class="st4">
			<path class="st9" d="M476.9,577.3c-1.6,0-2.9-2.2-2.9-4.9v-26.1c0-2.7,1.3-4.9,2.9-4.9s2.9,2.2,2.9,4.9v26.1
				C479.8,575.1,478.5,577.3,476.9,577.3z"/>
		</g>
		<g class="st4">
			<path class="st6" d="M490.6,577.3c-1.6,0-2.9-2.2-2.9-4.9v-29.1c0-2.7,1.3-4.9,2.9-4.9c1.6,0,2.9,2.2,2.9,4.9v29.1
				C493.4,575.1,492.2,577.3,490.6,577.3z"/>
		</g>
		<g class="st4">
			<path class="st9" d="M504.3,577.3c-1.6,0-2.9-2.2-2.9-4.9v-44.8c0-2.7,1.3-4.9,2.9-4.9c1.6,0,2.9,2.2,2.9,4.9v44.8
				C507.1,575.1,505.8,577.3,504.3,577.3z"/>
		</g>
		<g class="st4">
			<path class="st6" d="M517.9,577.3c-1.6,0-2.9-2.2-2.9-4.9v-79.2c0-2.7,1.3-4.9,2.9-4.9c1.6,0,2.9,2.2,2.9,4.9v79.2
				C520.8,575.1,519.5,577.3,517.9,577.3z"/>
		</g>
		<g class="st4">
			<path class="st6" d="M531.6,577.3c-1.6,0-2.9-2.2-2.9-4.9V432c0-2.7,1.3-4.9,2.9-4.9c1.6,0,2.9,2.2,2.9,4.9v140.3
				C534.5,575.1,533.2,577.3,531.6,577.3z"/>
		</g>
		<g class="st4">
			<path class="st7" d="M545.3,577.3c-1.6,0-2.9-2.2-2.9-4.9V392.9c0-2.7,1.3-4.9,2.9-4.9s2.9,2.2,2.9,4.9v179.4
				C548.1,575.1,546.9,577.3,545.3,577.3z"/>
		</g>
		<g class="st4">
			<path class="st7" d="M559,577.3c-1.6,0-2.9-2.2-2.9-4.9V376.2c0-2.7,1.3-4.9,2.9-4.9s2.9,2.2,2.9,4.9v196.1
				C561.8,575.1,560.5,577.3,559,577.3z"/>
		</g>
		<g class="st4">
			<path class="st6" d="M572.6,577.3c-1.6,0-2.9-2.3-2.9-5V362.3c0-2.8,1.3-5,2.9-5c1.6,0,2.9,2.3,2.9,5v209.9
				C575.5,575.1,574.2,577.3,572.6,577.3z"/>
		</g>
		<path class="st6" d="M381,298.7c0,15.8,0,31.7,0,47.5c0,8.6,0.2,17.3,0.1,25.9c0.1,8.5-1.4,16.9-4.4,24.8
			c-5,12.4-14.2,22.7-26.1,28.8c-16.6,9.4-36.8,10.2-54.1,2.1c-11.2-4.9-20.6-13.2-26.7-23.8c-5.4-9-8.2-19.4-8-29.9
			c0.1-47.8,0.1-95.5,0.1-143.3c0-2.6,0.3-5.1,0.9-7.6c3.6-12.4,16.6-19.5,29-15.9c10,2.9,16.8,12.1,16.8,22.5
			c0.2,6.9,0.2,13.8,0.2,20.7c0,38,0,76,0,114c0,4.3,0.3,8.6,0.9,12.9c0.8,6.2,6.5,10.6,12.8,9.8c0.6-0.1,1.1-0.2,1.7-0.4
			c4.1-0.9,7.6-3.7,9.4-7.5c0.5-1.2,0.8-2.4,0.7-3.7c0.2-9.5,0.3-19,0.3-28.4c0.1-29.8,0.1-59.6,0.1-89.4c0-10.2,0-20.4-0.6-30.6
			c-0.3-11.1-4.6-21.7-12.3-29.7c-8.1-8.2-18.6-13.5-30-15.2c-19.5-2.6-38.7,6.6-48.9,23.4c-4.3,6.9-6.6,14.9-6.6,23
			c-0.1,39.2-0.1,78.4,0,117.6c0,10.7,0.3,21.3,0.3,32c-0.1,8.3,1.3,16.5,4.2,24.3c5.4,14.2,14.4,26.7,26.1,36.3
			c8.4,7,18.1,12.1,28.6,15.1c1.7,0.4,3.3,1,4.9,1.7c2.4,0.9,3.7,3.4,3.2,5.8c-0.1,2.4-2.2,4.2-4.6,4.1l-0.1,0
			c-2.1-0.1-4.2-0.5-6.2-1.2c-13.3-4.2-25.5-11.1-36-20.4c-4.4-4.1-8.6-8.6-12.3-13.4c-6.4-8.3-11.4-17.7-14.5-27.7
			c-2.3-6.8-3.6-13.9-4-21.1c-0.5-9.2-0.7-18.4-0.7-27.6c-0.1-28.8-0.2-57.6-0.1-86.4c0-12.5,0.2-25,0.2-37.5
			c0-5.9,0.8-11.8,2.5-17.4c3.8-12.8,12.1-23.9,23.2-31.2c26-17.5,61-12.5,80.9,11.7c8.2,9.9,12.7,22.4,12.7,35.3
			c0,47.6,0.1,95.1,0.1,142.7c0.1,2.9-0.1,5.7-0.7,8.5c-1.3,6.6-5.8,12.2-12,14.9c-4.3,2.4-9.3,3.3-14.1,2.6
			c-9.9-1.3-17.8-9-19.2-18.9c-0.4-3.8-0.6-7.7-0.7-11.5c-0.1-2.5,0.1-5,0.1-7.5c0-42.1,0-84.3,0-126.4c0-1.7-0.2-3.5-0.3-5.2
			c-1.2-7-7.9-11.8-14.9-10.6c-2,0.3-3.9,1.2-5.5,2.4c-3.1,2.2-4.9,5.7-4.8,9.5c0,7.1-0.1,14.2-0.2,21.3
			c-0.1,33.3-0.1,66.6-0.2,99.9c0,8.8,0.2,17.7,0.5,26.5c0.1,5.8,1.4,11.5,3.6,16.9c3.7,8.7,10.1,15.9,18.3,20.8
			c6.1,3.9,13,6.5,20.2,7.6c26.4,4,51.1-14.2,55-40.7c0.4-2.5,0.6-5.1,0.5-7.7c0.1-41.1,0.1-82.3,0.1-123.4c0-8.7-0.2-17.5-0.5-26.2
			c-0.3-12.2-3.8-24.1-10-34.6c-3.2-5.5-6.9-10.6-11.1-15.4c-8-9.2-18.1-16.3-29.5-20.7c-4.1-1.6-8.3-3-12.4-4.6
			c-2.8-0.6-4.6-3.4-4-6.2c0.1-0.3,0.2-0.6,0.3-0.9c0.5-2.1,2.6-3.4,4.7-3c1.4,0.2,2.9,0.6,4.3,1.1c8.9,2.5,17.3,6.2,25.2,10.9
			c7.4,4.7,14.1,10.3,20,16.8c5.2,6,9.7,12.5,13.4,19.5c4.9,8.6,8.1,18.2,9.2,28.1c0.5,5.1,0.8,10.3,0.8,15.4
			c0.2,11.4,0.2,22.8,0.2,34.2c0,11.2,0,22.5,0,33.7L381,298.7z"/>
		<path class="st6" d="M362.8,299.2c0,19.8,0,39.6,0,59.4c0,5.5,0.1,11,0.1,16.6c0.1,4.7-0.7,9.4-2.4,13.8
			c-4.5,12.2-14.5,21.4-27,24.8c-13.9,4.4-29.1,1.2-40-8.5c-5.1-4.5-9-10.3-11.2-16.8c-2-5.5-2.9-11.4-2.8-17.3
			c0.1-20.5,0-41,0-61.6c0-25.7,0-51.4,0-77c0-1,0-2,0.1-3c0.5-2.5,2.5-4.4,5-4.9c1.6-0.3,3.2,0.4,4.1,1.7c1.1,1.5,1.6,3.3,1.6,5.2
			c0,3.6,0,7.2,0,10.8c0,43.2,0,86.3,0,129.5c0,3,0.3,6.1,0.8,9c3.7,16.7,20.3,27.2,37,23.5c0.9-0.2,1.8-0.4,2.6-0.7
			c12.8-4,21.5-15.8,21.5-29.2c0.1-44.6,0.1-89.3,0.1-133.9c0-5.9-0.2-11.8-0.6-17.6c-0.4-6.5-2-12.9-4.7-18.9
			c-3-6.9-7.1-13.1-12.3-18.5c-10.3-10.7-23.7-17.9-38.3-20.6c-8.9-1.4-18.1-1-26.8,1.2c-6.2,1.5-12.1,3.8-17.7,6.8
			c-0.9,0.5-1.8,0.9-2.8,1.1c-2.7,0.7-5.5-1-6.2-3.8c-0.5-1.9,0.2-3.9,1.7-5.2c0.8-0.6,1.6-1.2,2.5-1.7c13-7.4,28-10.8,42.9-9.6
			c13.7,0.9,27,5.3,38.6,12.7c12.9,8.7,23,21,28.8,35.4c4.1,10,5.9,20.7,5.4,31.5c-0.1,9,0,18,0,27.1c0,12.9,0,25.8,0,38.6
			L362.8,299.2z"/>
		<path class="st6" d="M243.7,304.3v-40c0-11.7,0-23.4,0-35c-0.2-9.1,3-18,8.9-25c15-17.9,41.6-20.2,59.5-5.2
			c2.6,2.2,4.9,4.7,6.9,7.4c4.8,6.3,7.4,13.9,7.6,21.8c0.2,14.9,0.1,29.8,0.1,44.7c0,22,0,44,0,66c0,11.3,0.1,22.6,0.1,34
			c0,0.9-0.1,1.8-0.2,2.7c-0.4,2.6-2.7,4.4-5.3,4.4c-2.6,0.2-4.8-1.6-5.1-4.2l0,0l0-0.2c-0.2-1.3-0.3-2.6-0.3-3.8
			c0-39.1,0-78.2,0-117.3c0-8.2,0-16.4,0-24.6c0.1-6.5-2-12.9-6-18c-6.3-8.7-16.9-13.2-27.5-12c-8.8,0.5-16.9,4.9-22,12
			c-3.8,5.1-5.9,11.1-6.1,17.4c-0.1,3.7-0.1,7.4-0.1,11c0,13.7,0,27.4,0,41.1c0,22.7-0.1,45.5-0.1,68.2c0,9.5-0.2,19,0.4,28.4
			c0.4,12.6,4.6,24.8,12.2,34.9c11,14.8,27.5,24.6,45.8,27c14.2,1.8,28.5-0.8,41.1-7.5c0.8-0.4,1.6-0.9,2.5-1.2
			c2.4-1.5,5.5-0.7,7,1.6l0,0l0.2,0.3c1.5,2.3,0.8,5.4-1.5,6.9l0,0l-0.7,0.4c-4.7,2.9-9.7,5.2-15,6.9c-17.2,5.3-35.6,4.9-52.6-1.1
			c-7.9-2.9-15.2-7.1-21.6-12.6c-7.4-6.2-13.7-13.6-18.7-21.9c-6.2-10.3-9.4-22.2-9.2-34.2c0-24.4,0-48.8,0-73.1L243.7,304.3z"/>
		<path class="st6" d="M434.9,302.4c0,31.5,0,62.9,0,94.4c0,12.2-1.7,24.4-5.1,36.2c-3.9,13.2-10,25.6-17.9,36.8
			c-7.2,10.3-16,19.5-26,27.3c-11.6,9.1-24.6,16.2-38.6,21c-10.5,3.7-21.4,6-32.6,6.7c-6.8,0.5-13.6,0.6-20.4,0.3
			c-12.6-0.7-25-3.2-36.8-7.5c-14.5-5.2-28-12.9-39.8-22.7c-9.9-8.3-18.6-17.9-25.7-28.6c-5.5-8.6-10.1-17.7-13.6-27.3
			c-3.2-8.8-5.4-18-6.5-27.3c-0.5-4.3-0.8-8.6-0.7-12.9c0-64.1-0.1-128.3,0-192.4c-0.1-12.1,1.8-24.1,5.5-35.5
			c3-9.7,7.2-18.9,12.3-27.6c19.4-32.1,51.6-54.4,88.5-61.3c9.9-1.9,20.1-2.7,30.2-2.2c17,0.6,33.8,4.5,49.4,11.3
			c9.1,4,17.7,9,25.7,14.9c10.1,7.5,19,16.3,26.6,26.3c4.6,6.3,8.8,12.9,12.3,19.9c6.5,12.6,10.6,26.3,12.2,40.4
			c0.6,5.3,0.9,10.6,0.8,16C434.9,239.6,434.9,271,434.9,302.4z M403.7,302.3c0-31.7,0-63.3,0-95c0-11.5-2.2-22.9-6.4-33.6
			c-17-42.8-60.8-68.6-106.5-62.7c-14.2,1.7-27.9,6.3-40.2,13.6c-14.9,8.8-27.3,21.3-35.8,36.4c-8.2,14.5-12.6,30.8-12.5,47.5
			c-0.1,60.5,0,120.9-0.1,181.4c-0.1,7.6,0.4,15.3,1.6,22.8c2.1,12.1,6.4,23.7,12.8,34.1c7.6,12.3,17.6,22.7,29.6,30.8
			c6.5,4.4,13.5,8,20.8,10.7c15.9,5.9,33.1,7.8,49.9,5.5c27.8-3.6,52.9-18.7,69.1-41.6c5.6-7.9,9.9-16.6,12.9-25.8
			c3.1-9.2,4.7-19,4.6-28.7C403.7,365.8,403.6,334.1,403.7,302.3z"/>
	</g>
</g>
</svg>
