<?xml version="1.0" encoding="utf-8"?>
<!-- Generator: Adobe Illustrator 24.0.0, SVG Export Plug-In . SVG Version: 6.00 Build 0)  -->
<svg version="1.1" id="Calque_1" xmlns="http://www.w3.org/2000/svg" xmlns:xlink="http://www.w3.org/1999/xlink" x="0px" y="0px"
	 viewBox="0 0 1190.6 841.9" style="enable-background:new 0 0 1190.6 841.9;" xml:space="preserve">
<style type="text/css">
	.st0{fill:#DADADA;}
	.st1{opacity:0.67;}
	.st2{fill:none;}
	.st3{font-family:'ArialMT';}
	.st4{font-size:10px;}
</style>
<g id="Calque_2_1_">
	<rect x="915.3" y="230.1" class="st0" width="205.6" height="253.7"/>
	<g>
		<path d="M962.8,497.5l1.2-0.1c0,0.5,0.2,0.9,0.4,1.1s0.5,0.5,0.9,0.7s0.9,0.3,1.4,0.3s0.9-0.1,1.2-0.2s0.6-0.3,0.8-0.6
			s0.3-0.5,0.3-0.8s-0.1-0.5-0.3-0.8s-0.5-0.4-0.8-0.5s-0.8-0.3-1.7-0.5s-1.5-0.4-1.8-0.6c-0.4-0.2-0.8-0.5-1-0.9s-0.3-0.7-0.3-1.2
			s0.1-0.9,0.4-1.3s0.7-0.7,1.2-0.9s1.1-0.3,1.7-0.3c0.7,0,1.3,0.1,1.8,0.3s0.9,0.5,1.2,1c0.3,0.4,0.4,0.9,0.5,1.5l-1.2,0.1
			c-0.1-0.6-0.3-1-0.6-1.3c-0.4-0.3-0.9-0.5-1.6-0.5c-0.8,0-1.3,0.1-1.6,0.4s-0.5,0.6-0.5,1c0,0.3,0.1,0.6,0.4,0.8s0.9,0.4,1.9,0.7
			s1.7,0.4,2.1,0.6c0.5,0.3,0.9,0.6,1.2,1s0.4,0.8,0.4,1.3s-0.1,1-0.4,1.4c-0.3,0.4-0.7,0.8-1.2,1s-1.1,0.4-1.8,0.4
			c-0.8,0-1.5-0.1-2.1-0.4s-1-0.6-1.3-1.1C963,498.7,962.8,498.1,962.8,497.5z"/>
		<path d="M971.8,492.5v-1.3h1.1v1.3H971.8z M971.8,500.5v-6.7h1.1v6.7H971.8z"/>
		<path d="M974.4,501l1.1,0.2c0,0.3,0.2,0.6,0.4,0.8c0.3,0.2,0.7,0.3,1.2,0.3s0.9-0.1,1.2-0.3s0.5-0.5,0.6-0.9
			c0.1-0.2,0.1-0.7,0.1-1.5c-0.5,0.6-1.1,0.9-1.9,0.9c-0.9,0-1.6-0.3-2.2-1s-0.8-1.5-0.8-2.4c0-0.6,0.1-1.2,0.3-1.8s0.6-1,1-1.3
			s1-0.4,1.6-0.4c0.8,0,1.5,0.3,2,1v-0.8h1v5.8c0,1-0.1,1.8-0.3,2.2s-0.5,0.8-1,1c-0.5,0.3-1,0.4-1.7,0.4c-0.8,0-1.5-0.2-2-0.5
			C974.7,502.3,974.4,501.8,974.4,501z M975.4,497c0,0.9,0.2,1.5,0.5,1.9s0.8,0.6,1.3,0.6s1-0.2,1.3-0.6s0.5-1,0.5-1.9
			c0-0.8-0.2-1.5-0.5-1.9s-0.8-0.6-1.3-0.6s-0.9,0.2-1.3,0.6C975.5,495.5,975.4,496.2,975.4,497z"/>
		<path d="M981.9,500.5v-6.7h1v1c0.5-0.7,1.2-1.1,2.2-1.1c0.4,0,0.8,0.1,1.1,0.2s0.6,0.3,0.8,0.6c0.2,0.2,0.3,0.5,0.4,0.8
			c0,0.2,0.1,0.6,0.1,1.1v4.1h-1.1v-4.1c0-0.5,0-0.8-0.1-1s-0.3-0.4-0.5-0.5s-0.5-0.2-0.8-0.2c-0.5,0-0.9,0.1-1.3,0.5
			c-0.3,0.3-0.5,0.9-0.5,1.8v3.7h-1.3V500.5z"/>
		<path d="M993.5,499.6c-0.4,0.4-0.8,0.6-1.2,0.8c-0.4,0.1-0.8,0.2-1.3,0.2c-0.7,0-1.3-0.2-1.7-0.5c-0.4-0.4-0.6-0.8-0.6-1.4
			c0-0.3,0.1-0.6,0.2-0.9c0.2-0.3,0.3-0.5,0.6-0.7s0.5-0.3,0.8-0.4c0.2-0.1,0.6-0.1,1-0.2c0.9-0.1,1.6-0.2,2-0.4c0-0.2,0-0.3,0-0.3
			c0-0.5-0.1-0.8-0.3-1c-0.3-0.3-0.7-0.4-1.3-0.4c-0.5,0-0.9,0.1-1.2,0.3s-0.5,0.5-0.6,1l-1.1-0.1c0.1-0.5,0.3-0.9,0.5-1.2
			s0.6-0.5,1-0.7s1-0.2,1.5-0.2s1,0.1,1.4,0.2s0.6,0.3,0.8,0.5s0.3,0.5,0.4,0.8c0,0.2,0.1,0.5,0.1,1v1.5c0,1.1,0,1.7,0.1,2
			s0.2,0.5,0.3,0.8h-1.2C993.6,500.2,993.5,500,993.5,499.6z M993.4,497.1c-0.4,0.2-1,0.3-1.9,0.4c-0.5,0.1-0.8,0.1-1,0.2
			s-0.3,0.2-0.5,0.4s-0.2,0.3-0.2,0.5c0,0.3,0.1,0.6,0.3,0.8s0.6,0.3,1,0.3s0.8-0.1,1.2-0.3c0.3-0.2,0.6-0.5,0.8-0.8
			c0.1-0.3,0.2-0.6,0.2-1.1L993.4,497.1L993.4,497.1z"/>
		<path d="M998.8,499.5l0.2,1c-0.3,0.1-0.6,0.1-0.9,0.1c-0.4,0-0.7-0.1-1-0.2c-0.2-0.1-0.4-0.3-0.5-0.5s-0.1-0.7-0.1-1.4v-3.9h-0.8
			v-0.9h0.8V492l1.1-0.7v2.4h1.2v0.9h-1.2v3.9c0,0.3,0,0.5,0.1,0.6s0.1,0.2,0.2,0.2c0.1,0.1,0.2,0.1,0.4,0.1
			C998.4,499.5,998.6,499.5,998.8,499.5z"/>
		<path d="M1004.3,500.5v-1c-0.5,0.8-1.2,1.1-2.1,1.1c-0.4,0-0.8-0.1-1.1-0.2s-0.6-0.3-0.8-0.6s-0.3-0.5-0.3-0.9
			c0-0.2-0.1-0.6-0.1-1.1v-4.2h1.1v3.7c0,0.6,0,1,0.1,1.2c0.1,0.3,0.2,0.5,0.5,0.7c0.2,0.2,0.5,0.3,0.9,0.3s0.7-0.1,1-0.3
			s0.5-0.4,0.6-0.7s0.2-0.7,0.2-1.3v-3.6h1.1v6.7L1004.3,500.5L1004.3,500.5z"/>
		<path d="M1007.2,500.5v-6.7h1v1c0.3-0.5,0.5-0.8,0.7-1c0.2-0.1,0.5-0.2,0.7-0.2c0.4,0,0.8,0.1,1.2,0.4l-0.4,1.1
			c-0.3-0.2-0.6-0.3-0.8-0.3c-0.3,0-0.5,0.1-0.7,0.2s-0.3,0.4-0.4,0.6c-0.1,0.4-0.2,0.9-0.2,1.3v3.5L1007.2,500.5L1007.2,500.5z"/>
		<path d="M1016.1,498.3l1.2,0.1c-0.2,0.7-0.5,1.2-1,1.6s-1.2,0.6-1.9,0.6c-1,0-1.8-0.3-2.3-0.9c-0.6-0.6-0.9-1.5-0.9-2.5
			c0-1.1,0.3-2,0.9-2.6s1.3-0.9,2.3-0.9c0.9,0,1.6,0.3,2.2,0.9c0.6,0.6,0.9,1.5,0.9,2.6c0,0.1,0,0.2,0,0.3h-5c0,0.7,0.3,1.3,0.6,1.7
			s0.8,0.6,1.4,0.6c0.4,0,0.8-0.1,1.1-0.3C1015.7,499.1,1015.9,498.8,1016.1,498.3z M1012.4,496.5h3.8c0-0.6-0.2-1-0.4-1.3
			c-0.4-0.4-0.8-0.7-1.4-0.7c-0.5,0-1,0.2-1.3,0.5C1012.6,495.4,1012.4,495.9,1012.4,496.5z"/>
		<path d="M1026.9,498.3l1.2,0.1c-0.2,0.7-0.5,1.2-1,1.6s-1.2,0.6-1.9,0.6c-1,0-1.8-0.3-2.3-0.9c-0.6-0.6-0.9-1.5-0.9-2.5
			c0-1.1,0.3-2,0.9-2.6s1.3-0.9,2.3-0.9c0.9,0,1.6,0.3,2.2,0.9s0.9,1.5,0.9,2.6c0,0.1,0,0.2,0,0.3h-5c0,0.7,0.3,1.3,0.6,1.7
			c0.3,0.4,0.8,0.6,1.4,0.6c0.4,0,0.8-0.1,1.1-0.3C1026.5,499.1,1026.8,498.8,1026.9,498.3z M1023.2,496.5h3.8
			c-0.1-0.6-0.2-1-0.4-1.3c-0.4-0.4-0.8-0.7-1.4-0.7c-0.5,0-1,0.2-1.3,0.5C1023.4,495.4,1023.2,495.9,1023.2,496.5z"/>
		<path d="M1032.1,499.5l0.2,1c-0.3,0.1-0.6,0.1-0.9,0.1c-0.4,0-0.7-0.1-1-0.2c-0.2-0.1-0.4-0.3-0.5-0.5s-0.1-0.7-0.1-1.4v-3.9h-0.8
			v-0.9h0.8V492l1.1-0.7v2.4h1.2v0.9h-1.2v3.9c0,0.3,0,0.5,0.1,0.6s0.1,0.2,0.2,0.2c0.1,0.1,0.2,0.1,0.4,0.1
			C1031.7,499.5,1031.8,499.5,1032.1,499.5z"/>
		<path d="M1041.2,498l1.1,0.1c-0.1,0.8-0.4,1.4-0.9,1.8s-1.1,0.7-1.9,0.7c-0.9,0-1.7-0.3-2.2-0.9c-0.6-0.6-0.8-1.5-0.8-2.6
			c0-0.7,0.1-1.4,0.4-1.9c0.2-0.5,0.6-1,1.1-1.2c0.5-0.3,1-0.4,1.6-0.4c0.7,0,1.3,0.2,1.8,0.6s0.8,0.9,0.9,1.6l-1.1,0.2
			c-0.1-0.5-0.3-0.8-0.6-1s-0.6-0.3-1-0.3c-0.6,0-1,0.2-1.4,0.6s-0.5,1.1-0.5,2s0.2,1.6,0.5,2s0.8,0.6,1.4,0.6
			c0.4,0,0.8-0.1,1.1-0.4C1040.9,499,1041.1,498.6,1041.2,498z"/>
		<path d="M1047.7,499.6c-0.4,0.4-0.8,0.6-1.2,0.8c-0.4,0.1-0.8,0.2-1.3,0.2c-0.7,0-1.3-0.2-1.7-0.5c-0.4-0.4-0.6-0.8-0.6-1.4
			c0-0.3,0.1-0.6,0.2-0.9s0.3-0.5,0.6-0.7s0.5-0.3,0.8-0.4c0.2-0.1,0.6-0.1,1-0.2c0.9-0.1,1.6-0.2,2-0.4c0-0.2,0-0.3,0-0.3
			c0-0.5-0.1-0.8-0.3-1c-0.3-0.3-0.7-0.4-1.3-0.4c-0.5,0-0.9,0.1-1.2,0.3s-0.4,0.5-0.6,1l-1.1-0.1c0.1-0.5,0.3-0.9,0.5-1.2
			s0.6-0.5,1-0.7s0.9-0.2,1.5-0.2s1,0.1,1.4,0.2s0.6,0.3,0.8,0.5s0.3,0.5,0.4,0.8c0,0.2,0.1,0.5,0.1,1v1.5c0,1.1,0,1.7,0.1,2
			s0.2,0.5,0.3,0.8h-1.2C1047.8,500.2,1047.7,500,1047.7,499.6z M1047.6,497.1c-0.4,0.2-1,0.3-1.9,0.4c-0.5,0.1-0.8,0.1-1,0.2
			s-0.3,0.2-0.4,0.4s-0.2,0.3-0.2,0.5c0,0.3,0.1,0.6,0.3,0.8s0.6,0.3,1,0.3s0.8-0.1,1.2-0.3c0.3-0.2,0.6-0.5,0.8-0.8
			c0.1-0.3,0.2-0.6,0.2-1.1V497.1L1047.6,497.1z"/>
		<path d="M1054.9,498l1.1,0.1c-0.1,0.8-0.4,1.4-0.9,1.8s-1.1,0.7-1.9,0.7c-0.9,0-1.7-0.3-2.2-0.9c-0.6-0.6-0.8-1.5-0.8-2.6
			c0-0.7,0.1-1.4,0.4-1.9c0.2-0.5,0.6-1,1.1-1.2c0.5-0.3,1-0.4,1.6-0.4c0.7,0,1.3,0.2,1.8,0.6s0.8,0.9,0.9,1.6l-1.1,0.2
			c-0.1-0.5-0.3-0.8-0.6-1s-0.6-0.3-1-0.3c-0.6,0-1,0.2-1.4,0.6s-0.5,1.1-0.5,2s0.2,1.6,0.5,2s0.8,0.6,1.4,0.6
			c0.4,0,0.8-0.1,1.1-0.4C1054.7,499,1054.8,498.6,1054.9,498z"/>
		<path d="M1057,500.5v-9.3h1.1v3.3c0.5-0.6,1.2-0.9,2-0.9c0.5,0,0.9,0.1,1.3,0.3c0.4,0.2,0.6,0.5,0.8,0.8s0.2,0.9,0.2,1.5v4.3h-1.1
			v-4.3c0-0.6-0.1-1-0.4-1.3s-0.6-0.4-1.1-0.4c-0.3,0-0.7,0.1-1,0.3c-0.3,0.2-0.5,0.4-0.6,0.7s-0.2,0.7-0.2,1.2v3.7L1057,500.5
			L1057,500.5z"/>
		<path d="M1068.9,498.3l1.2,0.1c-0.2,0.7-0.5,1.2-1,1.6s-1.2,0.6-1.9,0.6c-1,0-1.8-0.3-2.3-0.9c-0.6-0.6-0.9-1.5-0.9-2.5
			c0-1.1,0.3-2,0.9-2.6s1.3-0.9,2.3-0.9c0.9,0,1.6,0.3,2.2,0.9s0.9,1.5,0.9,2.6c0,0.1,0,0.2,0,0.3h-5c0,0.7,0.3,1.3,0.6,1.7
			s0.8,0.6,1.4,0.6c0.4,0,0.8-0.1,1.1-0.3C1068.5,499.1,1068.7,498.8,1068.9,498.3z M1065.1,496.5h3.8c-0.1-0.6-0.2-1-0.4-1.3
			c-0.4-0.4-0.8-0.7-1.4-0.7c-0.5,0-1,0.2-1.3,0.5S1065.2,495.9,1065.1,496.5z"/>
		<path d="M1074,499.5l0.2,1c-0.3,0.1-0.6,0.1-0.9,0.1c-0.4,0-0.7-0.1-1-0.2c-0.2-0.1-0.4-0.3-0.5-0.5s-0.1-0.7-0.1-1.4v-3.9h-0.8
			v-0.9h0.8V492l1.1-0.7v2.4h1.2v0.9h-1.2v3.9c0,0.3,0,0.5,0.1,0.6s0.1,0.2,0.2,0.2c0.1,0.1,0.2,0.1,0.4,0.1
			C1073.6,499.5,1073.8,499.5,1074,499.5z"/>
		<path d="M913.6,516.1v-0.8c-0.4,0.7-1.1,1-1.9,1c-0.5,0-1-0.2-1.5-0.4c-0.5-0.3-0.8-0.7-1-1.2c-0.3-0.5-0.4-1.1-0.4-1.8
			s0.1-1.3,0.3-1.8s0.6-1,1-1.3s1-0.4,1.5-0.4c0.4,0,0.8,0.1,1.1,0.3c0.3,0.2,0.6,0.4,0.8,0.7v-3.3h1.1v9.3L913.6,516.1L913.6,516.1
			z M910,512.7c0,0.9,0.2,1.5,0.5,1.9s0.8,0.6,1.3,0.6s0.9-0.2,1.3-0.6c0.3-0.4,0.5-1,0.5-1.9c0-0.9-0.2-1.6-0.5-2s-0.8-0.6-1.3-0.6
			s-0.9,0.2-1.3,0.6C910.2,511.2,910,511.8,910,512.7z"/>
		<path d="M921.1,513.9l1.2,0.2c-0.2,0.7-0.5,1.2-1,1.6c-0.5,0.4-1.2,0.6-1.9,0.6c-1,0-1.8-0.3-2.3-0.9c-0.6-0.6-0.9-1.5-0.9-2.5
			c0-1.1,0.3-2,0.9-2.6s1.3-0.9,2.3-0.9c0.9,0,1.6,0.3,2.2,0.9c0.6,0.6,0.9,1.5,0.9,2.6c0,0.1,0,0.2,0,0.3h-5c0,0.7,0.3,1.3,0.6,1.7
			s0.8,0.6,1.4,0.6c0.4,0,0.8-0.1,1.1-0.3C920.7,514.7,920.9,514.4,921.1,513.9z M917.3,512h3.8c0-0.6-0.2-1-0.4-1.3
			c-0.4-0.4-0.8-0.7-1.4-0.7c-0.5,0-1,0.2-1.3,0.5S917.4,511.5,917.3,512z"/>
		<path d="M927.3,516.1v-9.3h1.1v9.3H927.3z"/>
		<path d="M930.1,508v-1.3h1.2v1c0,0.6-0.1,1-0.2,1.2c-0.2,0.3-0.5,0.6-0.8,0.8l-0.3-0.5c0.2-0.1,0.4-0.2,0.5-0.4s0.2-0.5,0.2-0.8
			L930.1,508L930.1,508z"/>
		<path d="M932.2,516.1l3.6-9.3h1.3l3.8,9.3h-1.4l-1.1-2.8h-3.9l-1,2.8H932.2z M934.9,512.3h3.2l-1-2.6c-0.3-0.8-0.5-1.4-0.7-1.9
			c-0.1,0.6-0.3,1.2-0.5,1.8L934.9,512.3z"/>
		<path d="M946.2,516.1v-1c-0.5,0.8-1.2,1.1-2.1,1.1c-0.4,0-0.8-0.1-1.1-0.2s-0.6-0.3-0.8-0.6s-0.3-0.5-0.3-0.8
			c0-0.2-0.1-0.6-0.1-1.1v-4.2h1.1v3.7c0,0.6,0,1,0.1,1.2c0.1,0.3,0.2,0.5,0.5,0.7c0.2,0.2,0.5,0.3,0.9,0.3s0.7-0.1,1-0.3
			s0.5-0.4,0.6-0.7s0.2-0.7,0.2-1.3v-3.6h1.1v6.7L946.2,516.1L946.2,516.1z"/>
		<path d="M951.5,515l0.2,1c-0.3,0.1-0.6,0.1-0.9,0.1c-0.4,0-0.7-0.1-1-0.2c-0.2-0.1-0.4-0.3-0.5-0.5s-0.1-0.7-0.1-1.3v-3.9h-0.8
			v-0.9h0.8v-1.7l1.1-0.7v2.4h1.2v0.9h-1.2v3.9c0,0.3,0,0.5,0.1,0.6s0.1,0.2,0.2,0.2c0.1,0.1,0.2,0.1,0.4,0.1
			C951.1,515.1,951.3,515.1,951.5,515z"/>
		<path d="M952.2,512.7c0-1.3,0.3-2.2,1-2.8c0.6-0.5,1.3-0.8,2.1-0.8c0.9,0,1.7,0.3,2.3,0.9s0.9,1.5,0.9,2.5c0,0.9-0.1,1.5-0.4,2
			s-0.6,0.9-1.1,1.2s-1,0.4-1.6,0.4c-0.9,0-1.7-0.3-2.3-0.9C952.5,514.7,952.2,513.8,952.2,512.7z M953.4,512.7
			c0,0.9,0.2,1.5,0.6,1.9s0.8,0.6,1.4,0.6s1-0.2,1.4-0.7c0.4-0.4,0.6-1.1,0.6-2c0-0.8-0.2-1.5-0.6-1.9s-0.8-0.6-1.4-0.6
			c-0.6,0-1,0.2-1.4,0.6S953.4,511.8,953.4,512.7z"/>
		<path d="M959.8,516.1v-6.7h1v1c0.3-0.5,0.5-0.8,0.7-1c0.2-0.1,0.5-0.2,0.7-0.2c0.4,0,0.8,0.1,1.2,0.4l-0.4,1.1
			c-0.3-0.2-0.6-0.3-0.8-0.3c-0.3,0-0.5,0.1-0.7,0.2s-0.3,0.4-0.4,0.6c-0.1,0.4-0.2,0.9-0.2,1.3v3.5L959.8,516.1L959.8,516.1z"/>
		<path d="M964.2,508.1v-1.3h1.1v1.3H964.2z M964.2,516.1v-6.7h1.1v6.7H964.2z"/>
		<path d="M969.5,515l0.2,1c-0.3,0.1-0.6,0.1-0.9,0.1c-0.4,0-0.7-0.1-1-0.2c-0.2-0.1-0.4-0.3-0.5-0.5s-0.1-0.7-0.1-1.3v-3.9h-0.8
			v-0.9h0.8v-1.7l1.1-0.7v2.4h1.2v0.9h-1.2v3.9c0,0.3,0,0.5,0.1,0.6s0.1,0.2,0.2,0.2c0.1,0.1,0.2,0.1,0.4,0.1
			C969.2,515.1,969.3,515.1,969.5,515z"/>
		<path d="M975.3,513.9l1.2,0.2c-0.2,0.7-0.5,1.2-1,1.6c-0.5,0.4-1.2,0.6-1.9,0.6c-1,0-1.8-0.3-2.3-0.9c-0.6-0.6-0.9-1.5-0.9-2.5
			c0-1.1,0.3-2,0.9-2.6s1.3-0.9,2.3-0.9c0.9,0,1.6,0.3,2.2,0.9c0.6,0.6,0.9,1.5,0.9,2.6c0,0.1,0,0.2,0,0.3h-5c0,0.7,0.3,1.3,0.6,1.7
			s0.8,0.6,1.4,0.6c0.4,0,0.8-0.1,1.1-0.3C974.9,514.7,975.1,514.4,975.3,513.9z M971.5,512h3.8c0-0.6-0.2-1-0.4-1.3
			c-0.4-0.4-0.8-0.7-1.4-0.7c-0.5,0-1,0.2-1.3,0.5S971.6,511.5,971.5,512z M972.8,508.5l0.8-1.8h1.5l-1.4,1.8H972.8z"/>
		<path d="M981.7,516.1v-9.3h3.5c0.6,0,1.1,0,1.4,0.1c0.5,0.1,0.8,0.2,1.2,0.4s0.6,0.5,0.8,0.9s0.3,0.8,0.3,1.3c0,0.8-0.3,1.5-0.8,2
			s-1.4,0.8-2.7,0.8H983v3.8H981.7L981.7,516.1z M982.9,511.2h2.4c0.8,0,1.4-0.1,1.7-0.5c0.3-0.3,0.5-0.7,0.5-1.3
			c0-0.4-0.1-0.7-0.3-1s-0.5-0.5-0.8-0.5c-0.2,0-0.6-0.1-1.2-0.1h-2.4L982.9,511.2L982.9,511.2z"/>
		<path d="M989.3,516.2l2.7-9.6h0.9l-2.7,9.6H989.3z"/>
		<path d="M993.9,516.1v-9.3h1.2v8.2h4.6v1.1H993.9z"/>
		<path d="M1005.6,513.9l1.2,0.2c-0.2,0.7-0.5,1.2-1,1.6c-0.5,0.4-1.2,0.6-1.9,0.6c-1,0-1.8-0.3-2.3-0.9c-0.6-0.6-0.9-1.5-0.9-2.5
			c0-1.1,0.3-2,0.9-2.6s1.3-0.9,2.3-0.9c0.9,0,1.6,0.3,2.2,0.9c0.6,0.6,0.9,1.5,0.9,2.6c0,0.1,0,0.2,0,0.3h-5c0,0.7,0.3,1.3,0.6,1.7
			s0.8,0.6,1.4,0.6c0.4,0,0.8-0.1,1.1-0.3C1005.2,514.7,1005.5,514.4,1005.6,513.9z M1001.9,512h3.8c0-0.6-0.2-1-0.4-1.3
			c-0.4-0.4-0.8-0.7-1.4-0.7c-0.5,0-1,0.2-1.3,0.5C1002.1,511,1001.9,511.5,1001.9,512z"/>
		<path d="M1012,516.1v-9.3h3.2c0.7,0,1.3,0,1.7,0.1c0.5,0.1,1,0.3,1.4,0.7c0.5,0.4,0.9,0.9,1.1,1.6s0.4,1.4,0.4,2.2
			c0,0.7-0.1,1.3-0.3,1.9c-0.2,0.5-0.4,1-0.6,1.3c-0.3,0.4-0.5,0.6-0.8,0.8s-0.7,0.4-1.1,0.5s-0.9,0.2-1.5,0.2L1012,516.1
			L1012,516.1z M1013.2,515h2c0.6,0,1.1-0.1,1.4-0.2c0.3-0.1,0.6-0.3,0.8-0.5c0.3-0.3,0.5-0.7,0.7-1.2s0.2-1.1,0.2-1.8
			c0-1-0.2-1.7-0.5-2.2s-0.7-0.9-1.2-1c-0.3-0.1-0.9-0.2-1.6-0.2h-2L1013.2,515L1013.2,515z"/>
		<path d="M1021.3,508.1v-1.3h1.1v1.3H1021.3z M1021.3,516.1v-6.7h1.1v6.7H1021.3z"/>
		<path d="M1024.1,516.1v-6.7h1v1c0.3-0.5,0.5-0.8,0.7-1c0.2-0.1,0.5-0.2,0.7-0.2c0.4,0,0.8,0.1,1.2,0.4l-0.4,1.1
			c-0.3-0.2-0.6-0.3-0.8-0.3c-0.3,0-0.5,0.1-0.7,0.2s-0.3,0.4-0.4,0.6c-0.1,0.4-0.2,0.9-0.2,1.3v3.5L1024.1,516.1L1024.1,516.1z"/>
		<path d="M1033.1,513.9l1.2,0.2c-0.2,0.7-0.5,1.2-1,1.6c-0.5,0.4-1.2,0.6-1.9,0.6c-1,0-1.8-0.3-2.3-0.9c-0.6-0.6-0.9-1.5-0.9-2.5
			c0-1.1,0.3-2,0.9-2.6s1.3-0.9,2.3-0.9c0.9,0,1.6,0.3,2.2,0.9s0.9,1.5,0.9,2.6c0,0.1,0,0.2,0,0.3h-5c0,0.7,0.3,1.3,0.6,1.7
			s0.8,0.6,1.4,0.6c0.4,0,0.8-0.1,1.1-0.3C1032.7,514.7,1032.9,514.4,1033.1,513.9z M1029.3,512h3.8c-0.1-0.6-0.2-1-0.4-1.3
			c-0.4-0.4-0.8-0.7-1.4-0.7c-0.5,0-1,0.2-1.3,0.5C1029.6,511,1029.4,511.5,1029.3,512z"/>
		<path d="M1040.1,513.6l1.1,0.2c-0.1,0.8-0.4,1.4-0.9,1.8c-0.5,0.4-1.1,0.7-1.9,0.7c-0.9,0-1.7-0.3-2.2-0.9
			c-0.6-0.6-0.8-1.5-0.8-2.6c0-0.7,0.1-1.4,0.4-1.9c0.2-0.5,0.6-1,1.1-1.2c0.5-0.3,1-0.4,1.6-0.4c0.7,0,1.3,0.2,1.8,0.6
			s0.8,0.9,0.9,1.6l-1.1,0.2c-0.1-0.5-0.3-0.8-0.6-1s-0.6-0.3-1-0.3c-0.6,0-1,0.2-1.4,0.6s-0.5,1.1-0.5,2c0,0.9,0.2,1.6,0.5,2
			s0.8,0.6,1.4,0.6c0.4,0,0.8-0.1,1.1-0.4C1039.8,514.6,1040,514.2,1040.1,513.6z"/>
		<path d="M1044.7,515l0.2,1c-0.3,0.1-0.6,0.1-0.9,0.1c-0.4,0-0.7-0.1-1-0.2c-0.2-0.1-0.4-0.3-0.5-0.5s-0.1-0.7-0.1-1.3v-3.9h-0.8
			v-0.9h0.8v-1.7l1.1-0.7v2.4h1.2v0.9h-1.2v3.9c0,0.3,0,0.5,0.1,0.6s0.1,0.2,0.2,0.2c0.1,0.1,0.2,0.1,0.4,0.1
			C1044.3,515.1,1044.5,515.1,1044.7,515z"/>
		<path d="M1050.4,513.9l1.2,0.2c-0.2,0.7-0.5,1.2-1,1.6c-0.5,0.4-1.2,0.6-1.9,0.6c-1,0-1.8-0.3-2.3-0.9c-0.6-0.6-0.9-1.5-0.9-2.5
			c0-1.1,0.3-2,0.9-2.6s1.3-0.9,2.3-0.9c0.9,0,1.6,0.3,2.2,0.9s0.9,1.5,0.9,2.6c0,0.1,0,0.2,0,0.3h-5c0,0.7,0.3,1.3,0.6,1.7
			s0.8,0.6,1.4,0.6c0.4,0,0.8-0.1,1.1-0.3C1050,514.7,1050.3,514.4,1050.4,513.9z M1046.7,512h3.8c-0.1-0.6-0.2-1-0.4-1.3
			c-0.4-0.4-0.8-0.7-1.4-0.7c-0.5,0-1,0.2-1.3,0.5C1046.9,511,1046.7,511.5,1046.7,512z"/>
		<path d="M1057.5,516.1v-1c-0.5,0.8-1.2,1.1-2.1,1.1c-0.4,0-0.8-0.1-1.1-0.2s-0.6-0.3-0.8-0.6s-0.3-0.5-0.3-0.8
			c-0.1-0.2-0.1-0.6-0.1-1.1v-4.2h1.1v3.7c0,0.6,0,1,0.1,1.2c0.1,0.3,0.2,0.5,0.5,0.7c0.2,0.2,0.5,0.3,0.9,0.3s0.7-0.1,1-0.3
			s0.5-0.4,0.6-0.7s0.2-0.7,0.2-1.3v-3.6h1.1v6.7L1057.5,516.1L1057.5,516.1z"/>
		<path d="M1060.3,516.1v-6.7h1v1c0.3-0.5,0.5-0.8,0.7-1c0.2-0.1,0.5-0.2,0.7-0.2c0.4,0,0.8,0.1,1.2,0.4l-0.4,1.1
			c-0.3-0.2-0.6-0.3-0.8-0.3c-0.3,0-0.5,0.1-0.7,0.2s-0.3,0.4-0.4,0.6c-0.1,0.4-0.2,0.9-0.2,1.3v3.5L1060.3,516.1L1060.3,516.1z"/>
		<path d="M1072.7,512.4v-1.1h3.9v3.4c-0.6,0.5-1.2,0.8-1.9,1.1s-1.3,0.4-2,0.4c-0.9,0-1.7-0.2-2.5-0.6s-1.3-1-1.7-1.7
			c-0.4-0.7-0.6-1.6-0.6-2.5s0.2-1.8,0.6-2.5s0.9-1.4,1.6-1.8s1.5-0.6,2.5-0.6c0.7,0,1.3,0.1,1.8,0.3s1,0.5,1.3,0.9s0.5,0.9,0.7,1.5
			l-1.1,0.3c-0.1-0.5-0.3-0.9-0.5-1.1s-0.5-0.5-0.9-0.6s-0.8-0.2-1.3-0.2c-0.6,0-1.1,0.1-1.5,0.3c-0.4,0.2-0.7,0.4-1,0.7
			s-0.4,0.6-0.6,0.9c-0.2,0.6-0.4,1.2-0.4,1.9c0,0.8,0.1,1.5,0.4,2.1s0.7,1,1.3,1.2s1.1,0.4,1.7,0.4c0.5,0,1.1-0.1,1.6-0.3
			s0.9-0.4,1.2-0.7v-1.7L1072.7,512.4L1072.7,512.4z"/>
		<path d="M1082.9,513.9l1.2,0.2c-0.2,0.7-0.5,1.2-1,1.6c-0.5,0.4-1.2,0.6-1.9,0.6c-1,0-1.8-0.3-2.3-0.9c-0.6-0.6-0.9-1.5-0.9-2.5
			c0-1.1,0.3-2,0.9-2.6s1.3-0.9,2.3-0.9c0.9,0,1.6,0.3,2.2,0.9s0.9,1.5,0.9,2.6c0,0.1,0,0.2,0,0.3h-5c0,0.7,0.3,1.3,0.6,1.7
			s0.8,0.6,1.4,0.6c0.4,0,0.8-0.1,1.1-0.3C1082.5,514.7,1082.8,514.4,1082.9,513.9z M1079.2,512h3.8c-0.1-0.6-0.2-1-0.4-1.3
			c-0.4-0.4-0.8-0.7-1.4-0.7c-0.5,0-1,0.2-1.3,0.5C1079.4,511,1079.2,511.5,1079.2,512z M1080.4,508.5l0.8-1.8h1.5l-1.4,1.8H1080.4z
			"/>
		<path d="M1085.6,516.1v-6.7h1v1c0.5-0.7,1.2-1.1,2.2-1.1c0.4,0,0.8,0.1,1.1,0.2s0.6,0.3,0.8,0.6c0.2,0.2,0.3,0.5,0.4,0.8
			c0,0.2,0.1,0.6,0.1,1.1v4.1h-1.1V512c0-0.5,0-0.8-0.1-1s-0.3-0.4-0.5-0.5s-0.5-0.2-0.8-0.2c-0.5,0-0.9,0.1-1.3,0.5
			s-0.5,0.9-0.5,1.8v3.7h-1.3V516.1z"/>
		<path d="M1097.4,513.9l1.2,0.2c-0.2,0.7-0.5,1.2-1,1.6c-0.5,0.4-1.2,0.6-1.9,0.6c-1,0-1.8-0.3-2.3-0.9c-0.6-0.6-0.9-1.5-0.9-2.5
			c0-1.1,0.3-2,0.9-2.6s1.3-0.9,2.3-0.9c0.9,0,1.6,0.3,2.2,0.9s0.9,1.5,0.9,2.6c0,0.1,0,0.2,0,0.3h-5c0,0.7,0.3,1.3,0.6,1.7
			s0.8,0.6,1.4,0.6c0.4,0,0.8-0.1,1.1-0.3C1097,514.7,1097.2,514.4,1097.4,513.9z M1093.7,512h3.8c-0.1-0.6-0.2-1-0.4-1.3
			c-0.4-0.4-0.8-0.7-1.4-0.7c-0.5,0-1,0.2-1.3,0.5S1093.7,511.5,1093.7,512z M1094.9,508.5l0.8-1.8h1.5l-1.4,1.8H1094.9z"/>
		<path d="M1100,516.1v-6.7h1v1c0.3-0.5,0.5-0.8,0.7-1c0.2-0.1,0.5-0.2,0.7-0.2c0.4,0,0.8,0.1,1.2,0.4l-0.4,1.1
			c-0.3-0.2-0.6-0.3-0.8-0.3c-0.3,0-0.5,0.1-0.7,0.2s-0.3,0.4-0.4,0.6c-0.1,0.4-0.2,0.9-0.2,1.3v3.5L1100,516.1L1100,516.1z"/>
		<path d="M1108.8,515.2c-0.4,0.4-0.8,0.6-1.2,0.8s-0.8,0.2-1.3,0.2c-0.7,0-1.3-0.2-1.7-0.5c-0.4-0.4-0.6-0.8-0.6-1.4
			c0-0.3,0.1-0.6,0.2-0.9s0.3-0.5,0.6-0.7s0.5-0.3,0.8-0.4c0.2-0.1,0.6-0.1,1-0.2c0.9-0.1,1.6-0.2,2-0.4c0-0.2,0-0.3,0-0.3
			c0-0.5-0.1-0.8-0.3-1c-0.3-0.3-0.7-0.4-1.3-0.4c-0.5,0-0.9,0.1-1.2,0.3s-0.4,0.5-0.6,1l-1.1-0.1c0.1-0.5,0.3-0.9,0.5-1.2
			s0.6-0.5,1-0.7s0.9-0.2,1.5-0.2s1,0.1,1.4,0.2s0.6,0.3,0.8,0.5s0.3,0.5,0.4,0.8c0,0.2,0.1,0.5,0.1,1v1.5c0,1.1,0,1.7,0.1,2
			s0.2,0.5,0.3,0.8h-1.2C1108.9,515.8,1108.8,515.6,1108.8,515.2z M1108.7,512.7c-0.4,0.2-1,0.3-1.9,0.4c-0.5,0.1-0.8,0.1-1,0.2
			c-0.2,0.1-0.3,0.2-0.4,0.4s-0.2,0.3-0.2,0.5c0,0.3,0.1,0.6,0.3,0.8s0.6,0.3,1,0.3s0.8-0.1,1.2-0.3c0.3-0.2,0.6-0.5,0.8-0.8
			c0.1-0.3,0.2-0.6,0.2-1.1V512.7L1108.7,512.7z"/>
		<path d="M1111.6,516.1v-9.3h1.1v9.3H1111.6z"/>
		<path d="M1122.7,513.9l1.2,0.2c-0.2,0.7-0.5,1.2-1,1.6c-0.5,0.4-1.2,0.6-1.9,0.6c-1,0-1.8-0.3-2.3-0.9c-0.6-0.6-0.9-1.5-0.9-2.5
			c0-1.1,0.3-2,0.9-2.6s1.3-0.9,2.3-0.9c0.9,0,1.6,0.3,2.2,0.9s0.9,1.5,0.9,2.6c0,0.1,0,0.2,0,0.3h-5c0,0.7,0.3,1.3,0.6,1.7
			s0.8,0.6,1.4,0.6c0.4,0,0.8-0.1,1.1-0.3C1122.3,514.7,1122.5,514.4,1122.7,513.9z M1118.9,512h3.8c-0.1-0.6-0.2-1-0.4-1.3
			c-0.4-0.4-0.8-0.7-1.4-0.7c-0.5,0-1,0.2-1.3,0.5C1119.2,511,1119,511.5,1118.9,512z"/>
		<path d="M1127.8,515l0.2,1c-0.3,0.1-0.6,0.1-0.9,0.1c-0.4,0-0.7-0.1-1-0.2c-0.2-0.1-0.4-0.3-0.5-0.5s-0.1-0.7-0.1-1.3v-3.9h-0.8
			v-0.9h0.8v-1.7l1.1-0.7v2.4h1.2v0.9h-1.2v3.9c0,0.3,0,0.5,0.1,0.6s0.1,0.2,0.2,0.2c0.1,0.1,0.2,0.1,0.4,0.1
			C1127.4,515.1,1127.6,515.1,1127.8,515z"/>
		<path d="M928.5,531.7v-9.3h3.5c0.6,0,1.1,0,1.4,0.1c0.5,0.1,0.8,0.2,1.2,0.4s0.6,0.5,0.8,0.9s0.3,0.8,0.3,1.3c0,0.8-0.3,1.5-0.8,2
			s-1.4,0.8-2.7,0.8h-2.4v3.8H928.5L928.5,531.7z M929.8,526.8h2.4c0.8,0,1.4-0.2,1.7-0.5s0.5-0.7,0.5-1.3c0-0.4-0.1-0.7-0.3-1
			s-0.5-0.5-0.8-0.5c-0.2,0-0.6-0.1-1.2-0.1h-2.4L929.8,526.8L929.8,526.8z"/>
		<path d="M936.6,528.3c0-1.3,0.3-2.2,1-2.8c0.6-0.5,1.3-0.8,2.1-0.8c0.9,0,1.7,0.3,2.3,0.9s0.9,1.5,0.9,2.5c0,0.9-0.1,1.5-0.4,2
			s-0.6,0.9-1.1,1.2s-1,0.4-1.6,0.4c-0.9,0-1.7-0.3-2.3-0.9C936.9,530.3,936.6,529.4,936.6,528.3z M937.8,528.3
			c0,0.9,0.2,1.5,0.6,1.9s0.8,0.6,1.4,0.6s1-0.2,1.4-0.7c0.4-0.4,0.6-1.1,0.6-2c0-0.8-0.2-1.5-0.6-1.9s-0.8-0.6-1.4-0.6
			c-0.6,0-1,0.2-1.4,0.6S937.8,527.4,937.8,528.3z"/>
		<path d="M943.4,531.8l2.7-9.6h0.9l-2.7,9.6H943.4z"/>
		<path d="M951.6,531.7v-9.3h1.2v8.2h4.6v1.1H951.6z"/>
		<path d="M963.3,529.5l1.2,0.2c-0.2,0.7-0.5,1.2-1,1.6c-0.5,0.4-1.2,0.6-1.9,0.6c-1,0-1.8-0.3-2.3-0.9c-0.6-0.6-0.9-1.5-0.9-2.5
			c0-1.1,0.3-2,0.9-2.6s1.3-0.9,2.3-0.9c0.9,0,1.6,0.3,2.2,0.9s0.9,1.5,0.9,2.6c0,0.1,0,0.2,0,0.3h-5c0,0.7,0.3,1.3,0.6,1.7
			s0.8,0.6,1.4,0.6c0.4,0,0.8-0.1,1.1-0.3C962.9,530.3,963.2,530,963.3,529.5z M959.6,527.7h3.8c0-0.6-0.2-1-0.4-1.3
			c-0.4-0.4-0.8-0.7-1.4-0.7c-0.5,0-1,0.2-1.3,0.5C959.8,526.6,959.6,527.1,959.6,527.7z"/>
		<path d="M976.4,528.4l1.2,0.3c-0.3,1-0.7,1.8-1.4,2.3s-1.5,0.8-2.5,0.8s-1.8-0.2-2.5-0.6s-1.1-1-1.4-1.8c-0.3-0.8-0.5-1.6-0.5-2.5
			c0-1,0.2-1.8,0.6-2.5s0.9-1.3,1.6-1.6c0.7-0.4,1.4-0.6,2.3-0.6c0.9,0,1.7,0.2,2.3,0.7s1.1,1.1,1.3,2l-1.2,0.3
			c-0.2-0.7-0.5-1.2-0.9-1.5s-0.9-0.5-1.5-0.5c-0.7,0-1.3,0.2-1.8,0.5s-0.8,0.8-1,1.4s-0.3,1.2-0.3,1.8c0,0.8,0.1,1.5,0.3,2.1
			s0.6,1,1.1,1.3s1,0.4,1.6,0.4c0.7,0,1.3-0.2,1.8-0.6C975.9,529.8,976.2,529.2,976.4,528.4z"/>
		<path d="M979,531.7v-9.3h1.1v3.3c0.5-0.6,1.2-0.9,2-0.9c0.5,0,0.9,0.1,1.3,0.3c0.4,0.2,0.6,0.5,0.8,0.8s0.2,0.8,0.2,1.5v4.3h-1.1
			v-4.3c0-0.6-0.1-1-0.4-1.3s-0.6-0.4-1-0.4c-0.3,0-0.7,0.1-1,0.3s-0.5,0.4-0.6,0.7s-0.2,0.7-0.2,1.2v3.7L979,531.7L979,531.7z"/>
		<path d="M990.8,529.5l1.2,0.2c-0.2,0.7-0.5,1.2-1,1.6c-0.5,0.4-1.2,0.6-1.9,0.6c-1,0-1.8-0.3-2.3-0.9c-0.6-0.6-0.9-1.5-0.9-2.5
			c0-1.1,0.3-2,0.9-2.6s1.3-0.9,2.3-0.9c0.9,0,1.6,0.3,2.2,0.9s0.9,1.5,0.9,2.6c0,0.1,0,0.2,0,0.3h-5c0,0.7,0.3,1.3,0.6,1.7
			s0.8,0.6,1.4,0.6c0.4,0,0.8-0.1,1.1-0.3C990.4,530.3,990.6,530,990.8,529.5z M987.1,527.7h3.8c0-0.6-0.2-1-0.4-1.3
			c-0.4-0.4-0.8-0.7-1.4-0.7c-0.5,0-1,0.2-1.3,0.5C987.3,526.6,987.1,527.1,987.1,527.7z"/>
		<path d="M993.7,531.7v-5.8h-1V525h1v-0.7c0-0.5,0-0.8,0.1-1c0.1-0.3,0.3-0.5,0.6-0.7s0.7-0.3,1.2-0.3c0.3,0,0.7,0,1.1,0.1l-0.2,1
			c-0.2,0-0.5-0.1-0.7-0.1c-0.3,0-0.6,0.1-0.7,0.2c-0.1,0.2-0.2,0.4-0.2,0.8v0.6h1.3v0.9h-1.3v5.8h-1.2V531.7z"/>
		<path d="M1005,531.7v-0.8c-0.4,0.7-1.1,1-1.9,1c-0.5,0-1-0.2-1.5-0.4c-0.5-0.3-0.8-0.7-1-1.2c-0.3-0.5-0.4-1.1-0.4-1.8
			s0.1-1.3,0.3-1.8s0.6-1,1-1.3c0.5-0.3,1-0.4,1.5-0.4c0.4,0,0.8,0.1,1.1,0.3s0.6,0.4,0.8,0.7v-3.3h1.1v9.3L1005,531.7L1005,531.7z
			 M1001.4,528.3c0,0.9,0.2,1.5,0.5,1.9s0.8,0.6,1.3,0.6s0.9-0.2,1.3-0.6c0.3-0.4,0.5-1,0.5-1.9s-0.2-1.6-0.5-2s-0.8-0.7-1.3-0.7
			s-0.9,0.2-1.3,0.6C1001.6,526.8,1001.4,527.4,1001.4,528.3z"/>
		<path d="M1012.3,531.7v-1c-0.5,0.8-1.2,1.1-2.1,1.1c-0.4,0-0.8-0.1-1.1-0.2s-0.6-0.3-0.8-0.6s-0.3-0.5-0.3-0.8
			c0-0.2-0.1-0.6-0.1-1.1v-4.2h1.1v3.7c0,0.6,0,1,0.1,1.2c0.1,0.3,0.2,0.5,0.5,0.7c0.2,0.2,0.5,0.3,0.9,0.3s0.7-0.1,1-0.3
			s0.5-0.4,0.6-0.7s0.2-0.7,0.2-1.3v-3.6h1.1v6.7L1012.3,531.7L1012.3,531.7z"/>
		<path d="M1023.1,531.7v-0.8c-0.4,0.7-1.1,1-1.9,1c-0.5,0-1-0.2-1.5-0.4c-0.5-0.3-0.8-0.7-1-1.2c-0.3-0.5-0.4-1.1-0.4-1.8
			s0.1-1.3,0.3-1.8s0.6-1,1-1.3c0.5-0.3,1-0.4,1.5-0.4c0.4,0,0.8,0.1,1.1,0.3s0.6,0.4,0.8,0.7v-3.3h1.1v9.3L1023.1,531.7
			L1023.1,531.7z M1019.5,528.3c0,0.9,0.2,1.5,0.5,1.9s0.8,0.6,1.3,0.6s0.9-0.2,1.3-0.6c0.3-0.4,0.5-1,0.5-1.9s-0.2-1.6-0.5-2
			s-0.8-0.7-1.3-0.7s-0.9,0.2-1.3,0.6C1019.7,526.8,1019.5,527.4,1019.5,528.3z"/>
		<path d="M1030.6,529.5l1.2,0.2c-0.2,0.7-0.5,1.2-1,1.6c-0.5,0.4-1.2,0.6-1.9,0.6c-1,0-1.8-0.3-2.3-0.9c-0.6-0.6-0.9-1.5-0.9-2.5
			c0-1.1,0.3-2,0.9-2.6s1.3-0.9,2.3-0.9c0.9,0,1.6,0.3,2.2,0.9s0.9,1.5,0.9,2.6c0,0.1,0,0.2,0,0.3h-5c0,0.7,0.3,1.3,0.6,1.7
			s0.8,0.6,1.4,0.6c0.4,0,0.8-0.1,1.1-0.3C1030.2,530.3,1030.4,530,1030.6,529.5z M1026.8,527.7h3.8c-0.1-0.6-0.2-1-0.4-1.3
			c-0.4-0.4-0.8-0.7-1.4-0.7c-0.5,0-1,0.2-1.3,0.5C1027.1,526.6,1026.8,527.1,1026.8,527.7z M1028.1,524.1l0.8-1.8h1.5l-1.4,1.8
			H1028.1z"/>
		<path d="M1033.2,534.3V525h1v0.9c0.3-0.3,0.5-0.6,0.8-0.8s0.7-0.3,1.1-0.3c0.6,0,1.1,0.2,1.5,0.4c0.4,0.3,0.8,0.7,1,1.3
			c0.2,0.5,0.3,1.1,0.3,1.8s-0.1,1.3-0.4,1.9s-0.6,1-1.1,1.3s-1,0.4-1.5,0.4c-0.4,0-0.7-0.1-1-0.2s-0.6-0.4-0.8-0.6v3.3
			L1033.2,534.3L1033.2,534.3z M1034.2,528.3c0,0.9,0.2,1.5,0.5,1.9s0.8,0.6,1.3,0.6s0.9-0.2,1.3-0.6c0.4-0.4,0.5-1.1,0.5-2
			s-0.2-1.5-0.5-1.9s-0.8-0.6-1.3-0.6s-0.9,0.2-1.3,0.7C1034.4,526.8,1034.2,527.5,1034.2,528.3z"/>
		<path d="M1044.8,530.8c-0.4,0.4-0.8,0.6-1.2,0.8s-0.8,0.2-1.3,0.2c-0.7,0-1.3-0.2-1.7-0.5c-0.4-0.4-0.6-0.8-0.6-1.4
			c0-0.3,0.1-0.6,0.2-0.9s0.3-0.5,0.6-0.7s0.5-0.3,0.8-0.4c0.2-0.1,0.6-0.1,1-0.2c0.9-0.1,1.6-0.2,2-0.4c0-0.2,0-0.3,0-0.3
			c0-0.5-0.1-0.8-0.3-1c-0.3-0.3-0.7-0.4-1.3-0.4c-0.5,0-0.9,0.1-1.2,0.3s-0.4,0.5-0.6,1l-1.1-0.2c0.1-0.5,0.3-0.9,0.5-1.2
			s0.6-0.5,1-0.7s0.9-0.2,1.5-0.2s1,0.1,1.4,0.2c0.4,0.1,0.6,0.3,0.8,0.5s0.3,0.5,0.4,0.8c0,0.2,0.1,0.5,0.1,1v1.5
			c0,1.1,0,1.7,0.1,2s0.2,0.5,0.3,0.8h-1.2C1044.9,531.4,1044.8,531.2,1044.8,530.8z M1044.7,528.3c-0.4,0.2-1,0.3-1.9,0.4
			c-0.5,0.1-0.8,0.1-1,0.2c-0.2,0.1-0.3,0.2-0.4,0.4s-0.2,0.3-0.2,0.5c0,0.3,0.1,0.6,0.3,0.8s0.6,0.3,1,0.3s0.8-0.1,1.2-0.3
			c0.3-0.2,0.6-0.5,0.8-0.8c0.1-0.3,0.2-0.6,0.2-1.1V528.3L1044.7,528.3z"/>
		<path d="M1047.6,531.7V525h1v1c0.3-0.5,0.5-0.8,0.7-1s0.5-0.2,0.7-0.2c0.4,0,0.8,0.1,1.2,0.4l-0.4,1.1c-0.3-0.2-0.6-0.3-0.8-0.3
			c-0.3,0-0.5,0.1-0.7,0.2s-0.3,0.4-0.4,0.6c-0.1,0.4-0.2,0.8-0.2,1.3v3.5L1047.6,531.7L1047.6,531.7z"/>
		<path d="M1054.5,530.7l0.2,1c-0.3,0.1-0.6,0.1-0.9,0.1c-0.4,0-0.7-0.1-1-0.2c-0.2-0.1-0.4-0.3-0.5-0.5s-0.1-0.7-0.1-1.3v-3.9h-0.8
			V525h0.8v-1.7l1.1-0.7v2.3h1.2v0.9h-1.2v3.9c0,0.3,0,0.5,0.1,0.6s0.1,0.2,0.2,0.2c0.1,0.1,0.2,0.1,0.4,0.1
			C1054.1,530.7,1054.3,530.7,1054.5,530.7z"/>
		<path d="M1060.2,529.5l1.2,0.2c-0.2,0.7-0.5,1.2-1,1.6c-0.5,0.4-1.2,0.6-1.9,0.6c-1,0-1.8-0.3-2.3-0.9c-0.6-0.6-0.9-1.5-0.9-2.5
			c0-1.1,0.3-2,0.9-2.6s1.3-0.9,2.3-0.9c0.9,0,1.6,0.3,2.2,0.9s0.9,1.5,0.9,2.6c0,0.1,0,0.2,0,0.3h-5c0,0.7,0.3,1.3,0.6,1.7
			s0.8,0.6,1.4,0.6c0.4,0,0.8-0.1,1.1-0.3C1059.8,530.3,1060,530,1060.2,529.5z M1056.4,527.7h3.8c-0.1-0.6-0.2-1-0.4-1.3
			c-0.4-0.4-0.8-0.7-1.4-0.7c-0.5,0-1,0.2-1.3,0.5C1056.7,526.6,1056.5,527.1,1056.4,527.7z"/>
		<path d="M1062.8,531.7V525h1v1c0.2-0.3,0.5-0.6,0.8-0.8s0.8-0.3,1.2-0.3c0.5,0,0.9,0.1,1.2,0.3s0.5,0.5,0.7,0.9
			c0.5-0.8,1.2-1.2,2.1-1.2c0.7,0,1.2,0.2,1.5,0.6s0.5,0.9,0.5,1.7v4.6h-1.1v-4.3c0-0.5,0-0.8-0.1-1s-0.2-0.4-0.4-0.5
			c-0.2-0.1-0.4-0.2-0.7-0.2c-0.5,0-0.9,0.2-1.2,0.5s-0.5,0.8-0.5,1.5v3.9h-1.1v-4.4c0-0.5-0.1-0.9-0.3-1.1s-0.5-0.4-0.9-0.4
			c-0.3,0-0.6,0.1-0.9,0.3s-0.5,0.4-0.6,0.7s-0.2,0.8-0.2,1.4v3.5H1062.8z"/>
		<path d="M1078.3,529.5l1.2,0.2c-0.2,0.7-0.5,1.2-1,1.6c-0.5,0.4-1.2,0.6-1.9,0.6c-1,0-1.8-0.3-2.3-0.9c-0.6-0.6-0.9-1.5-0.9-2.5
			c0-1.1,0.3-2,0.9-2.6s1.3-0.9,2.3-0.9c0.9,0,1.6,0.3,2.2,0.9s0.9,1.5,0.9,2.6c0,0.1,0,0.2,0,0.3h-5c0,0.7,0.3,1.3,0.6,1.7
			s0.8,0.6,1.4,0.6c0.4,0,0.8-0.1,1.1-0.3C1077.8,530.3,1078.1,530,1078.3,529.5z M1074.5,527.7h3.8c-0.1-0.6-0.2-1-0.4-1.3
			c-0.4-0.4-0.8-0.7-1.4-0.7c-0.5,0-1,0.2-1.3,0.5C1074.7,526.6,1074.5,527.1,1074.5,527.7z"/>
		<path d="M1080.9,531.7V525h1v1c0.5-0.7,1.2-1.1,2.2-1.1c0.4,0,0.8,0.1,1.1,0.2c0.3,0.2,0.6,0.3,0.8,0.6c0.2,0.2,0.3,0.5,0.4,0.8
			c0,0.2,0.1,0.6,0.1,1.1v4.1h-1.1v-4.1c0-0.5,0-0.8-0.1-1s-0.3-0.4-0.5-0.5s-0.5-0.2-0.8-0.2c-0.5,0-0.9,0.2-1.3,0.5
			s-0.5,0.9-0.5,1.8v3.7L1080.9,531.7L1080.9,531.7z"/>
		<path d="M1090.6,530.7l0.2,1c-0.3,0.1-0.6,0.1-0.9,0.1c-0.4,0-0.7-0.1-1-0.2c-0.2-0.1-0.4-0.3-0.5-0.5s-0.1-0.7-0.1-1.3v-3.9h-0.8
			V525h0.8v-1.7l1.1-0.7v2.3h1.2v0.9h-1.2v3.9c0,0.3,0,0.5,0.1,0.6s0.1,0.2,0.2,0.2c0.1,0.1,0.2,0.1,0.4,0.1
			C1090.2,530.7,1090.4,530.7,1090.6,530.7z"/>
		<path d="M1099.7,531.7v-0.8c-0.4,0.7-1.1,1-1.9,1c-0.5,0-1-0.2-1.5-0.4c-0.4-0.3-0.8-0.7-1.1-1.2c-0.3-0.5-0.4-1.1-0.4-1.8
			s0.1-1.3,0.3-1.8c0.2-0.5,0.6-1,1-1.3s0.9-0.4,1.5-0.4c0.4,0,0.8,0.1,1.1,0.3c0.3,0.2,0.6,0.4,0.8,0.7v-3.3h1.1v9.3L1099.7,531.7
			L1099.7,531.7z M1096.1,528.3c0,0.9,0.2,1.5,0.5,1.9s0.8,0.6,1.3,0.6s0.9-0.2,1.3-0.6s0.5-1,0.5-1.9s-0.2-1.6-0.5-2
			s-0.8-0.7-1.3-0.7s-0.9,0.2-1.3,0.6C1096.3,526.8,1096.1,527.4,1096.1,528.3z"/>
		<path d="M1107.2,529.5l1.2,0.2c-0.2,0.7-0.5,1.2-1,1.6c-0.5,0.4-1.2,0.6-1.9,0.6c-1,0-1.8-0.3-2.3-0.9c-0.6-0.6-0.9-1.5-0.9-2.5
			c0-1.1,0.3-2,0.9-2.6s1.3-0.9,2.3-0.9c0.9,0,1.6,0.3,2.2,0.9s0.9,1.5,0.9,2.6c0,0.1,0,0.2,0,0.3h-5c0,0.7,0.3,1.3,0.6,1.7
			s0.8,0.6,1.4,0.6c0.4,0,0.8-0.1,1.1-0.3C1106.8,530.3,1107,530,1107.2,529.5z M1103.4,527.7h3.8c-0.1-0.6-0.2-1-0.4-1.3
			c-0.4-0.4-0.8-0.7-1.4-0.7c-0.5,0-1,0.2-1.3,0.5C1103.7,526.6,1103.5,527.1,1103.4,527.7z"/>
		<path d="M930.5,547.3V538h1.1v9.3H930.5z"/>
		<path d="M933.4,539.2v-1.3h1.2v1c0,0.6-0.1,1-0.2,1.2c-0.2,0.3-0.5,0.6-0.8,0.8l-0.3-0.5c0.2-0.1,0.4-0.2,0.5-0.4s0.2-0.5,0.2-0.8
			H933.4L933.4,539.2z"/>
		<path d="M936.4,539.3V538h1.1v1.3H936.4z M936.4,547.3v-6.7h1.1v6.7H936.4z"/>
		<path d="M939.2,547.3v-6.7h1v1c0.2-0.3,0.5-0.6,0.8-0.8s0.8-0.3,1.2-0.3c0.5,0,0.9,0.1,1.2,0.3s0.5,0.5,0.7,0.9
			c0.5-0.8,1.2-1.2,2.1-1.2c0.7,0,1.2,0.2,1.5,0.6s0.5,0.9,0.5,1.7v4.6h-1.1V543c0-0.5,0-0.8-0.1-1s-0.2-0.4-0.4-0.5
			s-0.4-0.2-0.7-0.2c-0.5,0-0.9,0.2-1.2,0.5s-0.5,0.8-0.5,1.5v3.9h-1.1v-4.4c0-0.5-0.1-0.9-0.3-1.1s-0.5-0.4-0.9-0.4
			c-0.3,0-0.6,0.1-0.9,0.3s-0.5,0.4-0.6,0.7s-0.2,0.8-0.2,1.4v3.5L939.2,547.3L939.2,547.3z"/>
		<path d="M950.1,547.3v-6.7h1v1c0.2-0.3,0.5-0.6,0.8-0.8s0.8-0.3,1.2-0.3c0.5,0,0.9,0.1,1.2,0.3s0.5,0.5,0.7,0.9
			c0.5-0.8,1.2-1.2,2.1-1.2c0.7,0,1.2,0.2,1.5,0.6s0.5,0.9,0.5,1.7v4.6H958V543c0-0.5,0-0.8-0.1-1s-0.2-0.4-0.4-0.5
			s-0.4-0.2-0.7-0.2c-0.5,0-0.9,0.2-1.2,0.5s-0.5,0.8-0.5,1.5v3.9H954v-4.4c0-0.5-0.1-0.9-0.3-1.1s-0.5-0.4-0.9-0.4
			c-0.3,0-0.6,0.1-0.9,0.3s-0.5,0.4-0.6,0.7s-0.2,0.8-0.2,1.4v3.5L950.1,547.3L950.1,547.3z"/>
		<path d="M960.9,539.3V538h1.1v1.3H960.9z M960.9,547.3v-6.7h1.1v6.7H960.9z"/>
		<path d="M963.6,547.8l1.1,0.2c0,0.3,0.2,0.6,0.4,0.8c0.3,0.2,0.7,0.3,1.2,0.3s0.9-0.1,1.2-0.3s0.5-0.5,0.6-0.9
			c0.1-0.2,0.1-0.7,0.1-1.5c-0.5,0.6-1.1,0.9-1.9,0.9c-0.9,0-1.6-0.3-2.2-1s-0.8-1.5-0.8-2.4c0-0.6,0.1-1.2,0.3-1.8
			c0.2-0.5,0.6-1,1-1.3s1-0.4,1.6-0.4c0.8,0,1.5,0.3,2,1v-0.8h1v5.8c0,1-0.1,1.8-0.3,2.2s-0.5,0.8-1,1c-0.5,0.3-1,0.4-1.7,0.4
			c-0.8,0-1.5-0.2-2-0.5C963.8,549.1,963.6,548.5,963.6,547.8z M964.5,543.8c0,0.9,0.2,1.5,0.5,1.9s0.8,0.6,1.3,0.6s1-0.2,1.3-0.6
			s0.5-1,0.5-1.9c0-0.8-0.2-1.5-0.5-1.9s-0.8-0.6-1.3-0.6s-0.9,0.2-1.3,0.6C964.7,542.3,964.5,543,964.5,543.8z"/>
		<path d="M971,547.3v-6.7h1v1c0.3-0.5,0.5-0.8,0.7-1s0.5-0.2,0.7-0.2c0.4,0,0.8,0.1,1.2,0.4l-0.4,1.1c-0.3-0.2-0.6-0.3-0.8-0.3
			c-0.3,0-0.5,0.1-0.7,0.2s-0.3,0.4-0.4,0.6c-0.1,0.4-0.2,0.8-0.2,1.3v3.5L971,547.3L971,547.3z"/>
		<path d="M979.8,546.4c-0.4,0.4-0.8,0.6-1.2,0.8s-0.8,0.2-1.3,0.2c-0.7,0-1.3-0.2-1.7-0.5s-0.6-0.8-0.6-1.4c0-0.3,0.1-0.6,0.2-0.9
			c0.2-0.3,0.3-0.5,0.6-0.7s0.5-0.3,0.8-0.4c0.2-0.1,0.6-0.1,1-0.2c0.9-0.1,1.6-0.2,2-0.4c0-0.2,0-0.3,0-0.3c0-0.5-0.1-0.8-0.3-1
			c-0.3-0.3-0.7-0.4-1.3-0.4c-0.5,0-0.9,0.1-1.2,0.3s-0.5,0.5-0.6,1l-1.1-0.2c0.1-0.5,0.3-0.9,0.5-1.2s0.6-0.5,1-0.7s1-0.2,1.5-0.2
			s1,0.1,1.4,0.2c0.4,0.1,0.6,0.3,0.8,0.5s0.3,0.5,0.4,0.8c0,0.2,0.1,0.5,0.1,1v1.5c0,1.1,0,1.7,0.1,2s0.2,0.5,0.3,0.8H980
			C979.9,547,979.8,546.8,979.8,546.4z M979.7,543.9c-0.4,0.2-1,0.3-1.9,0.4c-0.5,0.1-0.8,0.1-1,0.2c-0.2,0.1-0.3,0.2-0.5,0.4
			s-0.2,0.3-0.2,0.5c0,0.3,0.1,0.6,0.3,0.8s0.6,0.3,1,0.3s0.8-0.1,1.2-0.3c0.3-0.2,0.6-0.5,0.8-0.8c0.1-0.3,0.2-0.6,0.2-1.1
			L979.7,543.9L979.7,543.9z"/>
		<path d="M985.1,546.3l0.2,1c-0.3,0.1-0.6,0.1-0.9,0.1c-0.4,0-0.7-0.1-1-0.2c-0.2-0.1-0.4-0.3-0.5-0.5s-0.1-0.7-0.1-1.3v-3.9H982
			v-0.9h0.8v-1.7l1.1-0.7v2.3h1.2v0.9h-1.2v3.9c0,0.3,0,0.5,0.1,0.6s0.1,0.2,0.2,0.2c0.1,0.1,0.2,0.1,0.4,0.1
			C984.7,546.3,984.9,546.3,985.1,546.3z"/>
		<path d="M986.2,539.3V538h1.1v1.3H986.2z M986.2,547.3v-6.7h1.1v6.7H986.2z"/>
		<path d="M988.7,543.9c0-1.3,0.3-2.2,1-2.8c0.6-0.5,1.3-0.8,2.1-0.8c0.9,0,1.7,0.3,2.3,0.9s0.9,1.5,0.9,2.5c0,0.9-0.1,1.5-0.4,2
			s-0.6,0.9-1.1,1.2s-1,0.4-1.6,0.4c-0.9,0-1.7-0.3-2.3-0.9C988.9,545.9,988.7,545,988.7,543.9z M989.8,543.9c0,0.9,0.2,1.5,0.6,1.9
			s0.8,0.6,1.4,0.6s1-0.2,1.4-0.7c0.4-0.4,0.6-1.1,0.6-2c0-0.8-0.2-1.5-0.6-1.9s-0.8-0.6-1.4-0.6c-0.6,0-1,0.2-1.4,0.6
			S989.8,543,989.8,543.9z"/>
		<path d="M996.3,547.3v-6.7h1v1c0.5-0.7,1.2-1.1,2.2-1.1c0.4,0,0.8,0.1,1.1,0.2c0.3,0.2,0.6,0.3,0.8,0.6c0.2,0.2,0.3,0.5,0.4,0.8
			c0,0.2,0.1,0.6,0.1,1.1v4.1h-1.1v-4.1c0-0.5,0-0.8-0.1-1s-0.3-0.4-0.5-0.5s-0.5-0.2-0.8-0.2c-0.5,0-0.9,0.2-1.3,0.5
			c-0.3,0.3-0.5,0.9-0.5,1.8v3.7L996.3,547.3L996.3,547.3z"/>
		<path d="M1011.8,545.1l1.2,0.2c-0.2,0.7-0.5,1.2-1,1.6c-0.5,0.4-1.2,0.6-1.9,0.6c-1,0-1.8-0.3-2.3-0.9c-0.6-0.6-0.9-1.5-0.9-2.5
			c0-1.1,0.3-2,0.9-2.6s1.3-0.9,2.3-0.9c0.9,0,1.6,0.3,2.2,0.9s0.9,1.5,0.9,2.6c0,0.1,0,0.2,0,0.3h-5c0,0.7,0.3,1.3,0.6,1.7
			s0.8,0.6,1.4,0.6c0.4,0,0.8-0.1,1.1-0.3C1011.4,545.9,1011.6,545.6,1011.8,545.1z M1008,543.3h3.8c0-0.6-0.2-1-0.4-1.3
			c-0.4-0.4-0.8-0.7-1.4-0.7c-0.5,0-1,0.2-1.3,0.5C1008.3,542.2,1008,542.7,1008,543.3z"/>
		<path d="M1016.9,546.3l0.2,1c-0.3,0.1-0.6,0.1-0.9,0.1c-0.4,0-0.7-0.1-1-0.2c-0.2-0.1-0.4-0.3-0.5-0.5s-0.1-0.7-0.1-1.3v-3.9h-0.8
			v-0.9h0.8v-1.7l1.1-0.7v2.3h1.2v0.9h-1.2v3.9c0,0.3,0,0.5,0.1,0.6s0.1,0.2,0.2,0.2c0.1,0.1,0.2,0.1,0.4,0.1
			C1016.5,546.3,1016.7,546.3,1016.9,546.3z"/>
		<path d="M1026,547.3v-0.8c-0.4,0.7-1.1,1-1.9,1c-0.5,0-1-0.2-1.5-0.4c-0.5-0.3-0.8-0.7-1-1.2c-0.3-0.5-0.4-1.1-0.4-1.8
			s0.1-1.3,0.3-1.8s0.6-1,1-1.3c0.5-0.3,1-0.4,1.5-0.4c0.4,0,0.8,0.1,1.1,0.3s0.6,0.4,0.8,0.7V538h1.1v9.3H1026L1026,547.3z
			 M1022.4,543.9c0,0.9,0.2,1.5,0.5,1.9s0.8,0.6,1.3,0.6c0.5,0,0.9-0.2,1.3-0.6s0.5-1,0.5-1.9s-0.2-1.6-0.5-2s-0.8-0.7-1.3-0.7
			s-0.9,0.2-1.3,0.6C1022.5,542.4,1022.4,543,1022.4,543.9z"/>
		<path d="M1033.4,545.1l1.2,0.2c-0.2,0.7-0.5,1.2-1,1.6c-0.5,0.4-1.2,0.6-1.9,0.6c-1,0-1.8-0.3-2.3-0.9c-0.6-0.6-0.9-1.5-0.9-2.5
			c0-1.1,0.3-2,0.9-2.6s1.3-0.9,2.3-0.9c0.9,0,1.6,0.3,2.2,0.9s0.9,1.5,0.9,2.6c0,0.1,0,0.2,0,0.3h-5c0,0.7,0.3,1.3,0.6,1.7
			s0.8,0.6,1.4,0.6c0.4,0,0.8-0.1,1.1-0.3C1033,545.9,1033.3,545.6,1033.4,545.1z M1029.7,543.3h3.8c-0.1-0.6-0.2-1-0.4-1.3
			c-0.4-0.4-0.8-0.7-1.4-0.7c-0.5,0-1,0.2-1.3,0.5C1029.9,542.2,1029.7,542.7,1029.7,543.3z"/>
		<path d="M1039.7,547.3V538h1.1v9.3H1039.7z"/>
		<path d="M1042.5,539.2v-1.3h1.2v1c0,0.6-0.1,1-0.2,1.2c-0.2,0.3-0.5,0.6-0.8,0.8l-0.3-0.5c0.2-0.1,0.4-0.2,0.5-0.4
			s0.2-0.5,0.2-0.8H1042.5L1042.5,539.2z"/>
		<path d="M1045.6,547.3V538h6.7v1.1h-5.5v2.8h5.2v1.1h-5.2v3.2h5.7v1.1L1045.6,547.3L1045.6,547.3z"/>
		<path d="M1054.1,547.3v-6.7h1v1c0.2-0.3,0.5-0.6,0.8-0.8s0.8-0.3,1.2-0.3c0.5,0,0.9,0.1,1.2,0.3s0.5,0.5,0.7,0.9
			c0.5-0.8,1.2-1.2,2.1-1.2c0.7,0,1.2,0.2,1.5,0.6s0.5,0.9,0.5,1.7v4.6h-1.1V543c0-0.5,0-0.8-0.1-1s-0.2-0.4-0.4-0.5
			c-0.2-0.1-0.4-0.2-0.7-0.2c-0.5,0-0.9,0.2-1.2,0.5s-0.5,0.8-0.5,1.5v3.9h-1.1v-4.4c0-0.5-0.1-0.9-0.3-1.1s-0.5-0.4-0.9-0.4
			c-0.3,0-0.6,0.1-0.9,0.3s-0.5,0.4-0.6,0.7s-0.2,0.8-0.2,1.4v3.5L1054.1,547.3L1054.1,547.3z"/>
		<path d="M1065,539.3V538h1.1v1.3H1065z M1065,547.3v-6.7h1.1v6.7H1065z"/>
		<path d="M1067.6,547.8l1.1,0.2c0.1,0.3,0.2,0.6,0.4,0.8c0.3,0.2,0.7,0.3,1.2,0.3s0.9-0.1,1.2-0.3s0.5-0.5,0.6-0.9
			c0.1-0.2,0.1-0.7,0.1-1.5c-0.5,0.6-1.1,0.9-1.9,0.9c-0.9,0-1.6-0.3-2.2-1s-0.8-1.5-0.8-2.4c0-0.6,0.1-1.2,0.3-1.8
			c0.2-0.5,0.6-1,1-1.3s1-0.4,1.6-0.4c0.8,0,1.4,0.3,2,1v-0.8h1.1v5.8c0,1-0.1,1.8-0.3,2.2s-0.6,0.8-1,1c-0.5,0.3-1,0.4-1.7,0.4
			c-0.8,0-1.4-0.2-1.9-0.5C1067.8,549.1,1067.6,548.5,1067.6,547.8z M1068.6,543.8c0,0.9,0.2,1.5,0.5,1.9s0.8,0.6,1.3,0.6
			s1-0.2,1.3-0.6s0.5-1,0.5-1.9c0-0.8-0.2-1.5-0.6-1.9s-0.8-0.6-1.3-0.6s-0.9,0.2-1.3,0.6C1068.8,542.3,1068.6,543,1068.6,543.8z"/>
		<path d="M1075.1,547.3v-6.7h1v1c0.3-0.5,0.5-0.8,0.7-1s0.5-0.2,0.7-0.2c0.4,0,0.8,0.1,1.2,0.4l-0.4,1.1c-0.3-0.2-0.6-0.3-0.8-0.3
			c-0.3,0-0.5,0.1-0.7,0.2s-0.3,0.4-0.4,0.6c-0.1,0.4-0.2,0.8-0.2,1.3v3.5L1075.1,547.3L1075.1,547.3z"/>
		<path d="M1083.8,546.4c-0.4,0.4-0.8,0.6-1.2,0.8s-0.8,0.2-1.3,0.2c-0.7,0-1.3-0.2-1.7-0.5c-0.4-0.4-0.6-0.8-0.6-1.4
			c0-0.3,0.1-0.6,0.2-0.9s0.3-0.5,0.6-0.7s0.5-0.3,0.8-0.4c0.2-0.1,0.6-0.1,1-0.2c0.9-0.1,1.6-0.2,2-0.4c0-0.2,0-0.3,0-0.3
			c0-0.5-0.1-0.8-0.3-1c-0.3-0.3-0.7-0.4-1.3-0.4c-0.5,0-0.9,0.1-1.2,0.3s-0.4,0.5-0.6,1l-1.1-0.2c0.1-0.5,0.3-0.9,0.5-1.2
			s0.6-0.5,1-0.7s0.9-0.2,1.5-0.2s1,0.1,1.4,0.2c0.4,0.1,0.6,0.3,0.8,0.5s0.3,0.5,0.4,0.8c0,0.2,0.1,0.5,0.1,1v1.5
			c0,1.1,0,1.7,0.1,2s0.2,0.5,0.3,0.8h-1.2C1083.9,547,1083.8,546.8,1083.8,546.4z M1083.7,543.9c-0.4,0.2-1,0.3-1.9,0.4
			c-0.5,0.1-0.8,0.1-1,0.2c-0.2,0.1-0.3,0.2-0.4,0.4s-0.2,0.3-0.2,0.5c0,0.3,0.1,0.6,0.3,0.8s0.6,0.3,1,0.3s0.8-0.1,1.2-0.3
			c0.3-0.2,0.6-0.5,0.8-0.8c0.1-0.3,0.2-0.6,0.2-1.1V543.9L1083.7,543.9z"/>
		<path d="M1089.1,546.3l0.2,1c-0.3,0.1-0.6,0.1-0.9,0.1c-0.4,0-0.7-0.1-1-0.2c-0.2-0.1-0.4-0.3-0.5-0.5s-0.1-0.7-0.1-1.3v-3.9h-0.9
			v-0.9h0.8v-1.7l1.1-0.7v2.3h1.2v0.9h-1.2v3.9c0,0.3,0,0.5,0.1,0.6s0.1,0.2,0.2,0.2c0.1,0.1,0.2,0.1,0.4,0.1
			C1088.8,546.3,1088.9,546.3,1089.1,546.3z"/>
		<path d="M1090.3,539.3V538h1.1v1.3H1090.3z M1090.3,547.3v-6.7h1.1v6.7H1090.3z"/>
		<path d="M1092.7,543.9c0-1.3,0.3-2.2,1-2.8c0.6-0.5,1.3-0.8,2.1-0.8c0.9,0,1.7,0.3,2.3,0.9s0.9,1.5,0.9,2.5c0,0.9-0.1,1.5-0.4,2
			s-0.6,0.9-1.1,1.2s-1,0.4-1.6,0.4c-0.9,0-1.7-0.3-2.3-0.9C1093,545.9,1092.7,545,1092.7,543.9z M1093.9,543.9
			c0,0.9,0.2,1.5,0.6,1.9s0.8,0.6,1.4,0.6s1-0.2,1.4-0.7c0.4-0.4,0.6-1.1,0.6-2c0-0.8-0.2-1.5-0.6-1.9s-0.8-0.6-1.4-0.6
			s-1,0.2-1.4,0.6S1093.9,543,1093.9,543.9z"/>
		<path d="M1100.4,547.3v-6.7h1v1c0.5-0.7,1.2-1.1,2.2-1.1c0.4,0,0.8,0.1,1.1,0.2c0.3,0.2,0.6,0.3,0.8,0.6c0.2,0.2,0.3,0.5,0.4,0.8
			c0,0.2,0.1,0.6,0.1,1.1v4.1h-1.1v-4.1c0-0.5,0-0.8-0.1-1s-0.3-0.4-0.5-0.5s-0.5-0.2-0.8-0.2c-0.5,0-0.9,0.2-1.3,0.5
			s-0.5,0.9-0.5,1.8v3.7L1100.4,547.3L1100.4,547.3z"/>
	</g>
	<g>
		<path d="M903.7,668.7v-9.3h6.3v1.1h-5v2.9h4.4v1.1H905v4.2H903.7L903.7,668.7z"/>
		<path d="M915.8,667.8c-0.4,0.4-0.8,0.6-1.2,0.8s-0.8,0.2-1.3,0.2c-0.7,0-1.3-0.2-1.7-0.5s-0.6-0.8-0.6-1.4c0-0.3,0.1-0.6,0.2-0.9
			c0.2-0.3,0.3-0.5,0.6-0.7s0.5-0.3,0.8-0.4c0.2-0.1,0.6-0.1,1-0.2c0.9-0.1,1.6-0.2,2-0.4c0-0.2,0-0.3,0-0.3c0-0.5-0.1-0.8-0.3-1
			c-0.3-0.3-0.7-0.4-1.3-0.4c-0.5,0-0.9,0.1-1.2,0.3s-0.5,0.5-0.6,1l-1.1-0.2c0.1-0.5,0.3-0.9,0.5-1.2s0.6-0.5,1-0.7s1-0.2,1.5-0.2
			s1,0.1,1.4,0.2c0.4,0.1,0.6,0.3,0.8,0.5s0.3,0.5,0.4,0.8c0,0.2,0.1,0.5,0.1,1v1.5c0,1.1,0,1.7,0.1,2s0.2,0.5,0.3,0.8H916
			C916,668.4,915.9,668.2,915.8,667.8z M915.7,665.3c-0.4,0.2-1,0.3-1.9,0.4c-0.5,0.1-0.8,0.1-1,0.2c-0.2,0.1-0.3,0.2-0.5,0.4
			s-0.2,0.3-0.2,0.5c0,0.3,0.1,0.6,0.3,0.8s0.6,0.3,1,0.3s0.8-0.1,1.2-0.3c0.3-0.2,0.6-0.5,0.8-0.8c0.1-0.3,0.2-0.6,0.2-1.1
			L915.7,665.3L915.7,665.3z"/>
		<path d="M918.7,660.7v-1.3h1.1v1.3H918.7z M918.7,668.7V662h1.1v6.7H918.7z"/>
		<path d="M924,667.7l0.2,1c-0.3,0.1-0.6,0.1-0.9,0.1c-0.4,0-0.7-0.1-1-0.2c-0.2-0.1-0.4-0.3-0.5-0.5s-0.1-0.7-0.1-1.3v-3.9h-0.8
			V662h0.8v-1.7l1.1-0.7v2.3h1.2v0.9h-1.2v3.9c0,0.3,0,0.5,0.1,0.6s0.1,0.2,0.2,0.2c0.1,0.1,0.2,0.1,0.4,0.1
			C923.7,667.7,923.8,667.7,924,667.7z"/>
		<path d="M933.2,667.8c-0.4,0.4-0.8,0.6-1.2,0.8s-0.8,0.2-1.3,0.2c-0.7,0-1.3-0.2-1.7-0.5s-0.6-0.8-0.6-1.4c0-0.3,0.1-0.6,0.2-0.9
			c0.2-0.3,0.3-0.5,0.6-0.7s0.5-0.3,0.8-0.4c0.2-0.1,0.6-0.1,1-0.2c0.9-0.1,1.6-0.2,2-0.4c0-0.2,0-0.3,0-0.3c0-0.5-0.1-0.8-0.3-1
			c-0.3-0.3-0.7-0.4-1.3-0.4c-0.5,0-0.9,0.1-1.2,0.3s-0.5,0.5-0.6,1l-1.1-0.2c0.1-0.5,0.3-0.9,0.5-1.2s0.6-0.5,1-0.7s1-0.2,1.5-0.2
			s1,0.1,1.4,0.2c0.4,0.1,0.6,0.3,0.8,0.5s0.3,0.5,0.4,0.8c0,0.2,0.1,0.5,0.1,1v1.5c0,1.1,0,1.7,0.1,2s0.2,0.5,0.3,0.8h-1.2
			C933.3,668.4,933.2,668.2,933.2,667.8z M933.1,665.3c-0.4,0.2-1,0.3-1.9,0.4c-0.5,0.1-0.8,0.1-1,0.2c-0.2,0.1-0.3,0.2-0.5,0.4
			s-0.2,0.3-0.2,0.5c0,0.3,0.1,0.6,0.3,0.8s0.6,0.3,1,0.3s0.8-0.1,1.2-0.3c0.3-0.2,0.6-0.5,0.8-0.8c0.1-0.3,0.2-0.6,0.2-1.1
			L933.1,665.3L933.1,665.3z M932.5,661.1h-0.9l-1.5-1.8h1.5L932.5,661.1z"/>
		<path d="M938,668.7l3.6-9.3h1.3l3.8,9.3h-1.4l-1.1-2.8h-3.9l-1,2.8H938z M940.7,664.9h3.2l-1-2.6c-0.3-0.8-0.5-1.4-0.7-1.9
			c-0.1,0.6-0.3,1.2-0.5,1.8L940.7,664.9z"/>
		<path d="M948.6,668.7h-1.1v-9.3h1.1v3.3c0.5-0.6,1.1-0.9,1.8-0.9c0.4,0,0.8,0.1,1.2,0.3s0.7,0.4,0.9,0.7s0.4,0.7,0.6,1.1
			c0.1,0.4,0.2,0.9,0.2,1.4c0,1.2-0.3,2-0.9,2.7s-1.3,1-2.1,1s-1.4-0.3-1.9-1L948.6,668.7L948.6,668.7z M948.6,665.3
			c0,0.8,0.1,1.4,0.3,1.8c0.4,0.6,0.8,0.9,1.5,0.9c0.5,0,0.9-0.2,1.3-0.7c0.4-0.4,0.5-1.1,0.5-1.9c0-0.9-0.2-1.5-0.5-2
			c-0.3-0.4-0.8-0.6-1.3-0.6s-0.9,0.2-1.3,0.7C948.8,663.8,948.6,664.4,948.6,665.3z"/>
		<path d="M954.8,660.7v-1.3h1.1v1.3H954.8z M954.8,668.7V662h1.1v6.7H954.8z"/>
		<path d="M962.1,668.7v-0.8c-0.4,0.7-1.1,1-1.9,1c-0.5,0-1-0.2-1.5-0.4c-0.5-0.3-0.8-0.7-1-1.2c-0.3-0.5-0.4-1.1-0.4-1.8
			s0.1-1.3,0.3-1.8s0.6-1,1-1.3c0.5-0.3,1-0.4,1.5-0.4c0.4,0,0.8,0.1,1.1,0.3s0.6,0.4,0.8,0.7v-3.3h1.1v9.3L962.1,668.7L962.1,668.7
			z M958.5,665.3c0,0.9,0.2,1.5,0.5,1.9s0.8,0.6,1.3,0.6s0.9-0.2,1.3-0.6c0.3-0.4,0.5-1,0.5-1.9s-0.2-1.6-0.5-2s-0.8-0.7-1.3-0.7
			s-0.9,0.2-1.3,0.6C958.6,663.8,958.5,664.4,958.5,665.3z"/>
		<path d="M963.5,671.3l0.2-1c0.2,0.1,0.4,0.1,0.5,0.1c0.2,0,0.4-0.1,0.5-0.2c0.1-0.2,0.2-0.5,0.2-1.2v-7h1.1v7.1
			c0,0.8-0.1,1.4-0.3,1.7c-0.3,0.4-0.7,0.6-1.4,0.6C964.1,671.4,963.8,671.4,963.5,671.3z M964.9,660.7v-1.3h1.1v1.3H964.9z"/>
		<path d="M972.2,667.8c-0.4,0.4-0.8,0.6-1.2,0.8s-0.8,0.2-1.3,0.2c-0.7,0-1.3-0.2-1.7-0.5s-0.6-0.8-0.6-1.4c0-0.3,0.1-0.6,0.2-0.9
			c0.2-0.3,0.3-0.5,0.6-0.7s0.5-0.3,0.8-0.4c0.2-0.1,0.6-0.1,1-0.2c0.9-0.1,1.6-0.2,2-0.4c0-0.2,0-0.3,0-0.3c0-0.5-0.1-0.8-0.3-1
			c-0.3-0.3-0.7-0.4-1.3-0.4c-0.5,0-0.9,0.1-1.2,0.3s-0.5,0.5-0.6,1l-1.1-0.2c0.1-0.5,0.3-0.9,0.5-1.2s0.6-0.5,1-0.7s1-0.2,1.5-0.2
			s1,0.1,1.4,0.2c0.4,0.1,0.6,0.3,0.8,0.5s0.3,0.5,0.4,0.8c0,0.2,0.1,0.5,0.1,1v1.5c0,1.1,0,1.7,0.1,2s0.2,0.5,0.3,0.8h-1.2
			C972.3,668.4,972.3,668.2,972.2,667.8z M972.1,665.3c-0.4,0.2-1,0.3-1.9,0.4c-0.5,0.1-0.8,0.1-1,0.2c-0.2,0.1-0.3,0.2-0.5,0.4
			s-0.2,0.3-0.2,0.5c0,0.3,0.1,0.6,0.3,0.8s0.6,0.3,1,0.3s0.8-0.1,1.2-0.3c0.3-0.2,0.6-0.5,0.8-0.8c0.1-0.3,0.2-0.6,0.2-1.1
			L972.1,665.3L972.1,665.3z"/>
		<path d="M975,668.7V662h1v1c0.5-0.7,1.2-1.1,2.2-1.1c0.4,0,0.8,0.1,1.1,0.2c0.3,0.2,0.6,0.3,0.8,0.6c0.2,0.2,0.3,0.5,0.4,0.8
			c0,0.2,0.1,0.6,0.1,1.1v4.1h-1.1v-4.1c0-0.5,0-0.8-0.1-1s-0.3-0.4-0.5-0.5s-0.5-0.2-0.8-0.2c-0.5,0-0.9,0.2-1.3,0.5
			c-0.3,0.3-0.5,0.9-0.5,1.8v3.7L975,668.7L975,668.7z"/>
		<path d="M985.9,668.7v-9.3h1.1v9.3H985.9z"/>
		<path d="M993.4,666.5l1.2,0.2c-0.2,0.7-0.5,1.2-1,1.6c-0.5,0.4-1.2,0.6-1.9,0.6c-1,0-1.8-0.3-2.3-0.9c-0.6-0.6-0.9-1.5-0.9-2.5
			c0-1.1,0.3-2,0.9-2.6s1.3-0.9,2.3-0.9c0.9,0,1.6,0.3,2.2,0.9s0.9,1.5,0.9,2.6c0,0.1,0,0.2,0,0.3h-5c0,0.7,0.3,1.3,0.6,1.7
			s0.8,0.6,1.4,0.6c0.4,0,0.8-0.1,1.1-0.3C993,667.3,993.2,667,993.4,666.5z M989.6,664.7h3.8c0-0.6-0.2-1-0.4-1.3
			c-0.4-0.4-0.8-0.7-1.4-0.7c-0.5,0-1,0.2-1.3,0.5C989.9,663.6,989.7,664.1,989.6,664.7z"/>
		<path d="M996.3,668.7v-1.3h1.3v1.3c0,0.5-0.1,0.9-0.3,1.2s-0.4,0.5-0.8,0.7l-0.3-0.5c0.2-0.1,0.4-0.3,0.5-0.5s0.2-0.5,0.2-0.9
			H996.3L996.3,668.7z"/>
		<path d="M906.3,699.9l-3.6-9.3h1.3l2.4,6.8c0.2,0.5,0.4,1,0.5,1.5c0.1-0.5,0.3-1,0.5-1.5l2.5-6.8h1.3l-3.6,9.3H906.3z"/>
		<path d="M915.6,699c-0.4,0.4-0.8,0.6-1.2,0.8s-0.8,0.2-1.3,0.2c-0.7,0-1.3-0.2-1.7-0.5s-0.6-0.8-0.6-1.4c0-0.3,0.1-0.6,0.2-0.9
			c0.2-0.3,0.3-0.5,0.6-0.7s0.5-0.3,0.8-0.4c0.2-0.1,0.6-0.1,1-0.2c0.9-0.1,1.6-0.2,2-0.4c0-0.2,0-0.3,0-0.3c0-0.5-0.1-0.8-0.3-1
			c-0.3-0.3-0.7-0.4-1.3-0.4c-0.5,0-0.9,0.1-1.2,0.3s-0.5,0.5-0.6,1l-1.1-0.2c0.1-0.5,0.3-0.9,0.5-1.2s0.6-0.5,1-0.7s1-0.2,1.5-0.2
			s1,0.1,1.4,0.2c0.4,0.1,0.6,0.3,0.8,0.5s0.3,0.5,0.4,0.8c0,0.2,0.1,0.5,0.1,1v1.5c0,1.1,0,1.7,0.1,2s0.2,0.5,0.3,0.8h-1.2
			C915.7,699.6,915.6,699.4,915.6,699z M915.5,696.5c-0.4,0.2-1,0.3-1.9,0.4c-0.5,0.1-0.8,0.1-1,0.2c-0.2,0.1-0.3,0.2-0.5,0.4
			s-0.2,0.3-0.2,0.5c0,0.3,0.1,0.6,0.3,0.8s0.6,0.3,1,0.3s0.8-0.1,1.2-0.3c0.3-0.2,0.6-0.5,0.8-0.8c0.1-0.3,0.2-0.6,0.2-1.1
			L915.5,696.5L915.5,696.5z"/>
		<path d="M918.4,699.9v-9.3h1.1v9.3H918.4z"/>
		<path d="M925.7,699c-0.4,0.4-0.8,0.6-1.2,0.8s-0.8,0.2-1.3,0.2c-0.7,0-1.3-0.2-1.7-0.5s-0.6-0.8-0.6-1.4c0-0.3,0.1-0.6,0.2-0.9
			c0.2-0.3,0.3-0.5,0.6-0.7s0.5-0.3,0.8-0.4c0.2-0.1,0.6-0.1,1-0.2c0.9-0.1,1.6-0.2,2-0.4c0-0.2,0-0.3,0-0.3c0-0.5-0.1-0.8-0.3-1
			c-0.3-0.3-0.7-0.4-1.3-0.4c-0.5,0-0.9,0.1-1.2,0.3s-0.5,0.5-0.6,1l-1.1-0.2c0.1-0.5,0.3-0.9,0.5-1.2s0.6-0.5,1-0.7s1-0.2,1.5-0.2
			s1,0.1,1.4,0.2c0.4,0.1,0.6,0.3,0.8,0.5s0.3,0.5,0.4,0.8c0,0.2,0.1,0.5,0.1,1v1.5c0,1.1,0,1.7,0.1,2s0.2,0.5,0.3,0.8H926
			C925.8,699.6,925.8,699.4,925.7,699z M925.6,696.5c-0.4,0.2-1,0.3-1.9,0.4c-0.5,0.1-0.8,0.1-1,0.2c-0.2,0.1-0.3,0.2-0.5,0.4
			s-0.2,0.3-0.2,0.5c0,0.3,0.1,0.6,0.3,0.8s0.6,0.3,1,0.3s0.8-0.1,1.2-0.3c0.3-0.2,0.6-0.5,0.8-0.8c0.1-0.3,0.2-0.6,0.2-1.1
			L925.6,696.5L925.6,696.5z"/>
		<path d="M929.6,699.9h-1.1v-9.3h1.1v3.3c0.5-0.6,1.1-0.9,1.8-0.9c0.4,0,0.8,0.1,1.2,0.3s0.7,0.4,0.9,0.7s0.4,0.7,0.6,1.1
			c0.1,0.4,0.2,0.9,0.2,1.4c0,1.2-0.3,2-0.9,2.7s-1.3,1-2.1,1s-1.4-0.3-1.9-1L929.6,699.9L929.6,699.9z M929.6,696.5
			c0,0.8,0.1,1.4,0.3,1.8c0.4,0.6,0.8,0.9,1.5,0.9c0.5,0,0.9-0.2,1.3-0.7c0.4-0.4,0.5-1.1,0.5-1.9c0-0.9-0.2-1.5-0.5-2
			c-0.3-0.4-0.8-0.6-1.3-0.6s-0.9,0.2-1.3,0.7C929.8,695,929.6,695.6,929.6,696.5z"/>
		<path d="M935.8,699.9v-9.3h1.1v9.3H935.8z"/>
		<path d="M943.3,697.7l1.2,0.2c-0.2,0.7-0.5,1.2-1,1.6c-0.5,0.4-1.2,0.6-1.9,0.6c-1,0-1.8-0.3-2.3-0.9c-0.6-0.6-0.9-1.5-0.9-2.5
			c0-1.1,0.3-2,0.9-2.6s1.3-0.9,2.3-0.9c0.9,0,1.6,0.3,2.2,0.9s0.9,1.5,0.9,2.6c0,0.1,0,0.2,0,0.3h-5c0,0.7,0.3,1.3,0.6,1.7
			s0.8,0.6,1.4,0.6c0.4,0,0.8-0.1,1.1-0.3C942.9,698.5,943.1,698.2,943.3,697.7z M939.5,695.9h3.8c0-0.6-0.2-1-0.4-1.3
			c-0.4-0.4-0.8-0.7-1.4-0.7c-0.5,0-1,0.2-1.3,0.5C939.8,694.8,939.6,695.3,939.5,695.9z"/>
		<path d="M948.1,702.5l0.2-1c0.2,0.1,0.4,0.1,0.5,0.1c0.2,0,0.4-0.1,0.5-0.2c0.1-0.2,0.2-0.5,0.2-1.2v-7.1h1.1v7.1
			c0,0.8-0.1,1.4-0.3,1.7c-0.3,0.4-0.7,0.6-1.4,0.6C948.7,702.6,948.3,702.6,948.1,702.5z M949.5,691.9v-1.3h1.1v1.3H949.5z"/>
		<path d="M956.8,699.9v-1c-0.5,0.8-1.2,1.1-2.1,1.1c-0.4,0-0.8-0.1-1.1-0.2s-0.6-0.3-0.8-0.6s-0.3-0.5-0.3-0.8
			c0-0.2-0.1-0.6-0.1-1.1v-4.2h1.1v3.7c0,0.6,0,1,0.1,1.2c0.1,0.3,0.2,0.5,0.5,0.7c0.2,0.2,0.5,0.3,0.9,0.3s0.7-0.1,1-0.3
			s0.5-0.4,0.6-0.7s0.2-0.7,0.2-1.3v-3.6h1.1v6.7L956.8,699.9L956.8,699.9z"/>
		<path d="M959.2,697.9l1.1-0.2c0.1,0.5,0.2,0.8,0.5,1s0.7,0.4,1.2,0.4s0.9-0.1,1.2-0.3s0.4-0.5,0.4-0.8s-0.1-0.5-0.3-0.6
			s-0.5-0.2-1.2-0.4c-0.8-0.2-1.4-0.4-1.7-0.5c-0.3-0.2-0.6-0.4-0.7-0.6s-0.3-0.6-0.3-0.9c0-0.3,0.1-0.6,0.2-0.8s0.3-0.5,0.6-0.6
			c0.2-0.1,0.4-0.2,0.7-0.3s0.6-0.1,1-0.1c0.5,0,1,0.1,1.4,0.2c0.4,0.2,0.7,0.4,0.9,0.6c0.2,0.3,0.3,0.6,0.4,1l-1.1,0.2
			c0-0.3-0.2-0.6-0.4-0.8s-0.6-0.3-1-0.3c-0.5,0-0.9,0.1-1.1,0.3s-0.3,0.4-0.3,0.6c0,0.2,0,0.3,0.1,0.4s0.2,0.2,0.4,0.3
			c0.1,0,0.5,0.1,1,0.3c0.8,0.2,1.4,0.4,1.7,0.5s0.6,0.3,0.8,0.6s0.3,0.6,0.3,1s-0.1,0.7-0.3,1.1c-0.2,0.3-0.5,0.6-1,0.8
			c-0.4,0.2-0.9,0.3-1.4,0.3c-0.9,0-1.5-0.2-2-0.5S959.3,698.6,959.2,697.9z"/>
		<path d="M970.4,702.5v-3.3c-0.2,0.3-0.4,0.5-0.8,0.6c-0.3,0.2-0.7,0.3-1,0.3c-0.8,0-1.5-0.3-2.1-1s-0.9-1.5-0.9-2.6
			c0-0.7,0.1-1.3,0.3-1.8s0.6-0.9,1-1.2s0.9-0.4,1.5-0.4c0.8,0,1.5,0.3,2,1v-0.9h1v9.3L970.4,702.5L970.4,702.5z M966.9,696.5
			c0,0.9,0.2,1.5,0.5,2c0.4,0.4,0.8,0.7,1.3,0.7s0.9-0.2,1.3-0.6c0.3-0.4,0.5-1,0.5-1.9s-0.2-1.6-0.6-2s-0.8-0.7-1.3-0.7
			s-0.9,0.2-1.3,0.6S966.9,695.6,966.9,696.5z"/>
		<path d="M977.8,699.9v-1c-0.5,0.8-1.2,1.1-2.1,1.1c-0.4,0-0.8-0.1-1.1-0.2s-0.6-0.3-0.8-0.6s-0.3-0.5-0.3-0.8
			c0-0.2-0.1-0.6-0.1-1.1v-4.2h1.1v3.7c0,0.6,0,1,0.1,1.2c0.1,0.3,0.2,0.5,0.5,0.7c0.2,0.2,0.5,0.3,0.9,0.3s0.7-0.1,1-0.3
			s0.5-0.4,0.6-0.7s0.2-0.7,0.2-1.3v-3.6h1.1v6.7L977.8,699.9L977.8,699.9z"/>
		<path d="M980.5,691.8v-1.3h1.2v1c0,0.6-0.1,1-0.2,1.2c-0.2,0.3-0.5,0.6-0.8,0.8l-0.3-0.5c0.2-0.1,0.4-0.2,0.5-0.4s0.2-0.5,0.2-0.8
			H980.5L980.5,691.8z"/>
		<path d="M987.9,699c-0.4,0.4-0.8,0.6-1.2,0.8s-0.8,0.2-1.3,0.2c-0.7,0-1.3-0.2-1.7-0.5s-0.6-0.8-0.6-1.4c0-0.3,0.1-0.6,0.2-0.9
			c0.2-0.3,0.3-0.5,0.6-0.7s0.5-0.3,0.8-0.4c0.2-0.1,0.6-0.1,1-0.2c0.9-0.1,1.6-0.2,2-0.4c0-0.2,0-0.3,0-0.3c0-0.5-0.1-0.8-0.3-1
			c-0.3-0.3-0.7-0.4-1.3-0.4c-0.5,0-0.9,0.1-1.2,0.3s-0.5,0.5-0.6,1l-1.1-0.2c0.1-0.5,0.3-0.9,0.5-1.2s0.6-0.5,1-0.7s1-0.2,1.5-0.2
			s1,0.1,1.4,0.2c0.4,0.1,0.6,0.3,0.8,0.5s0.3,0.5,0.4,0.8c0,0.2,0.1,0.5,0.1,1v1.5c0,1.1,0,1.7,0.1,2s0.2,0.5,0.3,0.8h-1.2
			C988,699.6,987.9,699.4,987.9,699z M987.8,696.5c-0.4,0.2-1,0.3-1.9,0.4c-0.5,0.1-0.8,0.1-1,0.2c-0.2,0.1-0.3,0.2-0.5,0.4
			s-0.2,0.3-0.2,0.5c0,0.3,0.1,0.6,0.3,0.8s0.6,0.3,1,0.3s0.8-0.1,1.2-0.3c0.3-0.2,0.6-0.5,0.8-0.8c0.1-0.3,0.2-0.6,0.2-1.1
			L987.8,696.5L987.8,696.5z"/>
		<path d="M995.1,699.9v-1c-0.5,0.8-1.2,1.1-2.1,1.1c-0.4,0-0.8-0.1-1.1-0.2s-0.6-0.3-0.8-0.6s-0.3-0.5-0.3-0.8
			c0-0.2-0.1-0.6-0.1-1.1v-4.2h1.1v3.7c0,0.6,0,1,0.1,1.2c0.1,0.3,0.2,0.5,0.5,0.7c0.2,0.2,0.5,0.3,0.9,0.3s0.7-0.1,1-0.3
			s0.5-0.4,0.6-0.7s0.2-0.7,0.2-1.3v-3.6h1.1v6.7L995.1,699.9L995.1,699.9z"/>
		<path d="M998.2,699.9v-1.3h1.3v1.3c0,0.5-0.1,0.9-0.3,1.2s-0.4,0.5-0.8,0.7l-0.3-0.5c0.2-0.1,0.4-0.3,0.5-0.5s0.2-0.5,0.2-0.9
			H998.2L998.2,699.9z"/>
	</g>
	<g>
		<path d="M127.6,300.8v-18.6h2.5l9.8,14.6v-14.6h2.4v18.6h-2.5l-9.8-14.6v14.6H127.6L127.6,300.8z"/>
		<path d="M145.3,294c0-2.5,0.7-4.4,2.1-5.5c1.2-1,2.6-1.5,4.2-1.5c1.9,0,3.4,0.6,4.5,1.8s1.8,2.9,1.8,5c0,1.7-0.3,3.1-0.8,4.1
			s-1.3,1.8-2.3,2.3s-2.1,0.8-3.3,0.8c-1.9,0-3.4-0.6-4.6-1.8S145.3,296.3,145.3,294z M147.6,294c0,1.7,0.4,3,1.1,3.9
			s1.7,1.3,2.8,1.3s2.1-0.4,2.8-1.3s1.1-2.2,1.1-4c0-1.7-0.4-2.9-1.1-3.8s-1.7-1.3-2.8-1.3s-2.1,0.4-2.8,1.3S147.6,292.3,147.6,294z
			"/>
		<path d="M160.6,300.8v-13.5h2v1.9c0.4-0.7,1-1.2,1.7-1.6s1.5-0.6,2.4-0.6c1,0,1.8,0.2,2.5,0.6s1.1,1,1.4,1.7
			c1.1-1.6,2.4-2.4,4.2-2.4c1.3,0,2.4,0.4,3.1,1.1s1.1,1.9,1.1,3.4v9.3h-2.3v-8.5c0-0.9-0.1-1.6-0.2-2s-0.4-0.7-0.8-1
			s-0.9-0.4-1.4-0.4c-0.9,0-1.7,0.3-2.4,1s-0.9,1.6-0.9,3v7.8h-2.3V292c0-1-0.2-1.8-0.6-2.3s-1-0.8-1.8-0.8c-0.6,0-1.2,0.2-1.8,0.5
			s-0.9,0.8-1.2,1.5s-0.4,1.6-0.4,2.8v7L160.6,300.8L160.6,300.8z"/>
		<path d="M190.1,289.9v-2.6h2.6v2.6H190.1z M190.1,300.8v-2.6h2.6v2.6H190.1z"/>
	</g>
	<g>
		<path d="M127.6,340.3v-18.6h7c1.2,0,2.2,0.1,2.8,0.2c0.9,0.1,1.7,0.4,2.3,0.9s1.1,1,1.5,1.8s0.6,1.6,0.6,2.5c0,1.6-0.5,2.9-1.5,4
			s-2.8,1.6-5.5,1.6H130v7.6H127.6L127.6,340.3z M130.1,330.6h4.8c1.6,0,2.7-0.3,3.4-0.9s1-1.4,1-2.5c0-0.8-0.2-1.5-0.6-2
			s-0.9-0.9-1.6-1.1c-0.4-0.1-1.2-0.2-2.3-0.2H130L130.1,330.6L130.1,330.6z"/>
		<path d="M144.7,340.3v-13.5h2.1v2c0.5-1,1-1.6,1.4-1.9s0.9-0.5,1.5-0.5c0.8,0,1.6,0.3,2.4,0.7l-0.8,2.1c-0.6-0.3-1.1-0.5-1.7-0.5
			c-0.5,0-0.9,0.1-1.4,0.5s-0.7,0.7-0.9,1.3c-0.3,0.8-0.4,1.7-0.4,2.7v7.1L144.7,340.3L144.7,340.3z"/>
		<path d="M162.6,336l2.4,0.3c-0.4,1.4-1.1,2.5-2.1,3.2s-2.3,1.1-3.9,1.1c-2,0-3.5-0.6-4.7-1.8s-1.7-2.9-1.7-5.1
			c0-2.3,0.6-4,1.8-5.3s2.7-1.9,4.5-1.9s3.3,0.6,4.4,1.8s1.7,3,1.7,5.2c0,0.1,0,0.3,0,0.6h-10.1c0.1,1.5,0.5,2.6,1.3,3.4
			s1.7,1.2,2.8,1.2c0.8,0,1.6-0.2,2.1-0.7S162.2,337,162.6,336z M155.1,332.3h7.5c-0.1-1.1-0.4-2-0.9-2.5c-0.7-0.9-1.7-1.3-2.8-1.3
			s-1.9,0.4-2.6,1S155.1,331.1,155.1,332.3z M157.5,325.2l1.7-3.5h3l-2.8,3.5H157.5z"/>
		<path d="M167.8,340.3v-13.5h2.1v1.9c1-1.5,2.4-2.2,4.3-2.2c0.8,0,1.6,0.1,2.2,0.4s1.2,0.7,1.5,1.1s0.6,1,0.7,1.7
			c0.1,0.4,0.1,1.2,0.1,2.2v8.3h-2.3V332c0-0.9-0.1-1.6-0.3-2.1s-0.5-0.8-0.9-1.1s-1-0.4-1.6-0.4c-1,0-1.8,0.3-2.5,0.9
			s-1.1,1.8-1.1,3.5v7.4L167.8,340.3L167.8,340.3z"/>
		<path d="M181.4,333.6c0-2.5,0.7-4.4,2.1-5.5c1.2-1,2.6-1.5,4.2-1.5c1.9,0,3.4,0.6,4.5,1.8s1.8,2.9,1.8,5c0,1.7-0.3,3.1-0.8,4.1
			s-1.3,1.8-2.3,2.3s-2.1,0.8-3.3,0.8c-1.9,0-3.4-0.6-4.6-1.8S181.4,335.9,181.4,333.6z M183.8,333.6c0,1.7,0.4,3,1.1,3.9
			s1.7,1.3,2.8,1.3s2.1-0.4,2.8-1.3s1.1-2.2,1.1-4c0-1.7-0.4-2.9-1.1-3.8s-1.7-1.3-2.8-1.3s-2.1,0.4-2.8,1.3
			S183.8,331.9,183.8,333.6z"/>
		<path d="M196.7,340.3v-13.5h2v1.9c0.4-0.7,1-1.2,1.7-1.6s1.5-0.6,2.4-0.6c1,0,1.8,0.2,2.5,0.6s1.1,1,1.4,1.7
			c1.1-1.6,2.4-2.4,4.2-2.4c1.3,0,2.4,0.4,3.1,1.1s1.1,1.9,1.1,3.4v9.3h-2.3v-8.5c0-0.9-0.1-1.6-0.2-2s-0.4-0.7-0.8-1
			s-0.9-0.4-1.4-0.4c-0.9,0-1.7,0.3-2.4,1s-0.9,1.6-0.9,3v7.8h-2.3v-8.8c0-1-0.2-1.8-0.6-2.3s-1-0.8-1.8-0.8c-0.6,0-1.2,0.2-1.8,0.5
			s-0.9,0.8-1.2,1.5s-0.4,1.6-0.4,2.8v7L196.7,340.3L196.7,340.3z"/>
		<path d="M217.5,336.3l2.3-0.4c0.1,0.9,0.5,1.6,1.1,2.1s1.4,0.7,2.4,0.7c1.1,0,1.8-0.2,2.3-0.6s0.8-0.9,0.8-1.5
			c0-0.5-0.2-0.9-0.7-1.2c-0.3-0.2-1.1-0.5-2.3-0.8c-1.7-0.4-2.8-0.8-3.5-1.1s-1.1-0.7-1.5-1.3s-0.5-1.1-0.5-1.8
			c0-0.6,0.1-1.2,0.4-1.7s0.6-0.9,1.1-1.3c0.4-0.3,0.8-0.5,1.4-0.7s1.3-0.3,2-0.3c1.1,0,2,0.1,2.8,0.5s1.4,0.7,1.8,1.2
			s0.6,1.2,0.8,2.1l-2.2,0.3c-0.1-0.7-0.4-1.2-0.9-1.6s-1.2-0.6-2.1-0.6c-1.1,0-1.8,0.2-2.3,0.5s-0.7,0.8-0.7,1.2
			c0,0.3,0.1,0.6,0.3,0.8c0.2,0.3,0.5,0.5,0.9,0.6c0.2,0.1,0.9,0.3,2,0.6c1.6,0.4,2.7,0.8,3.4,1.1s1.1,0.7,1.5,1.2s0.6,1.2,0.6,2
			s-0.2,1.5-0.7,2.1s-1.1,1.2-1.9,1.6s-1.8,0.5-2.8,0.5c-1.8,0-3.1-0.4-4-1.1S217.7,337.7,217.5,336.3z"/>
		<path d="M239.2,329.5v-2.6h2.6v2.6H239.2z M239.2,340.3v-2.6h2.6v2.6H239.2z"/>
	</g>
	<g>
		<path d="M127.8,377.9v-18.6h2.5l9.8,14.6v-14.6h2.4v18.6H140l-9.8-14.6v14.6H127.8z"/>
		<path d="M155.5,373.5l2.4,0.3c-0.4,1.4-1.1,2.5-2.1,3.2s-2.3,1.1-3.9,1.1c-2,0-3.5-0.6-4.7-1.8s-1.7-2.9-1.7-5.1
			c0-2.3,0.6-4,1.8-5.3s2.7-1.9,4.5-1.9s3.3,0.6,4.4,1.8s1.7,3,1.7,5.2c0,0.1,0,0.3,0,0.6h-10.1c0.1,1.5,0.5,2.6,1.3,3.4
			s1.7,1.2,2.8,1.2c0.8,0,1.6-0.2,2.1-0.7S155.2,374.5,155.5,373.5z M148,369.8h7.5c-0.1-1.1-0.4-2-0.9-2.5
			c-0.7-0.9-1.7-1.3-2.8-1.3s-1.9,0.4-2.6,1S148.1,368.6,148,369.8z M150.5,362.7l1.7-3.5h3l-2.8,3.5H150.5z"/>
		<path d="M165.1,383.3c-1.3-1.6-2.3-3.5-3.2-5.6s-1.3-4.3-1.3-6.6c0-2,0.3-3.9,1-5.8c0.8-2.1,1.9-4.3,3.5-6.4h1.6
			c-1,1.8-1.7,3-2,3.8c-0.5,1.2-0.9,2.4-1.2,3.7c-0.4,1.6-0.6,3.2-0.6,4.8c0,4.1,1.3,8.1,3.8,12.2L165.1,383.3L165.1,383.3z"/>
		<path d="M178.6,373.5l2.4,0.3c-0.4,1.4-1.1,2.5-2.1,3.2s-2.3,1.1-3.9,1.1c-2,0-3.5-0.6-4.7-1.8s-1.7-2.9-1.7-5.1
			c0-2.3,0.6-4,1.8-5.3s2.7-1.9,4.5-1.9s3.3,0.6,4.4,1.8s1.7,3,1.7,5.2c0,0.1,0,0.3,0,0.6h-10c0.1,1.5,0.5,2.6,1.3,3.4
			s1.7,1.2,2.8,1.2c0.8,0,1.6-0.2,2.1-0.7S178.3,374.5,178.6,373.5z M171.1,369.8h7.5c-0.1-1.1-0.4-2-0.9-2.5
			c-0.7-0.9-1.7-1.3-2.8-1.3s-1.9,0.4-2.6,1S171.2,368.6,171.1,369.8z"/>
		<path d="M185.4,383.3h-1.6c2.5-4.1,3.8-8.1,3.8-12.2c0-1.6-0.2-3.2-0.6-4.7c-0.3-1.3-0.7-2.5-1.2-3.7c-0.3-0.8-1-2-2-3.8h1.6
			c1.6,2.1,2.8,4.3,3.5,6.4c0.6,1.9,1,3.8,1,5.8c0,2.3-0.4,4.5-1.3,6.6S186.6,381.7,185.4,383.3z"/>
		<path d="M199.7,377.9v-18.6h2.3v18.6H199.7z"/>
		<path d="M214.8,373.5l2.4,0.3c-0.4,1.4-1.1,2.5-2.1,3.2s-2.3,1.1-3.9,1.1c-2,0-3.5-0.6-4.7-1.8s-1.7-2.9-1.7-5.1
			c0-2.3,0.6-4,1.8-5.3s2.7-1.9,4.5-1.9s3.3,0.6,4.4,1.8s1.7,3,1.7,5.2c0,0.1,0,0.3,0,0.6h-10.1c0.1,1.5,0.5,2.6,1.3,3.4
			s1.7,1.2,2.8,1.2c0.8,0,1.6-0.2,2.1-0.7S214.4,374.5,214.8,373.5z M207.3,369.8h7.5c-0.1-1.1-0.4-2-0.9-2.5
			c-0.7-0.9-1.7-1.3-2.8-1.3s-1.9,0.4-2.6,1S207.3,368.6,207.3,369.8z"/>
		<path d="M227.8,367v-2.6h2.6v2.6H227.8z M227.8,377.9v-2.6h2.6v2.6H227.8z"/>
	</g>
	<g>
		<path d="M127.8,416.1v-18.6h7c1.2,0,2.2,0.1,2.8,0.2c0.9,0.1,1.7,0.4,2.3,0.9s1.1,1,1.5,1.8s0.6,1.6,0.6,2.5c0,1.6-0.5,2.9-1.5,4
			s-2.8,1.6-5.5,1.6h-4.8v7.6H127.8L127.8,416.1z M130.3,406.4h4.8c1.6,0,2.7-0.3,3.4-0.9s1-1.4,1-2.5c0-0.8-0.2-1.5-0.6-2
			s-0.9-0.9-1.6-1.1c-0.4-0.1-1.2-0.2-2.3-0.2h-4.8L130.3,406.4L130.3,406.4z"/>
		<path d="M154.1,411.8l2.4,0.3c-0.4,1.4-1.1,2.5-2.1,3.2s-2.3,1.1-3.9,1.1c-2,0-3.5-0.6-4.7-1.8s-1.7-2.9-1.7-5.1
			c0-2.3,0.6-4,1.8-5.3s2.7-1.9,4.5-1.9s3.3,0.6,4.4,1.8s1.7,3,1.7,5.2c0,0.1,0,0.3,0,0.6h-10.1c0.1,1.5,0.5,2.6,1.3,3.4
			s1.7,1.2,2.8,1.2c0.8,0,1.6-0.2,2.1-0.7S153.7,412.8,154.1,411.8z M146.6,408.1h7.5c-0.1-1.1-0.4-2-0.9-2.5
			c-0.7-0.9-1.7-1.3-2.8-1.3s-1.9,0.4-2.6,1S146.7,406.9,146.6,408.1z M151.9,401H150l-2.9-3.5h3.1L151.9,401z"/>
		<path d="M159.3,416.1v-13.5h2.1v2c0.5-1,1-1.6,1.4-1.9s0.9-0.5,1.5-0.5c0.8,0,1.6,0.3,2.4,0.7l-0.8,2.1c-0.6-0.3-1.1-0.5-1.7-0.5
			c-0.5,0-0.9,0.1-1.4,0.5s-0.7,0.7-0.9,1.3c-0.3,0.8-0.4,1.7-0.4,2.7v7.1L159.3,416.1L159.3,416.1z"/>
		<path d="M177.2,411.8l2.4,0.3c-0.4,1.4-1.1,2.5-2.1,3.2s-2.3,1.1-3.9,1.1c-2,0-3.5-0.6-4.7-1.8s-1.7-2.9-1.7-5.1
			c0-2.3,0.6-4,1.8-5.3s2.7-1.9,4.5-1.9s3.3,0.6,4.4,1.8s1.7,3,1.7,5.2c0,0.1,0,0.3,0,0.6h-10.1c0.1,1.5,0.5,2.6,1.3,3.4
			s1.7,1.2,2.8,1.2c0.8,0,1.6-0.2,2.1-0.7S176.9,412.8,177.2,411.8z M169.7,408.1h7.5c-0.1-1.1-0.4-2-0.9-2.5
			c-0.7-0.9-1.7-1.3-2.8-1.3s-1.9,0.4-2.6,1S169.8,406.9,169.7,408.1z"/>
		<path d="M190.3,405.3v-2.6h2.6v2.6H190.3z M190.3,416.1v-2.6h2.6v2.6H190.3z"/>
	</g>
	<g>
		<path d="M127.7,451.7V433h3.7l4.4,13.2c0.4,1.2,0.7,2.1,0.9,2.8c0.2-0.7,0.5-1.7,1-3l4.5-13h3.3v18.6h-2.4V436l-5.4,15.6h-2.2
			l-5.4-15.8v15.8L127.7,451.7L127.7,451.7z"/>
		<path d="M158.4,447.3l2.4,0.3c-0.4,1.4-1.1,2.5-2.1,3.2s-2.3,1.1-3.9,1.1c-2,0-3.5-0.6-4.7-1.8c-1.2-1.2-1.7-2.9-1.7-5.1
			c0-2.3,0.6-4,1.8-5.3s2.7-1.9,4.5-1.9s3.3,0.6,4.4,1.8s1.7,3,1.7,5.2c0,0.1,0,0.3,0,0.6h-10.1c0.1,1.5,0.5,2.6,1.3,3.4
			s1.7,1.2,2.8,1.2c0.8,0,1.6-0.2,2.1-0.7C157.6,449,158.1,448.3,158.4,447.3z M150.9,443.6h7.5c-0.1-1.1-0.4-2-0.9-2.5
			c-0.7-0.9-1.7-1.3-2.8-1.3s-1.9,0.4-2.6,1C151.4,441.5,151,442.5,150.9,443.6z M156.2,436.5h-1.8l-2.9-3.5h3.1L156.2,436.5z"/>
		<path d="M163.6,451.7v-13.5h2.1v2c0.5-1,1-1.6,1.4-1.9s0.9-0.5,1.5-0.5c0.8,0,1.6,0.3,2.4,0.7l-0.8,2.1c-0.6-0.3-1.1-0.5-1.7-0.5
			c-0.5,0-0.9,0.1-1.4,0.5c-0.4,0.3-0.7,0.7-0.9,1.3c-0.3,0.8-0.4,1.7-0.4,2.7v7.1L163.6,451.7L163.6,451.7z"/>
		<path d="M181.5,447.3l2.4,0.3c-0.4,1.4-1.1,2.5-2.1,3.2s-2.3,1.1-3.9,1.1c-2,0-3.5-0.6-4.7-1.8c-1.2-1.2-1.7-2.9-1.7-5.1
			c0-2.3,0.6-4,1.8-5.3s2.7-1.9,4.5-1.9s3.3,0.6,4.4,1.8s1.7,3,1.7,5.2c0,0.1,0,0.3,0,0.6h-10.1c0.1,1.5,0.5,2.6,1.3,3.4
			s1.7,1.2,2.8,1.2c0.8,0,1.6-0.2,2.1-0.7C180.7,449,181.2,448.3,181.5,447.3z M174,443.6h7.5c-0.1-1.1-0.4-2-0.9-2.5
			c-0.7-0.9-1.7-1.3-2.8-1.3s-1.9,0.4-2.6,1C174.5,441.5,174.1,442.5,174,443.6z"/>
		<path d="M194.6,440.8v-2.6h2.6v2.6H194.6z M194.6,451.7v-2.6h2.6v2.6H194.6z"/>
	</g>
	<g>
		<path d="M127.8,486.4v-18.6h7c1.2,0,2.2,0.1,2.8,0.2c0.9,0.1,1.7,0.4,2.3,0.9c0.6,0.4,1.1,1,1.5,1.8s0.6,1.6,0.6,2.5
			c0,1.6-0.5,2.9-1.5,4s-2.8,1.6-5.5,1.6h-4.8v7.6H127.8L127.8,486.4z M130.3,476.6h4.8c1.6,0,2.7-0.3,3.4-0.9s1-1.4,1-2.5
			c0-0.8-0.2-1.5-0.6-2s-0.9-0.9-1.6-1.1c-0.4-0.1-1.2-0.2-2.3-0.2h-4.8L130.3,476.6L130.3,476.6z"/>
		<path d="M153.6,484.7c-0.9,0.7-1.7,1.2-2.4,1.5c-0.8,0.3-1.6,0.4-2.5,0.4c-1.5,0-2.6-0.4-3.4-1.1s-1.2-1.6-1.2-2.8
			c0-0.7,0.1-1.3,0.4-1.8s0.7-1,1.2-1.3s1-0.6,1.6-0.8c0.4-0.1,1.1-0.2,2-0.3c1.9-0.2,3.2-0.5,4.1-0.8c0-0.3,0-0.5,0-0.6
			c0-0.9-0.2-1.6-0.6-2c-0.6-0.5-1.4-0.8-2.6-0.8c-1.1,0-1.9,0.2-2.4,0.6s-0.9,1-1.1,2l-2.2-0.3c0.2-1,0.5-1.7,1-2.3
			c0.5-0.6,1.1-1,2-1.4s1.9-0.5,3.1-0.5c1.1,0,2.1,0.1,2.8,0.4s1.3,0.6,1.6,1s0.6,0.9,0.7,1.6c0.1,0.4,0.1,1.1,0.1,2.1v3
			c0,2.1,0.1,3.5,0.1,4c0.1,0.6,0.3,1.1,0.6,1.6h-2.4C153.9,485.9,153.7,485.3,153.6,484.7z M153.5,479.6c-0.8,0.3-2.1,0.6-3.7,0.9
			c-0.9,0.1-1.6,0.3-2,0.5s-0.7,0.4-0.9,0.7c-0.2,0.3-0.3,0.7-0.3,1.1c0,0.6,0.2,1.1,0.7,1.5s1.1,0.6,2,0.6s1.7-0.2,2.4-0.6
			s1.2-0.9,1.5-1.6c0.3-0.5,0.4-1.3,0.4-2.3L153.5,479.6L153.5,479.6z"/>
		<path d="M158.4,482.3l2.3-0.4c0.1,0.9,0.5,1.6,1.1,2.1s1.4,0.7,2.4,0.7c1.1,0,1.8-0.2,2.3-0.6s0.8-0.9,0.8-1.5
			c0-0.5-0.2-0.9-0.7-1.2c-0.3-0.2-1.1-0.5-2.3-0.8c-1.7-0.4-2.8-0.8-3.5-1.1c-0.6-0.3-1.1-0.7-1.5-1.3s-0.5-1.1-0.5-1.8
			c0-0.6,0.1-1.2,0.4-1.7s0.6-0.9,1.1-1.3c0.4-0.3,0.8-0.5,1.4-0.7c0.6-0.2,1.3-0.3,2-0.3c1.1,0,2,0.1,2.8,0.5s1.4,0.7,1.8,1.2
			s0.6,1.2,0.8,2.1l-2.2,0.3c-0.1-0.7-0.4-1.2-0.9-1.6s-1.2-0.6-2.1-0.6c-1.1,0-1.8,0.2-2.3,0.5c-0.4,0.4-0.7,0.8-0.7,1.2
			c0,0.3,0.1,0.6,0.3,0.8c0.2,0.3,0.5,0.5,0.9,0.6c0.2,0.1,0.9,0.3,2,0.6c1.6,0.4,2.7,0.8,3.4,1.1c0.6,0.3,1.1,0.7,1.5,1.2
			s0.6,1.2,0.6,2s-0.2,1.5-0.7,2.1s-1.1,1.2-1.9,1.6s-1.8,0.5-2.8,0.5c-1.8,0-3.1-0.4-4-1.1C159.2,484.8,158.6,483.8,158.4,482.3z"
			/>
		<path d="M171.4,482.3l2.3-0.4c0.1,0.9,0.5,1.6,1.1,2.1s1.4,0.7,2.4,0.7c1.1,0,1.8-0.2,2.3-0.6s0.8-0.9,0.8-1.5
			c0-0.5-0.2-0.9-0.7-1.2c-0.3-0.2-1.1-0.5-2.3-0.8c-1.7-0.4-2.8-0.8-3.5-1.1c-0.6-0.3-1.1-0.7-1.5-1.3s-0.5-1.1-0.5-1.8
			c0-0.6,0.1-1.2,0.4-1.7s0.6-0.9,1.1-1.3c0.4-0.3,0.8-0.5,1.4-0.7c0.6-0.2,1.3-0.3,2-0.3c1.1,0,2,0.1,2.8,0.5s1.4,0.7,1.8,1.2
			s0.6,1.2,0.8,2.1l-2.2,0.3c-0.1-0.7-0.4-1.2-0.9-1.6s-1.2-0.6-2.1-0.6c-1.1,0-1.8,0.2-2.3,0.5c-0.4,0.4-0.7,0.8-0.7,1.2
			c0,0.3,0.1,0.6,0.3,0.8c0.2,0.3,0.5,0.5,0.9,0.6c0.2,0.1,0.9,0.3,2,0.6c1.6,0.4,2.7,0.8,3.4,1.1c0.6,0.3,1.1,0.7,1.5,1.2
			s0.6,1.2,0.6,2s-0.2,1.5-0.7,2.1s-1.1,1.2-1.9,1.6s-1.8,0.5-2.8,0.5c-1.8,0-3.1-0.4-4-1.1C172.2,484.8,171.6,483.8,171.4,482.3z"
			/>
		<path d="M194.5,482l2.4,0.3c-0.4,1.4-1.1,2.5-2.1,3.2s-2.3,1.1-3.9,1.1c-2,0-3.5-0.6-4.7-1.8c-1.2-1.2-1.7-2.9-1.7-5.1
			c0-2.3,0.6-4,1.8-5.3s2.7-1.9,4.5-1.9s3.3,0.6,4.4,1.8s1.7,3,1.7,5.2c0,0.1,0,0.3,0,0.6h-10.1c0.1,1.5,0.5,2.6,1.3,3.4
			s1.7,1.2,2.8,1.2c0.8,0,1.6-0.2,2.1-0.7C193.7,483.7,194.2,483,194.5,482z M187,478.3h7.5c-0.1-1.1-0.4-2-0.9-2.5
			c-0.7-0.9-1.7-1.3-2.8-1.3s-1.9,0.4-2.6,1C187.5,476.2,187.1,477.1,187,478.3z"/>
		<path d="M199.8,491.5v-18.6h2.1v1.8c0.5-0.7,1.1-1.2,1.7-1.5s1.4-0.5,2.3-0.5c1.1,0,2.2,0.3,3.1,0.9c0.9,0.6,1.5,1.4,2,2.5
			s0.7,2.3,0.7,3.5c0,1.4-0.3,2.6-0.7,3.7s-1.2,2-2.2,2.5c-0.9,0.6-1.9,0.9-3,0.9c-0.8,0-1.4-0.2-2.1-0.5s-1.1-0.7-1.5-1.2v6.6
			L199.8,491.5L199.8,491.5z M201.8,479.7c0,1.7,0.4,3,1.1,3.9c0.7,0.8,1.6,1.2,2.6,1.2s1.9-0.4,2.6-1.3c0.7-0.9,1.1-2.2,1.1-4
			c0-1.7-0.4-3-1.1-3.9c-0.7-0.9-1.6-1.3-2.5-1.3c-1,0-1.8,0.5-2.6,1.4C202.2,476.6,201.8,478,201.8,479.7z"/>
		<path d="M213.4,479.6c0-2.5,0.7-4.4,2.1-5.5c1.2-1,2.6-1.5,4.2-1.5c1.9,0,3.4,0.6,4.5,1.8c1.2,1.2,1.8,2.9,1.8,5
			c0,1.7-0.3,3.1-0.8,4.1s-1.3,1.8-2.3,2.3s-2.1,0.8-3.3,0.8c-1.9,0-3.4-0.6-4.6-1.8C214,483.6,213.4,481.9,213.4,479.6z
			 M215.7,479.6c0,1.7,0.4,3,1.1,3.9c0.8,0.9,1.7,1.3,2.8,1.3s2.1-0.4,2.8-1.3s1.1-2.2,1.1-4c0-1.7-0.4-2.9-1.1-3.8
			c-0.8-0.9-1.7-1.3-2.8-1.3s-2.1,0.4-2.8,1.3S215.7,477.9,215.7,479.6z"/>
		<path d="M228.7,486.4v-13.5h2.1v2c0.5-1,1-1.6,1.4-1.9s0.9-0.5,1.5-0.5c0.8,0,1.6,0.3,2.4,0.7l-0.8,2.1c-0.6-0.3-1.1-0.5-1.7-0.5
			c-0.5,0-0.9,0.1-1.4,0.5c-0.4,0.3-0.7,0.7-0.9,1.3c-0.3,0.8-0.4,1.7-0.4,2.7v7.1L228.7,486.4L228.7,486.4z"/>
		<path d="M242.3,484.3l0.3,2c-0.6,0.1-1.2,0.2-1.7,0.2c-0.8,0-1.5-0.1-1.9-0.4c-0.5-0.3-0.8-0.6-1-1s-0.3-1.3-0.3-2.7v-7.8H236
			v-1.8h1.7v-3.3l2.3-1.4v4.7h2.3v1.8H240v7.9c0,0.6,0,1.1,0.1,1.3s0.2,0.3,0.4,0.4s0.4,0.2,0.8,0.2
			C241.6,484.4,241.9,484.4,242.3,484.3z"/>
		<path d="M250.1,486.7l5.4-19.3h1.8l-5.4,19.3H250.1z"/>
		<path d="M279.8,479.8l2.5,0.6c-0.5,2-1.5,3.6-2.8,4.6s-3,1.6-4.9,1.6c-2,0-3.6-0.4-4.9-1.2c-1.3-0.8-2.2-2-2.9-3.5s-1-3.2-1-5
			c0-1.9,0.4-3.6,1.1-5.1s1.8-2.5,3.2-3.3s2.9-1.1,4.5-1.1c1.9,0,3.4,0.5,4.7,1.4c1.3,1,2.1,2.3,2.6,4l-2.4,0.6
			c-0.4-1.4-1.1-2.3-1.9-3s-1.9-0.9-3.1-0.9c-1.4,0-2.6,0.3-3.6,1s-1.6,1.6-2,2.8s-0.6,2.4-0.6,3.6c0,1.6,0.2,3,0.7,4.1
			s1.2,2.1,2.1,2.6s2,0.9,3.2,0.9c1.4,0,2.5-0.4,3.5-1.2C278.8,482.6,279.5,481.4,279.8,479.8z"/>
		<path d="M293.8,484.7c-0.9,0.7-1.7,1.2-2.4,1.5c-0.8,0.3-1.6,0.4-2.5,0.4c-1.5,0-2.6-0.4-3.4-1.1s-1.2-1.6-1.2-2.8
			c0-0.7,0.1-1.3,0.5-1.8s0.7-1,1.2-1.3s1-0.6,1.6-0.8c0.5-0.1,1.1-0.2,2-0.3c1.9-0.2,3.2-0.5,4.1-0.8c0-0.3,0-0.5,0-0.6
			c0-0.9-0.2-1.6-0.6-2c-0.6-0.5-1.5-0.8-2.6-0.8s-1.9,0.2-2.4,0.6s-0.9,1-1.1,2l-2.2-0.3c0.2-1,0.5-1.7,1-2.3c0.5-0.6,1.1-1,2-1.4
			s1.9-0.5,3.1-0.5c1.1,0,2.1,0.1,2.8,0.4c0.7,0.3,1.3,0.6,1.6,1s0.6,0.9,0.7,1.6c0.1,0.4,0.1,1.1,0.1,2.1v3c0,2.1,0,3.5,0.1,4
			s0.3,1.1,0.6,1.6h-2.4C294,485.9,293.9,485.3,293.8,484.7z M293.6,479.6c-0.8,0.3-2.1,0.6-3.7,0.9c-0.9,0.1-1.6,0.3-2,0.5
			s-0.7,0.4-0.9,0.7c-0.2,0.3-0.3,0.7-0.3,1.1c0,0.6,0.2,1.1,0.7,1.5s1.1,0.6,2,0.6s1.7-0.2,2.4-0.6c0.7-0.4,1.2-0.9,1.5-1.6
			c0.3-0.5,0.4-1.3,0.4-2.3v-0.8H293.6z"/>
		<path d="M299.5,486.4v-13.5h2.1v2c0.5-1,1-1.6,1.5-1.9s0.9-0.5,1.5-0.5c0.8,0,1.5,0.3,2.4,0.7l-0.8,2.1c-0.6-0.3-1.1-0.5-1.7-0.5
			c-0.5,0-1,0.1-1.4,0.5c-0.4,0.3-0.7,0.7-0.9,1.3c-0.3,0.8-0.4,1.7-0.4,2.7v7.1L299.5,486.4L299.5,486.4z"/>
		<path d="M313.1,484.3l0.3,2c-0.6,0.1-1.2,0.2-1.7,0.2c-0.8,0-1.5-0.1-1.9-0.4s-0.8-0.6-1-1s-0.3-1.3-0.3-2.7v-7.8h-1.7v-1.8h1.7
			v-3.3l2.3-1.4v4.7h2.3v1.8h-2.3v7.9c0,0.6,0,1.1,0.1,1.3s0.2,0.3,0.4,0.4c0.2,0.1,0.4,0.2,0.8,0.2
			C312.4,484.4,312.7,484.4,313.1,484.3z"/>
		<path d="M324.6,482l2.4,0.3c-0.4,1.4-1.1,2.5-2.1,3.2s-2.3,1.1-3.9,1.1c-2,0-3.5-0.6-4.7-1.8c-1.2-1.2-1.7-2.9-1.7-5.1
			c0-2.3,0.6-4,1.8-5.3s2.7-1.9,4.5-1.9s3.3,0.6,4.4,1.8s1.7,3,1.7,5.2c0,0.1,0,0.3,0,0.6h-10c0.1,1.5,0.5,2.6,1.3,3.4
			s1.7,1.2,2.8,1.2c0.8,0,1.5-0.2,2.1-0.7C323.8,483.7,324.3,483,324.6,482z M317.1,478.3h7.5c-0.1-1.1-0.4-2-0.9-2.5
			c-0.7-0.9-1.7-1.3-2.8-1.3c-1,0-1.9,0.4-2.6,1C317.6,476.2,317.2,477.1,317.1,478.3z"/>
		<path d="M345.9,481.4l2.3,0.3c-0.3,1.5-0.9,2.8-1.9,3.6c-1,0.9-2.3,1.3-3.7,1.3c-1.8,0-3.3-0.6-4.5-1.8c-1.1-1.2-1.7-2.9-1.7-5.2
			c0-1.5,0.2-2.7,0.7-3.8s1.2-1.9,2.2-2.5c1-0.5,2.1-0.8,3.2-0.8c1.5,0,2.7,0.4,3.6,1.1s1.5,1.8,1.8,3.2l-2.2,0.3
			c-0.2-0.9-0.6-1.6-1.1-2c-0.5-0.5-1.2-0.7-2-0.7c-1.1,0-2.1,0.4-2.8,1.2s-1.1,2.1-1.1,3.9s0.4,3.1,1,4s1.6,1.2,2.7,1.2
			c0.9,0,1.6-0.3,2.3-0.8C345.3,483.4,345.7,482.5,345.9,481.4z"/>
		<path d="M349.2,479.6c0-2.5,0.7-4.4,2.1-5.5c1.2-1,2.6-1.5,4.2-1.5c1.9,0,3.4,0.6,4.5,1.8c1.2,1.2,1.8,2.9,1.8,5
			c0,1.7-0.3,3.1-0.8,4.1s-1.3,1.8-2.3,2.3s-2.1,0.8-3.3,0.8c-1.9,0-3.4-0.6-4.6-1.8C349.8,483.6,349.2,481.9,349.2,479.6z
			 M351.5,479.6c0,1.7,0.4,3,1.1,3.9c0.8,0.9,1.7,1.3,2.8,1.3c1.1,0,2.1-0.4,2.8-1.3s1.1-2.2,1.1-4c0-1.7-0.4-2.9-1.1-3.8
			c-0.8-0.9-1.7-1.3-2.8-1.3c-1.1,0-2.1,0.4-2.8,1.3C351.9,476.6,351.5,477.9,351.5,479.6z"/>
		<path d="M364.5,486.4v-13.5h2.1v1.9c1-1.5,2.4-2.2,4.3-2.2c0.8,0,1.6,0.1,2.2,0.4s1.2,0.7,1.5,1.1c0.3,0.5,0.6,1,0.7,1.7
			c0.1,0.4,0.1,1.2,0.1,2.2v8.3h-2.3v-8.2c0-0.9-0.1-1.6-0.3-2.1s-0.5-0.8-1-1.1c-0.5-0.3-1-0.4-1.6-0.4c-1,0-1.8,0.3-2.5,0.9
			s-1.1,1.8-1.1,3.5v7.4L364.5,486.4L364.5,486.4z"/>
		<path d="M378,482.3l2.3-0.4c0.1,0.9,0.5,1.6,1.1,2.1s1.4,0.7,2.4,0.7s1.8-0.2,2.3-0.6s0.8-0.9,0.8-1.5c0-0.5-0.2-0.9-0.7-1.2
			c-0.3-0.2-1.1-0.5-2.3-0.8c-1.7-0.4-2.8-0.8-3.5-1.1s-1.1-0.7-1.5-1.3c-0.3-0.5-0.5-1.1-0.5-1.8c0-0.6,0.1-1.2,0.4-1.7
			s0.6-0.9,1.1-1.3c0.4-0.3,0.8-0.5,1.5-0.7c0.6-0.2,1.3-0.3,2-0.3c1.1,0,2,0.1,2.8,0.5c0.8,0.3,1.4,0.7,1.8,1.2s0.6,1.2,0.8,2.1
			l-2.2,0.3c-0.1-0.7-0.4-1.2-0.9-1.6s-1.2-0.6-2.1-0.6c-1,0-1.8,0.2-2.3,0.5c-0.5,0.4-0.7,0.8-0.7,1.2c0,0.3,0.1,0.6,0.3,0.8
			c0.2,0.3,0.5,0.5,0.9,0.6c0.2,0.1,0.9,0.3,2,0.6c1.6,0.4,2.7,0.8,3.4,1.1c0.6,0.3,1.1,0.7,1.5,1.2s0.5,1.2,0.5,2s-0.2,1.5-0.7,2.1
			c-0.4,0.7-1.1,1.2-1.9,1.6s-1.8,0.5-2.8,0.5c-1.8,0-3.1-0.4-4-1.1C378.9,484.8,378.3,483.8,378,482.3z"/>
		<path d="M400.8,486.4v-2c-1,1.5-2.5,2.3-4.3,2.3c-0.8,0-1.5-0.1-2.2-0.5c-0.7-0.3-1.2-0.7-1.5-1.1c-0.3-0.5-0.6-1-0.7-1.7
			c-0.1-0.5-0.1-1.2-0.1-2.1v-8.4h2.3v7.5c0,1.2,0,2,0.1,2.4c0.1,0.6,0.5,1.1,0.9,1.4s1,0.5,1.7,0.5s1.3-0.2,1.9-0.5s1-0.8,1.3-1.4
			s0.4-1.5,0.4-2.6V473h2.3v13.5L400.8,486.4L400.8,486.4z"/>
		<path d="M406.4,486.4v-18.6h2.3v18.6H406.4L406.4,486.4z"/>
		<path d="M421,484.7c-0.9,0.7-1.7,1.2-2.4,1.5c-0.8,0.3-1.6,0.4-2.5,0.4c-1.5,0-2.6-0.4-3.4-1.1s-1.2-1.6-1.2-2.8
			c0-0.7,0.1-1.3,0.5-1.8c0.3-0.5,0.7-1,1.2-1.3s1-0.6,1.6-0.8c0.5-0.1,1.1-0.2,2-0.3c1.8-0.2,3.2-0.5,4.1-0.8c0-0.3,0-0.5,0-0.6
			c0-0.9-0.2-1.6-0.6-2c-0.6-0.5-1.5-0.8-2.6-0.8s-1.9,0.2-2.4,0.6s-0.9,1-1.1,2l-2.2-0.3c0.2-1,0.5-1.7,1-2.3c0.5-0.6,1.1-1,2-1.4
			s1.9-0.5,3.1-0.5c1.1,0,2.1,0.1,2.8,0.4c0.7,0.3,1.3,0.6,1.6,1s0.6,0.9,0.7,1.6c0.1,0.4,0.1,1.1,0.1,2.1v3c0,2.1,0,3.5,0.1,4
			s0.3,1.1,0.6,1.6h-2.4C421.2,485.9,421.1,485.3,421,484.7z M420.8,479.6c-0.8,0.3-2.1,0.6-3.7,0.9c-0.9,0.1-1.6,0.3-2,0.5
			s-0.7,0.4-0.9,0.7c-0.2,0.3-0.3,0.7-0.3,1.1c0,0.6,0.2,1.1,0.7,1.5s1.1,0.6,2,0.6s1.7-0.2,2.4-0.6c0.7-0.4,1.2-0.9,1.5-1.6
			c0.3-0.5,0.4-1.3,0.4-2.3L420.8,479.6L420.8,479.6z"/>
		<path d="M426.7,470.4v-2.6h2.3v2.6H426.7z M426.7,486.4v-13.5h2.3v13.5H426.7z"/>
		<path d="M432.4,486.4v-13.5h2.1v2c0.5-1,1-1.6,1.5-1.9c0.4-0.3,0.9-0.5,1.5-0.5c0.8,0,1.5,0.3,2.4,0.7l-0.8,2.1
			c-0.6-0.3-1.1-0.5-1.7-0.5c-0.5,0-1,0.1-1.4,0.5c-0.4,0.3-0.7,0.7-0.9,1.3c-0.3,0.8-0.4,1.7-0.4,2.7v7.1L432.4,486.4L432.4,486.4z
			"/>
		<path d="M450.3,482l2.4,0.3c-0.4,1.4-1.1,2.5-2.1,3.2s-2.3,1.1-3.9,1.1c-2,0-3.5-0.6-4.7-1.8c-1.2-1.2-1.7-2.9-1.7-5.1
			c0-2.3,0.6-4,1.8-5.3s2.7-1.9,4.5-1.9s3.3,0.6,4.4,1.8s1.7,3,1.7,5.2c0,0.1,0,0.3,0,0.6h-10c0.1,1.5,0.5,2.6,1.3,3.4
			s1.7,1.2,2.8,1.2c0.8,0,1.5-0.2,2.1-0.7C449.5,483.7,450,483,450.3,482z M442.8,478.3h7.5c-0.1-1.1-0.4-2-0.9-2.5
			c-0.7-0.9-1.7-1.3-2.8-1.3c-1,0-1.9,0.4-2.6,1C443.3,476.2,442.9,477.1,442.8,478.3z"/>
		<path d="M463.4,475.5v-2.6h2.6v2.6H463.4z M463.4,486.4v-2.6h2.6v2.6H463.4z"/>
	</g>
	<g>
		<path d="M127.8,523.3v-18.6h2.5l9.8,14.6v-14.6h2.4v18.6H140l-9.8-14.6v14.6H127.8z"/>
		<path d="M155.1,521.7c-0.9,0.7-1.7,1.2-2.4,1.5c-0.8,0.3-1.6,0.4-2.5,0.4c-1.5,0-2.6-0.4-3.4-1.1s-1.2-1.7-1.2-2.8
			c0-0.7,0.1-1.3,0.4-1.8s0.7-1,1.2-1.3s1-0.6,1.6-0.8c0.4-0.1,1.1-0.2,2-0.3c1.9-0.2,3.2-0.5,4.1-0.8c0-0.3,0-0.5,0-0.6
			c0-0.9-0.2-1.6-0.6-2c-0.6-0.5-1.4-0.8-2.6-0.8c-1.1,0-1.9,0.2-2.4,0.6s-0.9,1-1.1,2l-2.2-0.3c0.2-1,0.5-1.7,1-2.3
			c0.5-0.6,1.1-1,2-1.4s1.9-0.5,3.1-0.5c1.1,0,2.1,0.1,2.8,0.4s1.3,0.6,1.6,1s0.6,0.9,0.7,1.6c0.1,0.4,0.1,1.1,0.1,2.1v3
			c0,2.1,0.1,3.5,0.1,4c0.1,0.6,0.3,1.1,0.6,1.6h-2.4C155.3,522.8,155.1,522.3,155.1,521.7z M154.9,516.6c-0.8,0.3-2.1,0.6-3.7,0.9
			c-0.9,0.1-1.6,0.3-2,0.5s-0.7,0.4-0.9,0.7s-0.3,0.7-0.3,1.1c0,0.6,0.2,1.1,0.7,1.5s1.1,0.6,2,0.6s1.7-0.2,2.4-0.6
			c0.7-0.4,1.2-0.9,1.5-1.6c0.3-0.5,0.4-1.3,0.4-2.3L154.9,516.6L154.9,516.6z"/>
		<path d="M165.7,521.3l0.3,2c-0.6,0.1-1.2,0.2-1.7,0.2c-0.8,0-1.5-0.1-1.9-0.4c-0.5-0.3-0.8-0.6-1-1s-0.3-1.3-0.3-2.7v-7.8h-1.7
			v-1.8h1.7v-3.3l2.3-1.4v4.7h2.3v1.8h-2.3v7.9c0,0.7,0,1.1,0.1,1.3s0.2,0.3,0.4,0.4s0.4,0.2,0.8,0.2
			C165,521.4,165.3,521.3,165.7,521.3z"/>
		<path d="M168,507.3v-2.6h2.3v2.6H168z M168,523.3v-13.5h2.3v13.5H168z"/>
		<path d="M172.9,516.6c0-2.5,0.7-4.3,2.1-5.5c1.2-1,2.6-1.5,4.2-1.5c1.9,0,3.4,0.6,4.5,1.8c1.2,1.2,1.8,2.9,1.8,5
			c0,1.7-0.3,3.1-0.8,4.1s-1.3,1.8-2.3,2.3s-2.1,0.8-3.3,0.8c-1.9,0-3.4-0.6-4.6-1.8C173.5,520.6,172.9,518.9,172.9,516.6z
			 M175.3,516.6c0,1.7,0.4,3,1.1,3.9s1.7,1.3,2.8,1.3s2.1-0.4,2.8-1.3s1.1-2.2,1.1-4c0-1.7-0.4-2.9-1.1-3.8s-1.7-1.3-2.8-1.3
			s-2.1,0.4-2.8,1.3C175.6,513.6,175.3,514.8,175.3,516.6z"/>
		<path d="M188.2,523.3v-13.5h2.1v1.9c1-1.5,2.4-2.2,4.3-2.2c0.8,0,1.6,0.1,2.2,0.4s1.2,0.7,1.5,1.1c0.3,0.5,0.6,1,0.7,1.7
			c0.1,0.4,0.1,1.2,0.1,2.2v8.3h-2.3V515c0-0.9-0.1-1.6-0.3-2.1s-0.5-0.8-0.9-1.1c-0.4-0.3-1-0.4-1.6-0.4c-1,0-1.8,0.3-2.5,0.9
			s-1.1,1.8-1.1,3.5v7.4L188.2,523.3L188.2,523.3z"/>
		<path d="M211.5,521.7c-0.9,0.7-1.7,1.2-2.4,1.5c-0.8,0.3-1.6,0.4-2.5,0.4c-1.5,0-2.6-0.4-3.4-1.1s-1.2-1.7-1.2-2.8
			c0-0.7,0.1-1.3,0.4-1.8s0.7-1,1.2-1.3s1-0.6,1.6-0.8c0.4-0.1,1.1-0.2,2-0.3c1.9-0.2,3.2-0.5,4.1-0.8c0-0.3,0-0.5,0-0.6
			c0-0.9-0.2-1.6-0.6-2c-0.6-0.5-1.4-0.8-2.6-0.8c-1.1,0-1.9,0.2-2.4,0.6s-0.9,1-1.1,2l-2.2-0.3c0.2-1,0.5-1.7,1-2.3
			c0.5-0.6,1.1-1,2-1.4s1.9-0.5,3.1-0.5c1.1,0,2.1,0.1,2.8,0.4s1.3,0.6,1.6,1s0.6,0.9,0.7,1.6c0.1,0.4,0.1,1.1,0.1,2.1v3
			c0,2.1,0.1,3.5,0.1,4c0.1,0.6,0.3,1.1,0.6,1.6H212C211.7,522.8,211.5,522.3,211.5,521.7z M211.3,516.6c-0.8,0.3-2.1,0.6-3.7,0.9
			c-0.9,0.1-1.6,0.3-2,0.5s-0.7,0.4-0.9,0.7s-0.3,0.7-0.3,1.1c0,0.6,0.2,1.1,0.7,1.5s1.1,0.6,2,0.6s1.7-0.2,2.4-0.6
			c0.7-0.4,1.2-0.9,1.5-1.6c0.3-0.5,0.4-1.3,0.4-2.3L211.3,516.6L211.3,516.6z"/>
		<path d="M217.1,523.3v-18.6h2.3v18.6H217.1z"/>
		<path d="M222.9,507.3v-2.6h2.3v2.6H222.9z M222.9,523.3v-13.5h2.3v13.5H222.9z"/>
		<path d="M233.7,521.3l0.3,2c-0.6,0.1-1.2,0.2-1.7,0.2c-0.8,0-1.5-0.1-1.9-0.4c-0.5-0.3-0.8-0.6-1-1s-0.3-1.3-0.3-2.7v-7.8h-1.7
			v-1.8h1.7v-3.3l2.3-1.4v4.7h2.3v1.8h-2.3v7.9c0,0.7,0,1.1,0.1,1.3s0.2,0.3,0.4,0.4s0.4,0.2,0.8,0.2
			C232.9,521.4,233.3,521.3,233.7,521.3z"/>
		<path d="M245.1,519l2.4,0.3c-0.4,1.4-1.1,2.5-2.1,3.2s-2.3,1.1-3.9,1.1c-2,0-3.5-0.6-4.7-1.8s-1.7-2.9-1.7-5.1
			c0-2.3,0.6-4,1.8-5.3s2.7-1.9,4.5-1.9s3.3,0.6,4.4,1.8c1.1,1.2,1.7,3,1.7,5.2c0,0.1,0,0.3,0,0.6h-10.1c0.1,1.5,0.5,2.6,1.3,3.4
			s1.7,1.2,2.8,1.2c0.8,0,1.6-0.2,2.1-0.7C244.3,520.7,244.8,520,245.1,519z M237.6,515.3h7.5c-0.1-1.1-0.4-2-0.9-2.5
			c-0.7-0.9-1.7-1.3-2.8-1.3s-1.9,0.4-2.6,1C238.1,513.2,237.7,514.1,237.6,515.3z M240.1,508.2l1.7-3.5h3l-2.8,3.5H240.1z"/>
		<path d="M255.9,523.6l5.4-19.3h1.8l-5.4,19.3H255.9z"/>
		<path d="M272.3,523.3v-18.6h7c1.2,0,2.2,0.1,2.8,0.2c0.9,0.1,1.7,0.4,2.3,0.9s1.1,1,1.5,1.8s0.6,1.6,0.6,2.5c0,1.6-0.5,2.9-1.5,4
			s-2.8,1.6-5.5,1.6h-4.8v7.6L272.3,523.3L272.3,523.3z M274.8,513.6h4.8c1.6,0,2.7-0.3,3.4-0.9s1-1.4,1-2.5c0-0.8-0.2-1.5-0.6-2
			s-0.9-0.9-1.6-1.1c-0.4-0.1-1.2-0.2-2.3-0.2h-4.8L274.8,513.6L274.8,513.6z"/>
		<path d="M298.2,521.7c-0.9,0.7-1.7,1.2-2.4,1.5c-0.8,0.3-1.6,0.4-2.5,0.4c-1.5,0-2.6-0.4-3.4-1.1s-1.2-1.7-1.2-2.8
			c0-0.7,0.1-1.3,0.5-1.8s0.7-1,1.2-1.3s1-0.6,1.6-0.8c0.5-0.1,1.1-0.2,2-0.3c1.9-0.2,3.2-0.5,4.1-0.8c0-0.3,0-0.5,0-0.6
			c0-0.9-0.2-1.6-0.6-2c-0.6-0.5-1.5-0.8-2.6-0.8s-1.9,0.2-2.4,0.6s-0.9,1-1.1,2l-2.2-0.3c0.2-1,0.5-1.7,1-2.3c0.5-0.6,1.1-1,2-1.4
			s1.9-0.5,3.1-0.5c1.1,0,2.1,0.1,2.8,0.4c0.7,0.3,1.3,0.6,1.6,1s0.6,0.9,0.7,1.6c0.1,0.4,0.1,1.1,0.1,2.1v3c0,2.1,0,3.5,0.1,4
			c0.1,0.6,0.3,1.1,0.6,1.6h-2.4C298.4,522.8,298.2,522.3,298.2,521.7z M298,516.6c-0.8,0.3-2.1,0.6-3.7,0.9c-0.9,0.1-1.6,0.3-2,0.5
			s-0.7,0.4-0.9,0.7c-0.2,0.3-0.3,0.7-0.3,1.1c0,0.6,0.2,1.1,0.7,1.5s1.1,0.6,2,0.6s1.7-0.2,2.4-0.6c0.7-0.4,1.2-0.9,1.5-1.6
			c0.3-0.5,0.4-1.3,0.4-2.3v-0.8H298z"/>
		<path d="M303.7,528.5l-0.3-2.2c0.5,0.1,0.9,0.2,1.3,0.2c0.5,0,0.9-0.1,1.2-0.3c0.3-0.2,0.5-0.4,0.8-0.7c0.1-0.2,0.4-0.8,0.7-1.7
			c0-0.1,0.1-0.3,0.2-0.6l-5.1-13.5h2.5l2.8,7.8c0.4,1,0.7,2,1,3.1c0.3-1,0.6-2.1,0.9-3.1l2.9-7.9h2.3l-5.1,13.7
			c-0.5,1.5-1,2.5-1.3,3.1c-0.4,0.8-0.9,1.3-1.4,1.7c-0.5,0.3-1.1,0.5-1.9,0.5C304.8,528.8,304.3,528.7,303.7,528.5z"/>
		<path d="M315.9,519.3l2.3-0.4c0.1,0.9,0.5,1.6,1.1,2.1s1.4,0.7,2.4,0.7s1.8-0.2,2.3-0.6s0.8-0.9,0.8-1.5c0-0.5-0.2-0.9-0.7-1.2
			c-0.3-0.2-1.1-0.5-2.3-0.8c-1.7-0.4-2.8-0.8-3.5-1.1s-1.1-0.7-1.5-1.3c-0.3-0.5-0.5-1.2-0.5-1.8s0.1-1.2,0.4-1.7s0.6-0.9,1.1-1.3
			c0.4-0.3,0.8-0.5,1.5-0.7c0.6-0.2,1.3-0.3,2-0.3c1.1,0,2,0.1,2.8,0.5c0.8,0.3,1.4,0.7,1.8,1.2s0.6,1.2,0.8,2.1l-2.2,0.3
			c-0.1-0.7-0.4-1.2-0.9-1.6s-1.2-0.6-2.1-0.6c-1,0-1.8,0.2-2.3,0.5s-0.7,0.8-0.7,1.2c0,0.3,0.1,0.6,0.3,0.8
			c0.2,0.3,0.5,0.5,0.9,0.6c0.2,0.1,0.9,0.3,2,0.6c1.6,0.4,2.7,0.8,3.4,1.1c0.6,0.3,1.1,0.7,1.5,1.2s0.5,1.2,0.5,2s-0.2,1.5-0.7,2.2
			c-0.4,0.7-1.1,1.2-1.9,1.6s-1.8,0.5-2.8,0.5c-1.8,0-3.1-0.4-4-1.1C316.8,521.8,316.2,520.7,315.9,519.3z"/>
		<path d="M345.8,523.3v-1.7c-0.9,1.3-2.1,2-3.8,2c-1.1,0-2.1-0.3-3-0.9s-1.6-1.4-2.1-2.5s-0.7-2.3-0.7-3.7c0-1.3,0.2-2.6,0.7-3.7
			c0.5-1.1,1.1-1.9,2-2.5s1.9-0.9,3-0.9c0.8,0,1.5,0.2,2.2,0.5s1.1,0.8,1.5,1.3v-6.7h2.3v18.6L345.8,523.3L345.8,523.3z
			 M338.6,516.6c0,1.7,0.4,3,1.1,3.9s1.6,1.3,2.6,1.3s1.9-0.4,2.5-1.2c0.7-0.8,1-2.1,1-3.7c0-1.8-0.4-3.2-1.1-4.1s-1.6-1.3-2.6-1.3
			s-1.9,0.4-2.5,1.2C338.9,513.5,338.6,514.8,338.6,516.6z"/>
		<path d="M351.4,507.2v-2.6h2.5v2.1c0,1.1-0.1,2-0.4,2.5c-0.4,0.7-0.9,1.2-1.7,1.5l-0.6-0.9c0.5-0.2,0.8-0.5,1-0.9s0.4-1,0.4-1.7
			H351.4z"/>
		<path d="M356.5,516.6c0-2.5,0.7-4.3,2.1-5.5c1.2-1,2.6-1.5,4.2-1.5c1.9,0,3.4,0.6,4.5,1.8c1.2,1.2,1.8,2.9,1.8,5
			c0,1.7-0.3,3.1-0.8,4.1s-1.3,1.8-2.3,2.3s-2.1,0.8-3.3,0.8c-1.9,0-3.4-0.6-4.6-1.8C357,520.6,356.5,518.9,356.5,516.6z
			 M358.8,516.6c0,1.7,0.4,3,1.1,3.9s1.7,1.3,2.8,1.3c1.1,0,2.1-0.4,2.8-1.3s1.1-2.2,1.1-4c0-1.7-0.4-2.9-1.1-3.8s-1.7-1.3-2.8-1.3
			c-1.1,0-2.1,0.4-2.8,1.3C359.2,513.6,358.8,514.8,358.8,516.6z"/>
		<path d="M371.7,523.3v-13.5h2.1v2c0.5-1,1-1.6,1.5-1.9c0.4-0.3,0.9-0.5,1.5-0.5c0.8,0,1.5,0.3,2.4,0.7l-0.8,2.1
			c-0.6-0.3-1.1-0.5-1.7-0.5c-0.5,0-1,0.2-1.4,0.5s-0.7,0.7-0.9,1.3c-0.3,0.8-0.4,1.7-0.4,2.7v7.1H371.7z"/>
		<path d="M380.4,507.3v-2.6h2.3v2.6H380.4z M380.4,523.3v-13.5h2.3v13.5H380.4z"/>
		<path d="M385.8,524.4l2.2,0.3c0.1,0.7,0.4,1.2,0.8,1.5c0.6,0.4,1.3,0.6,2.3,0.6c1.1,0,1.9-0.2,2.5-0.6c0.6-0.4,1-1,1.2-1.8
			c0.1-0.5,0.2-1.4,0.2-2.9c-1,1.2-2.2,1.8-3.7,1.8c-1.9,0-3.3-0.7-4.3-2s-1.5-2.9-1.5-4.8c0-1.3,0.2-2.5,0.7-3.6
			c0.5-1.1,1.1-1.9,2-2.5s1.9-0.9,3.1-0.9c1.6,0,2.9,0.6,3.9,1.9v-1.6h2.1v11.6c0,2.1-0.2,3.6-0.6,4.5s-1.1,1.6-2,2.1
			s-2.1,0.8-3.4,0.8c-1.6,0-2.9-0.4-3.9-1.1S385.7,525.9,385.8,524.4z M387.7,516.3c0,1.8,0.4,3.1,1,3.9s1.6,1.2,2.6,1.2
			s1.9-0.4,2.6-1.2s1.1-2.1,1.1-3.8s-0.4-2.9-1.1-3.7s-1.6-1.3-2.6-1.3s-1.9,0.4-2.6,1.2C388,513.5,387.7,514.7,387.7,516.3z"/>
		<path d="M400.7,507.3v-2.6h2.3v2.6H400.7z M400.7,523.3v-13.5h2.3v13.5H400.7z"/>
		<path d="M406.4,523.3v-13.5h2.1v1.9c1-1.5,2.4-2.2,4.3-2.2c0.8,0,1.6,0.1,2.2,0.4s1.2,0.7,1.5,1.1c0.3,0.5,0.6,1,0.7,1.7
			c0.1,0.4,0.1,1.2,0.1,2.2v8.3H415V515c0-0.9-0.1-1.6-0.3-2.1s-0.5-0.8-1-1.1c-0.5-0.3-1-0.4-1.6-0.4c-1,0-1.8,0.3-2.5,0.9
			s-1.1,1.8-1.1,3.5v7.4L406.4,523.3L406.4,523.3z"/>
		<path d="M430.1,519l2.4,0.3c-0.4,1.4-1.1,2.5-2.1,3.2s-2.3,1.1-3.9,1.1c-2,0-3.5-0.6-4.7-1.8s-1.7-2.9-1.7-5.1
			c0-2.3,0.6-4,1.8-5.3c1.2-1.3,2.7-1.9,4.5-1.9s3.3,0.6,4.4,1.8s1.7,3,1.7,5.2c0,0.1,0,0.3,0,0.6h-10c0.1,1.5,0.5,2.6,1.3,3.4
			s1.7,1.2,2.8,1.2c0.8,0,1.5-0.2,2.1-0.7C429.3,520.7,429.8,520,430.1,519z M422.6,515.3h7.5c-0.1-1.1-0.4-2-0.9-2.5
			c-0.7-0.9-1.7-1.3-2.8-1.3c-1,0-1.9,0.4-2.6,1C423.1,513.2,422.7,514.1,422.6,515.3z"/>
		<path d="M443.2,512.4v-2.6h2.6v2.6H443.2z M443.2,523.3v-2.6h2.6v2.6H443.2z"/>
	</g>
	<g>
		<path d="M125.8,560.3l7.2-18.6h2.6l7.6,18.6h-2.8l-2.2-5.6h-7.8l-2,5.6H125.8z M131.1,552.7h6.3l-1.9-5.2c-0.6-1.6-1-2.8-1.3-3.9
			c-0.2,1.2-0.6,2.4-1,3.5L131.1,552.7z"/>
		<path d="M153.6,560.3v-1.7c-0.9,1.3-2.1,2-3.8,2c-1.1,0-2.1-0.3-3-0.9c-0.9-0.6-1.6-1.4-2.1-2.5s-0.7-2.3-0.7-3.7
			c0-1.3,0.2-2.6,0.7-3.7c0.4-1.1,1.1-1.9,2-2.5s1.9-0.9,3-0.9c0.8,0,1.5,0.2,2.2,0.5s1.1,0.8,1.6,1.3v-6.7h2.3v18.6L153.6,560.3
			L153.6,560.3z M146.4,553.6c0,1.7,0.4,3,1.1,3.9c0.7,0.9,1.6,1.3,2.6,1.3s1.9-0.4,2.6-1.2c0.7-0.8,1.1-2.1,1.1-3.7
			c0-1.8-0.4-3.2-1.1-4.1s-1.6-1.3-2.6-1.3s-1.9,0.4-2.6,1.2C146.7,550.5,146.4,551.8,146.4,553.6z"/>
		<path d="M159.3,560.3v-13.5h2.1v2c0.5-1,1-1.6,1.4-1.9s0.9-0.5,1.5-0.5c0.8,0,1.6,0.3,2.4,0.7l-0.8,2.1c-0.6-0.3-1.1-0.5-1.7-0.5
			c-0.5,0-0.9,0.2-1.4,0.5c-0.4,0.3-0.7,0.7-0.9,1.3c-0.3,0.8-0.4,1.7-0.4,2.7v7.1L159.3,560.3L159.3,560.3z"/>
		<path d="M177.2,556l2.4,0.3c-0.4,1.4-1.1,2.5-2.1,3.2s-2.3,1.1-3.9,1.1c-2,0-3.5-0.6-4.7-1.8s-1.7-2.9-1.7-5.1
			c0-2.3,0.6-4,1.8-5.3s2.7-1.9,4.5-1.9s3.3,0.6,4.4,1.8c1.1,1.2,1.7,3,1.7,5.2c0,0.1,0,0.3,0,0.6h-10.1c0.1,1.5,0.5,2.6,1.3,3.4
			s1.7,1.2,2.8,1.2c0.8,0,1.6-0.2,2.1-0.7C176.4,557.6,176.9,556.9,177.2,556z M169.7,552.3h7.5c-0.1-1.1-0.4-2-0.9-2.5
			c-0.7-0.9-1.7-1.3-2.8-1.3s-1.9,0.3-2.6,1S169.8,551.1,169.7,552.3z"/>
		<path d="M181.5,556.3l2.3-0.4c0.1,0.9,0.5,1.6,1.1,2.1s1.4,0.7,2.4,0.7c1.1,0,1.8-0.2,2.3-0.6s0.8-0.9,0.8-1.5
			c0-0.5-0.2-0.9-0.7-1.2c-0.3-0.2-1.1-0.5-2.3-0.8c-1.7-0.4-2.8-0.8-3.5-1.1c-0.6-0.3-1.1-0.7-1.5-1.3s-0.5-1.2-0.5-1.8
			s0.1-1.2,0.4-1.7s0.6-0.9,1.1-1.3c0.4-0.3,0.8-0.5,1.4-0.7c0.6-0.2,1.3-0.3,2-0.3c1.1,0,2,0.2,2.8,0.5s1.4,0.7,1.8,1.2
			s0.6,1.2,0.8,2.1l-2.2,0.3c-0.1-0.7-0.4-1.2-0.9-1.6c-0.5-0.4-1.2-0.6-2.1-0.6c-1.1,0-1.8,0.2-2.3,0.5c-0.4,0.3-0.7,0.8-0.7,1.2
			c0,0.3,0.1,0.6,0.3,0.8c0.2,0.3,0.5,0.5,0.9,0.6c0.2,0.1,0.9,0.3,2,0.6c1.6,0.4,2.7,0.8,3.4,1.1s1.1,0.7,1.5,1.2s0.6,1.2,0.6,2
			s-0.2,1.5-0.7,2.2s-1.1,1.2-1.9,1.6s-1.8,0.5-2.8,0.5c-1.8,0-3.1-0.4-4-1.1C182.4,558.8,181.8,557.7,181.5,556.3z"/>
		<path d="M194.5,556.3l2.3-0.4c0.1,0.9,0.5,1.6,1.1,2.1s1.4,0.7,2.4,0.7c1.1,0,1.8-0.2,2.3-0.6s0.8-0.9,0.8-1.5
			c0-0.5-0.2-0.9-0.7-1.2c-0.3-0.2-1.1-0.5-2.3-0.8c-1.7-0.4-2.8-0.8-3.5-1.1c-0.6-0.3-1.1-0.7-1.5-1.3s-0.5-1.2-0.5-1.8
			s0.1-1.2,0.4-1.7s0.6-0.9,1.1-1.3c0.4-0.3,0.8-0.5,1.4-0.7c0.6-0.2,1.3-0.3,2-0.3c1.1,0,2,0.2,2.8,0.5s1.4,0.7,1.8,1.2
			s0.6,1.2,0.8,2.1l-2.2,0.3c-0.1-0.7-0.4-1.2-0.9-1.6c-0.5-0.4-1.2-0.6-2.1-0.6c-1.1,0-1.8,0.2-2.3,0.5c-0.4,0.3-0.7,0.8-0.7,1.2
			c0,0.3,0.1,0.6,0.3,0.8c0.2,0.3,0.5,0.5,0.9,0.6c0.2,0.1,0.9,0.3,2,0.6c1.6,0.4,2.7,0.8,3.4,1.1s1.1,0.7,1.5,1.2s0.6,1.2,0.6,2
			s-0.2,1.5-0.7,2.2s-1.1,1.2-1.9,1.6s-1.8,0.5-2.8,0.5c-1.8,0-3.1-0.4-4-1.1C195.4,558.8,194.8,557.7,194.5,556.3z"/>
		<path d="M217.7,556l2.4,0.3c-0.4,1.4-1.1,2.5-2.1,3.2s-2.3,1.1-3.9,1.1c-2,0-3.5-0.6-4.7-1.8s-1.7-2.9-1.7-5.1
			c0-2.3,0.6-4,1.8-5.3s2.7-1.9,4.5-1.9s3.3,0.6,4.4,1.8c1.1,1.2,1.7,3,1.7,5.2c0,0.1,0,0.3,0,0.6H210c0.1,1.5,0.5,2.6,1.3,3.4
			s1.7,1.2,2.8,1.2c0.8,0,1.6-0.2,2.1-0.7C216.9,557.6,217.3,556.9,217.7,556z M210.2,552.3h7.5c-0.1-1.1-0.4-2-0.9-2.5
			c-0.7-0.9-1.7-1.3-2.8-1.3s-1.9,0.3-2.6,1S210.2,551.1,210.2,552.3z"/>
		<path d="M230.8,549.4v-2.6h2.6v2.6H230.8z M230.8,560.3v-2.6h2.6v2.6H230.8z"/>
	</g>
	<g>
		<path d="M1177.8,753.9c-0.8,0-1.4-0.2-1.8-0.6s-0.7-0.9-0.7-1.6c0-0.4,0.1-0.8,0.3-1.2c0.2-0.3,0.5-0.6,0.8-0.8
			c0.4-0.2,0.8-0.3,1.2-0.3c0.5,0,0.9,0.1,1.3,0.3s0.7,0.5,0.8,0.8c0.2,0.3,0.3,0.7,0.3,1.1c0,0.4-0.1,0.8-0.3,1.2
			c-0.2,0.3-0.5,0.6-0.9,0.8C1178.6,753.8,1178.2,753.9,1177.8,753.9z M1177.8,753.3c0.6,0,1-0.2,1.3-0.5s0.5-0.7,0.5-1.1
			s-0.2-0.8-0.5-1.1s-0.8-0.5-1.4-0.5c-0.4,0-0.7,0.1-1,0.2s-0.5,0.3-0.7,0.6s-0.2,0.5-0.2,0.8c0,0.4,0.2,0.8,0.4,1.1
			C1176.6,753.1,1177.1,753.3,1177.8,753.3z"/>
		<path d="M1180,748.6h-2.9v0.5h-0.4v-0.5h-0.4c-0.2,0-0.4,0-0.5-0.1c-0.2,0-0.3-0.2-0.4-0.3s-0.1-0.3-0.1-0.6c0-0.2,0-0.3,0.1-0.5
			l0.5,0.1c0,0.1,0,0.2,0,0.3c0,0.2,0,0.3,0.1,0.4c0.1,0.1,0.2,0.1,0.4,0.1h0.3v-0.7h0.4v0.7h2.9V748.6L1180,748.6z"/>
		<path d="M1180,746.9h-2.9v0.5h-0.4v-0.5h-0.4c-0.2,0-0.4,0-0.5-0.1c-0.2,0-0.3-0.2-0.4-0.3s-0.1-0.3-0.1-0.6c0-0.2,0-0.3,0.1-0.5
			l0.5,0.1c0,0.1,0,0.2,0,0.3c0,0.2,0,0.3,0.1,0.4c0.1,0.1,0.2,0.1,0.4,0.1h0.3v-0.7h0.4v0.7h2.9V746.9L1180,746.9z"/>
		<path d="M1176.1,745.3h-0.7v-0.6h0.7V745.3z M1180,745.3h-3.3v-0.6h3.3V745.3z"/>
		<path d="M1178.8,741.7l0.1-0.6c0.4,0.1,0.7,0.2,0.9,0.5c0.2,0.3,0.3,0.6,0.3,0.9c0,0.5-0.2,0.8-0.4,1.1c-0.3,0.3-0.7,0.4-1.3,0.4
			c-0.4,0-0.7-0.1-0.9-0.2c-0.3-0.1-0.5-0.3-0.6-0.5c-0.1-0.3-0.2-0.5-0.2-0.8c0-0.4,0.1-0.7,0.3-0.9c0.2-0.2,0.4-0.4,0.8-0.4
			l0.1,0.5c-0.2,0-0.4,0.2-0.5,0.3s-0.2,0.3-0.2,0.5c0,0.3,0.1,0.5,0.3,0.7c0.2,0.2,0.5,0.3,1,0.3c0.4,0,0.8-0.1,1-0.3
			s0.3-0.4,0.3-0.7c0-0.2-0.1-0.4-0.2-0.6C1179.3,741.8,1179.1,741.7,1178.8,741.7z"/>
		<path d="M1178.9,738.3l0.1-0.6c0.3,0.1,0.6,0.3,0.8,0.5c0.2,0.3,0.3,0.6,0.3,1c0,0.5-0.2,0.9-0.4,1.2c-0.3,0.3-0.7,0.4-1.3,0.4
			c-0.6,0-1-0.1-1.3-0.4s-0.5-0.7-0.5-1.1c0-0.5,0.2-0.8,0.5-1.1s0.7-0.4,1.3-0.4c0,0,0.1,0,0.2,0v2.5c0.4,0,0.7-0.1,0.8-0.3
			c0.2-0.2,0.3-0.4,0.3-0.7c0-0.2-0.1-0.4-0.2-0.5C1179.4,738.5,1179.2,738.4,1178.9,738.3z M1178,740.2v-1.9
			c-0.3,0-0.5,0.1-0.6,0.2c-0.2,0.2-0.3,0.4-0.3,0.7s0.1,0.5,0.3,0.7C1177.5,740.1,1177.7,740.2,1178,740.2z"/>
		<path d="M1180,735.2h-4.6v-0.6l3.6-2.4h-3.6v-0.6h4.6v0.6l-3.6,2.4h3.6V735.2z"/>
		<path d="M1179.6,728.4c0.2,0.2,0.3,0.4,0.4,0.6c0.1,0.2,0.1,0.4,0.1,0.6c0,0.4-0.1,0.7-0.3,0.8c-0.2,0.2-0.4,0.3-0.7,0.3
			c-0.2,0-0.3,0-0.4-0.1s-0.2-0.2-0.3-0.3c-0.1-0.1-0.1-0.3-0.2-0.4c0-0.1-0.1-0.3-0.1-0.5c-0.1-0.5-0.1-0.8-0.2-1
			c-0.1,0-0.1,0-0.2,0c-0.2,0-0.4,0-0.5,0.2c-0.1,0.1-0.2,0.4-0.2,0.7s0.1,0.5,0.1,0.6s0.3,0.2,0.5,0.3l-0.1,0.5
			c-0.2,0-0.4-0.1-0.6-0.3c-0.2-0.1-0.3-0.3-0.3-0.5s-0.1-0.5-0.1-0.8s0-0.5,0.1-0.7s0.2-0.3,0.3-0.4s0.2-0.1,0.4-0.2
			c0.1,0,0.3,0,0.5,0h0.8c0.5,0,0.9,0,1,0s0.3-0.1,0.4-0.1v0.6C1179.9,728.3,1179.8,728.4,1179.6,728.4z M1178.3,728.5
			c0.1,0.2,0.2,0.5,0.2,0.9c0,0.2,0.1,0.4,0.1,0.5s0.1,0.2,0.2,0.2s0.2,0.1,0.3,0.1c0.2,0,0.3-0.1,0.4-0.2s0.2-0.3,0.2-0.5
			s-0.1-0.4-0.1-0.6c-0.1-0.2-0.2-0.3-0.4-0.4c-0.1-0.1-0.3-0.1-0.6-0.1L1178.3,728.5L1178.3,728.5z"/>
		<path d="M1179.5,725.8l0.5-0.1c0,0.2,0.1,0.3,0.1,0.4c0,0.2,0,0.4-0.1,0.5s-0.2,0.2-0.3,0.2s-0.3,0.1-0.7,0.1h-1.9v0.4h-0.4v-0.4
			h-0.8l-0.3-0.6h1.2v-0.6h0.4v0.6h2c0.2,0,0.3,0,0.3,0c0.1,0,0.1,0,0.1-0.1c0,0,0-0.1,0-0.2
			C1179.5,725.9,1179.5,725.9,1179.5,725.8z"/>
		<path d="M1176.1,725.2h-0.7v-0.6h0.7V725.2z M1180,725.2h-3.3v-0.6h3.3V725.2z"/>
		<path d="M1178.3,724c-0.6,0-1.1-0.2-1.4-0.5s-0.4-0.6-0.4-1c0-0.5,0.2-0.8,0.4-1.1c0.3-0.3,0.7-0.4,1.3-0.4c0.4,0,0.8,0.1,1,0.2
			s0.4,0.3,0.6,0.6c0.1,0.3,0.2,0.5,0.2,0.8c0,0.5-0.2,0.8-0.4,1.1C1179.3,723.8,1178.9,724,1178.3,724z M1178.3,723.4
			c0.4,0,0.8-0.1,1-0.3s0.3-0.4,0.3-0.7s-0.1-0.5-0.3-0.7c-0.2-0.2-0.5-0.3-1-0.3c-0.4,0-0.7,0.1-0.9,0.3s-0.3,0.4-0.3,0.7
			s0.1,0.5,0.3,0.7C1177.6,723.3,1177.9,723.4,1178.3,723.4z"/>
		<path d="M1180,720.2h-3.3v-0.5h0.5c-0.4-0.3-0.6-0.6-0.6-1.1c0-0.2,0-0.4,0.1-0.6s0.2-0.3,0.3-0.4s0.3-0.1,0.4-0.2
			c0.1,0,0.3,0,0.6,0h2.1v0.6h-2c-0.2,0-0.4,0-0.5,0.1c-0.1,0-0.2,0.1-0.3,0.2c-0.1,0.1-0.1,0.2-0.1,0.4s0.1,0.5,0.2,0.6
			s0.4,0.3,0.9,0.3h1.8L1180,720.2L1180,720.2z"/>
		<path d="M1179.6,714.4c0.2,0.2,0.3,0.4,0.4,0.6c0.1,0.2,0.1,0.4,0.1,0.6c0,0.4-0.1,0.7-0.3,0.8c-0.2,0.2-0.4,0.3-0.7,0.3
			c-0.2,0-0.3,0-0.4-0.1s-0.2-0.2-0.3-0.3c-0.1-0.1-0.1-0.3-0.2-0.4c0-0.1-0.1-0.3-0.1-0.5c-0.1-0.5-0.1-0.8-0.2-1
			c-0.1,0-0.1,0-0.2,0c-0.2,0-0.4,0-0.5,0.2c-0.1,0.1-0.2,0.4-0.2,0.7s0.1,0.5,0.1,0.6s0.3,0.2,0.5,0.3l-0.1,0.5
			c-0.2,0-0.4-0.1-0.6-0.3c-0.2-0.1-0.3-0.3-0.3-0.5s-0.1-0.5-0.1-0.8s0-0.5,0.1-0.7s0.2-0.3,0.3-0.4s0.2-0.1,0.4-0.2
			c0.1,0,0.3,0,0.5,0h0.8c0.5,0,0.9,0,1,0s0.3-0.1,0.4-0.1v0.6C1179.9,714.3,1179.8,714.4,1179.6,714.4z M1178.3,714.5
			c0.1,0.2,0.2,0.5,0.2,0.9c0,0.2,0.1,0.4,0.1,0.5s0.1,0.2,0.2,0.2s0.2,0.1,0.3,0.1c0.2,0,0.3-0.1,0.4-0.2s0.2-0.3,0.2-0.5
			s-0.1-0.4-0.1-0.6c-0.1-0.2-0.2-0.3-0.4-0.4c-0.1-0.1-0.3-0.1-0.6-0.1L1178.3,714.5L1178.3,714.5z"/>
		<path d="M1180,713h-4.6v-0.6h4.6V713z"/>
		<path d="M1180,707.6h-0.4c0.3,0.2,0.5,0.5,0.5,0.9c0,0.3-0.1,0.5-0.2,0.7c-0.2,0.2-0.3,0.4-0.6,0.5c-0.3,0.1-0.6,0.2-0.9,0.2
			s-0.6-0.1-0.9-0.2s-0.5-0.3-0.6-0.5s-0.2-0.5-0.2-0.8c0-0.2,0-0.4,0.1-0.5s0.2-0.3,0.3-0.4h-1.7v-0.6h4.6L1180,707.6L1180,707.6z
			 M1178.3,709.4c0.4,0,0.8-0.1,1-0.3s0.3-0.4,0.3-0.6s-0.1-0.5-0.3-0.6c-0.2-0.2-0.5-0.3-0.9-0.3c-0.5,0-0.8,0.1-1,0.3
			s-0.3,0.4-0.3,0.7s0.1,0.5,0.3,0.6C1177.6,709.3,1177.9,709.4,1178.3,709.4z"/>
		<path d="M1178.9,703.9l0.1-0.6c0.3,0.1,0.6,0.3,0.8,0.5c0.2,0.3,0.3,0.6,0.3,1c0,0.5-0.2,0.9-0.4,1.2c-0.3,0.3-0.7,0.4-1.3,0.4
			c-0.6,0-1-0.1-1.3-0.4s-0.5-0.7-0.5-1.1c0-0.5,0.2-0.8,0.5-1.1s0.7-0.4,1.3-0.4c0,0,0.1,0,0.2,0v2.5c0.4,0,0.7-0.1,0.8-0.3
			c0.2-0.2,0.3-0.4,0.3-0.7c0-0.2-0.1-0.4-0.2-0.5C1179.4,704.1,1179.2,704,1178.9,703.9z M1178,705.8v-1.9c-0.3,0-0.5,0.1-0.6,0.2
			c-0.2,0.2-0.3,0.4-0.3,0.7s0.1,0.5,0.3,0.7C1177.5,705.6,1177.7,705.7,1178,705.8z"/>
		<path d="M1180,700.8h-4.6v-0.6h4.6V700.8z"/>
		<path d="M1176,699.4h-0.7v-0.6h0.5c0.3,0,0.5,0,0.6,0.1c0.2,0.1,0.3,0.2,0.4,0.4l-0.2,0.1c-0.1-0.1-0.1-0.2-0.2-0.3
			s-0.2-0.1-0.4-0.1L1176,699.4L1176,699.4z"/>
		<path d="M1180,697.9h-4.6v-3.3h0.6v2.7h1.4v-2.6h0.5v2.6h1.6v-2.8h0.6L1180,697.9L1180,697.9z"/>
		<path d="M1179.5,692.4l0.5-0.1c0,0.2,0.1,0.3,0.1,0.4c0,0.2,0,0.4-0.1,0.5s-0.2,0.2-0.3,0.2s-0.3,0.1-0.7,0.1h-1.9v0.4h-0.4v-0.4
			h-0.8l-0.3-0.6h1.2v-0.6h0.4v0.6h2c0.2,0,0.3,0,0.3,0c0.1,0,0.1,0,0.1-0.1c0,0,0-0.1,0-0.2
			C1179.5,692.6,1179.5,692.5,1179.5,692.4z"/>
		<path d="M1179.6,689.7c0.2,0.2,0.3,0.4,0.4,0.6c0.1,0.2,0.1,0.4,0.1,0.6c0,0.4-0.1,0.7-0.3,0.8c-0.2,0.2-0.4,0.3-0.7,0.3
			c-0.2,0-0.3,0-0.4-0.1s-0.2-0.2-0.3-0.3c-0.1-0.1-0.1-0.3-0.2-0.4c0-0.1-0.1-0.3-0.1-0.5c-0.1-0.5-0.1-0.8-0.2-1
			c-0.1,0-0.1,0-0.2,0c-0.2,0-0.4,0-0.5,0.2c-0.1,0.1-0.2,0.4-0.2,0.7s0.1,0.5,0.1,0.6s0.3,0.2,0.5,0.3l-0.1,0.5
			c-0.2,0-0.4-0.1-0.6-0.3c-0.2-0.1-0.3-0.3-0.3-0.5s-0.1-0.5-0.1-0.8s0-0.5,0.1-0.7s0.2-0.3,0.3-0.4s0.2-0.1,0.4-0.2
			c0.1,0,0.3,0,0.5,0h0.8c0.5,0,0.9,0,1,0s0.3-0.1,0.4-0.1v0.6C1179.9,689.6,1179.8,689.6,1179.6,689.7z M1178.3,689.7
			c0.1,0.2,0.2,0.5,0.2,0.9c0,0.2,0.1,0.4,0.1,0.5s0.1,0.2,0.2,0.2s0.2,0.1,0.3,0.1c0.2,0,0.3-0.1,0.4-0.2s0.2-0.3,0.2-0.5
			s-0.1-0.4-0.1-0.6c-0.1-0.2-0.2-0.3-0.4-0.4c-0.1-0.1-0.3-0.1-0.6-0.1L1178.3,689.7L1178.3,689.7z"/>
		<path d="M1179.5,687l0.5-0.1c0,0.2,0.1,0.3,0.1,0.4c0,0.2,0,0.4-0.1,0.5s-0.2,0.2-0.3,0.2s-0.3,0.1-0.7,0.1h-1.9v0.4h-0.4v-0.4
			h-0.8l-0.3-0.6h1.2V687h0.4v0.6h2c0.2,0,0.3,0,0.3,0c0.1,0,0.1,0,0.1-0.1c0,0,0-0.1,0-0.2C1179.5,687.2,1179.5,687.1,1179.5,687z"
			/>
		<path d="M1178.4,681.3l0.2-0.6c0.5,0.1,0.9,0.4,1.2,0.7c0.3,0.3,0.4,0.7,0.4,1.2s-0.1,0.9-0.3,1.2c-0.2,0.3-0.5,0.5-0.9,0.7
			s-0.8,0.2-1.2,0.2c-0.5,0-0.9-0.1-1.3-0.3s-0.6-0.4-0.8-0.8s-0.3-0.7-0.3-1.1c0-0.5,0.1-0.8,0.3-1.2s0.6-0.5,1-0.7l0.1,0.6
			c-0.3,0.1-0.6,0.3-0.7,0.5c-0.2,0.2-0.2,0.5-0.2,0.8s0.1,0.7,0.3,0.9c0.2,0.2,0.4,0.4,0.7,0.5c0.3,0.1,0.6,0.1,0.9,0.1
			c0.4,0,0.7-0.1,1-0.2s0.5-0.3,0.7-0.5s0.2-0.5,0.2-0.8s-0.1-0.6-0.3-0.9S1178.8,681.4,1178.4,681.3z"/>
		<path d="M1176.1,680h-0.7v-0.6h0.7V680z M1180,680h-3.3v-0.6h3.3V680z"/>
		<path d="M1180,677.7l-3.3,1.3v-0.6l2-0.7c0.2-0.1,0.4-0.2,0.7-0.2c-0.2,0-0.4-0.1-0.6-0.2l-2-0.7V676l3.3,1.3L1180,677.7
			L1180,677.7z"/>
		<path d="M1176.1,675.3h-0.7v-0.6h0.7V675.3z M1180,675.3h-3.3v-0.6h3.3V675.3z"/>
		<path d="M1180,673.9h-4.6v-0.6h4.6V673.9z"/>
		<path d="M1178.9,668.4l0.1-0.6c0.3,0.1,0.6,0.3,0.8,0.5c0.2,0.3,0.3,0.6,0.3,1c0,0.5-0.2,0.9-0.4,1.2c-0.3,0.3-0.7,0.4-1.3,0.4
			c-0.6,0-1-0.1-1.3-0.4s-0.5-0.7-0.5-1.1c0-0.5,0.2-0.8,0.5-1.1s0.7-0.4,1.3-0.4c0,0,0.1,0,0.2,0v2.5c0.4,0,0.7-0.1,0.8-0.3
			c0.2-0.2,0.3-0.4,0.3-0.7c0-0.2-0.1-0.4-0.2-0.5C1179.4,668.6,1179.2,668.5,1178.9,668.4z M1178,670.3v-1.9
			c-0.3,0-0.5,0.1-0.6,0.2c-0.2,0.2-0.3,0.4-0.3,0.7s0.1,0.5,0.3,0.7C1177.5,670.2,1177.7,670.2,1178,670.3z"/>
		<path d="M1179.5,665.9l0.5-0.1c0,0.2,0.1,0.3,0.1,0.4c0,0.2,0,0.4-0.1,0.5s-0.2,0.2-0.3,0.2s-0.3,0.1-0.7,0.1h-1.9v0.4h-0.4V667
			h-0.8l-0.3-0.6h1.2v-0.6h0.4v0.6h2c0.2,0,0.3,0,0.3,0c0.1,0,0.1,0,0.1-0.1c0,0,0-0.1,0-0.2C1179.5,666,1179.5,666,1179.5,665.9z"
			/>
		<path d="M1180,661.3h-0.4c0.3,0.2,0.5,0.5,0.5,0.9c0,0.3-0.1,0.5-0.2,0.7c-0.2,0.2-0.3,0.4-0.6,0.5c-0.3,0.1-0.6,0.2-0.9,0.2
			s-0.6-0.1-0.9-0.2s-0.5-0.3-0.6-0.5s-0.2-0.5-0.2-0.8c0-0.2,0-0.4,0.1-0.5s0.2-0.3,0.3-0.4h-1.7v-0.6h4.6L1180,661.3L1180,661.3z
			 M1178.3,663.1c0.4,0,0.8-0.1,1-0.3s0.3-0.4,0.3-0.6s-0.1-0.5-0.3-0.6c-0.2-0.2-0.5-0.3-0.9-0.3c-0.5,0-0.8,0.1-1,0.3
			s-0.3,0.4-0.3,0.7s0.1,0.5,0.3,0.6C1177.6,663,1177.9,663.1,1178.3,663.1z"/>
		<path d="M1178.9,657.6l0.1-0.6c0.3,0.1,0.6,0.3,0.8,0.5c0.2,0.3,0.3,0.6,0.3,1c0,0.5-0.2,0.9-0.4,1.2c-0.3,0.3-0.7,0.4-1.3,0.4
			c-0.6,0-1-0.1-1.3-0.4s-0.5-0.7-0.5-1.1c0-0.5,0.2-0.8,0.5-1.1s0.7-0.4,1.3-0.4c0,0,0.1,0,0.2,0v2.5c0.4,0,0.7-0.1,0.8-0.3
			c0.2-0.2,0.3-0.4,0.3-0.7c0-0.2-0.1-0.4-0.2-0.5C1179.4,657.8,1179.2,657.7,1178.9,657.6z M1178,659.5v-1.9
			c-0.3,0-0.5,0.1-0.6,0.2c-0.2,0.2-0.3,0.4-0.3,0.7s0.1,0.5,0.3,0.7C1177.5,659.4,1177.7,659.5,1178,659.5z"/>
		<path d="M1180,654.6h-4.6V654h4.6V654.6z"/>
		<path d="M1176,653.2h-0.7v-0.6h0.5c0.3,0,0.5,0,0.6,0.1c0.2,0.1,0.3,0.2,0.4,0.4l-0.2,0.1c-0.1-0.1-0.1-0.2-0.2-0.3
			s-0.2-0.1-0.4-0.1L1176,653.2L1176,653.2z"/>
		<path d="M1180,651.5h-4.6v-0.6h4.6V651.5z"/>
		<path d="M1180,647.7h-0.4c0.3,0.2,0.5,0.5,0.5,0.9c0,0.3-0.1,0.5-0.2,0.7c-0.2,0.2-0.3,0.4-0.6,0.5c-0.3,0.1-0.6,0.2-0.9,0.2
			s-0.6-0.1-0.9-0.2s-0.5-0.3-0.6-0.5s-0.2-0.5-0.2-0.8c0-0.2,0-0.4,0.1-0.5s0.2-0.3,0.3-0.4h-1.7V647h4.6L1180,647.7L1180,647.7z
			 M1178.3,649.5c0.4,0,0.8-0.1,1-0.3s0.3-0.4,0.3-0.6s-0.1-0.5-0.3-0.6c-0.2-0.2-0.5-0.3-0.9-0.3c-0.5,0-0.8,0.1-1,0.3
			s-0.3,0.4-0.3,0.7s0.1,0.5,0.3,0.6C1177.6,649.4,1177.9,649.5,1178.3,649.5z"/>
		<path d="M1178.9,644l0.1-0.6c0.3,0.1,0.6,0.3,0.8,0.5c0.2,0.3,0.3,0.6,0.3,1c0,0.5-0.2,0.9-0.4,1.2c-0.3,0.3-0.7,0.4-1.3,0.4
			c-0.6,0-1-0.1-1.3-0.4s-0.5-0.7-0.5-1.1c0-0.5,0.2-0.8,0.5-1.1s0.7-0.4,1.3-0.4c0,0,0.1,0,0.2,0v2.5c0.4,0,0.7-0.1,0.8-0.3
			c0.2-0.2,0.3-0.4,0.3-0.7c0-0.2-0.1-0.4-0.2-0.5C1179.4,644.2,1179.2,644.1,1178.9,644z M1178,645.9V644c-0.3,0-0.5,0.1-0.6,0.2
			c-0.2,0.2-0.3,0.4-0.3,0.7s0.1,0.5,0.3,0.7C1177.5,645.8,1177.7,645.8,1178,645.9z"/>
		<path d="M1180,642.7h-3.3v-0.5h0.5c-0.4-0.3-0.6-0.6-0.6-1.1c0-0.2,0-0.4,0.1-0.6s0.2-0.3,0.3-0.4s0.3-0.1,0.4-0.2
			c0.1,0,0.3,0,0.6,0h2.1v0.6h-2c-0.2,0-0.4,0-0.5,0.1c-0.1,0-0.2,0.1-0.3,0.2c-0.1,0.1-0.1,0.2-0.1,0.4s0.1,0.5,0.2,0.6
			s0.4,0.3,0.9,0.3h1.8L1180,642.7L1180,642.7z"/>
		<path d="M1179.5,637.9l0.5-0.1c0,0.2,0.1,0.3,0.1,0.4c0,0.2,0,0.4-0.1,0.5s-0.2,0.2-0.3,0.2s-0.3,0.1-0.7,0.1h-1.9v0.4h-0.4V639
			h-0.8l-0.3-0.6h1.2v-0.6h0.4v0.6h2c0.2,0,0.3,0,0.3,0c0.1,0,0.1,0,0.1-0.1c0,0,0-0.1,0-0.2C1179.5,638.1,1179.5,638,1179.5,637.9z
			"/>
		<path d="M1176.1,637.3h-0.7v-0.6h0.7V637.3z M1180,637.3h-3.3v-0.6h3.3V637.3z"/>
		<path d="M1180,635.8h-2.9v0.5h-0.4v-0.5h-0.4c-0.2,0-0.4,0-0.5-0.1c-0.2,0-0.3-0.2-0.4-0.3s-0.1-0.3-0.1-0.6c0-0.2,0-0.3,0.1-0.5
			l0.5,0.1c0,0.1,0,0.2,0,0.3c0,0.2,0,0.3,0.1,0.4c0.1,0.1,0.2,0.1,0.4,0.1h0.3v-0.7h0.4v0.7h2.9V635.8L1180,635.8z"/>
		<path d="M1176.1,634.1h-0.7v-0.6h0.7V634.1z M1180,634.1h-3.3v-0.6h3.3V634.1z"/>
		<path d="M1178.8,630.5l0.1-0.6c0.4,0.1,0.7,0.2,0.9,0.5c0.2,0.3,0.3,0.6,0.3,0.9c0,0.5-0.2,0.8-0.4,1.1c-0.3,0.3-0.7,0.4-1.3,0.4
			c-0.4,0-0.7-0.1-0.9-0.2c-0.3-0.1-0.5-0.3-0.6-0.5c-0.1-0.3-0.2-0.5-0.2-0.8c0-0.4,0.1-0.7,0.3-0.9c0.2-0.2,0.4-0.4,0.8-0.4
			l0.1,0.5c-0.2,0-0.4,0.2-0.5,0.3s-0.2,0.3-0.2,0.5c0,0.3,0.1,0.5,0.3,0.7c0.2,0.2,0.5,0.3,1,0.3c0.4,0,0.8-0.1,1-0.3
			s0.3-0.4,0.3-0.7c0-0.2-0.1-0.4-0.2-0.6S1179.1,630.5,1178.8,630.5z"/>
		<path d="M1179.6,627.3c0.2,0.2,0.3,0.4,0.4,0.6c0.1,0.2,0.1,0.4,0.1,0.6c0,0.4-0.1,0.7-0.3,0.8c-0.2,0.2-0.4,0.3-0.7,0.3
			c-0.2,0-0.3,0-0.4-0.1s-0.2-0.2-0.3-0.3c-0.1-0.1-0.1-0.3-0.2-0.4c0-0.1-0.1-0.3-0.1-0.5c-0.1-0.5-0.1-0.8-0.2-1
			c-0.1,0-0.1,0-0.2,0c-0.2,0-0.4,0-0.5,0.2c-0.1,0.1-0.2,0.4-0.2,0.7s0.1,0.5,0.1,0.6s0.3,0.2,0.5,0.3l-0.1,0.5
			c-0.2,0-0.4-0.1-0.6-0.3c-0.2-0.1-0.3-0.3-0.3-0.5s-0.1-0.5-0.1-0.8s0-0.5,0.1-0.7s0.2-0.3,0.3-0.4s0.2-0.1,0.4-0.2
			c0.1,0,0.3,0,0.5,0h0.8c0.5,0,0.9,0,1,0s0.3-0.1,0.4-0.1v0.6C1179.9,627.2,1179.8,627.2,1179.6,627.3z M1178.3,627.3
			c0.1,0.2,0.2,0.5,0.2,0.9c0,0.2,0.1,0.4,0.1,0.5s0.1,0.2,0.2,0.2s0.2,0.1,0.3,0.1c0.2,0,0.3-0.1,0.4-0.2s0.2-0.3,0.2-0.5
			s-0.1-0.4-0.1-0.6c-0.1-0.2-0.2-0.3-0.4-0.4c-0.1-0.1-0.3-0.1-0.6-0.1L1178.3,627.3L1178.3,627.3z"/>
		<path d="M1179.5,624.6l0.5-0.1c0,0.2,0.1,0.3,0.1,0.4c0,0.2,0,0.4-0.1,0.5s-0.2,0.2-0.3,0.2s-0.3,0.1-0.7,0.1h-1.9v0.4h-0.4v-0.4
			h-0.8l-0.3-0.6h1.2v-0.6h0.4v0.6h2c0.2,0,0.3,0,0.3,0c0.1,0,0.1,0,0.1-0.1c0,0,0-0.1,0-0.2
			C1179.5,624.8,1179.5,624.7,1179.5,624.6z"/>
		<path d="M1176.1,624.1h-0.7v-0.6h0.7V624.1z M1180,624.1h-3.3v-0.6h3.3V624.1z"/>
		<path d="M1178.3,622.8c-0.6,0-1.1-0.2-1.4-0.5s-0.4-0.6-0.4-1c0-0.5,0.2-0.8,0.4-1.1c0.3-0.3,0.7-0.4,1.3-0.4c0.4,0,0.8,0.1,1,0.2
			s0.4,0.3,0.6,0.6c0.1,0.3,0.2,0.5,0.2,0.8c0,0.5-0.2,0.8-0.4,1.1C1179.3,622.7,1178.9,622.8,1178.3,622.8z M1178.3,622.3
			c0.4,0,0.8-0.1,1-0.3s0.3-0.4,0.3-0.7s-0.1-0.5-0.3-0.7c-0.2-0.2-0.5-0.3-1-0.3c-0.4,0-0.7,0.1-0.9,0.3s-0.3,0.4-0.3,0.7
			s0.1,0.5,0.3,0.7C1177.6,622.2,1177.9,622.3,1178.3,622.3z"/>
		<path d="M1180,619h-3.3v-0.5h0.5c-0.4-0.3-0.6-0.6-0.6-1.1c0-0.2,0-0.4,0.1-0.6s0.2-0.3,0.3-0.4s0.3-0.1,0.4-0.2
			c0.1,0,0.3,0,0.6,0h2.1v0.6h-2c-0.2,0-0.4,0-0.5,0.1c-0.1,0-0.2,0.1-0.3,0.2c-0.1,0.1-0.1,0.2-0.1,0.4s0.1,0.5,0.2,0.6
			s0.4,0.3,0.9,0.3h1.8L1180,619L1180,619z"/>
	</g>
	<g>
		<g class="st1">
			<rect x="951.2" y="270.8" width="14.8" height="2.1"/>
			<rect x="951.2" y="270.7" width="2.1" height="14.8"/>
		</g>
		<g class="st1">
			<rect x="1073.7" y="270.7" width="14.8" height="2.1"/>
			<rect x="1086.4" y="270.7" width="2.1" height="14.8"/>
		</g>
		<g class="st1">
			<rect x="1073.7" y="441.9" width="14.8" height="2.1"/>
			<rect x="1086.4" y="429.2" width="2.1" height="14.8"/>
		</g>
		<g class="st1">
			<rect x="951.2" y="441.9" width="14.8" height="2.1"/>
			<rect x="951.2" y="429.2" width="2.1" height="14.8"/>
		</g>
	</g>
	<rect x="988.6" y="339.3" class="st2" width="65.9" height="35.4"/>
	<text transform="matrix(1 0 0 1 1008.9863 346.3833)" class="st3 st4">Photo</text>
	<text transform="matrix(1 0 0 1 1001.4363 358.3833)" class="st3 st4">dIdentit </text>
	<text transform="matrix(1 0 0 1 1000.9763 370.3833)" class="st3 st4"> coller ici</text>
</g>
</svg>
